<svg width="131" height="35" viewBox="0 0 131 35" fill="none" xmlns="http://www.w3.org/2000/svg">
<g clip-path="url(#clip0_252_586)">
<path d="M11.3887 14.8683V0.250619C11.6005 0.241255 11.8066 0.223697 12.0114 0.223697C13.6502 0.221356 15.2877 0.223697 16.9265 0.223697C20.7647 0.223697 23.8936 3.12196 24.2307 6.93441C24.631 11.4574 20.8935 14.8964 16.8727 14.8718C15.2737 14.8625 13.6736 14.8695 12.0746 14.8695C11.8651 14.8695 11.6544 14.8695 11.3887 14.8695V14.8683ZM15.2234 11.6517C16.9827 11.7851 18.5723 11.544 19.6363 10.0387C20.6114 8.65978 20.5879 6.34562 19.6492 5.06622C18.543 3.55857 16.978 3.27647 15.2222 3.48131V11.6517H15.2234Z" fill="black"/>
<path d="M10.7523 11.6817V14.8176H2.48828V0.266602H6.23635C6.23635 0.497198 6.23635 0.7395 6.23635 0.980631C6.23635 4.31316 6.24806 7.64569 6.22348 10.9782C6.21879 11.5389 6.3733 11.7133 6.93867 11.6946C8.18413 11.6536 9.43076 11.6817 10.7523 11.6817Z" fill="black"/>
<path d="M1.35042 14.8406H-2.39062V0.268555H1.35042V14.8406Z" fill="black"/>
<path d="M53.0433 7.97626C53.0047 9.64311 52.5049 11.6693 51.1084 13.3912C49.1817 15.7639 45.9147 15.6421 44.1542 13.1266C43.1288 11.6623 42.6126 10.0212 42.4687 8.23144C42.2872 5.97113 42.8081 3.91917 44.0723 2.0545C44.8905 0.84767 46.0283 0.0950122 47.4973 0.00839223C49.1244 -0.0887626 50.3897 0.663895 51.3378 1.94095C52.5505 3.57737 53.0468 5.44906 53.0433 7.97626ZM43.3126 7.15454C43.3173 9.04848 43.6638 10.5327 44.3825 11.914C45.052 13.2004 46.0177 14.1708 47.5617 14.2468C49.218 14.3276 50.2902 13.3783 51.037 12.0205C52.0203 10.2319 52.3808 8.30401 52.0905 6.28366C51.8868 4.86848 51.4619 3.51299 50.5653 2.36469C48.9698 0.318586 46.5199 0.30688 44.9373 2.35416C43.7762 3.85713 43.3875 5.62699 43.3114 7.15571L43.3126 7.15454Z" fill="black"/>
<path d="M122.106 26.9873V18.3955H122.86V34.3511H122.105V32.9945C121.403 33.4381 120.749 34.0082 119.987 34.3032C117.38 35.3122 114.531 33.4533 114.227 30.6639C114.047 29.0111 114.353 27.5679 115.562 26.3365C116.997 24.8756 120.128 24.8546 121.512 26.3809C121.666 26.5518 121.834 26.711 122.105 26.9873H122.106ZM122.271 29.8282C122.216 29.8106 122.161 29.7931 122.105 29.7755C122.105 29.6584 122.108 29.5414 122.105 29.4255C122.079 28.0642 121.466 27.0154 120.276 26.4008C119.064 25.7746 117.81 25.7687 116.639 26.5776C114.821 27.8336 114.465 30.7751 115.87 32.4958C117.416 34.3886 120.452 34.2224 121.55 32.0581C121.899 31.3698 122.036 30.575 122.27 29.8282H122.271Z" fill="black"/>
<path d="M76.5524 19.251C78.6289 24.3885 80.6364 29.3527 82.6439 34.3217C82.02 34.5101 81.6981 34.3463 81.4792 33.7306C81.0227 32.45 80.4608 31.2069 79.9587 29.9415C79.8346 29.6266 79.6637 29.4967 79.3125 29.5002C77.4596 29.5166 75.6066 29.5166 73.7548 29.5002C73.3955 29.4967 73.2409 29.6465 73.118 29.9567C72.6159 31.2221 72.0517 32.464 71.5952 33.7446C71.3739 34.365 71.0474 34.5101 70.4375 34.3205C72.4532 29.3527 74.4665 24.3896 76.5501 19.2521L76.5524 19.251ZM76.6297 21.7056C76.5793 21.7021 76.529 21.6997 76.4775 21.6962C75.5399 24.0034 74.6023 26.3105 73.6401 28.6773H79.4448C78.485 26.3 77.5567 24.0022 76.6285 21.7056H76.6297Z" fill="black"/>
<path d="M32.978 14.0256H39.876V14.831H31.0068C31.8578 13.8945 32.6585 13.0365 33.4322 12.154C35.0709 10.2858 36.746 8.44451 38.3063 6.51195C39.1152 5.50879 39.4043 4.29729 38.8764 2.99799C38.3075 1.59685 36.7952 0.68968 35.2161 0.852385C33.6909 1.00924 32.4735 2.10838 32.1926 3.58443C32.1493 3.81151 32.1107 4.04094 32.065 4.29611H31.2679C31.2796 2.9418 31.667 1.82862 32.772 0.984656C34.941 -0.671659 38.0582 -0.150768 39.4417 2.1353C40.3712 3.67222 40.2319 5.61531 38.9419 7.18735C37.4893 8.95721 35.9477 10.6545 34.4412 12.381C33.9964 12.8914 33.5422 13.3947 32.9804 14.0268L32.978 14.0256Z" fill="black"/>
<path d="M57.2351 14.0386H64.1366V14.831H55.2744C56.1441 13.8747 56.9623 12.9991 57.7536 12.099C59.3701 10.2601 61.0264 8.45275 62.5575 6.54477C63.4682 5.40934 63.7444 4.05737 63.0011 2.66794C62.2953 1.34874 60.7631 0.635881 59.2437 0.901593C57.6974 1.17199 56.6603 2.2524 56.4309 3.83146C56.411 3.9649 56.3888 4.09834 56.3595 4.27977H55.5202C55.5635 2.95823 55.9276 1.82983 57.0349 0.988213C59.3104 -0.743016 62.6629 -0.0804901 63.8369 2.39169C64.5509 3.89467 64.4854 5.41403 63.5045 6.76483C62.6383 7.95644 61.6468 9.06026 60.68 10.1758C59.5902 11.4329 58.4676 12.6597 57.2362 14.0362L57.2351 14.0386Z" fill="black"/>
<path d="M92.923 34.8179C91.8402 32.1725 90.8137 29.664 89.7415 27.0431C88.6657 29.6851 87.6427 32.1994 86.5751 34.8237C85.215 31.634 83.904 28.5613 82.5918 25.4863C83.3281 25.3037 83.3503 25.3049 83.6312 25.9534C84.5501 28.0744 85.4608 30.2001 86.375 32.3235C86.4206 32.4288 86.478 32.5295 86.6103 32.7917C87.679 30.1521 88.6997 27.6331 89.7789 24.9678C90.8593 27.6179 91.8929 30.1521 92.9815 32.8209C93.4368 31.7511 93.8419 30.8017 94.2434 29.8513C94.7865 28.5637 95.3565 27.2866 95.8552 25.9826C96.0554 25.4594 96.3316 25.2803 96.9473 25.4535C95.6246 28.5309 94.3066 31.5989 92.9218 34.8202L92.923 34.8179Z" fill="black"/>
<path d="M106.468 34.3578H105.733V32.9871C105.028 33.4319 104.376 33.9973 103.618 34.2935C101.011 35.313 98.1537 33.4752 97.8447 30.6882C97.6597 29.0178 97.9641 27.5535 99.2002 26.3162C100.624 24.8905 103.675 24.8683 105.062 26.3139C105.245 26.5047 105.453 26.6697 105.699 26.891V25.4383H106.466V34.3567L106.468 34.3578ZM105.72 29.8653C105.72 29.6523 105.724 29.5153 105.72 29.3795C105.685 28.0393 105.066 27.008 103.902 26.4028C102.719 25.7871 101.475 25.7579 100.315 26.541C98.7823 27.5757 98.1888 29.7073 98.9075 31.4736C100.042 34.2642 103.263 34.3906 104.703 32.7355C105.433 31.8962 105.803 30.9153 105.721 29.8653H105.72Z" fill="black"/>
<path d="M17.8371 29.95C17.6591 31.5139 18.5628 33.0063 20.0154 33.5424C21.5594 34.1136 23.2379 33.8702 24.6157 31.7866C24.8264 31.9036 25.0406 32.0207 25.2887 32.1588C24.5302 33.4991 23.4627 34.3243 21.9363 34.5175C20.2297 34.734 18.7922 34.2155 17.8195 32.7991C16.745 31.2353 16.6068 29.5157 17.3888 27.7611C18.5172 25.2281 21.2843 24.6603 23.3234 25.7056C24.6297 26.3752 25.2513 27.5703 25.5076 28.9726C25.5615 29.2699 25.5814 29.5743 25.6258 29.9488H17.8359L17.8371 29.95ZM24.673 29.1365C24.6754 27.7236 23.3726 25.9889 21.3159 25.9737C19.2019 25.9573 17.7469 27.7997 17.8324 29.1365H24.6742H24.673Z" fill="black"/>
<path d="M62.6151 31.805C62.8165 31.9057 63.0201 32.0087 63.2191 32.1082C62.9663 33.1815 61.3509 34.386 60.0271 34.5136C57.7316 34.7348 55.9161 33.6907 55.2571 31.7547C54.4412 29.3562 55.1459 26.9671 57.123 25.8013C59.2065 24.5722 62.3728 25.1598 63.3233 28.2266C63.486 28.7534 63.5317 29.3164 63.6452 29.9415H55.9056C55.538 31.1331 56.3668 32.7239 57.6883 33.3876C59.21 34.1519 61.1402 34.0173 62.614 31.805H62.6151ZM62.6947 29.1338C62.5601 27.3335 61.0454 25.9101 59.1901 25.9745C57.3699 26.0377 55.7546 27.6098 55.84 29.1338H62.6936H62.6947Z" fill="black"/>
<path d="M-0.333984 18.377H0.378876V26.8727C0.724186 26.4619 0.922007 26.1271 1.20762 25.9035C2.31612 25.0362 3.55572 25.0373 4.78947 25.5477C5.53745 25.8579 5.78911 26.6047 5.95182 27.3398C6.03844 27.7354 6.07941 28.1486 6.08175 28.5536C6.09579 30.2696 6.0876 31.9868 6.0876 33.7028C6.0876 33.9124 6.0876 34.1219 6.0876 34.349H5.29514C5.29514 33.951 5.29866 33.5858 5.29514 33.2194C5.27876 31.4847 5.27759 29.7499 5.23662 28.0164C5.21204 26.9828 4.6572 26.2324 3.87762 26.0651C2.57949 25.7865 1.50259 26.1973 0.993408 27.1396C0.473688 28.1006 0.43272 29.1529 0.40931 30.1994C0.377705 31.5619 0.401115 32.9268 0.401115 34.3349H-0.332813V18.377H-0.333984Z" fill="black"/>
<path d="M41.0287 25.4246H41.8972C41.8972 27.2823 41.8926 29.1095 41.9007 30.9378C41.9019 31.2855 41.9417 31.6343 41.9862 31.9808C42.1828 33.5165 43.5196 33.9567 44.6351 33.7729C46.0644 33.5376 46.618 32.744 46.6297 30.9835C46.6414 29.3459 46.6309 27.7083 46.6297 26.0719C46.6297 25.8624 46.6297 25.6529 46.6297 25.4199H47.4152C47.4152 25.6049 47.4152 25.791 47.4152 25.9783C47.4152 27.8886 47.4187 29.7989 47.4152 31.7092C47.4116 33.2508 46.3933 34.3558 44.8575 34.5162C43.6694 34.6403 42.5914 34.4682 41.7216 33.5411C41.2183 33.0039 41.0556 32.3402 41.0427 31.6694C41.0018 29.6069 41.0275 27.5433 41.0275 25.4258L41.0287 25.4246Z" fill="black"/>
<path d="M34.702 32.4151C34.9665 33.1876 34.6037 33.6125 33.9833 33.9298C32.2134 34.8322 30.4611 34.8779 28.8247 33.6863C27.1567 32.4724 26.6416 30.74 27.0747 28.7817C27.4844 26.9323 28.6877 25.7137 30.5524 25.331C31.7183 25.0922 32.8947 25.2022 34.002 25.8132C34.6353 26.162 34.7886 26.5916 34.6165 27.2823C33.6344 26.4231 32.554 25.86 31.2313 25.9911C30.2211 26.0906 29.3596 26.5191 28.71 27.2998C27.3814 28.8964 27.4797 31.2082 28.8973 32.6773C30.1088 33.9333 32.3445 34.5057 34.7008 32.4151H34.702Z" fill="black"/>
<path d="M125.052 32.2113C125.315 32.1364 125.55 32.0685 125.705 32.0252C126.077 32.5028 126.364 32.9698 126.747 33.3397C127.401 33.9718 128.501 33.9601 129.332 33.3818C130.004 32.9148 130.37 31.9269 130.045 31.2245C129.894 30.8968 129.612 30.5573 129.301 30.3888C128.569 29.9943 127.767 29.7309 127.024 29.3552C126.007 28.8413 125.57 27.9646 125.793 27.0305C126.014 26.1058 126.753 25.387 127.601 25.2723C128.902 25.0956 129.849 25.5345 130.429 26.6231C130.231 26.7261 130.034 26.8303 129.965 26.8654C129.411 26.5517 128.98 26.224 128.494 26.0543C127.814 25.8155 126.902 26.3024 126.666 26.9322C126.406 27.6251 126.683 28.2701 127.468 28.6493C128.131 28.9701 128.835 29.21 129.502 29.5272C130.683 30.0891 131.169 31.0665 130.949 32.3506C130.763 33.4345 129.74 34.3604 128.625 34.5184C126.631 34.8017 125.259 33.5001 125.052 32.2113Z" fill="black"/>
<path d="M69.6973 1.08504C69.7932 0.371013 70.135 0.162656 70.7449 0.210648C71.4016 0.262152 72.0653 0.222354 72.7758 0.222354V14.8202H71.8885V1.08504H69.6973Z" fill="black"/>
<path d="M16.3166 25.3714V26.1815H14.7598V34.339H13.8772V26.2259C13.5425 26.2049 13.2592 26.1873 12.9326 26.1662V25.4288C13.1855 25.4101 13.4687 25.389 13.8491 25.3609V22.252H14.7329V25.3703H16.3166V25.3714Z" fill="black"/>
<path d="M37.1236 22.2561H38.0249V25.3685H39.5946V26.182H38.046V34.3372H37.1622V26.2242C36.8309 26.2031 36.55 26.1844 36.2246 26.1633V25.4224C36.4833 25.406 36.7654 25.3872 37.1236 25.365V22.2549V22.2561Z" fill="black"/>
<path d="M110.358 34.3525H109.62V25.4365H110.355V26.4408C110.39 26.483 110.424 26.5251 110.459 26.5661C111.084 25.3218 112.047 25.0116 113.293 25.3815C113.147 25.9035 112.963 26.133 112.347 25.9995C111.725 25.8649 111.149 26.2254 110.883 26.8271C110.676 27.2965 110.514 27.8244 110.493 28.3324C110.42 30.1573 110.414 31.9845 110.381 33.8105C110.377 33.9814 110.366 34.1523 110.358 34.3513V34.3525Z" fill="black"/>
<path d="M51.2363 34.3615H50.4883V25.4361H51.2C51.2222 25.758 51.2456 26.0928 51.2725 26.4685C52.4009 25.2067 53.0564 24.9726 54.1369 25.4209C53.994 25.9067 53.7892 26.1619 53.1794 25.9898C52.6093 25.8283 51.8531 26.2871 51.6775 26.9426C51.4399 27.831 51.2948 28.7616 51.2538 29.6805C51.1871 31.2162 51.2351 32.7567 51.2351 34.3615H51.2363Z" fill="black"/>
<path d="M10.2779 34.3681H9.53223V25.4229H10.2779V34.3681Z" fill="black"/>
<path d="M10.2007 21.6333C10.4559 21.6626 10.6806 21.9728 10.7075 22.3871C10.7344 22.8167 10.2697 23.1901 9.84834 23.1468C9.39885 23.1012 9.12612 22.7652 9.16123 22.3029C9.19518 21.8464 9.51473 21.5818 10.2018 21.6333H10.2007Z" fill="black"/>
</g>
<defs>
<clipPath id="clip0_252_586">
<rect width="160" height="34.8236" fill="white" transform="translate(-29)"/>
</clipPath>
</defs>
</svg>
