<svg width="100" height="40" viewBox="0 0 100 40" fill="none" xmlns="http://www.w3.org/2000/svg">
<g clip-path="url(#clip0_252_626)">
<path d="M7.8781 3.18527C6.31278 7.79966 4.80899 12.2295 3.27658 16.7494H9.76678V18.9443H0C0.50508 17.5121 0.982973 16.1499 1.46802 14.7878C3.10059 10.2092 4.7446 5.63626 6.35713 1.05049C6.55029 0.50105 6.78638 0.264965 7.40879 0.277842C9.35184 0.316474 9.34469 0.290719 9.98426 2.1236C11.8458 7.45483 13.7144 12.7818 15.5788 18.1116C15.6646 18.3548 15.7405 18.6009 15.8664 18.9815C15.0207 18.9815 14.2467 19.0144 13.4812 18.9543C13.3267 18.9429 13.1478 18.5938 13.0705 18.3691C11.4351 13.5902 9.81256 8.80696 8.18572 4.02516C8.11275 3.80911 8.02976 3.59734 7.87666 3.18527H7.8781Z" fill="black"/>
<path d="M39.7775 7.68684C40.5887 6.61516 41.4715 5.87113 42.6191 5.77383C43.6879 5.68226 44.8211 5.69514 45.8513 5.95698C47.2821 6.32184 47.9632 7.518 48.2236 8.91162C48.3538 9.60986 48.4067 10.331 48.4125 11.0435C48.4353 13.4273 48.4225 15.8125 48.4196 18.1962C48.4196 18.4294 48.3996 18.6627 48.3838 18.9903C47.7328 18.9903 47.1219 18.996 46.5109 18.9889C46.0087 18.9832 46.1246 18.5968 46.1246 18.3107C46.1174 16.1644 46.1246 14.0197 46.1189 11.8734C46.1189 11.397 46.1131 10.9176 46.0688 10.444C45.9557 9.24357 45.6023 8.18906 44.2988 7.77269C42.971 7.34917 41.5016 7.74407 40.6445 8.75566C39.962 9.56121 39.7302 10.5199 39.7288 11.5486C39.7245 13.7893 39.7102 16.0314 39.7388 18.272C39.746 18.8286 39.5972 19.0146 39.0191 19.0075C37.4538 18.9889 37.4538 19.0146 37.4538 17.4865C37.4538 12.0508 37.4638 6.61373 37.4395 1.17804C37.4366 0.519864 37.5683 0.2523 38.2908 0.278055C39.7259 0.328134 39.7274 0.288071 39.7274 1.72175C39.7274 3.41441 39.7259 5.10707 39.7288 6.79973C39.7288 7.02437 39.7531 7.24901 39.7775 7.68541V7.68684Z" fill="black"/>
<path d="M91.1515 12.9361H81.5336C81.1759 14.4041 82.3878 16.2585 83.3793 16.8065C85.3052 17.8696 87.201 17.3974 89.476 15.161C89.9782 15.523 90.4905 15.8908 91.0499 16.2943C89.7536 18.1901 88.0109 19.1745 85.8146 19.3004C82.1173 19.5136 79.6148 17.4675 79.2056 13.7803C79.0697 12.5527 79.1283 11.2306 79.4403 10.0416C80.3503 6.5561 83.9259 4.74039 87.3284 5.9294C89.6821 6.75212 90.655 8.64223 91.0156 10.9444C91.1143 11.5711 91.1072 12.2164 91.1544 12.939L91.1515 12.9361ZM81.5607 11.0961H88.6533C88.7892 9.15733 87.347 7.52619 85.4812 7.46038C83.3221 7.38454 81.5822 8.96703 81.5622 11.0961H81.5607Z" fill="black"/>
<path d="M14.7433 39.4178C14.2711 39.4178 13.8991 39.4836 13.5671 39.3963C13.301 39.3262 12.9605 39.1216 12.866 38.8898C12.3166 37.5448 11.8115 36.1813 11.3322 34.8091C11.172 34.3484 10.9359 34.1896 10.4494 34.1953C8.39902 34.221 6.34866 34.221 4.29829 34.1953C3.80466 34.1896 3.58002 34.3613 3.42692 34.8191C3.03488 35.9938 2.5899 37.1514 2.1721 38.3189C1.72854 39.5551 1.55827 39.6424 0.107422 39.2962C0.529514 38.1844 0.948744 37.0812 1.36941 35.9781C3.03917 31.5912 4.72039 27.2072 6.3644 22.8103C6.57759 22.2379 6.86805 22.0677 7.45898 22.0734C8.01413 22.0791 8.30602 22.2222 8.51063 22.7702C10.5123 28.1286 12.5427 33.4756 14.5644 38.8268C14.6217 38.9771 14.6589 39.1345 14.7433 39.4178ZM4.23105 32.6643H10.5195C9.46355 29.8828 8.44338 27.1957 7.36883 24.367C6.29286 27.21 5.27841 29.8914 4.22961 32.6643H4.23105Z" fill="black"/>
<path d="M30.5781 39.2971C31.0532 38.0509 31.5253 36.8118 31.9975 35.5727C33.6158 31.3175 35.2426 27.0665 36.8394 22.8041C37.0368 22.2775 37.2829 22.0529 37.8682 22.0758C38.4204 22.0958 38.7581 22.176 38.9828 22.7798C40.9788 28.141 43.0148 33.4866 45.038 38.8364C45.0938 38.9852 45.1296 39.1412 45.2097 39.4145C44.6917 39.4145 44.2396 39.466 43.8103 39.3902C43.6215 39.3572 43.4069 39.0911 43.3267 38.8836C42.8145 37.5744 42.3094 36.2609 41.8601 34.9303C41.6655 34.3537 41.3594 34.1805 40.7656 34.192C38.7867 34.2292 36.8079 34.2235 34.8291 34.1948C34.3211 34.1877 34.055 34.3365 33.8919 34.833C33.5127 35.9877 33.0763 37.1223 32.6657 38.267C32.1964 39.5762 32.0633 39.6463 30.5796 39.2986L30.5781 39.2971ZM40.9959 32.6753C39.93 29.868 38.9141 27.1924 37.841 24.368C36.7621 27.2196 35.742 29.9167 34.6975 32.6753H40.9959Z" fill="black"/>
<path d="M52.124 29.5926C51.3914 32.0822 50.6588 34.5704 49.9262 37.06C49.7445 37.6782 49.5328 38.2877 49.3926 38.9158C49.2867 39.388 48.9934 39.4509 48.6027 39.4209C48.2221 39.3923 47.8043 39.5454 47.6269 38.9673C46.4608 35.1613 45.2675 31.3654 44.0842 27.5637C44.0713 27.5222 44.0914 27.4721 44.1057 27.309C44.5063 27.309 44.9341 27.2518 45.3305 27.3348C45.5107 27.372 45.7025 27.6681 45.7683 27.8828C46.6368 30.733 47.4853 33.5889 48.3395 36.4419C48.3853 36.5965 48.4482 36.7453 48.5384 36.9971C48.6385 36.8254 48.7101 36.7453 48.7372 36.6523C49.6043 33.752 50.4785 30.8531 51.3184 27.9457C51.4658 27.4363 51.7048 27.2804 52.2213 27.2832C52.7321 27.2847 52.9796 27.4278 53.1313 27.94C54.0155 30.9318 54.937 33.9122 55.8942 37.0557C56.0058 36.7696 56.0874 36.6022 56.1374 36.4248C56.8986 33.7176 57.657 31.0105 58.4124 28.302C58.7244 27.186 58.8445 27.1187 60.1309 27.412C60.0579 27.7068 59.9978 28.0044 59.9105 28.2934C58.8775 31.766 57.833 35.2343 56.8156 38.7112C56.6683 39.2177 56.4665 39.4352 55.8956 39.4438C55.2861 39.4524 55.0801 39.2091 54.9284 38.6711C54.1071 35.758 53.2515 32.8549 52.4044 29.9474C52.3672 29.8201 52.3129 29.697 52.2656 29.5726C52.217 29.5783 52.1683 29.5854 52.1211 29.5912L52.124 29.5926Z" fill="black"/>
<path d="M70.9025 17.0995H78.3056C78.3786 17.2111 78.4215 17.2483 78.4258 17.2884C78.5269 18.4245 78.0094 18.9925 76.8734 18.9925C74.2263 18.9925 71.5793 18.9725 68.9323 19.0068C68.2884 19.0154 68.1382 18.8137 68.1311 18.1955C68.1239 17.4844 68.3171 16.9336 68.7606 16.377C70.9741 13.6012 73.1518 10.7953 75.4425 7.87218C75.0834 7.85072 74.8445 7.82353 74.6055 7.82353C72.817 7.81924 71.0285 7.8035 69.2399 7.83212C68.6962 7.8407 68.4129 7.7105 68.5088 7.12243C68.5131 7.09954 68.5088 7.07521 68.5088 7.05089C68.5202 5.75314 68.3686 5.89049 69.6391 5.88763C72.2618 5.88334 74.886 5.90337 77.5086 5.87332C78.1325 5.86617 78.3857 5.99351 78.3814 6.68889C78.3771 7.4043 78.1711 7.94801 77.7247 8.49745C75.5928 11.1273 73.4952 13.7858 71.3876 16.4356C71.2574 16.6002 71.1386 16.7747 70.9025 17.0981V17.0995Z" fill="black"/>
<path d="M87.7277 29.1813C87.7277 28.2154 87.7277 27.417 87.7277 26.6187C87.7277 25.308 87.7492 23.9974 87.7177 22.6882C87.7048 22.1273 87.9867 22.0629 88.4274 22.093C88.8152 22.1202 89.2473 21.9728 89.2444 22.6481C89.2272 28.1267 89.233 33.6053 89.2287 39.0854C89.2287 39.1555 89.2029 39.2242 89.1514 39.4774C88.685 39.383 88.0254 39.4388 87.7993 39.1526C87.5646 38.8536 87.7463 38.2255 87.6505 37.7004C86.9608 38.6118 86.1453 39.2399 85.085 39.5733C83.0103 40.2272 80.5693 39.3501 79.5778 37.3727C78.2571 34.74 78.25 32.0128 79.6279 29.4045C81.2976 26.2452 85.9006 26.3783 87.4158 28.8908C87.4502 28.948 87.516 28.9867 87.7263 29.1827L87.7277 29.1813ZM87.9738 33.4623C87.6834 32.3248 87.5274 31.2531 87.1297 30.2816C86.5945 28.9738 85.4899 28.3399 84.0691 28.3385C82.6326 28.3371 81.4951 28.9452 80.8999 30.2601C79.9598 32.3391 79.9727 34.4781 80.9127 36.5543C81.4865 37.822 82.5868 38.4057 83.9647 38.4201C85.3054 38.4329 86.4529 37.9307 87.0095 36.6859C87.4659 35.6657 87.6648 34.5311 87.9738 33.4623Z" fill="black"/>
<path d="M34.3697 15.0684C34.975 15.3832 35.5158 15.665 36.1096 15.9755C35.0651 18.0001 33.4583 19.0804 31.2863 19.2907C27.4417 19.6628 24.7217 17.3634 24.4055 13.5117C24.2724 11.8948 24.3998 10.3109 25.1538 8.8429C26.2627 6.68665 28.077 5.64501 30.4765 5.61497C32.7457 5.58635 34.5486 6.42195 35.7032 8.47374C36.0008 9.00315 35.9293 9.27643 35.3727 9.49535C34.9592 9.65846 34.5729 9.89026 34.1436 10.1077C34.0034 9.84018 33.8961 9.63128 33.7845 9.42524C33.0662 8.09601 31.9259 7.46502 30.4421 7.5108C28.9841 7.55659 27.8838 8.25483 27.2843 9.5998C26.4787 11.4069 26.4644 13.267 27.1942 15.0927C27.7522 16.4878 28.8167 17.3248 30.3548 17.4006C31.8844 17.4765 33.1678 16.9771 34.0177 15.6193C34.1165 15.4604 34.218 15.3045 34.3683 15.0698L34.3697 15.0684Z" fill="black"/>
<path d="M62.3954 30.9976C62.3095 31.0462 62.288 31.0691 62.268 31.0677C61.0175 30.9961 60.81 30.6957 61.235 29.5238C61.6699 28.3262 62.5685 27.545 63.7675 27.3289C64.895 27.1258 66.0955 27.0514 67.2244 27.2087C68.97 27.452 69.8599 28.5909 69.9029 30.3866C69.953 32.457 69.9258 34.5303 69.9344 36.6021C69.9344 36.8639 69.9258 37.1272 69.9501 37.3876C70.0302 38.2847 70.3836 38.5494 71.2765 38.3992C71.4124 38.3763 71.5497 38.362 71.6828 38.3434C71.9604 39.3049 71.8202 39.551 70.9316 39.7127C69.8041 39.9187 68.9457 39.3421 68.5364 38.2118C67.7023 38.6668 66.891 39.2305 65.9953 39.5667C64.7004 40.0518 63.3969 39.8157 62.2308 39.0931C61.0075 38.3348 60.6355 37.1258 60.7041 35.7608C60.7714 34.4072 61.461 33.4071 62.7445 33.0265C64.2912 32.5686 65.888 32.2753 67.469 31.9448C68.4592 31.7373 68.5007 31.7201 68.4821 30.6928C68.4563 29.3178 67.821 28.5237 66.466 28.3677C65.7707 28.2876 65.0324 28.3276 64.347 28.4679C63.3511 28.6725 62.7516 29.3636 62.5341 30.3666C62.4855 30.5926 62.434 30.8187 62.3954 30.9961V30.9976ZM68.4892 32.9835C67.4547 33.1767 66.5447 33.3284 65.6419 33.5215C64.9451 33.6703 64.244 33.8263 63.5744 34.0638C62.7516 34.3557 62.331 35.0081 62.2981 35.8724C62.2623 36.7824 62.5313 37.5722 63.3683 38.0615C64.9894 39.0116 67.4333 38.2346 68.1959 36.5262C68.7053 35.3887 68.4105 34.2055 68.4892 32.9835Z" fill="black"/>
<path d="M59.3691 7.79062V18.9868C58.6924 18.9868 58.0542 19.0311 57.4332 18.9539C57.2887 18.9367 57.0927 18.5089 57.0913 18.2699C57.0684 15.0778 57.0584 11.8856 57.0913 8.69347C57.0984 8.02241 56.941 7.73625 56.2328 7.81208C55.7191 7.86789 55.1954 7.82353 54.626 7.82353V5.88906C55.2527 5.88906 55.8608 5.86617 56.4674 5.89622C56.9353 5.91911 57.097 5.74312 57.0841 5.27667C57.0584 4.30085 57.0898 3.3236 57.0698 2.34635C57.0612 1.92712 57.1886 1.72967 57.635 1.74827C58.1773 1.77259 58.7196 1.75399 59.3634 1.75399C59.3634 2.94301 59.3906 4.05332 59.352 5.16221C59.3334 5.71164 59.4722 5.94057 60.0602 5.89908C60.7442 5.85043 61.4338 5.88763 62.1836 5.88763V7.79062H59.3677H59.3691Z" fill="black"/>
<path d="M90.291 37.1959C90.6916 36.914 91.0551 36.6593 91.4672 36.3703C92.3543 37.5951 93.5046 38.3377 94.9712 38.3792C95.7138 38.4007 96.4979 38.2819 97.2019 38.0458C98.0461 37.7611 98.4367 37.0428 98.4138 36.1314C98.3923 35.27 97.8915 34.7521 97.1346 34.5074C96.1617 34.1926 95.1615 33.9637 94.1743 33.6875C93.6935 33.553 93.207 33.4243 92.742 33.244C91.6059 32.8033 90.8791 32.0206 90.7947 30.7529C90.7088 29.4795 91.1781 28.4693 92.2541 27.7639C94.3374 26.3989 97.7799 26.9798 99.3853 29.0231C99.0476 29.3235 98.7042 29.6269 98.182 30.0919C98.0346 29.8472 97.9459 29.6054 97.7799 29.4451C96.6496 28.3534 95.3003 28.0816 93.8108 28.4793C92.8937 28.724 92.3671 29.3636 92.3271 30.1892C92.2856 31.052 92.6905 31.6987 93.6449 32.0049C94.7766 32.3669 95.9485 32.6073 97.096 32.9249C98.1491 33.2168 99.1292 33.6332 99.6629 34.692C100.307 35.9668 100.011 37.5593 98.9389 38.548C96.6696 40.6427 91.9236 39.9431 90.291 37.1959Z" fill="black"/>
<path d="M95.2456 7.94403C96.1713 6.44024 97.3746 5.68476 98.9614 5.58461C99.8557 5.52737 99.9429 5.62324 99.9444 6.50319C99.9444 6.59906 99.9444 6.69349 99.9444 6.78936C99.9444 7.4275 99.6239 7.7523 98.9829 7.76374C96.9168 7.80095 95.3185 9.44782 95.2355 11.7715C95.1597 13.8891 95.2084 16.011 95.2026 18.1315C95.2026 18.3862 95.2026 18.6423 95.2026 18.99C94.5015 18.99 93.8877 18.9971 93.2753 18.9871C92.7745 18.9785 92.8976 18.5879 92.8962 18.3046C92.8904 15.3271 92.8919 12.3481 92.8919 9.37055C92.8919 8.3933 92.9033 7.41749 92.8861 6.44024C92.8804 6.05248 93.0063 5.84931 93.417 5.88937C93.9922 5.94517 94.7576 5.79923 95.0867 6.11115C95.3829 6.39302 95.2026 7.17711 95.2427 7.94403H95.2456Z" fill="black"/>
<path d="M19.6238 18.9917C18.9127 18.9917 18.3175 19.0318 17.7337 18.9645C17.5763 18.9459 17.3431 18.604 17.3388 18.4051C17.3073 16.7625 17.3202 15.1185 17.3202 13.4759C17.3202 11.1666 17.3317 8.85579 17.3116 6.54645C17.3073 6.06283 17.439 5.88111 17.9512 5.87682C19.5881 5.86108 19.5881 5.84105 19.621 7.43355C19.6238 7.5423 19.641 7.65104 19.6396 7.64102C20.3378 7.09445 21.0475 6.53929 21.7586 5.98556C21.7958 5.95695 21.843 5.93119 21.8874 5.92547C22.6514 5.84391 23.4141 5.76522 24.1781 5.68652C24.2397 6.35472 24.2997 7.02434 24.3627 7.70827C24.171 7.75549 24.0808 7.80414 23.9978 7.79412C21.1977 7.45359 19.6854 9.76436 19.641 11.8877C19.5981 13.9581 19.6253 16.0313 19.6224 18.1032C19.6224 18.3622 19.6224 18.6211 19.6224 18.9903L19.6238 18.9917Z" fill="black"/>
<path d="M23.371 39.3673H21.9029C21.9029 39.0854 21.9029 38.8536 21.9029 38.6218C21.9029 36.9292 21.9029 35.2351 21.9029 33.5424C21.9029 32.91 21.5982 32.5933 20.9886 32.5924C19.2717 32.5924 17.5547 32.5752 15.8377 32.6024C15.3069 32.611 15.1251 32.4464 15.1352 31.9099C15.1437 31.3976 15.2139 31.1243 15.8348 31.1386C17.599 31.1787 19.3647 31.1229 21.1274 31.1687C21.7827 31.1859 21.9273 30.9612 21.9144 30.3517C21.8786 28.5646 21.9301 26.7746 21.8858 24.9875C21.87 24.3408 22.1834 24.3194 22.6684 24.3065C23.1778 24.2936 23.3896 24.4295 23.381 24.9861C23.3495 26.7746 23.3938 28.5632 23.3552 30.3517C23.3423 30.9698 23.504 31.1859 24.1507 31.1701C25.9149 31.1272 27.6806 31.1787 29.4448 31.1415C30.0386 31.1286 30.0887 31.4048 30.0929 31.8769C30.0972 32.3634 30.0171 32.6167 29.4348 32.6038C27.7421 32.568 26.0494 32.5909 24.3554 32.5909C23.6972 32.5909 23.3681 32.9086 23.3681 33.5439C23.3681 35.2365 23.3681 36.9306 23.3681 38.6233C23.3681 38.8565 23.3681 39.0897 23.3681 39.3644L23.371 39.3673Z" fill="black"/>
<path d="M50.4415 12.3713C50.4415 10.4654 50.4601 8.55957 50.4301 6.65372C50.4215 6.08282 50.5546 5.86104 51.1741 5.87249C52.738 5.90111 52.738 5.87249 52.738 7.4049C52.738 11.0263 52.728 14.6463 52.7494 18.2677C52.7523 18.8228 52.6049 19.0117 52.0312 19.006C50.4429 18.9917 50.4415 19.0174 50.4415 17.4435C50.4415 15.7523 50.4415 14.0611 50.4415 12.3698V12.3713Z" fill="black"/>
<path d="M64.0791 18.9946C64.0791 14.6635 64.0791 10.5198 64.0791 6.37761C64.0791 6.30607 64.0548 6.20877 64.092 6.16728C64.6257 5.55632 65.3253 6.01418 65.942 5.91689C66.0551 5.89972 66.3312 6.22165 66.3441 6.39907C66.3927 7.08587 66.3641 7.77838 66.3641 8.46947C66.3641 11.6845 66.3369 14.8996 66.3841 18.1132C66.3956 18.873 66.1495 19.079 65.4527 19.0017C65.0149 18.9531 64.5656 18.9931 64.0791 18.9931V18.9946Z" fill="black"/>
<path d="M78.5516 28.4919C78.4385 28.5177 78.3684 28.5535 78.3041 28.5449C76.1178 28.2373 74.1833 29.7167 74.1261 32.4954C74.086 34.4957 74.116 36.4974 74.1146 38.4977C74.1146 38.7581 74.1146 39.0171 74.1146 39.3476H72.6537C72.6423 39.1215 72.6208 38.9126 72.6208 38.7037C72.6194 35.1553 72.6323 31.6054 72.6065 28.057C72.6022 27.4703 72.7582 27.2757 73.3634 27.2815C73.9515 27.2872 74.1933 27.4517 74.1232 28.0541C74.0831 28.4018 74.116 28.7581 74.116 29.2775C74.3149 29.0399 74.4251 28.9355 74.5024 28.811C75.2307 27.6449 76.3066 27.084 77.6545 27.0125C78.5544 26.9653 78.6246 27.044 78.6045 27.9468C78.6002 28.1299 78.5702 28.3131 78.553 28.4919H78.5516Z" fill="black"/>
<path d="M65.2466 3.12075C64.3538 3.13363 63.6584 2.44398 63.6641 1.55258C63.6698 0.68836 64.3351 0.0115823 65.1908 0.000135745C66.0621 -0.0113108 66.789 0.702668 66.7861 1.56831C66.7833 2.40964 66.0908 3.10931 65.2466 3.12075Z" fill="black"/>
<path d="M51.5586 3.1208C50.6944 3.10649 50.0405 2.4383 50.0391 1.56693C50.0391 0.665512 50.7201 -0.012697 51.6144 0.000180344C52.4815 0.0116269 53.1869 0.757084 53.1511 1.62416C53.1168 2.46978 52.4085 3.13368 51.5572 3.1208H51.5586Z" fill="black"/>
</g>
<defs>
<clipPath id="clip0_252_626">
<rect width="100" height="39.8211" fill="white"/>
</clipPath>
</defs>
</svg>
