<svg width="120" height="43" viewBox="0 0 120 43" fill="none" xmlns="http://www.w3.org/2000/svg">
<path d="M3.71995 39.2475V38.7877C3.51097 38.9967 3.30198 39.1221 3.09299 39.2057C2.9258 39.2475 2.63322 39.2893 2.34064 39.2893C2.00626 39.2893 1.71368 39.2475 1.5047 39.2057C1.29571 39.1221 1.12852 39.0385 0.961331 38.8713C0.83594 38.7459 0.752345 38.6206 0.710548 38.4116C0.66875 38.2444 0.626953 38.0354 0.626953 37.8682C0.626953 37.4502 0.752345 37.1158 1.04493 36.8651C1.33751 36.6143 1.75548 36.4889 2.29884 36.4889H3.76175V36.0291C3.76175 35.6529 3.67816 35.4022 3.46917 35.235C3.26018 35.0678 2.9676 34.9842 2.50783 34.9842C2.17345 34.9842 1.96447 35.026 1.75548 35.1096C1.58829 35.1932 1.4211 35.3186 1.25391 35.5276L0.752345 35.0678C0.961331 34.7752 1.21212 34.608 1.4629 34.4826C1.75548 34.3572 2.08986 34.3154 2.50783 34.3154C3.17659 34.3154 3.63636 34.4408 3.97074 34.7334C4.30511 35.026 4.43051 35.4022 4.43051 35.9455V39.2475H3.71995ZM3.71995 36.9905H2.38244C1.67189 36.9905 1.29571 37.283 1.29571 37.8682C1.29571 38.1608 1.3793 38.3698 1.54649 38.4952C1.71368 38.6205 2.00626 38.7041 2.38244 38.7041C2.59143 38.7041 2.80041 38.7041 2.9676 38.6623C3.13479 38.6206 3.30198 38.537 3.46917 38.3698C3.63636 38.2026 3.71995 37.9518 3.71995 37.5338V36.9905Z" fill="black" stroke="black" stroke-width="0.605" stroke-miterlimit="10"/>
<path d="M9.48811 35.3188C9.36272 35.1934 9.23733 35.1098 9.11194 35.0262C8.98654 34.9844 8.81936 34.9426 8.65217 34.9426C8.48498 34.9426 8.31779 34.9844 8.1506 35.0262C8.02521 35.1098 7.89982 35.1934 7.77442 35.3188C7.69083 35.4442 7.60723 35.5695 7.52364 35.7367C7.48184 35.9039 7.44005 36.0711 7.44005 36.2383V39.2059H6.72949V34.3992H7.44005V34.9844C7.56544 34.7754 7.77442 34.6082 8.02521 34.5246C8.27599 34.3992 8.52678 34.3574 8.81936 34.3574C9.07014 34.3574 9.27913 34.3992 9.44632 34.441C9.6135 34.5246 9.82249 34.6082 9.98968 34.8172C10.0315 34.7754 9.48811 35.3188 9.48811 35.3188Z" fill="black" stroke="black" stroke-width="0.605" stroke-miterlimit="10"/>
<path d="M13.9606 39.1219C13.7098 39.2473 13.4172 39.2891 13.0828 39.2891C12.7903 39.2891 12.4977 39.2473 12.2469 39.1219C11.9961 39.0383 11.7453 38.8711 11.5781 38.6622C11.3691 38.4532 11.2438 38.2024 11.1184 37.868C10.993 37.5754 10.9512 37.1992 10.9512 36.7813C10.9512 36.3633 10.993 35.9871 11.1184 35.6945C11.2438 35.402 11.3691 35.1094 11.5781 34.9004C11.7871 34.6914 11.9961 34.5242 12.2469 34.4406C12.4977 34.3152 12.7903 34.2734 13.0828 34.2734C13.4172 34.2734 13.7098 34.3152 13.9606 34.4406C14.2114 34.566 14.4621 34.7332 14.7129 34.984L14.2114 35.4856C14.0442 35.2766 13.8352 35.1512 13.668 35.0676C13.5008 34.984 13.2918 34.9422 13.0828 34.9422C12.832 34.9422 12.6231 34.984 12.4559 35.0676C12.2469 35.1512 12.1215 35.3184 11.9543 35.4856C11.8289 35.6527 11.7453 35.8199 11.7035 36.0289C11.6617 36.2379 11.6199 36.4887 11.6199 36.7813C11.6199 37.0739 11.6617 37.3664 11.7035 37.5336C11.7453 37.7426 11.8289 37.9098 11.9543 38.077C12.0797 38.2442 12.2469 38.4114 12.4559 38.495C12.6649 38.5786 12.8738 38.6204 13.0828 38.6204C13.3336 38.6204 13.5008 38.5786 13.668 38.495C13.8352 38.4114 14.0024 38.286 14.2114 38.077L14.7129 38.5368C14.4621 38.8293 14.2114 39.0383 13.9606 39.1219Z" fill="black" stroke="black" stroke-width="0.605" stroke-miterlimit="10"/>
<path d="M19.8116 39.2475V36.2381C19.8116 35.8202 19.6862 35.4858 19.4772 35.2768C19.2682 35.0678 18.9756 34.9424 18.5994 34.9424C18.2233 34.9424 17.9307 35.0678 17.7217 35.2768C17.5127 35.4858 17.3873 35.8202 17.3873 36.2381V39.2475H16.6768V32.2256H17.3873V34.9424C17.7217 34.5662 18.1815 34.3572 18.7666 34.3572C19.31 34.3572 19.7698 34.5244 20.0623 34.8588C20.3549 35.1932 20.5221 35.6112 20.5221 36.1545V39.2893H19.8116V39.2475Z" fill="black" stroke="black" stroke-width="0.605" stroke-miterlimit="10"/>
<path d="M22.8213 33.0195V32.1836H23.6154V33.0195H22.8213ZM22.8631 39.2473V34.3989H23.5736V39.2473H22.8631Z" fill="black" stroke="black" stroke-width="0.605" stroke-miterlimit="10"/>
<path d="M27.3352 39.2469C27.1262 39.2469 26.959 39.2051 26.7918 39.1633C26.6246 39.0797 26.4992 38.9962 26.4156 38.8708C26.332 38.7454 26.2484 38.62 26.1648 38.4528C26.1231 38.2856 26.0813 38.1184 26.0813 37.9512V34.9836H25.4961V34.4402H26.1231V32.9355H26.8336V34.4402H27.8785V34.9836H26.8336V37.9512C26.8336 38.1602 26.8754 38.3692 27.0008 38.4946C27.1262 38.62 27.2934 38.6618 27.5024 38.6618H27.8785V39.2887H27.3352V39.2469Z" fill="black" stroke="black" stroke-width="0.605" stroke-miterlimit="10"/>
<path d="M30.2611 36.9901C30.2611 37.5334 30.3865 37.9514 30.6373 38.2022C30.8881 38.4948 31.2225 38.6202 31.724 38.6202C32.0166 38.6202 32.2256 38.5784 32.4346 38.4948C32.6018 38.4112 32.8108 38.2858 33.0198 38.0768L33.5213 38.4948C33.3959 38.6202 33.2705 38.7456 33.1452 38.8291C33.0198 38.9127 32.8944 38.9963 32.769 39.0799C32.6436 39.1635 32.4764 39.2053 32.3092 39.2053C32.0584 39.2889 31.8494 39.2889 31.6404 39.2889C31.3061 39.2889 31.0135 39.2471 30.7627 39.1217C30.5119 39.0381 30.2611 38.8709 30.094 38.662C29.9268 38.453 29.7596 38.2022 29.676 37.8678C29.5924 37.5752 29.5088 37.1991 29.5088 36.7393C29.5088 35.9451 29.676 35.3182 30.0522 34.9002C30.4283 34.4822 30.8881 34.2314 31.5151 34.2314C32.142 34.2314 32.6436 34.4404 32.978 34.8584C33.3123 35.2764 33.5213 35.8615 33.5213 36.5721V36.9065H30.2611V36.9901ZM32.8108 36.1959C32.8108 36.1123 32.8108 36.0705 32.769 35.9869C32.769 35.9451 32.7272 35.8615 32.7272 35.8197C32.7272 35.7779 32.6854 35.6944 32.6436 35.6526C32.56 35.4436 32.3928 35.2346 32.1838 35.1092C31.9748 34.9838 31.7658 34.9002 31.4733 34.9002C31.2225 34.9002 30.9717 34.9838 30.7627 35.1092C30.5537 35.2346 30.4283 35.4018 30.3029 35.6526C30.2611 35.7779 30.2193 35.9033 30.1775 36.0287C30.1775 36.1541 30.1357 36.2795 30.1357 36.4885H32.6854C32.8108 36.3631 32.8108 36.2795 32.8108 36.1959Z" fill="black" stroke="black" stroke-width="0.605" stroke-miterlimit="10"/>
<path d="M38.2028 39.1219C37.952 39.2473 37.6594 39.2891 37.325 39.2891C37.0324 39.2891 36.7399 39.2473 36.4891 39.1219C36.2383 39.0383 35.9875 38.8711 35.8203 38.6622C35.6113 38.4532 35.4859 38.2024 35.3605 37.868C35.2352 37.5754 35.1934 37.1992 35.1934 36.7813C35.1934 36.3633 35.2352 35.9871 35.3605 35.6945C35.4859 35.402 35.6113 35.1094 35.8203 34.9004C36.0293 34.6914 36.2383 34.5242 36.4891 34.4406C36.7399 34.3152 37.0324 34.2734 37.325 34.2734C37.6594 34.2734 37.952 34.3152 38.2028 34.4406C38.4535 34.566 38.7043 34.7332 38.9551 34.984L38.4535 35.4856C38.2864 35.2766 38.0774 35.1512 37.9102 35.0676C37.743 34.984 37.534 34.9422 37.325 34.9422C37.0742 34.9422 36.8653 34.984 36.6981 35.0676C36.4891 35.1512 36.3637 35.3184 36.1965 35.4856C36.0711 35.6527 35.9875 35.8199 35.9457 36.0289C35.9039 36.2379 35.8621 36.4887 35.8621 36.7813C35.8621 37.0739 35.9039 37.3664 35.9457 37.5336C35.9875 37.7426 36.0711 37.9098 36.1965 38.077C36.3219 38.2442 36.4891 38.4114 36.6981 38.495C36.9071 38.5786 37.116 38.6204 37.325 38.6204C37.5758 38.6204 37.743 38.5786 37.9102 38.495C38.0774 38.4114 38.2446 38.286 38.4535 38.077L38.9551 38.5368C38.7043 38.8293 38.4535 39.0383 38.2028 39.1219Z" fill="black" stroke="black" stroke-width="0.605" stroke-miterlimit="10"/>
<path d="M42.2988 39.2469C42.0899 39.2469 41.9227 39.2051 41.7555 39.1633C41.5883 39.0797 41.4629 38.9962 41.3793 38.8708C41.2957 38.7454 41.2121 38.62 41.1285 38.4528C41.0867 38.2856 41.0449 38.1184 41.0449 37.9512V34.9836H40.418V34.4402H41.0449V32.9355H41.7555V34.4402H42.8004V34.9836H41.7555V37.9512C41.7555 38.1602 41.7973 38.3692 41.9227 38.4946C42.0481 38.62 42.2153 38.6618 42.4242 38.6618H42.8004V39.2887H42.2988V39.2469Z" fill="black" stroke="black" stroke-width="0.605" stroke-miterlimit="10"/>
<path d="M47.8576 39.2471V38.7038C47.6905 38.9127 47.4815 39.0381 47.2725 39.1635C47.0217 39.2471 46.7709 39.3307 46.5201 39.3307C45.9768 39.3307 45.5588 39.1635 45.2662 38.8709C45.099 38.7038 44.9736 38.4948 44.89 38.2858C44.8064 38.0768 44.7646 37.7842 44.7646 37.5334V34.4404H45.4752V37.4498C45.4752 37.8678 45.6006 38.2022 45.8096 38.4112C46.0186 38.6202 46.3111 38.7455 46.6873 38.7455C47.0635 38.7455 47.3561 38.6202 47.5651 38.4112C47.7741 38.2022 47.8994 37.8678 47.8994 37.4498V34.4404H48.61V39.2889L47.8576 39.2471Z" fill="black" stroke="black" stroke-width="0.605" stroke-miterlimit="10"/>
<path d="M53.709 35.3188C53.5836 35.1934 53.4582 35.1098 53.3328 35.0262C53.2074 34.9844 53.0403 34.9426 52.8731 34.9426C52.7059 34.9426 52.5387 34.9844 52.3715 35.0262C52.2461 35.1098 52.1207 35.1934 51.9953 35.3188C51.9117 35.4442 51.8281 35.5695 51.7445 35.7367C51.7027 35.9039 51.6609 36.0711 51.6609 36.2383V39.2059H50.9922V34.3992H51.7027V34.9844C51.8281 34.7754 52.0371 34.6082 52.2879 34.5246C52.5387 34.3992 52.7895 34.3574 53.0821 34.3574C53.3328 34.3574 53.5 34.3992 53.709 34.441C53.8762 34.5246 54.0852 34.6082 54.2524 34.8172L53.709 35.3188Z" fill="black" stroke="black" stroke-width="0.605" stroke-miterlimit="10"/>
<path d="M55.8828 36.9899C55.8828 37.5332 56.0082 37.9512 56.259 38.202C56.5098 38.4946 56.8442 38.62 57.3457 38.62C57.6383 38.62 57.8473 38.5782 58.0563 38.4946C58.2235 38.411 58.4325 38.2856 58.6414 38.0766L59.143 38.4946C59.0176 38.62 58.8922 38.7454 58.7668 38.829C58.6414 38.9125 58.516 38.9961 58.3907 39.0797C58.2653 39.1633 58.0981 39.2051 57.9309 39.2051C57.7637 39.2469 57.5965 39.2469 57.3875 39.2469C57.0531 39.2469 56.7606 39.2051 56.5098 39.0797C56.259 38.9961 56.0082 38.829 55.841 38.62C55.6738 38.411 55.5066 38.1602 55.4231 37.8258C55.3395 37.5332 55.2559 37.1571 55.2559 36.6973C55.2559 35.9031 55.423 35.2762 55.7992 34.8582C56.1336 34.4402 56.6352 34.1895 57.2621 34.1895C57.8891 34.1895 58.3907 34.3984 58.725 34.8164C59.0594 35.2344 59.2684 35.8195 59.2684 36.5301V36.8645H55.8828V36.9899ZM58.4325 36.1957C58.4325 36.1121 58.4325 36.0703 58.3907 35.9867C58.3907 35.9449 58.3489 35.8613 58.3489 35.8195C58.3489 35.7777 58.3071 35.6942 58.2653 35.6524C58.1817 35.4434 58.0145 35.2344 57.8055 35.109C57.5965 34.9836 57.3875 34.9 57.0949 34.9C56.8442 34.9 56.5934 34.9836 56.3844 35.109C56.1754 35.2344 56.05 35.4016 55.9246 35.6524C55.8828 35.7777 55.841 35.9031 55.7992 36.0285C55.7992 36.1539 55.7574 36.2793 55.7574 36.4883H58.3071C58.4325 36.3629 58.4325 36.2793 58.4325 36.1957Z" fill="black" stroke="black" stroke-width="0.605" stroke-miterlimit="10"/>
<mask id="path-13-inside-1_252_649" fill="white">
<path d="M68.0457 37.9514C67.9621 38.3276 67.795 38.6202 67.5442 38.8709C67.4188 38.9963 67.2516 39.0799 67.0426 39.1635C66.8336 39.2471 66.6246 39.2889 66.3738 39.2889C66.1231 39.2889 65.8723 39.2471 65.6215 39.1635C65.3707 39.0799 65.1617 38.9127 64.9527 38.6202V41.5042H64.4512V34.4822H64.9527V35.1092C65.1617 34.8166 65.3707 34.6494 65.6215 34.5658C65.8723 34.4822 66.0813 34.4404 66.3738 34.4404C66.6246 34.4404 66.8336 34.4822 67.0426 34.5658C67.2516 34.6494 67.4188 34.733 67.5442 34.8584C67.795 35.1092 67.9621 35.4018 68.0457 35.7779C68.1293 36.1541 68.1711 36.5303 68.1711 36.9065C68.1711 37.2408 68.1293 37.617 68.0457 37.9514ZM67.6278 36.1541C67.586 35.9033 67.5442 35.6943 67.4606 35.5272C67.377 35.36 67.2098 35.1928 67.0426 35.0674C66.8754 34.942 66.6246 34.9002 66.332 34.9002C66.0395 34.9002 65.7887 34.942 65.6215 35.0674C65.4543 35.1928 65.2871 35.3182 65.2035 35.5272C65.1199 35.6943 65.0363 35.9451 65.0363 36.1541C64.9945 36.4049 64.9945 36.6557 64.9945 36.8647C64.9945 37.1155 64.9945 37.3662 65.0363 37.5752C65.0781 37.826 65.1199 38.035 65.2035 38.2022C65.2871 38.3694 65.4543 38.5366 65.6215 38.662C65.7887 38.7873 66.0395 38.8291 66.332 38.8291C66.6246 38.8291 66.8754 38.7873 67.0426 38.662C67.2098 38.5366 67.377 38.4112 67.4606 38.2022C67.5442 38.035 67.6278 37.7842 67.6278 37.5752C67.6696 37.3244 67.6696 37.1155 67.6696 36.8647C67.6696 36.6139 67.6696 36.3631 67.6278 36.1541Z"/>
</mask>
<path d="M68.0457 37.9514C67.9621 38.3276 67.795 38.6202 67.5442 38.8709C67.4188 38.9963 67.2516 39.0799 67.0426 39.1635C66.8336 39.2471 66.6246 39.2889 66.3738 39.2889C66.1231 39.2889 65.8723 39.2471 65.6215 39.1635C65.3707 39.0799 65.1617 38.9127 64.9527 38.6202V41.5042H64.4512V34.4822H64.9527V35.1092C65.1617 34.8166 65.3707 34.6494 65.6215 34.5658C65.8723 34.4822 66.0813 34.4404 66.3738 34.4404C66.6246 34.4404 66.8336 34.4822 67.0426 34.5658C67.2516 34.6494 67.4188 34.733 67.5442 34.8584C67.795 35.1092 67.9621 35.4018 68.0457 35.7779C68.1293 36.1541 68.1711 36.5303 68.1711 36.9065C68.1711 37.2408 68.1293 37.617 68.0457 37.9514ZM67.6278 36.1541C67.586 35.9033 67.5442 35.6943 67.4606 35.5272C67.377 35.36 67.2098 35.1928 67.0426 35.0674C66.8754 34.942 66.6246 34.9002 66.332 34.9002C66.0395 34.9002 65.7887 34.942 65.6215 35.0674C65.4543 35.1928 65.2871 35.3182 65.2035 35.5272C65.1199 35.6943 65.0363 35.9451 65.0363 36.1541C64.9945 36.4049 64.9945 36.6557 64.9945 36.8647C64.9945 37.1155 64.9945 37.3662 65.0363 37.5752C65.0781 37.826 65.1199 38.035 65.2035 38.2022C65.2871 38.3694 65.4543 38.5366 65.6215 38.662C65.7887 38.7873 66.0395 38.8291 66.332 38.8291C66.6246 38.8291 66.8754 38.7873 67.0426 38.662C67.2098 38.5366 67.377 38.4112 67.4606 38.2022C67.5442 38.035 67.6278 37.7842 67.6278 37.5752C67.6696 37.3244 67.6696 37.1155 67.6696 36.8647C67.6696 36.6139 67.6696 36.3631 67.6278 36.1541Z" fill="black"/>
<path d="M68.0457 37.9514L67.0756 37.7089L67.0724 37.7216L67.0696 37.7345L68.0457 37.9514ZM64.9527 38.6202L65.7665 38.0389L63.9527 35.4997V38.6202H64.9527ZM64.9527 41.5042V42.5042H65.9527V41.5042H64.9527ZM64.4512 41.5042H63.4512V42.5042H64.4512V41.5042ZM64.4512 34.4822V33.4822H63.4512V34.4822H64.4512ZM64.9527 34.4822H65.9527V33.4822H64.9527V34.4822ZM64.9527 35.1092H63.9527V38.2297L65.7665 35.6904L64.9527 35.1092ZM68.1711 36.9065H69.1711H68.1711ZM67.6278 36.1541L66.6414 36.3185L66.644 36.3344L66.6472 36.3502L67.6278 36.1541ZM65.2035 35.5272L66.098 35.9744L66.1166 35.9372L66.132 35.8985L65.2035 35.5272ZM65.0363 36.1541L66.0227 36.3185L66.0363 36.2369V36.1541H65.0363ZM65.0363 37.5752L66.0227 37.4108L66.0201 37.3949L66.0169 37.3791L65.0363 37.5752ZM67.4606 38.2022L66.5661 37.755L66.5475 37.7922L66.5321 37.8308L67.4606 38.2022ZM67.6278 37.5752L66.6414 37.4108L66.6278 37.4925V37.5752H67.6278ZM67.0696 37.7345C67.0279 37.9221 66.9555 38.0454 66.8371 38.1638L68.2513 39.578C68.6344 39.1949 68.8964 38.733 69.0219 38.1683L67.0696 37.7345ZM66.8371 38.1638C66.8539 38.147 66.8597 38.1471 66.8345 38.1613C66.8062 38.1772 66.7582 38.2003 66.6712 38.235L67.414 40.092C67.6443 39.9999 67.9739 39.8554 68.2513 39.578L66.8371 38.1638ZM66.6712 38.235C66.5829 38.2704 66.5002 38.2889 66.3738 38.2889V40.2889C66.7491 40.2889 67.0843 40.2239 67.414 40.092L66.6712 38.235ZM66.3738 38.2889C66.2362 38.2889 66.0921 38.2663 65.9377 38.2148L65.3053 40.1122C65.6525 40.2279 66.0099 40.2889 66.3738 40.2889V38.2889ZM65.9377 38.2148C65.9288 38.2119 65.9194 38.2082 65.9006 38.193C65.8775 38.1743 65.8326 38.1315 65.7665 38.0389L64.139 39.2014C64.4322 39.6119 64.799 39.9435 65.3053 40.1122L65.9377 38.2148ZM63.9527 38.6202V41.5042H65.9527V38.6202H63.9527ZM64.9527 40.5042H64.4512V42.5042H64.9527V40.5042ZM65.4512 41.5042V34.4822H63.4512V41.5042H65.4512ZM64.4512 35.4822H64.9527V33.4822H64.4512V35.4822ZM63.9527 34.4822V35.1092H65.9527V34.4822H63.9527ZM65.7665 35.6904C65.8326 35.5978 65.8776 35.5551 65.9006 35.5364C65.9194 35.5212 65.9288 35.5175 65.9377 35.5145L65.3053 33.6171C64.799 33.7859 64.4322 34.1175 64.139 34.5279L65.7665 35.6904ZM65.9377 35.5145C66.1015 35.4599 66.2035 35.4404 66.3738 35.4404V33.4404C65.959 33.4404 65.643 33.5046 65.3053 33.6171L65.9377 35.5145ZM66.3738 35.4404C66.5002 35.4404 66.5829 35.459 66.6712 35.4943L67.414 33.6373C67.0843 33.5055 66.7491 33.4404 66.3738 33.4404V35.4404ZM66.6712 35.4943C66.7582 35.5291 66.8062 35.5521 66.8345 35.568C66.8597 35.5822 66.8539 35.5824 66.8371 35.5655L68.2513 34.1513C67.9739 33.874 67.6443 33.7295 67.414 33.6373L66.6712 35.4943ZM66.8371 35.5655C66.9555 35.6839 67.0279 35.8072 67.0696 35.9949L69.0219 35.561C68.8964 34.9963 68.6344 34.5345 68.2513 34.1513L66.8371 35.5655ZM67.0696 35.9949C67.1377 36.3016 67.1711 36.605 67.1711 36.9065H69.1711C69.1711 36.4556 69.121 36.0067 69.0219 35.561L67.0696 35.9949ZM67.1711 36.9065C67.1711 37.1665 67.1376 37.4607 67.0756 37.7089L69.0159 38.1939C69.121 37.7734 69.1711 37.3152 69.1711 36.9065H67.1711ZM68.6142 35.9897C68.5749 35.7541 68.5153 35.4006 68.355 35.0799L66.5661 35.9744C66.5644 35.9708 66.5741 35.9896 66.5897 36.0518C66.6056 36.1154 66.6212 36.1973 66.6414 36.3185L68.6142 35.9897ZM68.355 35.0799C68.172 34.714 67.8661 34.435 67.6426 34.2674L66.4426 35.8674C66.4858 35.8998 66.5242 35.9343 66.5519 35.9639C66.5652 35.9782 66.5728 35.9879 66.5759 35.9921C66.5793 35.9968 66.5745 35.991 66.5661 35.9744L68.355 35.0799ZM67.6426 34.2674C67.201 33.9362 66.6655 33.9002 66.332 33.9002V35.9002C66.3819 35.9002 66.4229 35.902 66.4559 35.9049C66.4892 35.9078 66.5105 35.9115 66.5219 35.9139C66.5491 35.9199 66.5073 35.9159 66.4426 35.8674L67.6426 34.2674ZM66.332 33.9002C65.9986 33.9002 65.4631 33.9362 65.0215 34.2674L66.2215 35.8674C66.1568 35.9159 66.115 35.9199 66.1422 35.9139C66.1536 35.9115 66.1749 35.9078 66.2082 35.9049C66.2412 35.902 66.2822 35.9002 66.332 35.9002V33.9002ZM65.0215 34.2674C64.8869 34.3683 64.4784 34.6475 64.275 35.1558L66.132 35.8985C66.1225 35.9222 66.1111 35.942 66.101 35.9566C66.0914 35.9704 66.0853 35.976 66.0883 35.973C66.0919 35.9694 66.1022 35.9597 66.1252 35.9412C66.1497 35.9214 66.1773 35.9005 66.2215 35.8674L65.0215 34.2674ZM64.3091 35.0799C64.1873 35.3235 64.0363 35.7325 64.0363 36.1541H66.0363C66.0363 36.1668 66.0352 36.1672 66.0374 36.154C66.0395 36.1416 66.0434 36.1231 66.0501 36.0997C66.0643 36.0501 66.0835 36.0033 66.098 35.9744L64.3091 35.0799ZM64.0499 35.9897C63.9925 36.3342 63.9945 36.6653 63.9945 36.8647H65.9945C65.9945 36.6461 65.9966 36.4756 66.0227 36.3185L64.0499 35.9897ZM63.9945 36.8647C63.9945 37.0867 63.9906 37.4455 64.0558 37.7713L66.0169 37.3791C65.9985 37.287 65.9945 37.1442 65.9945 36.8647H63.9945ZM64.0499 37.7396C64.0892 37.9752 64.1488 38.3287 64.3091 38.6494L66.098 37.755C66.0997 37.7586 66.09 37.7398 66.0744 37.6775C66.0585 37.614 66.0429 37.532 66.0227 37.4108L64.0499 37.7396ZM64.3091 38.6494C64.4921 39.0154 64.798 39.2943 65.0215 39.462L66.2215 37.862C66.1783 37.8295 66.1399 37.7951 66.1122 37.7654C66.0989 37.7512 66.0913 37.7415 66.0882 37.7372C66.0848 37.7326 66.0896 37.7383 66.098 37.755L64.3091 38.6494ZM65.0215 39.462C65.4631 39.7931 65.9986 39.8291 66.332 39.8291V37.8291C66.2822 37.8291 66.2412 37.8273 66.2082 37.8245C66.1749 37.8215 66.1536 37.8179 66.1422 37.8154C66.115 37.8095 66.1568 37.8134 66.2215 37.862L65.0215 39.462ZM66.332 39.8291C66.6655 39.8291 67.201 39.7931 67.6426 39.462L66.4426 37.862C66.5073 37.8134 66.5491 37.8095 66.5219 37.8154C66.5105 37.8179 66.4892 37.8215 66.4559 37.8245C66.4229 37.8273 66.3819 37.8291 66.332 37.8291V39.8291ZM67.6426 39.462C67.7772 39.361 68.1857 39.0818 68.3891 38.5736L66.5321 37.8308C66.5416 37.8071 66.553 37.7873 66.5631 37.7728C66.5727 37.759 66.5788 37.7533 66.5758 37.7563C66.5722 37.7599 66.5619 37.7696 66.5389 37.7882C66.5144 37.808 66.4868 37.8288 66.4426 37.862L67.6426 39.462ZM68.355 38.6494C68.4768 38.4059 68.6278 37.9968 68.6278 37.5752H66.6278C66.6278 37.5626 66.6289 37.5621 66.6267 37.5753C66.6246 37.5878 66.6207 37.6062 66.614 37.6297C66.5998 37.6792 66.5806 37.726 66.5661 37.755L68.355 38.6494ZM68.6142 37.7396C68.6714 37.3965 68.6696 37.1097 68.6696 36.8647H66.6696C66.6696 37.1212 66.6678 37.2524 66.6414 37.4108L68.6142 37.7396ZM68.6696 36.8647C68.6696 36.6427 68.6735 36.2839 68.6083 35.958L66.6472 36.3502C66.6656 36.4423 66.6696 36.5851 66.6696 36.8647H68.6696Z" fill="black" mask="url(#path-13-inside-1_252_649)"/>
<mask id="path-15-inside-2_252_649" fill="white">
<path d="M71.3901 39.2475C71.0139 39.2475 70.7213 39.1221 70.5123 38.9132C70.3451 38.7042 70.2197 38.3698 70.2197 38.0354V32.2256H70.7213V37.9936C70.7213 38.2444 70.7631 38.4534 70.8885 38.5788C70.9721 38.7042 71.1811 38.7878 71.4736 38.7878H71.808V39.2475H71.3901Z"/>
</mask>
<path d="M71.3901 39.2475C71.0139 39.2475 70.7213 39.1221 70.5123 38.9132C70.3451 38.7042 70.2197 38.3698 70.2197 38.0354V32.2256H70.7213V37.9936C70.7213 38.2444 70.7631 38.4534 70.8885 38.5788C70.9721 38.7042 71.1811 38.7878 71.4736 38.7878H71.808V39.2475H71.3901Z" fill="black"/>
<path d="M70.5123 38.9132L69.7314 39.5378L69.766 39.5811L69.8052 39.6203L70.5123 38.9132ZM70.2197 32.2256V31.2256H69.2197V32.2256H70.2197ZM70.7213 32.2256H71.7213V31.2256H70.7213V32.2256ZM70.8885 38.5788L71.7205 38.0241L71.6656 37.9417L71.5956 37.8717L70.8885 38.5788ZM71.808 38.7878H72.808V37.7878H71.808V38.7878ZM71.808 39.2475V40.2475H72.808V39.2475H71.808ZM71.3901 38.2475C71.3141 38.2475 71.2724 38.2351 71.2541 38.228C71.237 38.2212 71.2275 38.2142 71.2194 38.206L69.8052 39.6203C70.22 40.0351 70.7757 40.2475 71.3901 40.2475V38.2475ZM71.2932 38.2885C71.2938 38.2892 71.2876 38.2814 71.2779 38.2634C71.2685 38.2458 71.2582 38.2227 71.2487 38.1953C71.2289 38.138 71.2197 38.0809 71.2197 38.0354H69.2197C69.2197 38.5893 69.4177 39.1457 69.7314 39.5378L71.2932 38.2885ZM71.2197 38.0354V32.2256H69.2197V38.0354H71.2197ZM70.2197 33.2256H70.7213V31.2256H70.2197V33.2256ZM69.7213 32.2256V37.9936H71.7213V32.2256H69.7213ZM69.7213 37.9936C69.7213 38.283 69.7533 38.8578 70.1814 39.2859L71.5956 37.8717C71.6933 37.9694 71.7206 38.0624 71.7249 38.0787C71.7274 38.0882 71.7262 38.0866 71.7245 38.0703C71.7228 38.0543 71.7213 38.0293 71.7213 37.9936H69.7213ZM70.0564 39.1335C70.2523 39.4272 70.5316 39.5856 70.757 39.6686C70.9908 39.7548 71.2378 39.7878 71.4736 39.7878V37.7878C71.4169 37.7878 71.4131 37.7789 71.4484 37.7919C71.4753 37.8019 71.6083 37.8557 71.7205 38.0241L70.0564 39.1335ZM71.4736 39.7878H71.808V37.7878H71.4736V39.7878ZM70.808 38.7878V39.2475H72.808V38.7878H70.808ZM71.808 38.2475H71.3901V40.2475H71.808V38.2475Z" fill="black" mask="url(#path-15-inside-2_252_649)"/>
<mask id="path-17-inside-3_252_649" fill="white">
<path d="M76.6981 39.2473V38.7039C76.3219 39.1219 75.8621 39.3309 75.277 39.3309C74.7336 39.3309 74.3156 39.1637 74.0231 38.8711C73.6887 38.5368 73.5215 38.1188 73.5215 37.5336V34.4824H74.0231V37.45C74.0231 37.9098 74.1484 38.2442 74.3574 38.495C74.5664 38.7457 74.9008 38.8711 75.3188 38.8711C75.7367 38.8711 76.0711 38.7457 76.3219 38.495C76.5727 38.2442 76.6563 37.9098 76.6563 37.45V34.4824H77.1579V39.2473H76.6981Z"/>
</mask>
<path d="M76.6981 39.2473V38.7039C76.3219 39.1219 75.8621 39.3309 75.277 39.3309C74.7336 39.3309 74.3156 39.1637 74.0231 38.8711C73.6887 38.5368 73.5215 38.1188 73.5215 37.5336V34.4824H74.0231V37.45C74.0231 37.9098 74.1484 38.2442 74.3574 38.495C74.5664 38.7457 74.9008 38.8711 75.3188 38.8711C75.7367 38.8711 76.0711 38.7457 76.3219 38.495C76.5727 38.2442 76.6563 37.9098 76.6563 37.45V34.4824H77.1579V39.2473H76.6981Z" fill="black"/>
<path d="M76.6981 39.2473H75.6981V40.2473H76.6981V39.2473ZM76.6981 38.7039H77.6981V36.098L75.9548 38.035L76.6981 38.7039ZM73.5215 34.4824V33.4824H72.5215V34.4824H73.5215ZM74.0231 34.4824H75.0231V33.4824H74.0231V34.4824ZM76.6563 34.4824V33.4824H75.6563V34.4824H76.6563ZM77.1579 34.4824H78.1579V33.4824H77.1579V34.4824ZM77.1579 39.2473V40.2473H78.1579V39.2473H77.1579ZM77.6981 39.2473V38.7039H75.6981V39.2473H77.6981ZM75.9548 38.035C75.769 38.2414 75.5798 38.3309 75.277 38.3309V40.3309C76.1445 40.3309 76.8748 40.0024 77.4414 39.3729L75.9548 38.035ZM75.277 38.3309C74.9479 38.3309 74.802 38.2359 74.7302 38.164L73.316 39.5782C73.8293 40.0916 74.5194 40.3309 75.277 40.3309V38.3309ZM74.7302 38.164C74.6116 38.0455 74.5215 37.8964 74.5215 37.5336H72.5215C72.5215 38.3411 72.7658 39.028 73.316 39.5782L74.7302 38.164ZM74.5215 37.5336V34.4824H72.5215V37.5336H74.5215ZM73.5215 35.4824H74.0231V33.4824H73.5215V35.4824ZM73.0231 34.4824V37.45H75.0231V34.4824H73.0231ZM73.0231 37.45C73.0231 38.1061 73.208 38.6777 73.5892 39.1351L75.1257 37.8548C75.1007 37.8248 75.0784 37.7883 75.0606 37.7346C75.0419 37.6786 75.0231 37.5888 75.0231 37.45H73.0231ZM73.5892 39.1351C74.0481 39.6859 74.7125 39.8711 75.3188 39.8711V37.8711C75.2071 37.8711 75.1454 37.8541 75.1207 37.8445C75.1005 37.8367 75.1106 37.8367 75.1257 37.8548L73.5892 39.1351ZM75.3188 39.8711C75.951 39.8711 76.5575 39.6736 77.029 39.2021L75.6148 37.7879C75.5848 37.8179 75.5225 37.8711 75.3188 37.8711V39.8711ZM77.029 39.2021C77.5557 38.6754 77.6563 38.0163 77.6563 37.45H75.6563C75.6563 37.6262 75.6393 37.7173 75.6261 37.7609C75.6231 37.7706 75.6207 37.777 75.6191 37.7808C75.6175 37.7844 75.6166 37.786 75.6164 37.7862C75.6164 37.7863 75.6165 37.7861 75.6168 37.7857C75.617 37.7854 75.6165 37.7861 75.6148 37.7879L77.029 39.2021ZM77.6563 37.45V34.4824H75.6563V37.45H77.6563ZM76.6563 35.4824H77.1579V33.4824H76.6563V35.4824ZM76.1579 34.4824V39.2473H78.1579V34.4824H76.1579ZM77.1579 38.2473H76.6981V40.2473H77.1579V38.2473Z" fill="black" mask="url(#path-17-inside-3_252_649)"/>
<mask id="path-19-inside-4_252_649" fill="white">
<path d="M82.5911 38.9125C82.2567 39.1633 81.7969 39.2887 81.2117 39.2887C80.7938 39.2887 80.4176 39.2469 80.125 39.1215C79.8324 38.9961 79.5398 38.8289 79.2891 38.62L79.6234 38.2856C79.9996 38.6618 80.5012 38.8707 81.1699 38.8707C81.6297 38.8707 82.0059 38.7872 82.2567 38.62C82.5075 38.4528 82.6328 38.202 82.6328 37.9094C82.6328 37.6586 82.5493 37.4914 82.4239 37.366C82.2985 37.2407 82.0477 37.1571 81.7551 37.1153L80.961 37.0317C79.9996 36.9481 79.5398 36.5301 79.5398 35.7777C79.5398 35.3598 79.707 35.0254 79.9996 34.7746C80.2922 34.5238 80.7102 34.3984 81.2535 34.3984C81.5879 34.3984 81.8805 34.4402 82.1731 34.5238C82.4657 34.6074 82.7164 34.7328 82.9254 34.9L82.5911 35.2344C82.2149 34.9836 81.7969 34.8164 81.2535 34.8164C80.8774 34.8164 80.543 34.9 80.334 35.0672C80.125 35.2344 80.0414 35.4434 80.0414 35.7359C80.0414 35.9867 80.125 36.1539 80.2922 36.2793C80.4594 36.4047 80.7102 36.4883 81.0445 36.5301L81.7969 36.6137C82.0059 36.6137 82.1731 36.6555 82.3403 36.6973C82.5075 36.7391 82.6746 36.8227 82.7582 36.9063C82.8836 36.9899 82.9672 37.1153 83.0508 37.2824C83.1344 37.4496 83.1762 37.6168 83.1762 37.8676C83.0926 38.3274 82.9254 38.6618 82.5911 38.9125Z"/>
</mask>
<path d="M82.5911 38.9125C82.2567 39.1633 81.7969 39.2887 81.2117 39.2887C80.7938 39.2887 80.4176 39.2469 80.125 39.1215C79.8324 38.9961 79.5398 38.8289 79.2891 38.62L79.6234 38.2856C79.9996 38.6618 80.5012 38.8707 81.1699 38.8707C81.6297 38.8707 82.0059 38.7872 82.2567 38.62C82.5075 38.4528 82.6328 38.202 82.6328 37.9094C82.6328 37.6586 82.5493 37.4914 82.4239 37.366C82.2985 37.2407 82.0477 37.1571 81.7551 37.1153L80.961 37.0317C79.9996 36.9481 79.5398 36.5301 79.5398 35.7777C79.5398 35.3598 79.707 35.0254 79.9996 34.7746C80.2922 34.5238 80.7102 34.3984 81.2535 34.3984C81.5879 34.3984 81.8805 34.4402 82.1731 34.5238C82.4657 34.6074 82.7164 34.7328 82.9254 34.9L82.5911 35.2344C82.2149 34.9836 81.7969 34.8164 81.2535 34.8164C80.8774 34.8164 80.543 34.9 80.334 35.0672C80.125 35.2344 80.0414 35.4434 80.0414 35.7359C80.0414 35.9867 80.125 36.1539 80.2922 36.2793C80.4594 36.4047 80.7102 36.4883 81.0445 36.5301L81.7969 36.6137C82.0059 36.6137 82.1731 36.6555 82.3403 36.6973C82.5075 36.7391 82.6746 36.8227 82.7582 36.9063C82.8836 36.9899 82.9672 37.1153 83.0508 37.2824C83.1344 37.4496 83.1762 37.6168 83.1762 37.8676C83.0926 38.3274 82.9254 38.6618 82.5911 38.9125Z" fill="black"/>
<path d="M79.2891 38.62L78.582 37.9129L77.8077 38.6872L78.6489 39.3882L79.2891 38.62ZM79.6234 38.2856L80.3305 37.5785L79.6234 36.8714L78.9163 37.5785L79.6234 38.2856ZM81.7551 37.1153L81.8965 36.1253L81.8782 36.1227L81.8598 36.1208L81.7551 37.1153ZM80.961 37.0317L81.0656 36.0372L81.0566 36.0362L81.0476 36.0354L80.961 37.0317ZM82.9254 34.9L83.6325 35.6071L84.4225 34.8171L83.5501 34.1191L82.9254 34.9ZM82.5911 35.2344L82.0364 36.0664L82.7185 36.5212L83.2982 35.9415L82.5911 35.2344ZM81.0445 36.5301L80.9205 37.5225L80.9341 37.524L81.0445 36.5301ZM81.7969 36.6137L81.6865 37.6076L81.7415 37.6137H81.7969V36.6137ZM82.7582 36.9063L82.0511 37.6134L82.1211 37.6834L82.2035 37.7383L82.7582 36.9063ZM83.1762 37.8676L84.1601 38.0465L84.1762 37.9578V37.8676H83.1762ZM81.9911 38.1125C81.8869 38.1906 81.665 38.2887 81.2117 38.2887V40.2887C81.9288 40.2887 82.6264 40.136 83.1911 39.7125L81.9911 38.1125ZM81.2117 38.2887C80.8347 38.2887 80.6225 38.2468 80.5189 38.2024L79.7311 40.0407C80.2127 40.2471 80.7529 40.2887 81.2117 40.2887V38.2887ZM80.5189 38.2024C80.296 38.1068 80.0911 37.9866 79.9292 37.8517L78.6489 39.3882C78.9886 39.6713 79.3689 39.8854 79.7311 40.0407L80.5189 38.2024ZM79.9962 39.3271L80.3305 38.9927L78.9163 37.5785L78.582 37.9129L79.9962 39.3271ZM78.9163 38.9927C79.5027 39.579 80.2698 39.8707 81.1699 39.8707V37.8707C80.7326 37.8707 80.4966 37.7445 80.3305 37.5785L78.9163 38.9927ZM81.1699 39.8707C81.7196 39.8707 82.3253 39.7761 82.8114 39.452L81.702 37.7879C81.703 37.7872 81.6943 37.7932 81.6717 37.8023C81.649 37.8114 81.6154 37.8225 81.5689 37.8332C81.474 37.8549 81.3419 37.8707 81.1699 37.8707V39.8707ZM82.8114 39.452C83.3535 39.0906 83.6328 38.5203 83.6328 37.9094H81.6328C81.6328 37.9108 81.6333 37.8855 81.6522 37.8491C81.6719 37.8115 81.6958 37.792 81.702 37.7879L82.8114 39.452ZM83.6328 37.9094C83.6328 37.3964 83.446 36.974 83.131 36.6589L81.7168 38.0732C81.698 38.0544 81.6704 38.0194 81.6507 37.9715C81.6314 37.9246 81.6328 37.8976 81.6328 37.9094H83.6328ZM83.131 36.6589C82.9237 36.4516 82.678 36.3365 82.4939 36.2695C82.2974 36.1981 82.0909 36.1531 81.8965 36.1253L81.6137 38.1052C81.6609 38.1119 81.7019 38.1198 81.7364 38.1279C81.7712 38.1361 81.7955 38.1437 81.8104 38.1491C81.8261 38.1548 81.8247 38.1557 81.8115 38.1481C81.7992 38.1411 81.7622 38.1186 81.7168 38.0732L83.131 36.6589ZM81.8598 36.1208L81.0656 36.0372L80.8563 38.0262L81.6504 38.1098L81.8598 36.1208ZM81.0476 36.0354C80.6755 36.0031 80.5641 35.9168 80.5543 35.9081C80.5524 35.9064 80.5536 35.9072 80.5556 35.91C80.5575 35.9129 80.5575 35.9136 80.556 35.9101C80.5532 35.9029 80.5398 35.8649 80.5398 35.7777H78.5398C78.5398 36.3723 78.7314 36.9636 79.2255 37.4029C79.6859 37.8121 80.2851 37.9767 80.8743 38.0279L81.0476 36.0354ZM80.5398 35.7777C80.5398 35.7056 80.5534 35.6636 80.5655 35.6379C80.5779 35.6114 80.601 35.5762 80.6504 35.5339L79.3488 34.0154C78.8427 34.4491 78.5398 35.0573 78.5398 35.7777H80.5398ZM80.6504 35.5339C80.6997 35.4916 80.852 35.3984 81.2535 35.3984V33.3984C80.5684 33.3984 79.8847 33.556 79.3488 34.0154L80.6504 35.5339ZM81.2535 35.3984C81.4978 35.3984 81.6978 35.428 81.8984 35.4854L82.4478 33.5623C82.0632 33.4524 81.678 33.3984 81.2535 33.3984V35.3984ZM81.8984 35.4854C82.0808 35.5375 82.2085 35.6071 82.3007 35.6809L83.5501 34.1191C83.2244 33.8585 82.8505 33.6774 82.4478 33.5623L81.8984 35.4854ZM82.2183 34.1929L81.8839 34.5273L83.2982 35.9415L83.6325 35.6071L82.2183 34.1929ZM83.1458 34.4023C82.6389 34.0645 82.0312 33.8164 81.2535 33.8164V35.8164C81.5626 35.8164 81.7908 35.9027 82.0364 36.0664L83.1458 34.4023ZM81.2535 33.8164C80.7705 33.8164 80.171 33.917 79.7093 34.2863L80.9587 35.8481C80.9274 35.8731 80.9268 35.8619 80.9887 35.8453C81.0472 35.8298 81.1364 35.8164 81.2535 35.8164V33.8164ZM79.7093 34.2863C79.2155 34.6814 79.0414 35.2062 79.0414 35.7359H81.0414C81.0414 35.6829 81.0492 35.7 81.0285 35.7485C81.0181 35.7727 81.0042 35.7962 80.9883 35.8165C80.9729 35.8362 80.9608 35.8463 80.9587 35.8481L79.7093 34.2863ZM79.0414 35.7359C79.0414 36.2652 79.2455 36.7443 79.6922 37.0793L80.8922 35.4793C80.9207 35.5007 80.972 35.5503 81.0089 35.6289C81.0435 35.7023 81.0414 35.75 81.0414 35.7359H79.0414ZM79.6922 37.0793C80.0592 37.3545 80.5085 37.4709 80.9205 37.5224L81.1686 35.5378C81.0499 35.523 80.9705 35.5036 80.9219 35.4874C80.8727 35.471 80.8705 35.463 80.8922 35.4793L79.6922 37.0793ZM80.9341 37.524L81.6865 37.6076L81.9073 35.6198L81.155 35.5362L80.9341 37.524ZM81.7969 37.6137C81.8689 37.6137 81.9275 37.6249 82.0977 37.6674L82.5828 35.7271C82.4187 35.6861 82.1429 35.6137 81.7969 35.6137V37.6137ZM82.0977 37.6674C82.102 37.6685 82.1087 37.6705 82.1165 37.6734C82.1244 37.6763 82.1303 37.679 82.1334 37.6805C82.1369 37.6823 82.1328 37.6806 82.1223 37.6735C82.1168 37.6698 82.1079 37.6635 82.0966 37.6544C82.0855 37.6455 82.0697 37.632 82.0511 37.6134L83.4653 36.1992C83.2079 35.9417 82.8502 35.794 82.5828 35.7271L82.0977 37.6674ZM82.2035 37.7383C82.1809 37.7232 82.1618 37.7073 82.1468 37.6926C82.1321 37.6783 82.1234 37.6673 82.1202 37.663C82.1173 37.6591 82.1192 37.6612 82.1259 37.6726C82.1328 37.6842 82.1426 37.7022 82.1564 37.7297L83.9452 36.8352C83.8403 36.6254 83.6608 36.3061 83.3129 36.0742L82.2035 37.7383ZM82.1564 37.7297C82.1663 37.7496 82.1677 37.7561 82.1687 37.7606C82.1704 37.7685 82.1762 37.7981 82.1762 37.8676H84.1762C84.1762 37.4801 84.1061 37.1569 83.9452 36.8352L82.1564 37.7297ZM82.1923 37.6887C82.139 37.9821 82.066 38.0564 81.9911 38.1125L83.1911 39.7125C83.7849 39.2671 84.0462 38.6726 84.1601 38.0465L82.1923 37.6887Z" fill="black" mask="url(#path-19-inside-4_252_649)"/>
<path d="M90.4082 39.2477V38.6626C90.1992 38.9133 89.9903 39.0805 89.7813 39.1641C89.5723 39.2477 89.3215 39.2895 89.0289 39.2895C88.7781 39.2895 88.5691 39.2477 88.3602 39.1641C88.1512 39.0805 87.984 38.9969 87.8586 38.8716C87.7332 38.7462 87.6496 38.6208 87.566 38.4536C87.4824 38.2864 87.4406 38.1192 87.3988 37.952C87.357 37.7848 87.3152 37.5758 87.3152 37.4086C87.3152 37.1997 87.2734 37.0325 87.2734 36.8235C87.2734 36.6145 87.2734 36.4473 87.3152 36.2383C87.3152 36.0293 87.357 35.8621 87.3988 35.695C87.4406 35.5278 87.4824 35.3606 87.566 35.1934C87.6496 35.0262 87.7332 34.9008 87.8586 34.7754C87.984 34.65 88.1512 34.5246 88.3602 34.4828C88.5691 34.3992 88.7781 34.3574 89.0289 34.3574C89.2797 34.3574 89.5305 34.3992 89.7813 34.4828C89.9903 34.5664 90.1992 34.7336 90.4082 34.9844V32.2676H91.1188V39.2895L90.4082 39.2477ZM90.3664 36.1129C90.3246 35.9039 90.2828 35.695 90.1992 35.5278C90.1157 35.3606 89.9903 35.2352 89.8231 35.1098C89.6559 34.9844 89.4469 34.9426 89.1961 34.9426C88.9453 34.9426 88.7363 34.9844 88.5691 35.1098C88.402 35.2352 88.2766 35.3606 88.193 35.5278C88.1094 35.695 88.0676 35.9039 88.0258 36.1129C87.984 36.3219 87.984 36.5727 87.984 36.8235C87.984 37.0743 87.984 37.2833 88.0258 37.534C88.0676 37.743 88.1094 37.952 88.193 38.1192C88.2766 38.2864 88.402 38.4118 88.5691 38.5372C88.7363 38.6626 88.9453 38.7044 89.1961 38.7044C89.4469 38.7044 89.6559 38.6626 89.8231 38.5372C89.9903 38.4118 90.1157 38.2864 90.1992 38.1192C90.2828 37.952 90.3246 37.743 90.3664 37.534C90.4082 37.3251 90.4082 37.0743 90.4082 36.8235C90.4082 36.5727 90.4082 36.3637 90.3664 36.1129Z" fill="black" stroke="black" stroke-width="0.605" stroke-miterlimit="10"/>
<path d="M93.9609 36.9899C93.9609 37.5332 94.0863 37.9512 94.3371 38.202C94.5879 38.4946 94.9223 38.62 95.4238 38.62C95.7164 38.62 95.9254 38.5782 96.1344 38.4946C96.3016 38.411 96.5106 38.2856 96.7196 38.0766L97.2211 38.4946C97.0957 38.62 96.9703 38.7454 96.845 38.829C96.7196 38.9125 96.5942 38.9961 96.4688 39.0797C96.3434 39.1633 96.1762 39.2051 96.009 39.2051C95.8418 39.2469 95.6746 39.2469 95.4656 39.2469C95.1313 39.2469 94.8387 39.2051 94.5879 39.0797C94.3371 38.9961 94.0863 38.829 93.9191 38.62C93.752 38.411 93.5848 38.1602 93.5012 37.8258C93.4176 37.5332 93.334 37.1571 93.334 36.6973C93.334 35.9031 93.5012 35.2762 93.8774 34.8582C94.2117 34.4402 94.7133 34.1895 95.3403 34.1895C95.9672 34.1895 96.4688 34.3984 96.8032 34.8164C97.1375 35.2344 97.3465 35.8195 97.3465 36.5301V36.8645H93.9609V36.9899ZM96.5106 36.1957C96.5106 36.1121 96.5106 36.0703 96.4688 35.9867C96.4688 35.9449 96.427 35.8613 96.427 35.8195C96.427 35.7777 96.3852 35.6942 96.3434 35.6524C96.2598 35.4434 96.0926 35.2344 95.8836 35.109C95.6746 34.9836 95.4656 34.9 95.1731 34.9C94.9223 34.9 94.6715 34.9836 94.4625 35.109C94.2535 35.2344 94.1281 35.4016 94.0027 35.6524C93.9609 35.7777 93.9191 35.9031 93.8774 36.0285C93.8774 36.1539 93.8356 36.2793 93.8356 36.4883H96.3852C96.5524 36.3629 96.5106 36.2793 96.5106 36.1957Z" fill="black" stroke="black" stroke-width="0.605" stroke-miterlimit="10"/>
<path d="M102.738 38.4534C102.655 38.6206 102.487 38.7877 102.32 38.9131C102.153 39.0385 101.944 39.1221 101.693 39.2057C101.442 39.2893 101.192 39.2893 100.899 39.2893C100.481 39.2893 100.105 39.2475 99.8123 39.1221C99.4779 38.9967 99.1854 38.8295 98.9346 38.5788L99.3943 38.119C99.6033 38.328 99.8123 38.4534 100.063 38.537C100.314 38.6205 100.606 38.6623 100.899 38.6623C101.317 38.6623 101.61 38.5788 101.86 38.4534C102.111 38.328 102.195 38.0772 102.195 37.8264C102.195 37.6174 102.111 37.4502 101.986 37.3248C101.86 37.1994 101.651 37.1158 101.359 37.1158L100.565 37.0323C100.105 36.9905 99.7287 36.8651 99.4779 36.6561C99.2272 36.4471 99.1018 36.1545 99.1018 35.7365C99.1018 35.5276 99.1436 35.3186 99.2272 35.1514C99.3107 34.9842 99.4361 34.817 99.6033 34.6916C99.7705 34.5662 99.9377 34.4826 100.188 34.399C100.397 34.3154 100.648 34.3154 100.899 34.3154C101.233 34.3154 101.568 34.3572 101.86 34.4408C102.153 34.5244 102.404 34.6498 102.655 34.817L102.195 35.2768C102.028 35.1514 101.819 35.0678 101.61 34.9842C101.401 34.9424 101.15 34.9006 100.899 34.9006C100.565 34.9006 100.272 34.9842 100.105 35.1096C99.9377 35.235 99.8123 35.444 99.8123 35.6947C99.8123 35.9037 99.8959 36.0709 100.021 36.1963C100.147 36.3217 100.356 36.4053 100.69 36.4053L101.484 36.4889C101.693 36.4889 101.902 36.5307 102.069 36.6143C102.237 36.6561 102.404 36.7397 102.529 36.8651C102.655 36.9905 102.738 37.1158 102.822 37.2412C102.905 37.4084 102.905 37.5756 102.905 37.8264C102.905 38.0354 102.822 38.2444 102.738 38.4534Z" fill="black" stroke="black" stroke-width="0.605" stroke-miterlimit="10"/>
<path d="M104.869 33.0195V32.1836H105.663V33.0195H104.869ZM104.911 39.2473V34.3989H105.621V39.2473H104.911Z" fill="black" stroke="black" stroke-width="0.605" stroke-miterlimit="10"/>
<path d="M111.264 40.2087C111.181 40.4594 111.055 40.6684 110.888 40.8774C110.721 41.0446 110.512 41.2118 110.261 41.2954C110.011 41.4208 109.718 41.4626 109.425 41.4626C109.258 41.4626 109.091 41.4626 108.924 41.4208C108.798 41.379 108.631 41.379 108.506 41.2954C108.38 41.2536 108.255 41.17 108.13 41.0864C108.004 41.0028 107.879 40.9192 107.754 40.7938L108.213 40.334C108.297 40.4176 108.38 40.5012 108.464 40.543C108.548 40.5848 108.631 40.6684 108.715 40.7102C108.798 40.752 108.882 40.7938 109.007 40.7938C109.133 40.7938 109.216 40.8356 109.384 40.8356C109.634 40.8356 109.843 40.7938 110.011 40.7102C110.178 40.6266 110.303 40.543 110.429 40.4176C110.554 40.2922 110.596 40.1251 110.679 39.9579C110.721 39.7907 110.763 39.5817 110.763 39.3727V38.6204C110.554 38.8711 110.345 39.0383 110.136 39.1219C109.927 39.2055 109.676 39.2473 109.425 39.2473C109.175 39.2473 108.966 39.2055 108.757 39.1219C108.548 39.0383 108.38 38.9547 108.255 38.7875C108.004 38.5368 107.837 38.2442 107.795 37.868C107.712 37.4918 107.67 37.1575 107.67 36.7395C107.67 36.3633 107.712 35.9871 107.795 35.6109C107.879 35.2348 108.046 34.9422 108.255 34.6914C108.38 34.566 108.548 34.4406 108.757 34.3988C108.966 34.3152 109.175 34.2734 109.425 34.2734C109.676 34.2734 109.927 34.3152 110.178 34.3988C110.387 34.4824 110.596 34.6496 110.805 34.9004V34.3152H111.515V39.3309C111.39 39.7071 111.348 39.9579 111.264 40.2087ZM110.638 36.1125C110.596 35.9035 110.554 35.6945 110.47 35.5274C110.387 35.3602 110.261 35.2348 110.094 35.1094C109.927 34.984 109.718 34.9422 109.467 34.9422C109.216 34.9422 109.007 34.984 108.84 35.1094C108.673 35.2348 108.548 35.3602 108.464 35.5274C108.38 35.6945 108.339 35.9035 108.297 36.1125C108.255 36.3215 108.255 36.5723 108.255 36.7813C108.255 37.0321 108.255 37.241 108.297 37.45C108.339 37.659 108.38 37.868 108.464 38.0352C108.548 38.2024 108.673 38.3278 108.84 38.4532C109.007 38.5786 109.216 38.6204 109.467 38.6204C109.718 38.6204 109.927 38.5786 110.094 38.4532C110.261 38.3278 110.387 38.2024 110.47 38.0352C110.554 37.868 110.596 37.659 110.638 37.45C110.679 37.241 110.679 36.9903 110.679 36.7813C110.679 36.5723 110.679 36.3215 110.638 36.1125Z" fill="black" stroke="black" stroke-width="0.605" stroke-miterlimit="10"/>
<path d="M116.74 39.2475V36.2381C116.74 35.8201 116.615 35.4858 116.406 35.2768C116.197 35.0678 115.904 34.9424 115.528 34.9424C115.152 34.9424 114.859 35.0678 114.65 35.2768C114.441 35.4858 114.316 35.8201 114.316 36.2381V39.2475H113.605V34.399H114.316V34.9424C114.483 34.7334 114.692 34.608 114.901 34.4826C115.152 34.399 115.403 34.3154 115.654 34.3154C116.197 34.3154 116.615 34.4826 116.907 34.7752C117.242 35.1096 117.409 35.5693 117.409 36.1127V39.2057H116.74V39.2475Z" fill="black" stroke="black" stroke-width="0.605" stroke-miterlimit="10"/>
<path d="M10.8418 13.1464L15.6418 22.3205H13.2204L8.42776 12.9789L8.28833 12.7072H7.98289H3.38519H2.88519V13.2072V22.2787H0.833984V0.958984H8.98602C9.90544 0.958984 10.7668 1.07909 11.5377 1.34889C12.3112 1.61961 12.9646 2.00379 13.5423 2.50308C14.072 2.99665 14.5305 3.64591 14.8366 4.37297C15.1417 5.0977 15.299 5.9082 15.299 6.85397C15.299 8.4279 14.869 9.68554 14.0402 10.6663C13.2746 11.5457 12.3193 12.1213 11.156 12.4315L10.5521 12.5925L10.8418 13.1464ZM2.92698 10.4067V10.9067H3.42698H8.81883C10.0744 10.9067 11.1512 10.5915 12.0098 9.92367L12.0099 9.92383L12.0207 9.91496C12.8837 9.20423 13.2478 8.15959 13.2478 6.85397C13.2478 5.54311 12.8813 4.51014 12.0337 3.76223L12.0273 3.75659L12.0207 3.75118C11.2053 3.07967 10.1254 2.71761 8.81883 2.71761H3.42698H2.92698V3.21761V10.4067Z" fill="black" stroke="black"/>
<path d="M33.7697 10.4067V0.958984H35.8209V22.3205H33.7697V13.2072V12.7072H33.2697H23.7817H23.2817V13.2072V22.3205H21.2305V0.958984H23.2817V10.4067V10.9067H23.7817H33.2697H33.7697V10.4067Z" fill="black" stroke="black"/>
<path d="M55.9789 4.65373C56.361 5.41783 56.6662 6.24715 56.8301 7.10671H54.7178C54.3978 5.7678 53.7717 4.69633 52.8628 3.92376C51.9251 3.12668 50.7191 2.718 49.3624 2.718C48.6273 2.718 47.9375 2.85654 47.254 3.12993L47.254 3.1298L47.2427 3.1346C46.6194 3.40175 46.0113 3.76935 45.5314 4.29384C45.1725 4.65408 44.8888 5.02839 44.6936 5.41863L44.6886 5.42879L44.684 5.43917C44.5113 5.82763 44.3237 6.2914 44.2297 6.85576C44.1433 7.37394 44.0576 8.06092 44.0147 8.8329C43.9721 9.59912 43.9721 10.5716 43.9721 11.689V11.7028V11.7167C43.9721 12.8341 43.9721 13.8066 44.0147 14.5728C44.0555 15.3083 44.0981 16.0167 44.2322 16.6069C44.3259 17.158 44.5081 17.6544 44.684 18.0501C44.8792 18.4894 45.1684 18.8753 45.5426 19.2076C46.0207 19.7256 46.6242 20.0896 47.2427 20.3547L47.2509 20.3582L47.2592 20.3614C48.6795 20.9112 50.2787 20.865 51.6511 20.2703L51.6527 20.2696C52.3978 19.9436 53.0005 19.4771 53.5456 18.8412L53.5456 18.8412L53.55 18.8359C54.0016 18.2941 54.3339 17.7318 54.5244 17.0649C54.7079 16.4228 54.7945 15.6636 54.7945 14.8376V13.2075V12.7075H54.2945H49.4862V10.9071H56.8457V14.5869C56.8457 15.8434 56.6831 16.9162 56.4116 17.7307L56.4115 17.7307L56.4094 17.7372C56.1386 18.5885 55.6761 19.3947 55.0276 20.0431L55.0188 20.052L55.0104 20.0612C54.2687 20.881 53.4094 21.4686 52.4222 21.9031C51.533 22.2895 50.4743 22.4881 49.4042 22.4881C48.3431 22.4881 47.3602 22.2927 46.4116 21.9379C45.4709 21.5448 44.651 20.997 43.9479 20.2939C43.4313 19.7773 43.05 19.2767 42.7877 18.752C42.5173 18.2114 42.3232 17.6306 42.2059 16.966C42.0854 16.2834 42.0039 15.5147 41.9627 14.6584C41.9625 14.2451 41.9533 13.8053 41.9437 13.3449C41.943 13.3132 41.9424 13.2813 41.9417 13.2494C41.9312 12.7478 41.9209 12.2196 41.9209 11.661C41.9209 10.4865 41.921 9.49737 41.9621 8.67661L41.9627 8.66414V8.65164C41.9627 7.80497 42.0434 7.05009 42.2002 6.38372L42.2034 6.36999L42.2059 6.35609C42.3232 5.69149 42.5173 5.11074 42.7877 4.57013C43.05 4.04542 43.4313 3.54476 43.9479 3.02819C45.3959 1.5802 47.2311 0.833984 49.4042 0.833984C50.4366 0.833984 51.3398 0.992303 52.2009 1.30545C53.0678 1.62067 53.8006 2.04804 54.4123 2.62143L54.4185 2.6273L54.425 2.63295C55.0445 3.17503 55.5897 3.8754 55.9789 4.65373Z" fill="black" stroke="black"/>
<path d="M81.9345 17.7649L81.8172 17.4303H81.4626H72.5598H72.2052L72.088 17.7649L70.4915 22.3205H68.3029L76.1687 0.958984H77.9361L85.7221 22.3205H83.5309L81.9345 17.7649ZM73.0499 15.0046L72.8135 15.6716H73.5212H80.5013H81.2062L80.9732 15.0064L77.504 5.10041L77.035 3.761L76.5609 5.09864L73.0499 15.0046Z" fill="black" stroke="black"/>
<path d="M94.3778 11.8712H93.8778V12.3712V17.2212H92.8715V12.3712V11.8712H92.3715H87.5215V10.8231H92.3715H92.8715V10.3231V5.55664H93.9196V10.3231V10.8231H94.4196H99.2279V11.8712H94.3778Z" fill="black" stroke="black"/>
<path d="M106.291 20.4783V19.9783V20.4783ZM106.291 20.4783H106.791M106.291 20.4783H106.791M106.791 20.4783H111.097C111.943 20.4783 112.745 20.3448 113.461 20.1212L113.461 20.1213M106.791 20.4783L113.461 20.1213M113.461 20.1213L113.47 20.1183M113.461 20.1213L113.47 20.1183M113.47 20.1183C114.167 19.8858 114.866 19.4683 115.428 18.8617M113.47 20.1183L115.428 18.8617M113.312 3.63558L113.47 3.16115L113.461 3.15834L113.312 3.63558ZM113.312 3.63558C112.643 3.42659 111.891 3.3012 111.097 3.3012H106.791M113.312 3.63558L106.791 3.3012M106.791 3.3012V2.8012H106.291V3.3012H106.791ZM115.428 18.8617C115.826 18.4605 116.108 17.9328 116.29 17.3886C116.516 16.7995 116.647 16.1764 116.733 15.5303C116.82 14.8784 116.863 14.1455 116.863 13.4579V13.4538V13.4496V13.4455V13.4413V13.4371V13.433V13.4288V13.4247V13.4205V13.4164V13.4122V13.408V13.4039V13.3997V13.3956V13.3914V13.3873V13.3832V13.379V13.3749V13.3707V13.3666V13.3624V13.3583V13.3541V13.35V13.3459V13.3417V13.3376V13.3335V13.3293V13.3252V13.3211V13.3169V13.3128V13.3087V13.3045V13.3004V13.2963V13.2922V13.288V13.2839V13.2798V13.2757V13.2715V13.2674V13.2633V13.2592V13.255V13.2509V13.2468V13.2427V13.2386V13.2345V13.2303V13.2262V13.2221V13.218V13.2139V13.2098V13.2057V13.2016V13.1975V13.1934V13.1893V13.1852V13.181V13.1769V13.1728V13.1687V13.1646V13.1605V13.1564V13.1523V13.1482V13.1441V13.1401V13.136V13.1319V13.1278V13.1237V13.1196V13.1155V13.1114V13.1073V13.1032V13.0991V13.0951V13.091V13.0869V13.0828V13.0787V13.0746V13.0705V13.0665V13.0624V13.0583V13.0542V13.0502V13.0461V13.042V13.0379V13.0338V13.0298V13.0257V13.0216V13.0176V13.0135V13.0094V13.0053V13.0013V12.9972V12.9931V12.9891V12.985V12.9809V12.9769V12.9728V12.9687V12.9647V12.9606V12.9566V12.9525V12.9484V12.9444V12.9403V12.9363V12.9322V12.9282V12.9241V12.92V12.916V12.9119V12.9079V12.9038V12.8998V12.8957V12.8917V12.8876V12.8836V12.8795V12.8755V12.8714V12.8674V12.8634V12.8593V12.8553V12.8512V12.8472V12.8431V12.8391V12.8351V12.831V12.827V12.8229V12.8189V12.8149V12.8108V12.8068V12.8028V12.7987V12.7947V12.7907V12.7866V12.7826V12.7786V12.7745V12.7705V12.7665V12.7625V12.7584V12.7544V12.7504V12.7464V12.7423V12.7383V12.7343V12.7303V12.7262V12.7222V12.7182V12.7142V12.7101V12.7061V12.7021V12.6981V12.6941V12.6901V12.686V12.682V12.678V12.674V12.67V12.666V12.662V12.6579V12.6539V12.6499V12.6459V12.6419V12.6379V12.6339V12.6299V12.6259V12.6219V12.6179V12.6139V12.6098V12.6058V12.6018V12.5978V12.5938V12.5898V12.5858V12.5818V12.5778V12.5738V12.5698V12.5658V12.5618V12.5578V12.5538V12.5498V12.5458V12.5418V12.5378V12.5339V12.5299V12.5259V12.5219V12.5179V12.5139V12.5099V12.5059V12.5019V12.4979V12.4939V12.4899V12.486V12.482V12.478V12.474V12.47V12.466V12.462V12.4581V12.4541V12.4501V12.4461V12.4421V12.4381V12.4342V12.4302V12.4262V12.4222V12.4182V12.4143V12.4103V12.4063V12.4023V12.3983V12.3944V12.3904V12.3864V12.3824V12.3785V12.3745V12.3705V12.3665V12.3626V12.3586V12.3546V12.3506V12.3467V12.3427V12.3387V12.3348V12.3308V12.3268V12.3229V12.3189V12.3149V12.3109V12.307V12.303V12.299V12.2951V12.2911V12.2872V12.2832V12.2792V12.2753V12.2713V12.2673V12.2634V12.2594V12.2554V12.2515V12.2475V12.2436V12.2396V12.2356V12.2317V12.2277V12.2238V12.2198V12.2158V12.2119V12.2079V12.204V12.2V12.1961V12.1921V12.1882V12.1842V12.1802V12.1763V12.1723V12.1684V12.1644V12.1605V12.1565V12.1526V12.1486V12.1447V12.1407V12.1368V12.1328V12.1289V12.1249V12.121V12.117V12.1131V12.1091V12.1052V12.1012V12.0973V12.0933V12.0894V12.0854V12.0815V12.0775V12.0736V12.0697V12.0657V12.0618V12.0578V12.0539V12.0499V12.046V12.0421V12.0381V12.0342V12.0302V12.0263V12.0223V12.0184V12.0145V12.0105V12.0066V12.0026V11.9987V11.9948V11.9908V11.9869V11.9829V11.979V11.9751V11.9711V11.9672V11.9633V11.9593V11.9554V11.9514V11.9475V11.9436V11.9396V11.9357V11.9318V11.9278V11.9239V11.92V11.916V11.9121V11.9082V11.9042V11.9003V11.8964V11.8924V11.8885V11.8846V11.8806V11.8767V11.8728V11.8688V11.8649V11.861V11.857V11.8531V11.8492V11.8453V11.8413V11.8374V11.8335V11.8295V11.8256V11.8217V11.8177V11.8138V11.8099V11.806V11.802V11.7981V11.7942V11.7903V11.7863V11.7824V11.7785V11.7745V11.7706V11.7667V11.7628V11.7588V11.7549V11.751V11.7471V11.7431V11.7392V11.7353V11.7314V11.7274V11.7235V11.7196V11.7157V11.7117V11.7078V11.7039V11.7V11.696V11.6921V11.6882V11.6843V11.6804V11.6764V11.6725V11.6686V11.6647V11.6607V11.6568V11.6529V11.649V11.6451V11.6411V11.6372V11.6333V11.6294V11.6254V11.6215V11.6176V11.6137V11.6098V11.6058V11.6019V11.598V11.5941V11.5902V11.5862V11.5823V11.5784V11.5745V11.5706V11.5666V11.5627V11.5588V11.5549V11.551V11.547V11.5431V11.5392V11.5353V11.5314V11.5274V11.5235V11.5196V11.5157V11.5118V11.5078V11.5039V11.5V11.4961V11.4922V11.4882V11.4843V11.4804V11.4765V11.4726V11.4687V11.4647V11.4608V11.4569V11.453V11.4491V11.4451V11.4412V11.4373V11.4334V11.4295V11.4255V11.4216V11.4177V11.4138V11.4099V11.406V11.402V11.3981V11.3942V11.3903V11.3864V11.3824V11.3785V11.3746V11.3707V11.3668V11.3629V11.3589V11.355V11.3511V11.3472V11.3433V11.3393V11.3354V11.3315V11.3276V11.3237V11.3198V11.3158V11.3119V11.308V11.3041V11.3002V11.2962V11.2923V11.2884V11.2845V11.2806V11.2767V11.2727V11.2688V11.2649V11.261V11.2571V11.2532V11.2492V11.2453V11.2414V11.2375V11.2336V11.2297V11.2257V11.2218V11.2179V11.214V11.2101V11.2062V11.2022V11.1983V11.1944V11.1905V11.1866V11.1827V11.1787V11.1748V11.1709V11.167V11.1631V11.1592V11.1553V11.1513V11.1474V11.1435V11.1396V11.1357V11.1318V11.1279V11.1239V11.12V11.1161V11.1122V11.1083V11.1044V11.1005V11.0966V11.0926V11.0887V11.0848V11.0809V11.077V11.0731V11.0692V11.0653V11.0613V11.0574V11.0535V11.0496V11.0457V11.0418V11.0379V11.034V11.0301V11.0262V11.0222V11.0183V11.0144V11.0105V11.0066V11.0027V10.9988V10.9949V10.991V10.9871V10.9832V10.9793V10.9753V10.9714V10.9675V10.9636V10.9597V10.9558V10.9519V10.948V10.9441V10.9402V10.9363V10.9324V10.9285V10.9246V10.9207V10.9168V10.9129V10.909V10.9051V10.9012V10.8973V10.8933V10.8894V10.8855V10.8816V10.8777V10.8738V10.8699V10.866V10.8621V10.8582V10.8543V10.8504V10.8465V10.8426V10.8387V10.8348V10.8309V10.827V10.8232V10.8193V10.8154V10.8115V10.8076V10.8037V10.7998V10.7959V10.792V10.7881V10.7842V10.7803V10.7764V10.7725V10.7686V10.7647V10.7608V10.7569V10.753V10.7492V10.7453V10.7414V10.7375V10.7336V10.7297V10.7258V10.7219V10.718V10.7141V10.7102V10.7064V10.7025V10.6986V10.6947V10.6908V10.6869V10.683V10.6792V10.6753V10.6714V10.6675V10.6636V10.6597V10.6558V10.652V10.6481V10.6442V10.6403V10.6364V10.6325V10.6287V10.6248V10.6209V10.617V10.6131V10.6093V10.6054V10.6015V10.5976V10.5938V10.5899V10.586V10.5821V10.5782V10.5744V10.5705V10.5666V10.5627V10.5589V10.555V10.5511V10.5472V10.5434V10.5395V10.5356V10.5318V10.5279V10.524V10.5201V10.5163V10.5124V10.5085V10.5047V10.5008V10.4969V10.4931V10.4892V10.4853V10.4815V10.4776V10.4737V10.4699V10.466V10.4621V10.4583V10.4544V10.4506V10.4467V10.4428V10.439V10.4351V10.4313V10.4274V10.4235V10.4197V10.4158V10.412V10.4081V10.4043V10.4004V10.3965V10.3927V10.3888V10.385V10.3811V10.3773V10.3734V10.3696V10.3657V10.3619V10.358V10.3542V10.3503V10.3465V10.3426V10.3388V10.3349V10.3311V10.3272V10.3234V10.3195V10.3157V10.3118V10.308V10.3042V10.3003V10.2965V10.2926V10.2888V10.2849V10.2811V10.2773V10.2734V10.2696V10.2657V10.2619V10.2581V10.2542V10.2504V10.2466V10.2427V10.2389V10.2351V10.2312V10.2274V10.2236V10.2197V10.2159V10.2121V10.2082V10.2044V10.2006V10.1968V10.1929V10.1891V10.1853V10.1815V10.1776V10.1738V10.17V10.1662V10.1623V10.1585V10.1547V10.1509V10.1471V10.1432V10.1394V10.1356V10.1318V10.128V10.1241V10.1203V10.1165V10.1127V10.1089V10.1051V10.1013V10.0974V10.0936V10.0898V10.086V10.0822V10.0784V10.0746V10.0708V10.067V10.0632V10.0594V10.0556V10.0518V10.0479V10.0441V10.0403V10.0365V10.0327V10.0289V10.0251V10.0213V10.0175V10.0137V10.0099V10.0062V10.0024V9.99856V9.99477V9.99097V9.98718V9.98339V9.9796V9.9758V9.97201V9.96822V9.96444V9.96065V9.95686V9.95307V9.94929V9.9455V9.94172V9.93793V9.93415V9.93037V9.92659V9.9228V9.91902V9.91525V9.91147V9.90769V9.90391V9.90013V9.89636V9.89258V9.88881V9.88503V9.88126V9.87749V9.87372V9.86995V9.86618V9.86241V9.85864V9.85487V9.8511V9.84734V9.84357V9.83981V9.83604V9.83228V9.82852V9.82475V9.82099V9.81723V9.81347V9.80971V9.80596V9.8022V9.79844V9.79469V9.79093V9.78718V9.78342V9.77967V9.77592V9.77217V9.76842V9.76467V9.76092V9.75717V9.75343V9.74968V9.74594V9.74219V9.73845V9.7347V9.73096V9.72722V9.72348V9.71974V9.716V9.71226V9.70853V9.70479V9.70105V9.69732V9.69359V9.68985V9.68612V9.68239V9.67866V9.67493V9.6712V9.66747V9.66374V9.66002V9.65629V9.65257V9.64884V9.64512V9.6414V9.63768V9.63396V9.63024V9.62652V9.6228V9.61908V9.61537V9.61165V9.60794V9.60423V9.60051V9.5968V9.59309V9.58938V9.58567V9.58196V9.57826V9.57455V9.57084V9.56714V9.56344V9.55973V9.55603V9.55233V9.54863V9.54493V9.54123V9.53753V9.53384V9.53014V9.52645V9.52275V9.51906V9.51537V9.51168V9.50799V9.5043V9.50061V9.49692V9.49324V9.48955V9.48587V9.48218V9.4785V9.47482V9.47114V9.46746V9.46378V9.4601V9.45643V9.45275V9.44908V9.4454L115.428 18.8617ZM111.515 22.3205H104.24V0.958984H111.515C112.639 0.958984 113.661 1.11984 114.551 1.46797C115.472 1.82838 116.276 2.29539 116.877 2.93333L116.882 2.93884L116.887 2.9442C117.427 3.48411 117.852 4.10097 118.162 4.75701C118.446 5.44662 118.674 6.14495 118.75 6.82559L118.752 6.83913L118.754 6.85257C118.876 7.58512 118.956 8.35099 118.956 9.11102V9.11568V9.12033V9.12498V9.12963V9.13428V9.13893V9.14357V9.14822V9.15286V9.15751V9.16215V9.16679V9.17143V9.17607V9.18071V9.18535V9.18999V9.19463V9.19926V9.2039V9.20853V9.21317V9.2178V9.22243V9.22706V9.23169V9.23632V9.24094V9.24557V9.2502V9.25482V9.25945V9.26407V9.26869V9.27331V9.27793V9.28255V9.28717V9.29179V9.29641V9.30102V9.30564V9.31025V9.31487V9.31948V9.32409V9.3287V9.33331V9.33792V9.34253V9.34713V9.35174V9.35635V9.36095V9.36555V9.37016V9.37476V9.37936V9.38396V9.38856V9.39316V9.39776V9.40236V9.40695V9.41155V9.41614V9.42073V9.42533V9.42992V9.43451V9.4391V9.44369V9.44828V9.45287V9.45745V9.46204V9.46663V9.47121V9.47579V9.48038V9.48496V9.48954V9.49412V9.4987V9.50328V9.50786V9.51244V9.51701V9.52159V9.52617V9.53074V9.53531V9.53989V9.54446V9.54903V9.5536V9.55817V9.56274V9.56731V9.57187V9.57644V9.581V9.58557V9.59013V9.5947V9.59926V9.60382V9.60838V9.61294V9.6175V9.62206V9.62662V9.63118V9.63573V9.64029V9.64485V9.6494V9.65395V9.65851V9.66306V9.66761V9.67216V9.67671V9.68126V9.68581V9.69036V9.6949V9.69945V9.704V9.70854V9.71309V9.71763V9.72217V9.72671V9.73126V9.7358V9.74034V9.74488V9.74941V9.75395V9.75849V9.76303V9.76756V9.7721V9.77663V9.78117V9.7857V9.79023V9.79476V9.79929V9.80382V9.80835V9.81288V9.81741V9.82194V9.82647V9.83099V9.83552V9.84004V9.84457V9.84909V9.85361V9.85814V9.86266V9.86718V9.8717V9.87622V9.88074V9.88526V9.88978V9.89429V9.89881V9.90333V9.90784V9.91236V9.91687V9.92138V9.9259V9.93041V9.93492V9.93943V9.94394V9.94845V9.95296V9.95747V9.96198V9.96648V9.97099V9.9755V9.98V9.98451V9.98901V9.99351V9.99802V10.0025V10.007V10.0115V10.016V10.0205V10.025V10.0295V10.034V10.0385V10.043V10.0475V10.052V10.0565V10.061V10.0655V10.07V10.0745V10.079V10.0835V10.088V10.0924V10.0969V10.1014V10.1059V10.1104V10.1149V10.1194V10.1239V10.1284V10.1328V10.1373V10.1418V10.1463V10.1508V10.1553V10.1597V10.1642V10.1687V10.1732V10.1777V10.1822V10.1866V10.1911V10.1956V10.2001V10.2045V10.209V10.2135V10.218V10.2225V10.2269V10.2314V10.2359V10.2404V10.2448V10.2493V10.2538V10.2582V10.2627V10.2672V10.2717V10.2761V10.2806V10.2851V10.2895V10.294V10.2985V10.3029V10.3074V10.3119V10.3163V10.3208V10.3253V10.3297V10.3342V10.3386V10.3431V10.3476V10.352V10.3565V10.361V10.3654V10.3699V10.3743V10.3788V10.3833V10.3877V10.3922V10.3966V10.4011V10.4055V10.41V10.4145V10.4189V10.4234V10.4278V10.4323V10.4367V10.4412V10.4456V10.4501V10.4545V10.459V10.4634V10.4679V10.4723V10.4768V10.4812V10.4857V10.4901V10.4946V10.499V10.5035V10.5079V10.5124V10.5168V10.5213V10.5257V10.5302V10.5346V10.5391V10.5435V10.5479V10.5524V10.5568V10.5613V10.5657V10.5702V10.5746V10.579V10.5835V10.5879V10.5924V10.5968V10.6012V10.6057V10.6101V10.6146V10.619V10.6234V10.6279V10.6323V10.6368V10.6412V10.6456V10.6501V10.6545V10.6589V10.6634V10.6678V10.6722V10.6767V10.6811V10.6855V10.69V10.6944V10.6988V10.7033V10.7077V10.7121V10.7166V10.721V10.7254V10.7299V10.7343V10.7387V10.7431V10.7476V10.752V10.7564V10.7609V10.7653V10.7697V10.7741V10.7786V10.783V10.7874V10.7919V10.7963V10.8007V10.8051V10.8096V10.814V10.8184V10.8228V10.8273V10.8317V10.8361V10.8405V10.845V10.8494V10.8538V10.8582V10.8626V10.8671V10.8715V10.8759V10.8803V10.8848V10.8892V10.8936V10.898V10.9024V10.9069V10.9113V10.9157V10.9201V10.9245V10.929V10.9334V10.9378V10.9422V10.9466V10.9511V10.9555V10.9599V10.9643V10.9687V10.9731V10.9776V10.982V10.9864V10.9908V10.9952V10.9997V11.0041V11.0085V11.0129V11.0173V11.0217V11.0261V11.0306V11.035V11.0394V11.0438V11.0482V11.0526V11.057V11.0615V11.0659V11.0703V11.0747V11.0791V11.0835V11.0879V11.0924V11.0968V11.1012V11.1056V11.11V11.1144V11.1188V11.1232V11.1277V11.1321V11.1365V11.1409V11.1453V11.1497V11.1541V11.1585V11.163V11.1674V11.1718V11.1762V11.1806V11.185V11.1894V11.1938V11.1982V11.2027V11.2071V11.2115V11.2159V11.2203V11.2247V11.2291V11.2335V11.2379V11.2423V11.2468V11.2512V11.2556V11.26V11.2644V11.2688V11.2732V11.2776V11.282V11.2864V11.2908V11.2953V11.2997V11.3041V11.3085V11.3129V11.3173V11.3217V11.3261V11.3305V11.3349V11.3393V11.3437V11.3482V11.3526V11.357V11.3614V11.3658V11.3702V11.3746V11.379V11.3834V11.3878V11.3922V11.3966V11.4011V11.4055V11.4099V11.4143V11.4187V11.4231V11.4275V11.4319V11.4363V11.4408V11.4452V11.4496V11.454V11.4584V11.4628V11.4673V11.4717V11.4761V11.4805V11.485V11.4894V11.4938V11.4982V11.5027V11.5071V11.5115V11.5159V11.5204V11.5248V11.5292V11.5337V11.5381V11.5426V11.547V11.5514V11.5559V11.5603V11.5648V11.5692V11.5736V11.5781V11.5825V11.587V11.5914V11.5959V11.6003V11.6048V11.6092V11.6137V11.6181V11.6226V11.627V11.6315V11.6359V11.6404V11.6449V11.6493V11.6538V11.6582V11.6627V11.6672V11.6716V11.6761V11.6806V11.685V11.6895V11.694V11.6984V11.7029V11.7074V11.7119V11.7163V11.7208V11.7253V11.7298V11.7342V11.7387V11.7432V11.7477V11.7521V11.7566V11.7611V11.7656V11.7701V11.7746V11.7791V11.7835V11.788V11.7925V11.797V11.8015V11.806V11.8105V11.815V11.8195V11.824V11.8285V11.833V11.8375V11.842V11.8465V11.851V11.8555V11.86V11.8645V11.869V11.8735V11.878V11.8825V11.887V11.8916V11.8961V11.9006V11.9051V11.9096V11.9141V11.9186V11.9232V11.9277V11.9322V11.9367V11.9412V11.9458V11.9503V11.9548V11.9593V11.9639V11.9684V11.9729V11.9774V11.982V11.9865V11.991V11.9956V12.0001V12.0046V12.0092V12.0137V12.0183V12.0228V12.0273V12.0319V12.0364V12.041V12.0455V12.05V12.0546V12.0591V12.0637V12.0682V12.0728V12.0773V12.0819V12.0864V12.091V12.0955V12.1001V12.1047V12.1092V12.1138V12.1183V12.1229V12.1274V12.132V12.1366V12.1411V12.1457V12.1503V12.1548V12.1594V12.164V12.1685V12.1731V12.1777V12.1823V12.1868V12.1914V12.196V12.2006V12.2051V12.2097V12.2143V12.2189V12.2234V12.228V12.2326V12.2372V12.2418V12.2464V12.251V12.2555V12.2601V12.2647V12.2693V12.2739V12.2785V12.2831V12.2877V12.2923V12.2969V12.3015V12.3061V12.3107V12.3153V12.3199V12.3245V12.3291V12.3337V12.3383V12.3429V12.3475V12.3521V12.3567V12.3613V12.3659V12.3705V12.3752V12.3798V12.3844V12.389V12.3936V12.3982V12.4029V12.4075V12.4121V12.4167V12.4213V12.426V12.4306V12.4352V12.4398V12.4445V12.4491V12.4537V12.4583V12.463V12.4676V12.4722V12.4769V12.4815V12.4861V12.4908V12.4954V12.5001V12.5047V12.5093V12.514V12.5186V12.5233V12.5279V12.5326V12.5372V12.5418V12.5465V12.5511V12.5558V12.5604V12.5651V12.5697V12.5744V12.5791V12.5837V12.5884V12.593V12.5977V12.6023V12.607V12.6117V12.6163V12.621V12.6257V12.6303V12.635V12.6397V12.6443V12.649V12.6537V12.6583V12.663V12.6677V12.6724V12.677V12.6817V12.6864V12.6911V12.6957V12.7004V12.7051V12.7098V12.7145V12.7191V12.7238V12.7285V12.7332V12.7379V12.7426V12.7473V12.752V12.7566V12.7613V12.766V12.7707V12.7754V12.7801V12.7848V12.7895V12.7942V12.7989V12.8036V12.8083V12.813V12.8177V12.8224V12.8271V12.8318V12.8365V12.8412V12.846V12.8507V12.8554V12.8601V12.8648V12.8695V12.8742V12.8789V12.8837V12.8884V12.8931V12.8978V12.9025V12.9073V12.912V12.9167V12.9214V12.9262V12.9309V12.9356V12.9403V12.9451V12.9498V12.9545V12.9593V12.964V12.9687V12.9735V12.9782V12.9829V12.9877V12.9924V12.9972V13.0019V13.0066V13.0114V13.0161V13.0209V13.0256V13.0304V13.0351V13.0399V13.0446V13.0494V13.0541V13.0589V13.0636V13.0684V13.0731V13.0779V13.0826V13.0874V13.0921V13.0969V13.1017V13.1064V13.1112V13.116V13.1207V13.1255V13.1303V13.135V13.1398V13.1446V13.1493V13.1541V13.1589V13.1636V13.1684V13.1732V13.178V13.1828V13.1875V13.1923V13.1971V13.2019V13.2067V13.2114V13.2162V13.221V13.2258V13.2306V13.2354V13.2402V13.2449V13.2497V13.2545V13.2593V13.2641V13.2689V13.2737V13.2785V13.2833V13.2881V13.2929V13.2977V13.3025V13.3073V13.3121V13.3169V13.3217V13.3265V13.3313V13.3361V13.3409V13.3457V13.3506V13.3554V13.3602V13.365V13.3698V13.3746V13.3794V13.3843V13.3891V13.3939V13.3987V13.4035V13.4084V13.4132V13.418V13.4228V13.4277V13.4325V13.4373V13.4421V13.447V13.4518V13.4566V13.4615V13.4663V13.4711V13.476V13.4808V13.4856V13.4905V13.4953V13.5002V13.505V13.5098V13.5147V13.5195V13.5244V13.5292V13.5341V13.5389V13.5438V13.5486V13.5535V13.5583V13.5632V13.568V13.5729V13.5777V13.5826V13.5874V13.5923V13.5972V13.602V13.6069V13.6117V13.6166V13.6215V13.6263V13.6312V13.6361V13.6409V13.6458V13.6507V13.6555V13.6604V13.6653V13.6702V13.675V13.6799V13.6848V13.6897V13.6945V13.6994V13.7043V13.7092V13.7141V13.719V13.7238V13.7287V13.7336V13.7385V13.7434V13.7483V13.7532V13.7581V13.7629V13.7678V13.7727V13.7776V13.7825V13.7874V13.7923C118.956 14.595 118.876 15.4041 118.753 16.2241C118.632 16.989 118.431 17.7887 118.154 18.5014C117.887 19.1885 117.468 19.8346 116.9 20.3651L116.893 20.371L116.887 20.3771C116.274 20.99 115.505 21.4933 114.572 21.8453C113.651 22.1243 112.619 22.3205 111.515 22.3205Z" fill="black" stroke="black"/>
</svg>
