<svg width="121" height="45" viewBox="0 0 121 45" fill="none" xmlns="http://www.w3.org/2000/svg">
<mask id="path-1-inside-1_252_619" fill="white">
<path d="M105.527 44.2585H113.167V42.1441H111.005C110.476 42.1441 109.755 42.1922 109.179 42.2883C110.957 40.4622 112.639 38.492 112.639 36.666C112.639 34.5997 111.197 33.2061 109.035 33.2061C107.497 33.2061 106.488 33.7827 105.383 34.936L106.728 36.2815C107.257 35.7049 107.881 35.1763 108.65 35.1763C109.611 35.1763 110.188 35.753 110.188 36.8101C110.188 38.3479 108.266 40.222 105.479 42.8169V44.2585H105.527ZM95.6275 44.2585H103.268V42.1441H101.106C100.577 42.1441 99.8563 42.1922 99.2797 42.2883C101.058 40.4622 102.74 38.492 102.74 36.666C102.74 34.5997 101.298 33.2061 99.1355 33.2061C97.5978 33.2061 96.5886 33.7827 95.4834 34.936L96.8289 36.2815C97.3575 35.7049 97.9822 35.1763 98.7511 35.1763C99.7121 35.1763 100.289 35.753 100.289 36.8101C100.289 38.3479 98.3666 40.222 95.5795 42.8169V44.2585H95.6275ZM89.8611 42.4805C89.0441 42.4805 88.3714 41.7117 88.3714 38.7804C88.3714 35.801 89.0441 35.1283 89.8611 35.1283C90.726 35.1283 91.3507 35.801 91.3507 38.7804C91.3507 41.7117 90.726 42.4805 89.8611 42.4805ZM89.8611 44.4507C92.1677 44.4507 93.7534 42.4805 93.7534 38.7804C93.7534 35.0802 92.2157 33.2061 89.8611 33.2061C87.5545 33.2061 85.9687 35.0802 85.9687 38.7804C85.9687 42.4805 87.5064 44.4507 89.8611 44.4507ZM76.2618 44.2585H83.9024V42.1441H81.6919C81.1633 42.1441 80.4425 42.1922 79.8658 42.2883C81.6438 40.4622 83.3257 38.492 83.3257 36.666C83.3257 34.5997 81.8841 33.2061 79.7217 33.2061C78.1839 33.2061 77.1748 33.7827 76.0696 34.936L77.4151 36.2815C77.9437 35.7049 78.5684 35.1763 79.3372 35.1763C80.2983 35.1763 80.875 35.753 80.875 36.8101C80.875 38.3479 78.9528 40.222 76.1657 42.8169V44.2585H76.2618ZM62.6625 43.5858V33.6386H64.3924C67.4679 33.6386 68.7654 35.6568 68.7654 38.5401C68.7654 41.4714 67.4198 43.5377 64.3924 43.5377L62.6625 43.5858ZM61.8936 44.2585H64.4885C67.9484 44.2585 69.5823 42 69.5823 38.5881C69.5823 35.1763 67.9484 33.0139 64.4405 33.0139H61.8456L61.8936 44.2585ZM58.9623 44.2585L55.8869 39.0206C57.6649 38.7804 58.7701 37.7712 58.7701 35.9452C58.7701 33.7827 57.2804 32.9658 55.07 32.9658H51.8503V44.2105H52.6192V39.0687H55.0219L58.0493 44.2585C58.0493 44.2585 58.9623 44.2585 58.9623 44.2585ZM52.6192 38.3959V33.6386H54.8297C56.848 33.6386 57.9051 34.2633 57.9051 35.9452C57.9051 37.579 56.7999 38.3959 54.8297 38.3959H52.6192ZM48.5346 44.2585H49.3515L45.4111 33.0139H44.6422L40.6537 44.2585H41.4707L42.7681 40.4142H47.2372L48.5346 44.2585ZM43.0084 39.6934L43.7292 37.579C44.2097 36.2335 44.5942 35.0802 44.9786 33.6866H45.0267C45.4111 35.0802 45.8436 36.2335 46.2761 37.579L46.9969 39.6934H43.0084ZM30.178 44.2585H31.0429L33.0612 36.5218C33.2534 35.6568 33.4937 34.888 33.6859 33.975H33.734C33.9262 34.8399 34.1184 35.6088 34.3106 36.5218L36.3769 44.2585H37.2419L39.7888 33.0139H39.0199L37.6263 39.6453C37.3861 40.8947 37.1458 42.0961 36.8575 43.2974H36.8094C36.5211 42.048 36.2328 40.8467 35.9445 39.6453L34.1184 32.9658H33.3495L31.5715 39.5973C31.2832 40.8467 30.9949 42.048 30.7066 43.2494H30.6585C30.4182 42.048 30.1299 40.7986 29.8896 39.5973L28.4961 32.9658H27.6792L30.178 44.2585ZM25.9492 44.2585H26.7661L22.8257 33.0139H22.0568L18.0684 44.2585H18.8853L20.1827 40.4142H24.6518L25.9492 44.2585ZM20.423 39.6934L21.1438 37.579C21.6244 36.2335 22.0088 35.0802 22.3932 33.6866H22.4413C22.8257 35.0802 23.2582 36.2335 23.6907 37.579L24.4115 39.6934H20.423Z"/>
</mask>
<path d="M105.527 44.2585H113.167V42.1441H111.005C110.476 42.1441 109.755 42.1922 109.179 42.2883C110.957 40.4622 112.639 38.492 112.639 36.666C112.639 34.5997 111.197 33.2061 109.035 33.2061C107.497 33.2061 106.488 33.7827 105.383 34.936L106.728 36.2815C107.257 35.7049 107.881 35.1763 108.65 35.1763C109.611 35.1763 110.188 35.753 110.188 36.8101C110.188 38.3479 108.266 40.222 105.479 42.8169V44.2585H105.527ZM95.6275 44.2585H103.268V42.1441H101.106C100.577 42.1441 99.8563 42.1922 99.2797 42.2883C101.058 40.4622 102.74 38.492 102.74 36.666C102.74 34.5997 101.298 33.2061 99.1355 33.2061C97.5978 33.2061 96.5886 33.7827 95.4834 34.936L96.8289 36.2815C97.3575 35.7049 97.9822 35.1763 98.7511 35.1763C99.7121 35.1763 100.289 35.753 100.289 36.8101C100.289 38.3479 98.3666 40.222 95.5795 42.8169V44.2585H95.6275ZM89.8611 42.4805C89.0441 42.4805 88.3714 41.7117 88.3714 38.7804C88.3714 35.801 89.0441 35.1283 89.8611 35.1283C90.726 35.1283 91.3507 35.801 91.3507 38.7804C91.3507 41.7117 90.726 42.4805 89.8611 42.4805ZM89.8611 44.4507C92.1677 44.4507 93.7534 42.4805 93.7534 38.7804C93.7534 35.0802 92.2157 33.2061 89.8611 33.2061C87.5545 33.2061 85.9687 35.0802 85.9687 38.7804C85.9687 42.4805 87.5064 44.4507 89.8611 44.4507ZM76.2618 44.2585H83.9024V42.1441H81.6919C81.1633 42.1441 80.4425 42.1922 79.8658 42.2883C81.6438 40.4622 83.3257 38.492 83.3257 36.666C83.3257 34.5997 81.8841 33.2061 79.7217 33.2061C78.1839 33.2061 77.1748 33.7827 76.0696 34.936L77.4151 36.2815C77.9437 35.7049 78.5684 35.1763 79.3372 35.1763C80.2983 35.1763 80.875 35.753 80.875 36.8101C80.875 38.3479 78.9528 40.222 76.1657 42.8169V44.2585H76.2618ZM62.6625 43.5858V33.6386H64.3924C67.4679 33.6386 68.7654 35.6568 68.7654 38.5401C68.7654 41.4714 67.4198 43.5377 64.3924 43.5377L62.6625 43.5858ZM61.8936 44.2585H64.4885C67.9484 44.2585 69.5823 42 69.5823 38.5881C69.5823 35.1763 67.9484 33.0139 64.4405 33.0139H61.8456L61.8936 44.2585ZM58.9623 44.2585L55.8869 39.0206C57.6649 38.7804 58.7701 37.7712 58.7701 35.9452C58.7701 33.7827 57.2804 32.9658 55.07 32.9658H51.8503V44.2105H52.6192V39.0687H55.0219L58.0493 44.2585C58.0493 44.2585 58.9623 44.2585 58.9623 44.2585ZM52.6192 38.3959V33.6386H54.8297C56.848 33.6386 57.9051 34.2633 57.9051 35.9452C57.9051 37.579 56.7999 38.3959 54.8297 38.3959H52.6192ZM48.5346 44.2585H49.3515L45.4111 33.0139H44.6422L40.6537 44.2585H41.4707L42.7681 40.4142H47.2372L48.5346 44.2585ZM43.0084 39.6934L43.7292 37.579C44.2097 36.2335 44.5942 35.0802 44.9786 33.6866H45.0267C45.4111 35.0802 45.8436 36.2335 46.2761 37.579L46.9969 39.6934H43.0084ZM30.178 44.2585H31.0429L33.0612 36.5218C33.2534 35.6568 33.4937 34.888 33.6859 33.975H33.734C33.9262 34.8399 34.1184 35.6088 34.3106 36.5218L36.3769 44.2585H37.2419L39.7888 33.0139H39.0199L37.6263 39.6453C37.3861 40.8947 37.1458 42.0961 36.8575 43.2974H36.8094C36.5211 42.048 36.2328 40.8467 35.9445 39.6453L34.1184 32.9658H33.3495L31.5715 39.5973C31.2832 40.8467 30.9949 42.048 30.7066 43.2494H30.6585C30.4182 42.048 30.1299 40.7986 29.8896 39.5973L28.4961 32.9658H27.6792L30.178 44.2585ZM25.9492 44.2585H26.7661L22.8257 33.0139H22.0568L18.0684 44.2585H18.8853L20.1827 40.4142H24.6518L25.9492 44.2585ZM20.423 39.6934L21.1438 37.579C21.6244 36.2335 22.0088 35.0802 22.3932 33.6866H22.4413C22.8257 35.0802 23.2582 36.2335 23.6907 37.579L24.4115 39.6934H20.423Z" fill="black" stroke="black" stroke-width="2" mask="url(#path-1-inside-1_252_619)"/>
<mask id="path-2-inside-2_252_619" fill="white">
<path d="M106.824 27.8714H113.119V27.1987H107.641V22.2491H112.158V21.5763H107.641V17.2995H113.023V16.6268H106.872L106.824 27.8714ZM103.893 27.8714L100.817 22.6335C102.595 22.3933 103.701 21.3841 103.701 19.5581C103.701 17.3957 102.211 16.5787 100 16.5787H96.7807V27.8714H97.5496V22.7296H99.9523L102.98 27.9195L103.893 27.8714ZM97.5977 22.0569V17.2995H99.8081C101.826 17.2995 102.884 17.9242 102.884 19.6061C102.884 21.24 101.778 22.0569 99.8081 22.0569H97.5977ZM85.488 23.5466C85.488 27.0545 87.3141 28.0636 89.2843 28.0636C91.2065 28.0636 93.0806 27.0545 93.0806 23.5466V16.6268H92.3117V23.4505C92.3117 26.4298 90.8701 27.3428 89.2363 27.3428C87.6505 27.3428 86.2089 26.4298 86.2089 23.4505V16.6268H85.44V23.5466H85.488ZM78.4722 27.8714H79.241V17.2995H82.797V16.6268H74.8681V17.2995H78.4722V27.8714ZM64.9209 22.2491C64.9209 25.8532 66.8431 28.1117 69.6302 28.1117C71.1199 28.1117 72.129 27.487 72.994 26.5259L72.5135 26.0454C71.6966 26.9584 70.8316 27.4389 69.6783 27.4389C67.2756 27.4389 65.7379 25.4207 65.7379 22.2972C65.7379 19.1736 67.2756 17.2034 69.7263 17.2034C70.7355 17.2034 71.5524 17.684 72.1771 18.3567L72.6576 17.8281C72.081 17.1073 71.0719 16.4826 69.7263 16.4826C66.8912 16.4346 64.9209 18.6451 64.9209 22.2491ZM56.7037 27.8714H62.9988V27.1987H57.4726V22.2491H61.9896V21.5763H57.4726V17.2995H62.8546V16.6268H56.7037V27.8714ZM49.6878 27.8714H50.4567V17.2995H54.0127V16.6268H46.0838V17.2995H49.6878V27.8714ZM42.6719 27.8714H43.4408V16.6268H42.6719V27.8714ZM31.3312 27.8714H32.1001V22.2491H38.1068V27.8714H38.9237V16.6268H38.1549V21.5763H32.1481V16.6268H31.3793V27.8714H31.3312ZM20.5671 22.2491C20.5671 25.8532 22.4893 28.1117 25.2764 28.1117C26.7661 28.1117 27.7752 27.487 28.6402 26.5259L28.1596 26.0454C27.3427 26.9103 26.4777 27.3909 25.2764 27.3909C22.8737 27.3909 21.336 25.3726 21.336 22.2491C21.336 19.1256 22.8737 17.1554 25.3245 17.1554C26.3336 17.1554 27.1505 17.6359 27.7752 18.3087L28.2557 17.7801C27.6791 17.0593 26.67 16.4346 25.3245 16.4346C22.4893 16.4346 20.5671 18.6451 20.5671 22.2491ZM18.3086 27.8714L15.2331 22.6335C17.0111 22.3933 18.1164 21.3841 18.1164 19.5581C18.1164 17.3957 16.6267 16.5787 14.4162 16.5787H11.1966V27.8714H11.9654V22.7296H14.3681L17.3955 27.8714H18.3086ZM11.9654 22.0569V17.2995H14.1759C16.1942 17.2995 17.2514 17.9242 17.2514 19.6061C17.2514 21.24 16.1461 22.0569 14.1759 22.0569H11.9654ZM7.88085 27.8714H8.69777L4.75735 16.6268H3.98848L0 27.8714H0.816918L2.11438 24.0271H6.5834L7.88085 27.8714ZM2.35465 23.3543L3.07546 21.24C3.556 19.8945 3.94043 18.7412 4.32486 17.3476H4.37291C4.75735 18.7412 5.18983 19.8945 5.62232 21.24L6.34313 23.3543H2.35465Z"/>
</mask>
<path d="M106.824 27.8714H113.119V27.1987H107.641V22.2491H112.158V21.5763H107.641V17.2995H113.023V16.6268H106.872L106.824 27.8714ZM103.893 27.8714L100.817 22.6335C102.595 22.3933 103.701 21.3841 103.701 19.5581C103.701 17.3957 102.211 16.5787 100 16.5787H96.7807V27.8714H97.5496V22.7296H99.9523L102.98 27.9195L103.893 27.8714ZM97.5977 22.0569V17.2995H99.8081C101.826 17.2995 102.884 17.9242 102.884 19.6061C102.884 21.24 101.778 22.0569 99.8081 22.0569H97.5977ZM85.488 23.5466C85.488 27.0545 87.3141 28.0636 89.2843 28.0636C91.2065 28.0636 93.0806 27.0545 93.0806 23.5466V16.6268H92.3117V23.4505C92.3117 26.4298 90.8701 27.3428 89.2363 27.3428C87.6505 27.3428 86.2089 26.4298 86.2089 23.4505V16.6268H85.44V23.5466H85.488ZM78.4722 27.8714H79.241V17.2995H82.797V16.6268H74.8681V17.2995H78.4722V27.8714ZM64.9209 22.2491C64.9209 25.8532 66.8431 28.1117 69.6302 28.1117C71.1199 28.1117 72.129 27.487 72.994 26.5259L72.5135 26.0454C71.6966 26.9584 70.8316 27.4389 69.6783 27.4389C67.2756 27.4389 65.7379 25.4207 65.7379 22.2972C65.7379 19.1736 67.2756 17.2034 69.7263 17.2034C70.7355 17.2034 71.5524 17.684 72.1771 18.3567L72.6576 17.8281C72.081 17.1073 71.0719 16.4826 69.7263 16.4826C66.8912 16.4346 64.9209 18.6451 64.9209 22.2491ZM56.7037 27.8714H62.9988V27.1987H57.4726V22.2491H61.9896V21.5763H57.4726V17.2995H62.8546V16.6268H56.7037V27.8714ZM49.6878 27.8714H50.4567V17.2995H54.0127V16.6268H46.0838V17.2995H49.6878V27.8714ZM42.6719 27.8714H43.4408V16.6268H42.6719V27.8714ZM31.3312 27.8714H32.1001V22.2491H38.1068V27.8714H38.9237V16.6268H38.1549V21.5763H32.1481V16.6268H31.3793V27.8714H31.3312ZM20.5671 22.2491C20.5671 25.8532 22.4893 28.1117 25.2764 28.1117C26.7661 28.1117 27.7752 27.487 28.6402 26.5259L28.1596 26.0454C27.3427 26.9103 26.4777 27.3909 25.2764 27.3909C22.8737 27.3909 21.336 25.3726 21.336 22.2491C21.336 19.1256 22.8737 17.1554 25.3245 17.1554C26.3336 17.1554 27.1505 17.6359 27.7752 18.3087L28.2557 17.7801C27.6791 17.0593 26.67 16.4346 25.3245 16.4346C22.4893 16.4346 20.5671 18.6451 20.5671 22.2491ZM18.3086 27.8714L15.2331 22.6335C17.0111 22.3933 18.1164 21.3841 18.1164 19.5581C18.1164 17.3957 16.6267 16.5787 14.4162 16.5787H11.1966V27.8714H11.9654V22.7296H14.3681L17.3955 27.8714H18.3086ZM11.9654 22.0569V17.2995H14.1759C16.1942 17.2995 17.2514 17.9242 17.2514 19.6061C17.2514 21.24 16.1461 22.0569 14.1759 22.0569H11.9654ZM7.88085 27.8714H8.69777L4.75735 16.6268H3.98848L0 27.8714H0.816918L2.11438 24.0271H6.5834L7.88085 27.8714ZM2.35465 23.3543L3.07546 21.24C3.556 19.8945 3.94043 18.7412 4.32486 17.3476H4.37291C4.75735 18.7412 5.18983 19.8945 5.62232 21.24L6.34313 23.3543H2.35465Z" fill="black" stroke="black" stroke-width="2" mask="url(#path-2-inside-2_252_619)"/>
<path d="M104.056 6.15108V5.65108H104.008V0.932653H105.94V6.48746C105.94 7.49358 106.07 8.29024 106.428 8.84367C106.821 9.45022 107.426 9.67848 108.121 9.67848C108.833 9.67848 109.452 9.45543 109.854 8.8478C110.221 8.29245 110.351 7.49274 110.351 6.48746V0.932653H112.187V6.15108C112.187 8.00497 111.843 9.26058 111.21 10.0485C110.595 10.8125 109.635 11.2253 108.169 11.2253C106.704 11.2253 105.715 10.8119 105.076 10.0425C104.421 9.25344 104.056 7.99862 104.056 6.15108ZM85.2763 9.08238V9.58238H85.7763H89.6973V11.0331H83.345V0.932653H89.5051V2.38341H85.7763H85.2763V2.88341V4.61335V5.11335H85.7763H88.8804V6.61216H85.7763H85.2763V7.11216V9.08238ZM77.511 2.38341H77.011V2.88341V11.0331H75.0797V2.88341V2.38341H74.5797H72.1484V0.932653H79.9423V2.38341H77.511ZM97.8379 11.2253C96.4774 11.2253 95.2643 10.7915 94.3945 9.95364C93.5291 9.12014 92.9558 7.84102 92.9558 6.05497C92.9558 4.32514 93.5482 3.00331 94.4482 2.10875C95.3508 1.21148 96.5917 0.715431 97.938 0.692385C98.9743 0.693577 99.9092 1.1522 100.6 1.7229L99.6551 2.81108C99.1905 2.46528 98.6763 2.23925 97.982 2.23925C96.2642 2.23925 95.0313 3.77159 95.0313 5.95887C95.0313 7.06247 95.2872 7.98734 95.7957 8.6484C96.3155 9.32415 97.0658 9.67848 97.934 9.67848C98.6931 9.67848 99.3182 9.43042 99.8236 9.02824L100.761 10.0797C99.9417 10.8538 98.9107 11.2253 97.8379 11.2253Z" fill="black" stroke="black"/>
<path d="M119.01 2.35465C119.01 2.38329 119.007 2.40965 119.001 2.43357C118.999 2.3343 118.983 2.22048 118.938 2.10789C118.98 2.15752 119.01 2.23115 119.01 2.35465Z" fill="black" stroke="black"/>
</svg>
