<svg width="110" height="41" viewBox="0 0 110 41" fill="none" xmlns="http://www.w3.org/2000/svg">
<path d="M95.9333 40.2348H102.879V38.3127H100.913C100.433 38.3127 99.7777 38.3564 99.2534 38.4437C100.87 36.7837 102.399 34.9926 102.399 33.3325C102.399 31.4541 101.088 30.1872 99.1224 30.1872C97.7244 30.1872 96.8071 30.7114 95.8023 31.7599L97.0255 32.983C97.506 32.4588 98.0739 31.9783 98.7729 31.9783C99.6466 31.9783 100.171 32.5025 100.171 33.4636C100.171 34.8615 98.4234 36.5653 95.8896 38.9243V40.2348H95.9333ZM86.9341 40.2348H93.8801V38.3127H91.9143C91.4337 38.3127 90.7785 38.3564 90.2542 38.4437C91.8706 36.7837 93.3996 34.9926 93.3996 33.3325C93.3996 31.4541 92.089 30.1872 90.1232 30.1872C88.7252 30.1872 87.8078 30.7114 86.8031 31.7599L88.0263 32.983C88.5068 32.4588 89.0747 31.9783 89.7737 31.9783C90.6474 31.9783 91.1716 32.5025 91.1716 33.4636C91.1716 34.8615 89.4242 36.5653 86.8904 38.9243V40.2348H86.9341ZM81.6919 38.6185C80.9492 38.6185 80.3376 37.9195 80.3376 35.2547C80.3376 32.5462 80.9492 31.9346 81.6919 31.9346C82.4782 31.9346 83.0461 32.5462 83.0461 35.2547C83.0461 37.9195 82.4782 38.6185 81.6919 38.6185ZM81.6919 40.4096C83.7888 40.4096 85.2304 38.6185 85.2304 35.2547C85.2304 31.8909 83.8325 30.1872 81.6919 30.1872C79.595 30.1872 78.1533 31.8909 78.1533 35.2547C78.1533 38.6185 79.5513 40.4096 81.6919 40.4096ZM69.3289 40.2348H76.2749V38.3127H74.2653C73.7848 38.3127 73.1295 38.3564 72.6053 38.4437C74.2217 36.7837 75.7506 34.9926 75.7506 33.3325C75.7506 31.4541 74.4401 30.1872 72.4742 30.1872C71.0763 30.1872 70.1589 30.7114 69.1541 31.7599L70.3773 32.983C70.8579 32.4588 71.4258 31.9783 72.1248 31.9783C72.9985 31.9783 73.5227 32.5025 73.5227 33.4636C73.5227 34.8615 71.7753 36.5653 69.2415 38.9243V40.2348H69.3289ZM56.9659 39.6232V30.5803H58.5386C61.3344 30.5803 62.514 32.4151 62.514 35.0363C62.514 37.7011 61.2908 39.5796 58.5386 39.5796L56.9659 39.6232ZM56.2669 40.2348H58.6259C61.7713 40.2348 63.2566 38.1816 63.2566 35.08C63.2566 31.9783 61.7713 30.0124 58.5823 30.0124H56.2232L56.2669 40.2348ZM53.6021 40.2348L50.8063 35.4731C52.4226 35.2547 53.4274 34.3373 53.4274 32.6773C53.4274 30.7114 52.0731 29.9688 50.0636 29.9688H47.1367V40.1912H47.8356V35.5168H50.0199L52.7721 40.2348H53.6021ZM47.8356 34.9052V30.5803H49.8452C51.68 30.5803 52.641 31.1483 52.641 32.6773C52.641 34.1626 51.6363 34.9052 49.8452 34.9052H47.8356ZM44.1224 40.2348H44.865L41.2828 30.0124H40.5838L36.958 40.2348H37.7006L38.8801 36.74H42.9429L44.1224 40.2348ZM39.0985 36.0847L39.7538 34.1626C40.1907 32.9394 40.5402 31.8909 40.8896 30.624H40.9333C41.2828 31.8909 41.676 32.9394 42.0692 34.1626L42.7244 36.0847H39.0985ZM27.4345 40.2348H28.2209L30.0557 33.2015C30.2304 32.4151 30.4488 31.7162 30.6236 30.8861H30.6672C30.842 31.6725 31.0167 32.3715 31.1915 33.2015L33.0699 40.2348H33.8563L36.1716 30.0124H35.4726L34.2058 36.041C33.9873 37.1769 33.7689 38.269 33.5068 39.3611H33.4631C33.201 38.2253 32.9389 37.1332 32.6768 36.041L31.0167 29.9688H30.3178L28.7014 35.9973C28.4393 37.1332 28.1772 38.2253 27.9151 39.3174H27.8714C27.6529 38.2253 27.3908 37.0895 27.1724 35.9973L25.9055 29.9688H25.1629L27.4345 40.2348ZM23.5902 40.2348H24.3329L20.7506 30.0124H20.0517L16.4258 40.2348H17.1684L18.3479 36.74H22.4107L23.5902 40.2348ZM18.5664 36.0847L19.2217 34.1626C19.6585 32.9394 20.008 31.8909 20.3575 30.624H20.4012C20.7506 31.8909 21.1438 32.9394 21.537 34.1626L22.1923 36.0847H18.5664Z" fill="black"/>
<path d="M97.1128 25.3376H102.836V24.726H97.8554V20.2264H101.962V19.6148H97.8554V15.7268H102.748V15.1152H97.1564L97.1128 25.3376ZM94.4479 25.3376L91.6521 20.5759C93.2684 20.3574 94.2732 19.44 94.2732 17.78C94.2732 15.8141 92.919 15.0715 90.9094 15.0715H87.9825V25.3376H88.6815V20.6632H90.8657L93.6179 25.3813L94.4479 25.3376ZM88.7252 20.0516V15.7268H90.7347C92.5695 15.7268 93.5305 16.2947 93.5305 17.8237C93.5305 19.309 92.5258 20.0516 90.7347 20.0516H88.7252ZM77.7164 21.4059C77.7164 24.5949 79.3765 25.5123 81.1676 25.5123C82.915 25.5123 84.6187 24.5949 84.6187 21.4059V15.1152H83.9197V21.3185C83.9197 24.027 82.6092 24.857 81.1239 24.857C79.6823 24.857 78.3717 24.027 78.3717 21.3185V15.1152H77.6727V21.4059H77.7164ZM71.3383 25.3376H72.0373V15.7268H75.27V15.1152H68.0619V15.7268H71.3383V25.3376ZM59.019 20.2264C59.019 23.5028 60.7665 25.556 63.3002 25.556C64.6545 25.556 65.5719 24.9881 66.3582 24.1144L65.9213 23.6775C65.1787 24.5075 64.3923 24.9444 63.3439 24.9444C61.1596 24.9444 59.7617 23.1096 59.7617 20.2701C59.7617 17.4305 61.1596 15.6394 63.3876 15.6394C64.305 15.6394 65.0476 16.0763 65.6155 16.6878L66.0524 16.2073C65.5282 15.552 64.6108 14.9841 63.3876 14.9841C60.8101 14.9404 59.019 16.95 59.019 20.2264ZM51.5488 25.3376H57.2716V24.726H52.2478V20.2264H56.3542V19.6148H52.2478V15.7268H57.1406V15.1152H51.5488V25.3376ZM45.1708 25.3376H45.8697V15.7268H49.1024V15.1152H41.8943V15.7268H45.1708V25.3376ZM38.7927 25.3376H39.4916V15.1152H38.7927V25.3376ZM28.4829 25.3376H29.1819V20.2264H34.6426V25.3376H35.3852V15.1152H34.6862V19.6148H29.2256V15.1152H28.5266V25.3376H28.4829ZM18.6974 20.2264C18.6974 23.5028 20.4448 25.556 22.9785 25.556C24.3328 25.556 25.2502 24.9881 26.0365 24.1144L25.5997 23.6775C24.857 24.4639 24.0707 24.9007 22.9785 24.9007C20.7943 24.9007 19.3963 23.0659 19.3963 20.2264C19.3963 17.3868 20.7943 15.5957 23.0222 15.5957C23.9396 15.5957 24.6823 16.0326 25.2502 16.6442L25.687 16.1636C25.1628 15.5083 24.2454 14.9404 23.0222 14.9404C20.4448 14.9404 18.6974 16.95 18.6974 20.2264ZM16.6442 25.3376L13.8483 20.5759C15.4646 20.3574 16.4694 19.44 16.4694 17.78C16.4694 15.8141 15.1152 15.0715 13.1056 15.0715H10.1787V25.3376H10.8777V20.6632H13.0619L15.8141 25.3376H16.6442ZM10.8777 20.0516V15.7268H12.8872C14.722 15.7268 15.6831 16.2947 15.6831 17.8237C15.6831 19.309 14.6783 20.0516 12.8872 20.0516H10.8777ZM7.16441 25.3376H7.90707L4.32486 15.1152H3.62589L0 25.3376H0.742653L1.92216 21.8427H5.98491L7.16441 25.3376ZM2.14059 21.2311L2.79587 19.309C3.23272 18.0858 3.58221 17.0373 3.93169 15.7705H3.97538C4.32486 17.0373 4.71803 18.0858 5.1112 19.309L5.76648 21.2311H2.14059Z" fill="black"/>
<path d="M94.1419 5.5918C94.1419 9.04296 95.4962 10.6593 98.3357 10.6593C101.175 10.6593 102.442 9.04296 102.442 5.5918V0.393232H99.8647V5.8976C99.8647 7.68871 99.3842 8.34399 98.292 8.34399C97.2436 8.34399 96.763 7.68871 96.763 5.8976V0.393232H94.0982V5.5918H94.1419ZM84.0506 5.50443C84.0506 8.95558 86.2785 10.6593 88.9433 10.6593C90.1665 10.6593 91.346 10.1788 92.2198 9.17401L90.7781 7.55765C90.3413 8.03819 89.7734 8.34399 89.0307 8.34399C87.7202 8.34399 86.8464 7.29554 86.8464 5.41706C86.8464 3.58227 87.8512 2.49013 89.0744 2.49013C89.7297 2.49013 90.1665 2.75225 90.6471 3.1891L92.0887 1.52905C91.3897 0.830087 90.2976 0.174805 89.0307 0.174805C86.3659 0.21849 84.0506 2.14065 84.0506 5.50443ZM75.3135 10.4846H81.9974V8.25662H77.9783V6.46551H81.2547V4.19387H77.9783V2.62119H81.8226V0.393232H75.3135V10.4846ZM67.7996 10.4846H70.4644V2.62119H73.1292V0.393232H65.1348V2.62119H67.7996V10.4846Z" fill="black"/>
<path d="M107.204 2.49007V1.92216H107.423C107.641 1.92216 107.728 2.05322 107.728 2.22796C107.728 2.35902 107.641 2.53376 107.423 2.53376L107.204 2.49007ZM106.418 3.71327H107.204V3.0143H107.51L107.86 3.71327H108.69L108.209 2.79587C108.515 2.66481 108.646 2.4027 108.646 2.14059C108.646 1.57268 108.209 1.31056 107.641 1.31056H106.462L106.418 3.71327ZM107.466 4.41223C106.418 4.41223 105.719 3.66958 105.719 2.53376C105.719 1.39794 106.462 0.655282 107.466 0.655282C108.515 0.655282 109.214 1.39794 109.214 2.53376C109.214 3.66958 108.515 4.41223 107.466 4.41223ZM107.466 5.06751C108.864 5.06751 110 4.01906 110 2.53376C110 1.04845 108.864 0 107.466 0C106.068 0 104.933 1.04845 104.933 2.53376C104.933 4.01906 106.068 5.06751 107.466 5.06751Z" fill="black"/>
</svg>
