<svg width="60" height="26" viewBox="0 0 60 26" fill="none" xmlns="http://www.w3.org/2000/svg">
<mask id="path-1-inside-1_252_689" fill="white">
<path d="M50.0518 21.5491L42.6581 4.12578C42.5542 3.75937 42.0866 3.60352 41.7722 3.60352H41.5644C41.2007 3.60352 40.7824 3.86601 40.6265 4.18046L33.1809 21.5518C33.1289 21.6038 33.1289 21.6557 33.1289 21.7077C33.1289 21.8635 33.2848 22.0221 33.4406 22.0221H35.5242C35.6801 22.0221 35.8359 21.8662 35.8879 21.7596C35.8879 21.7076 37.3453 18.2542 37.3453 18.2542H45.9366L47.394 21.8116C47.394 21.8116 47.4979 22.126 47.8616 22.126H49.7374C49.9452 22.126 50.153 21.9155 50.153 21.7077C50.1038 21.653 50.0518 21.5491 50.0518 21.5491ZM38.1793 15.9491L41.6163 7.68043L45.0015 15.9491H38.1793ZM84.6769 15.4788C84.6769 12.1812 82.5414 9.98549 79.4707 9.98549C77.7016 9.98549 76.452 10.7183 75.7219 11.7136V4.01914C75.7219 3.86328 75.566 3.75664 75.4621 3.75664H73.5344C73.3785 3.75664 73.2746 3.86055 73.2227 4.01914V21.7569C73.2227 21.9127 73.3266 22.0194 73.4825 22.0194H75.4621C75.618 22.0194 75.7219 21.9155 75.7219 21.7569V15.6347C75.7219 14.0132 76.8676 12.337 79.0031 12.337C80.8789 12.337 82.1285 13.7507 82.1285 15.8944V21.8061C82.1285 21.9619 82.2324 22.0686 82.3882 22.0686H84.3679C84.5238 22.0686 84.6277 21.9647 84.6277 21.8061L84.6769 15.4788ZM89.2597 4.54413C88.2698 4.54413 87.4905 5.22499 87.4905 6.27224C87.4905 7.3195 88.2726 8.00035 89.2597 8.00035C90.3014 8.00035 91.0807 7.26755 91.0807 6.27224C91.0807 5.27694 90.3014 4.48945 89.2597 4.54413ZM115.712 15.9491V15.5308C115.712 15.3202 115.66 15.1644 115.66 15.0604C115.296 12.0773 113.161 10.0374 110.087 10.0374C106.546 10.0374 104.099 12.7062 104.099 16.1597C104.099 19.6651 106.754 22.2819 110.399 22.2819C112.69 22.2819 114.044 21.5491 114.878 20.8682C114.878 20.8682 115.086 20.7124 114.93 20.5018L114.096 19.0881C114.044 18.9842 113.836 18.9842 113.68 19.0881C113.057 19.5585 112.119 20.1354 110.661 20.1354C108.474 20.1354 106.913 18.7737 106.549 16.8925H115.504C115.66 16.8925 115.712 16.7886 115.712 16.63V15.9491ZM106.546 15.0604C106.91 13.2284 108.263 12.0773 110.087 12.0773C111.752 12.0773 113.106 13.2804 113.213 15.0604H106.546ZM59.0588 10.0374C59.0588 10.0374 58.5912 9.98549 58.3287 9.98549C56.2451 9.98549 54.8396 11.1367 54.3721 12.4984L54.2682 10.4585C54.2682 10.3027 54.1123 10.196 53.9565 10.196H52.3951C52.2393 10.196 52.0834 10.3519 52.0834 10.5105V21.7077C52.0834 21.8635 52.2393 22.0221 52.3951 22.0221H54.3748C54.5307 22.0221 54.6865 21.9182 54.6865 21.7596V15.7933C54.6865 14.1198 55.8322 12.4956 58.0197 12.4956C58.3834 12.4956 58.8537 12.5995 58.8537 12.5995C59.0095 12.5995 59.1134 12.5476 59.1654 12.389L59.3212 10.4011C59.3185 10.1413 59.2146 10.0374 59.0588 10.0374ZM69.4219 19.1948C69.5258 19.1428 69.6298 19.1948 69.6817 19.2987L70.5157 20.8682C70.5676 20.9721 70.5157 21.0788 70.4118 21.1307C69.6297 21.653 68.4841 22.2299 66.5071 22.2299C62.7583 22.2299 60.1552 19.5612 60.1552 16.1597C60.1552 12.6542 62.9142 10.0374 66.5071 10.0374C68.5387 10.0374 69.7364 10.6663 70.5157 11.1886C70.5676 11.2406 70.6715 11.2925 70.5676 11.4511L69.6817 13.0206C69.6298 13.1245 69.5258 13.1245 69.4219 13.0726C68.7958 12.7062 67.9645 12.3398 66.8188 12.3398C64.4235 12.3398 62.7583 13.9612 62.7583 16.1597C62.7583 18.3061 64.3716 19.9276 66.7149 19.9276C67.9618 19.9276 68.7438 19.5612 69.4219 19.1948ZM90.3014 10.248H88.3218C88.1659 10.248 88.062 10.3519 88.062 10.5105V21.7077C88.062 21.8635 88.1659 21.9702 88.3218 21.9702H90.3014C90.4573 21.9702 90.5612 21.8662 90.5612 21.7077V10.5105C90.5612 10.3519 90.4573 10.248 90.3014 10.248ZM102.33 19.4026C102.278 19.3506 102.07 19.3506 101.862 19.4545C101.447 19.6651 100.924 19.9249 100.038 19.9249C98.5811 19.9249 97.6951 19.296 97.6951 17.7264V12.337H102.07C102.226 12.337 102.33 12.2331 102.33 12.0745V10.505C102.33 10.3492 102.226 10.2425 102.07 10.2425H97.6951V6.48005C97.6951 6.3242 97.5912 6.21756 97.4354 6.21756H95.5076C95.3518 6.21756 95.2479 6.32146 95.2479 6.48005V10.248H93.0604C92.9045 10.248 92.8006 10.3519 92.8006 10.5105V12.08C92.8006 12.2359 92.9045 12.3425 93.0604 12.3425H95.1959V17.8878C95.1959 20.6604 96.9651 22.2299 99.5709 22.2299C101.392 22.2299 102.486 21.601 103.008 21.2346C103.112 21.1307 103.164 21.0241 103.112 20.9202L102.33 19.4026ZM126.54 19.2467C126.644 19.1948 126.748 19.2467 126.8 19.3506L127.634 20.9202C127.685 21.0241 127.634 21.1307 127.53 21.1827C126.748 21.7049 125.602 22.2819 123.625 22.2819C119.876 22.2819 117.273 19.6131 117.273 16.2116C117.273 12.7062 120.032 10.0894 123.625 10.0894C125.657 10.0894 126.854 10.7183 127.634 11.2406C127.685 11.2925 127.789 11.3445 127.685 11.5031L126.8 13.0726C126.748 13.1765 126.644 13.1765 126.54 13.1245C125.916 12.7581 125.082 12.3917 123.937 12.3917C121.541 12.3917 119.876 14.0132 119.876 16.2116C119.876 18.3581 121.489 19.9795 123.833 19.9795C125.082 19.9276 125.916 19.6131 126.54 19.2467ZM139.194 19.4573C139.142 19.4053 138.935 19.4053 138.727 19.5092C138.311 19.7198 137.789 19.9795 136.906 19.9795C135.448 19.9795 134.562 19.3506 134.562 17.7811V12.3917H138.937C139.093 12.3917 139.197 12.2878 139.197 12.1292V10.5597C139.197 10.4038 139.093 10.2972 138.937 10.2972H134.562V6.52927C134.562 6.37342 134.458 6.26677 134.303 6.26677H132.375C132.219 6.26677 132.115 6.37068 132.115 6.52927V10.2972H129.928C129.772 10.2972 129.668 10.4011 129.668 10.5597V12.1292C129.668 12.2851 129.772 12.3917 129.928 12.3917H132.063V17.937C132.063 20.7096 133.832 22.2791 136.438 22.2791C138.259 22.2791 139.353 21.6502 139.875 21.2838C139.979 21.1799 140.031 21.0733 139.979 20.9694L139.194 19.4573Z"/>
</mask>
<path d="M50.0518 21.5491L42.6581 4.12578C42.5542 3.75937 42.0866 3.60352 41.7722 3.60352H41.5644C41.2007 3.60352 40.7824 3.86601 40.6265 4.18046L33.1809 21.5518C33.1289 21.6038 33.1289 21.6557 33.1289 21.7077C33.1289 21.8635 33.2848 22.0221 33.4406 22.0221H35.5242C35.6801 22.0221 35.8359 21.8662 35.8879 21.7596C35.8879 21.7076 37.3453 18.2542 37.3453 18.2542H45.9366L47.394 21.8116C47.394 21.8116 47.4979 22.126 47.8616 22.126H49.7374C49.9452 22.126 50.153 21.9155 50.153 21.7077C50.1038 21.653 50.0518 21.5491 50.0518 21.5491ZM38.1793 15.9491L41.6163 7.68043L45.0015 15.9491H38.1793ZM84.6769 15.4788C84.6769 12.1812 82.5414 9.98549 79.4707 9.98549C77.7016 9.98549 76.452 10.7183 75.7219 11.7136V4.01914C75.7219 3.86328 75.566 3.75664 75.4621 3.75664H73.5344C73.3785 3.75664 73.2746 3.86055 73.2227 4.01914V21.7569C73.2227 21.9127 73.3266 22.0194 73.4825 22.0194H75.4621C75.618 22.0194 75.7219 21.9155 75.7219 21.7569V15.6347C75.7219 14.0132 76.8676 12.337 79.0031 12.337C80.8789 12.337 82.1285 13.7507 82.1285 15.8944V21.8061C82.1285 21.9619 82.2324 22.0686 82.3882 22.0686H84.3679C84.5238 22.0686 84.6277 21.9647 84.6277 21.8061L84.6769 15.4788ZM89.2597 4.54413C88.2698 4.54413 87.4905 5.22499 87.4905 6.27224C87.4905 7.3195 88.2726 8.00035 89.2597 8.00035C90.3014 8.00035 91.0807 7.26755 91.0807 6.27224C91.0807 5.27694 90.3014 4.48945 89.2597 4.54413ZM115.712 15.9491V15.5308C115.712 15.3202 115.66 15.1644 115.66 15.0604C115.296 12.0773 113.161 10.0374 110.087 10.0374C106.546 10.0374 104.099 12.7062 104.099 16.1597C104.099 19.6651 106.754 22.2819 110.399 22.2819C112.69 22.2819 114.044 21.5491 114.878 20.8682C114.878 20.8682 115.086 20.7124 114.93 20.5018L114.096 19.0881C114.044 18.9842 113.836 18.9842 113.68 19.0881C113.057 19.5585 112.119 20.1354 110.661 20.1354C108.474 20.1354 106.913 18.7737 106.549 16.8925H115.504C115.66 16.8925 115.712 16.7886 115.712 16.63V15.9491ZM106.546 15.0604C106.91 13.2284 108.263 12.0773 110.087 12.0773C111.752 12.0773 113.106 13.2804 113.213 15.0604H106.546ZM59.0588 10.0374C59.0588 10.0374 58.5912 9.98549 58.3287 9.98549C56.2451 9.98549 54.8396 11.1367 54.3721 12.4984L54.2682 10.4585C54.2682 10.3027 54.1123 10.196 53.9565 10.196H52.3951C52.2393 10.196 52.0834 10.3519 52.0834 10.5105V21.7077C52.0834 21.8635 52.2393 22.0221 52.3951 22.0221H54.3748C54.5307 22.0221 54.6865 21.9182 54.6865 21.7596V15.7933C54.6865 14.1198 55.8322 12.4956 58.0197 12.4956C58.3834 12.4956 58.8537 12.5995 58.8537 12.5995C59.0095 12.5995 59.1134 12.5476 59.1654 12.389L59.3212 10.4011C59.3185 10.1413 59.2146 10.0374 59.0588 10.0374ZM69.4219 19.1948C69.5258 19.1428 69.6298 19.1948 69.6817 19.2987L70.5157 20.8682C70.5676 20.9721 70.5157 21.0788 70.4118 21.1307C69.6297 21.653 68.4841 22.2299 66.5071 22.2299C62.7583 22.2299 60.1552 19.5612 60.1552 16.1597C60.1552 12.6542 62.9142 10.0374 66.5071 10.0374C68.5387 10.0374 69.7364 10.6663 70.5157 11.1886C70.5676 11.2406 70.6715 11.2925 70.5676 11.4511L69.6817 13.0206C69.6298 13.1245 69.5258 13.1245 69.4219 13.0726C68.7958 12.7062 67.9645 12.3398 66.8188 12.3398C64.4235 12.3398 62.7583 13.9612 62.7583 16.1597C62.7583 18.3061 64.3716 19.9276 66.7149 19.9276C67.9618 19.9276 68.7438 19.5612 69.4219 19.1948ZM90.3014 10.248H88.3218C88.1659 10.248 88.062 10.3519 88.062 10.5105V21.7077C88.062 21.8635 88.1659 21.9702 88.3218 21.9702H90.3014C90.4573 21.9702 90.5612 21.8662 90.5612 21.7077V10.5105C90.5612 10.3519 90.4573 10.248 90.3014 10.248ZM102.33 19.4026C102.278 19.3506 102.07 19.3506 101.862 19.4545C101.447 19.6651 100.924 19.9249 100.038 19.9249C98.5811 19.9249 97.6951 19.296 97.6951 17.7264V12.337H102.07C102.226 12.337 102.33 12.2331 102.33 12.0745V10.505C102.33 10.3492 102.226 10.2425 102.07 10.2425H97.6951V6.48005C97.6951 6.3242 97.5912 6.21756 97.4354 6.21756H95.5076C95.3518 6.21756 95.2479 6.32146 95.2479 6.48005V10.248H93.0604C92.9045 10.248 92.8006 10.3519 92.8006 10.5105V12.08C92.8006 12.2359 92.9045 12.3425 93.0604 12.3425H95.1959V17.8878C95.1959 20.6604 96.9651 22.2299 99.5709 22.2299C101.392 22.2299 102.486 21.601 103.008 21.2346C103.112 21.1307 103.164 21.0241 103.112 20.9202L102.33 19.4026ZM126.54 19.2467C126.644 19.1948 126.748 19.2467 126.8 19.3506L127.634 20.9202C127.685 21.0241 127.634 21.1307 127.53 21.1827C126.748 21.7049 125.602 22.2819 123.625 22.2819C119.876 22.2819 117.273 19.6131 117.273 16.2116C117.273 12.7062 120.032 10.0894 123.625 10.0894C125.657 10.0894 126.854 10.7183 127.634 11.2406C127.685 11.2925 127.789 11.3445 127.685 11.5031L126.8 13.0726C126.748 13.1765 126.644 13.1765 126.54 13.1245C125.916 12.7581 125.082 12.3917 123.937 12.3917C121.541 12.3917 119.876 14.0132 119.876 16.2116C119.876 18.3581 121.489 19.9795 123.833 19.9795C125.082 19.9276 125.916 19.6131 126.54 19.2467ZM139.194 19.4573C139.142 19.4053 138.935 19.4053 138.727 19.5092C138.311 19.7198 137.789 19.9795 136.906 19.9795C135.448 19.9795 134.562 19.3506 134.562 17.7811V12.3917H138.937C139.093 12.3917 139.197 12.2878 139.197 12.1292V10.5597C139.197 10.4038 139.093 10.2972 138.937 10.2972H134.562V6.52927C134.562 6.37342 134.458 6.26677 134.303 6.26677H132.375C132.219 6.26677 132.115 6.37068 132.115 6.52927V10.2972H129.928C129.772 10.2972 129.668 10.4011 129.668 10.5597V12.1292C129.668 12.2851 129.772 12.3917 129.928 12.3917H132.063V17.937C132.063 20.7096 133.832 22.2791 136.438 22.2791C138.259 22.2791 139.353 21.6502 139.875 21.2838C139.979 21.1799 140.031 21.0733 139.979 20.9694L139.194 19.4573Z" fill="black" stroke="black" stroke-width="2" mask="url(#path-1-inside-1_252_689)"/>
<path d="M0.500001 12.9745L0.500001 12.9743C0.497372 6.0839 6.08113 0.5 12.9718 0.5C19.8624 0.5 25.4463 6.0839 25.4463 12.9745C25.4463 15.2116 24.8583 17.3105 23.8262 19.1247L22.1321 16.9028C22.6505 15.6955 22.9381 14.3677 22.9381 12.9718C22.9381 7.47027 18.476 3.00817 12.9745 3.00817C7.47301 3.00817 3.01091 7.47027 3.01091 12.9718C3.01091 14.3677 3.29847 15.6955 3.81688 16.9028L2.12143 19.1265C1.09064 17.3115 0.500001 15.2119 0.500001 12.9745Z" fill="black" stroke="black"/>
</svg>
