<svg width="396" height="296" viewBox="0 0 396 296" fill="none" xmlns="http://www.w3.org/2000/svg">
<path d="M35.2393 163.594C31.9913 161.748 29.6109 158.694 28.6209 155.101C28.6209 155.101 25.9841 169.023 36.8633 176.629C47.7425 184.234 191.827 266.605 191.827 266.605V254.423L191.32 253.205L35.2393 163.594Z" fill="white" stroke="white" stroke-width="0.5" stroke-linecap="round" stroke-linejoin="round"/>
<path d="M311.725 118.745C307.202 123.096 295.083 129.866 279.856 131.971C267.468 133.847 254.801 132.25 243.271 127.359C238.522 125.572 234.574 122.145 232.148 117.7C230.817 115.312 230.19 112.598 230.338 109.87C230.487 107.143 231.404 104.512 232.986 102.281C238.12 94.8496 250.815 88.8628 255.949 86.6177L189.259 48.3298L35.1169 138.985C32.9586 140.245 31.1706 142.048 29.9322 144.214C28.6937 146.38 28.0483 148.832 28.0607 151.325C28.0731 153.817 28.7428 156.263 30.0027 158.416C31.2626 160.57 33.0684 162.355 35.2391 163.594L193.416 254.493L367.902 151.115L311.725 118.745Z" stroke="white" stroke-width="0.5" stroke-linecap="round" stroke-linejoin="round"/>
<path d="M255.949 100.715V86.6699C250.815 88.8628 238.12 94.8496 232.986 102.333C231.405 104.564 230.487 107.195 230.339 109.923C230.19 112.65 230.818 115.364 232.148 117.753C238.382 108.407 255.949 100.715 255.949 100.715Z" fill="white" stroke="white" stroke-width="0.5" stroke-linecap="round" stroke-linejoin="round"/>
<path d="M193.416 254.423L192.211 253.727L191.827 254.423V266.553L336.156 181.815V169.859L193.416 254.423Z" stroke="white" stroke-width="0.5" stroke-linecap="round" stroke-linejoin="round"/>
<path d="M336.155 169.859V181.815L364.095 165.421C365.255 164.738 366.215 163.765 366.883 162.6C367.55 161.434 367.902 160.115 367.902 158.773V151.063L336.155 169.859Z" fill="white" stroke="white" stroke-width="0.5" stroke-linecap="round" stroke-linejoin="round"/>
<path d="M170.487 65.1589H67.7373V91.7516H170.487V65.1589Z" stroke="white" stroke-width="0.5" stroke-linecap="round" stroke-linejoin="round"/>
<path d="M170.487 91.7341H67.7373V173.044H170.487V91.7341Z" fill="black" stroke="white" stroke-width="0.5" stroke-miterlimit="10"/>
<path d="M80.1359 80.7699C81.9201 80.7699 83.3664 79.3284 83.3664 77.5502C83.3664 75.7721 81.9201 74.3306 80.1359 74.3306C78.3517 74.3306 76.9053 75.7721 76.9053 77.5502C76.9053 79.3284 78.3517 80.7699 80.1359 80.7699Z" fill="#F1F1F1"/>
<path d="M90.1945 80.7699C91.9787 80.7699 93.425 79.3284 93.425 77.5502C93.425 75.7721 91.9787 74.3306 90.1945 74.3306C88.4103 74.3306 86.9639 75.7721 86.9639 77.5502C86.9639 79.3284 88.4103 80.7699 90.1945 80.7699Z" fill="#F1F1F1"/>
<path d="M99.7814 80.7699C101.566 80.7699 103.012 79.3284 103.012 77.5502C103.012 75.7721 101.566 74.3306 99.7814 74.3306C97.9972 74.3306 96.5508 75.7721 96.5508 77.5502C96.5508 79.3284 97.9972 80.7699 99.7814 80.7699Z" fill="#F1F1F1"/>
<path d="M327.86 25.0437H225.11V51.6364H327.86V25.0437Z" stroke="white" stroke-width="0.5" stroke-linecap="round" stroke-linejoin="round"/>
<path d="M327.86 51.6365H225.11V132.946H327.86V51.6365Z" fill="black" stroke="white" stroke-width="0.5" stroke-miterlimit="10"/>
<path d="M299.292 40.6547C301.076 40.6547 302.523 39.2132 302.523 37.435C302.523 35.6568 301.076 34.2153 299.292 34.2153C297.508 34.2153 296.062 35.6568 296.062 37.435C296.062 39.2132 297.508 40.6547 299.292 40.6547Z" fill="#F1F1F1"/>
<path d="M309.333 40.6547C311.117 40.6547 312.564 39.2132 312.564 37.435C312.564 35.6568 311.117 34.2153 309.333 34.2153C307.549 34.2153 306.103 35.6568 306.103 37.435C306.103 39.2132 307.549 40.6547 309.333 40.6547Z" fill="#F1F1F1"/>
<path d="M318.92 40.6547C320.704 40.6547 322.151 39.2132 322.151 37.435C322.151 35.6568 320.704 34.2153 318.92 34.2153C317.136 34.2153 315.689 35.6568 315.689 37.435C315.689 39.2132 317.136 40.6547 318.92 40.6547Z" fill="#F1F1F1"/>
<path d="M94.0713 122.365L150.179 107.711C150.179 107.711 200.82 143.388 179.359 153.151C179.359 153.151 153.881 159.434 149.096 160.913C144.311 162.393 119.41 169.319 119.41 169.319" fill="black"/>
<path d="M94.0713 122.365L150.179 107.711C150.179 107.711 200.82 143.388 179.359 153.151C179.359 153.151 153.881 159.434 149.096 160.913C144.311 162.393 119.41 169.319 119.41 169.319" stroke="white" stroke-width="0.5" stroke-miterlimit="10"/>
<path d="M176.128 58.5803C176.128 58.5803 183.515 54.9256 187.06 60.808L197.991 101.254L186.85 103.534" fill="black"/>
<path d="M176.128 58.5803C176.128 58.5803 183.515 54.9256 187.06 60.808L197.991 101.254L186.85 103.534" stroke="white" stroke-width="0.5" stroke-miterlimit="10"/>
<path d="M184.143 90.6204C184.143 90.6204 176.372 56.9967 174.871 55.0127C173.369 53.0287 165.441 48.4342 160.901 56.7531C158.089 50.0005 154.789 48.1905 150.318 49.1825C145.848 50.1745 144.94 57.7103 146.284 61.6435C142.984 60.1294 133.24 60.286 134.392 68.8486C135.545 77.4111 145.621 111.383 145.621 111.383C145.621 111.383 137.343 102.333 134.288 102.002C131.232 101.672 125.556 101.828 124.142 105.622C123.274 107.705 123.096 110.01 123.633 112.201C124.17 114.392 125.394 116.355 127.128 117.805C131.249 121.529 158.176 144.45 158.176 144.45C158.176 144.45 168.916 153.517 176.844 153.343C184.772 153.169 197.555 148.557 202.235 139.594C206.915 130.631 208.067 121.895 203.614 114.167C199.161 106.44 184.143 90.6204 184.143 90.6204Z" fill="black" stroke="white" stroke-width="0.5" stroke-miterlimit="10"/>
<path d="M177.333 130.753C177.333 130.753 175.587 118.414 168.253 117.753C160.918 117.091 149.253 118.344 145.621 111.383" fill="#231F20"/>
<path d="M177.333 130.753C177.333 130.753 175.587 118.414 168.253 117.753C160.918 117.091 149.253 118.344 145.621 111.383" stroke="white" stroke-width="0.5" stroke-miterlimit="10"/>
<path d="M146.284 61.6436C147.616 62.7567 148.592 64.2323 149.096 65.89C150.248 69.0227 156.517 96.5029 156.517 96.5029" fill="#231F20"/>
<path d="M146.284 61.6436C147.616 62.7567 148.592 64.2323 149.096 65.89C150.248 69.0227 156.517 96.5029 156.517 96.5029" stroke="white" stroke-width="0.5" stroke-miterlimit="10"/>
<path d="M160.988 56.666L168.585 88.6016" stroke="white" stroke-width="0.5" stroke-miterlimit="10"/>
<path d="M103.03 55.9526H115.987L123.636 66.4817V55.4827C126.579 54.7362 129.146 52.9404 130.851 50.435C132.555 47.9296 133.279 44.8885 132.885 41.8871C132.492 38.8857 131.008 36.1321 128.714 34.1476C126.421 32.163 123.477 31.085 120.44 31.1177H103.03C99.7278 31.1177 96.5609 32.425 94.2259 34.7521C91.8909 37.0792 90.5791 40.2354 90.5791 43.5264C90.5791 46.8174 91.8909 49.9736 94.2259 52.3007C96.5609 54.6278 99.7278 55.9352 103.03 55.9352V55.9526Z" fill="#D96D80" stroke="white" stroke-width="0.5" stroke-linecap="round" stroke-linejoin="round"/>
<path d="M118.589 42.5342C118.937 42.5138 119.28 42.6258 119.549 42.8475C119.681 42.9782 119.783 43.1365 119.846 43.3111C119.91 43.4857 119.933 43.6721 119.916 43.8569C119.931 44.0442 119.907 44.2326 119.843 44.4097C119.78 44.5868 119.68 44.7484 119.549 44.8837C119.28 45.1055 118.937 45.2174 118.589 45.197C118.234 45.2201 117.885 45.1081 117.611 44.8837C117.486 44.7451 117.39 44.5826 117.33 44.4061C117.27 44.2296 117.247 44.0427 117.261 43.8569C117.245 43.6736 117.267 43.4889 117.328 43.315C117.388 43.141 117.484 42.9817 117.611 42.8475C117.885 42.6231 118.234 42.5111 118.589 42.5342ZM110.94 42.5342C111.294 42.5145 111.642 42.6261 111.918 42.8475C112.044 42.9817 112.141 43.141 112.201 43.315C112.261 43.4889 112.284 43.6736 112.267 43.8569C112.282 44.0427 112.258 44.2296 112.198 44.4061C112.138 44.5826 112.043 44.7451 111.918 44.8837C111.642 45.1051 111.294 45.2167 110.94 45.197C110.587 45.2134 110.239 45.1022 109.962 44.8837C109.837 44.7451 109.742 44.5826 109.681 44.4061C109.621 44.2296 109.598 44.0427 109.613 43.8569C109.596 43.6736 109.619 43.4889 109.679 43.315C109.739 43.141 109.836 42.9817 109.962 42.8475C110.239 42.629 110.587 42.5178 110.94 42.5342ZM103.274 42.5342C103.627 42.5145 103.976 42.6261 104.252 42.8475C104.378 42.9817 104.474 43.141 104.535 43.315C104.595 43.4889 104.617 43.6736 104.601 43.8569C104.616 44.0427 104.592 44.2296 104.532 44.4061C104.472 44.5826 104.377 44.7451 104.252 44.8837C103.963 45.0782 103.622 45.1822 103.274 45.1822C102.925 45.1822 102.585 45.0782 102.296 44.8837C102.171 44.7451 102.075 44.5826 102.015 44.4061C101.955 44.2296 101.932 44.0427 101.947 43.8569C101.93 43.6736 101.953 43.4889 102.013 43.315C102.073 43.141 102.17 42.9817 102.296 42.8475C102.572 42.6261 102.92 42.5145 103.274 42.5342Z" fill="#231F20" stroke="#231F20" stroke-miterlimit="10"/>
<path d="M296.062 70.6238L251.846 82.0231L242.731 44.414C242.731 44.414 238.697 37.8702 234.244 38.9144C232.74 39.1995 231.339 39.8785 230.185 40.8817C229.031 41.8849 228.166 43.1762 227.678 44.6228C227.678 44.6228 225.338 35.921 222.597 34.9116C219.855 33.9022 212.119 34.7028 211.77 39.1407C211.77 39.1407 209.447 28.9944 202.026 30.4389C194.604 31.8834 195.669 40.3589 196.787 44.1703C195.802 43.5903 194.709 43.2157 193.574 43.0691C192.439 42.9225 191.287 43.007 190.186 43.3175C188.462 43.8996 186.995 45.0628 186.039 46.6067C185.082 48.1507 184.696 49.9786 184.947 51.7757C185.384 55.152 198.096 101.219 198.096 101.219C198.096 101.219 183.899 89.5936 181.14 88.7583C178.381 87.9229 172.863 88.3406 171.169 91.7169C169.475 95.0932 169.423 99.3222 174.557 103.551C179.691 107.78 213.149 131.397 216.118 133.137C219.087 134.878 230.542 140.099 237.964 139.472C245.385 138.846 296.062 125.306 296.062 125.306" fill="black"/>
<path d="M296.062 70.6238L251.846 82.0231L242.731 44.414C242.731 44.414 238.697 37.8702 234.244 38.9144C232.74 39.1995 231.339 39.8785 230.185 40.8817C229.031 41.8849 228.166 43.1762 227.678 44.6228C227.678 44.6228 225.338 35.921 222.597 34.9116C219.855 33.9022 212.119 34.7028 211.77 39.1407C211.77 39.1407 209.447 28.9944 202.026 30.4389C194.604 31.8834 195.669 40.3589 196.787 44.1703C195.802 43.5903 194.709 43.2157 193.574 43.0691C192.439 42.9225 191.287 43.007 190.186 43.3175C188.462 43.8996 186.995 45.0628 186.039 46.6067C185.082 48.1507 184.696 49.9786 184.947 51.7757C185.384 55.152 198.096 101.219 198.096 101.219C198.096 101.219 183.899 89.5936 181.14 88.7583C178.381 87.9229 172.863 88.3406 171.169 91.7169C169.475 95.0932 169.423 99.3222 174.557 103.551C179.691 107.78 213.149 131.397 216.118 133.137C219.087 134.878 230.542 140.099 237.964 139.472C245.385 138.846 296.062 125.306 296.062 125.306" stroke="white" stroke-width="0.5" stroke-miterlimit="10"/>
<path d="M237.212 86.252L251.846 82.0229" stroke="white" stroke-width="0.5" stroke-miterlimit="10"/>
<path d="M227.678 44.6228L234.89 72.5207" stroke="white" stroke-width="0.5" stroke-miterlimit="10"/>
<path d="M211.77 39.1406L220.885 75.6881" stroke="white" stroke-width="0.5" stroke-miterlimit="10"/>
<path d="M196.717 44.2051C197.789 45.276 198.596 46.5809 199.074 48.0165C200.139 50.7488 207.806 79.0644 207.806 79.0644" fill="#231F20"/>
<path d="M196.717 44.2051C197.789 45.276 198.596 46.5809 199.074 48.0165C200.139 50.7488 207.806 79.0644 207.806 79.0644" stroke="white" stroke-width="0.5" stroke-miterlimit="10"/>
<path d="M315.41 142.709H302.453L294.822 132.267V143.266C291.878 144.013 289.312 145.808 287.607 148.314C285.903 150.819 285.179 153.86 285.573 156.862C285.966 159.863 287.45 162.617 289.743 164.601C292.037 166.586 294.981 167.664 298.018 167.631H315.48C317.153 167.694 318.822 167.419 320.386 166.824C321.95 166.229 323.378 165.326 324.584 164.168C325.79 163.011 326.749 161.622 327.404 160.087C328.06 158.551 328.397 156.9 328.397 155.231C328.397 153.562 328.06 151.911 327.404 150.375C326.749 148.84 325.79 147.452 324.584 146.294C323.378 145.136 321.95 144.233 320.386 143.638C318.822 143.043 317.153 142.769 315.48 142.831L315.41 142.709Z" fill="#C7BBDC" stroke="white" stroke-width="0.5" stroke-linecap="round" stroke-linejoin="round"/>
<path d="M299.938 156.145C299.584 156.168 299.234 156.056 298.96 155.832C298.84 155.707 298.747 155.56 298.687 155.398C298.627 155.236 298.601 155.064 298.611 154.892C298.591 154.706 298.612 154.517 298.672 154.34C298.732 154.163 298.831 154 298.96 153.865C299.233 153.636 299.582 153.518 299.938 153.534C300.289 153.52 300.631 153.638 300.899 153.865C301.028 154 301.127 154.163 301.187 154.34C301.247 154.517 301.268 154.706 301.248 154.892C301.268 155.075 301.247 155.261 301.187 155.435C301.126 155.61 301.028 155.769 300.899 155.901C300.62 156.098 300.278 156.185 299.938 156.145ZM307.569 156.145C307.216 156.164 306.867 156.053 306.591 155.832C306.465 155.697 306.369 155.538 306.308 155.364C306.248 155.19 306.226 155.005 306.242 154.822C306.226 154.636 306.249 154.449 306.309 154.272C306.37 154.096 306.466 153.933 306.591 153.795C306.872 153.581 307.216 153.465 307.569 153.465C307.923 153.465 308.267 153.581 308.547 153.795C308.673 153.933 308.769 154.096 308.829 154.272C308.889 154.449 308.912 154.636 308.896 154.822C308.913 155.005 308.89 155.19 308.83 155.364C308.77 155.538 308.674 155.697 308.547 155.832C308.271 156.053 307.923 156.164 307.569 156.145ZM315.235 156.145C314.887 156.165 314.544 156.053 314.275 155.832C314.143 155.701 314.041 155.543 313.978 155.368C313.914 155.193 313.891 155.007 313.908 154.822C313.89 154.635 313.914 154.446 313.977 154.268C314.041 154.091 314.142 153.929 314.275 153.795C314.542 153.569 314.885 153.451 315.235 153.465C315.591 153.45 315.94 153.568 316.213 153.795C316.339 153.933 316.435 154.096 316.495 154.272C316.555 154.449 316.578 154.636 316.563 154.822C316.579 155.005 316.556 155.19 316.496 155.364C316.436 155.538 316.34 155.697 316.213 155.832C315.937 156.053 315.589 156.164 315.235 156.145Z" fill="#231F20" stroke="#231F20" stroke-miterlimit="10"/>
<path d="M148.659 19.8228L158.386 28.9944" stroke="white" stroke-linecap="round" stroke-linejoin="round"/>
<path d="M166.297 12.6699L167.973 25.914" stroke="white" stroke-linecap="round" stroke-linejoin="round"/>
<path d="M184.667 13.3311L178.66 25.2699" stroke="white" stroke-linecap="round" stroke-linejoin="round"/>
</svg>
