<svg width="395" height="296" viewBox="0 0 395 296" fill="none" xmlns="http://www.w3.org/2000/svg">
<path d="M28.0264 155.31L84.1663 123.74C84.1663 123.74 64.8317 112.932 61.7138 108.355C58.5959 103.778 53.4052 90.7075 72.1649 81.9709C90.9247 73.2343 113.534 77.2024 117.279 78.6469C121.024 80.0913 140.149 91.5255 140.149 91.5255L203.1 55.1694L358.421 144.293C358.421 144.293 367.566 148.453 366.939 155.31C366.312 162.167 360.494 165.491 350.722 171.512C340.95 177.534 203.518 257.573 203.518 257.573L140.306 220.329C146.931 217.118 153.201 213.221 159.014 208.704C167.549 201.847 166.713 188.968 158.613 182.32C150.513 175.672 133.443 173.392 127.835 173.183C122.226 172.974 98.1011 175.672 84.7934 188.55C75.6486 183.155 28.0264 155.31 28.0264 155.31Z" stroke="white" stroke-width="0.5" stroke-linecap="round" stroke-linejoin="round"/>
<path d="M28.0264 155.31V170.068L84.1663 201.847V188.55L28.0264 155.31Z" stroke="white" stroke-width="0.5" stroke-linecap="round" stroke-linejoin="round"/>
<path d="M163.368 203.274C165.004 199.758 165.425 195.8 164.564 192.019C163.703 188.239 161.61 184.852 158.613 182.39C150.496 175.741 133.443 173.461 127.834 173.253C122.226 173.044 98.1008 175.741 84.7931 188.62L84.166 188.255V201.882C92.244 196.748 100.809 192.422 109.736 188.968C122.835 184.182 140.097 187.924 148.841 190.83C157.585 193.737 163.211 203.03 163.368 203.274Z" fill="white" stroke="white" stroke-width="0.5" stroke-linecap="round" stroke-linejoin="round"/>
<path d="M140.307 220.329V234.67L202.891 271.026V257.521L140.307 220.329Z" stroke="white" stroke-width="0.5" stroke-linecap="round" stroke-linejoin="round"/>
<path d="M366.381 151.724C366.859 152.856 367.05 154.087 366.938 155.31C366.311 162.167 360.493 165.491 350.722 171.512C340.95 177.534 203.518 257.573 203.518 257.573L203.152 257.364L202.891 257.573V271.078L360.284 180.284C360.284 180.284 365.754 176.803 366.973 171.582V151.585L366.381 151.724Z" fill="white" stroke="white" stroke-width="0.5" stroke-linecap="round" stroke-linejoin="round"/>
<path d="M61.7136 108.355C60.2326 106.16 59.2405 103.673 58.8047 101.062V117.352C61.5829 123.119 66.2466 127.766 72.0254 130.527L84.2183 123.705C84.2183 123.705 64.8315 112.932 61.7136 108.355Z" fill="white" stroke="white" stroke-width="0.5" stroke-linecap="round" stroke-linejoin="round"/>
<path d="M250.252 47.7207H96.917V75.5142H250.252V47.7207Z" stroke="white" stroke-width="0.5" stroke-miterlimit="10"/>
<path d="M250.252 75.5315H96.917V160.565H250.252V75.5315Z" fill="black" stroke="white" stroke-width="0.5" stroke-miterlimit="10"/>
<path d="M109.859 64.0452C111.716 64.0452 113.221 62.5413 113.221 60.6863C113.221 58.8312 111.716 57.3274 109.859 57.3274C108.002 57.3274 106.497 58.8312 106.497 60.6863C106.497 62.5413 108.002 64.0452 109.859 64.0452Z" fill="#F1F1F1"/>
<path d="M120.344 64.0452C122.201 64.0452 123.706 62.5413 123.706 60.6863C123.706 58.8312 122.201 57.3274 120.344 57.3274C118.488 57.3274 116.982 58.8312 116.982 60.6863C116.982 62.5413 118.488 64.0452 120.344 64.0452Z" fill="#F1F1F1"/>
<path d="M130.343 64.0452C132.2 64.0452 133.705 62.5413 133.705 60.6863C133.705 58.8312 132.2 57.3274 130.343 57.3274C128.487 57.3274 126.981 58.8312 126.981 60.6863C126.981 62.5413 128.487 64.0452 130.343 64.0452Z" fill="#F1F1F1"/>
<path d="M319.108 19.0569H165.772V46.8504H319.108V19.0569Z" stroke="white" stroke-width="0.5" stroke-miterlimit="10"/>
<path d="M319.108 46.8679H165.772V131.902H319.108V46.8679Z" fill="black" stroke="white" stroke-width="0.5" stroke-miterlimit="10"/>
<path d="M178.714 35.3814C180.571 35.3814 182.076 33.8775 182.076 32.0225C182.076 30.1674 180.571 28.6636 178.714 28.6636C176.858 28.6636 175.353 30.1674 175.353 32.0225C175.353 33.8775 176.858 35.3814 178.714 35.3814Z" fill="#F1F1F1"/>
<path d="M189.2 35.3814C191.056 35.3814 192.561 33.8775 192.561 32.0225C192.561 30.1674 191.056 28.6636 189.2 28.6636C187.343 28.6636 185.838 30.1674 185.838 32.0225C185.838 33.8775 187.343 35.3814 189.2 35.3814Z" fill="#F1F1F1"/>
<path d="M199.199 35.3814C201.055 35.3814 202.56 33.8775 202.56 32.0225C202.56 30.1674 201.055 28.6636 199.199 28.6636C197.342 28.6636 195.837 30.1674 195.837 32.0225C195.837 33.8775 197.342 35.3814 199.199 35.3814Z" fill="#F1F1F1"/>
<path d="M280.438 65.2112H203.988C197.033 65.2112 191.395 70.8447 191.395 77.794C191.395 84.7432 197.033 90.3767 203.988 90.3767H280.438C287.393 90.3767 293.032 84.7432 293.032 77.794C293.032 70.8447 287.393 65.2112 280.438 65.2112Z" stroke="white" stroke-width="0.5" stroke-miterlimit="10"/>
<path d="M266.504 65.2112H263.316C256.361 65.2112 250.723 70.8447 250.723 77.794C250.723 84.7432 256.361 90.3767 263.316 90.3767H266.504C273.459 90.3767 279.097 84.7432 279.097 77.794C279.097 70.8447 273.459 65.2112 266.504 65.2112Z" fill="#D96D80" stroke="white" stroke-width="0.5" stroke-linecap="round" stroke-linejoin="round"/>
<path d="M257.672 133.103V77.7941C257.76 76.0965 258.496 74.4972 259.729 73.3265C260.963 72.1557 262.599 71.5029 264.3 71.5029C266.001 71.5029 267.638 72.1557 268.871 73.3265C270.105 74.4972 270.841 76.0965 270.928 77.7941V103.464C270.928 103.464 279.219 91.8736 286.187 105.118C290.977 101.48 297.108 99.1483 300.261 109.26C303.083 107.432 309.214 104.944 311.705 111.244V157.259C311.705 157.259 311.2 167.37 302.752 172.33C294.304 177.29 284.845 178.63 274.586 170.346C264.326 162.062 238.286 137.488 238.286 137.488C238.286 137.488 229.35 130.37 235.812 123.078C242.274 115.786 251.489 126.402 252.377 127.394C253.266 128.386 257.672 133.103 257.672 133.103Z" fill="black" stroke="white" stroke-width="0.5" stroke-miterlimit="10"/>
<path d="M285.855 114.063V105.118" stroke="white" stroke-width="0.5" stroke-miterlimit="10"/>
<path d="M270.771 111.905V102.959" stroke="white" stroke-width="0.5" stroke-miterlimit="10"/>
<path d="M300.104 117.526V108.598" stroke="white" stroke-width="0.5" stroke-miterlimit="10"/>
<path d="M114.736 104.961C116.366 104.961 117.958 104.478 119.313 103.574C120.668 102.669 121.724 101.383 122.348 99.8792C122.971 98.375 123.135 96.7198 122.817 95.123C122.499 93.5262 121.714 92.0594 120.562 90.9081C119.41 89.7569 117.942 88.9729 116.343 88.6552C114.745 88.3376 113.089 88.5006 111.583 89.1237C110.078 89.7467 108.791 90.8018 107.886 92.1556C106.98 93.5093 106.497 95.1009 106.497 96.729C106.497 98.9122 107.365 101.006 108.91 102.55C110.455 104.094 112.551 104.961 114.736 104.961ZM112.419 94.6231C112.416 94.1646 112.549 93.7154 112.801 93.3325C113.054 92.9495 113.414 92.6501 113.837 92.4723C114.26 92.2944 114.727 92.2461 115.177 92.3334C115.628 92.4208 116.042 92.6398 116.368 92.9628C116.694 93.2858 116.916 93.6982 117.007 94.1477C117.098 94.5972 117.053 95.0635 116.878 95.4874C116.703 95.9114 116.406 96.274 116.025 96.5291C115.644 96.7842 115.195 96.9204 114.736 96.9204C115.136 96.9204 115.531 96.9993 115.9 97.1526C116.269 97.3058 116.604 97.5304 116.885 97.8135C117.167 98.0965 117.39 98.4324 117.541 98.8018C117.692 99.1712 117.769 99.5669 117.767 99.966C117.775 100.047 117.775 100.129 117.767 100.21H111.705C111.705 100.21 111.705 100.036 111.705 99.966C111.705 99.1583 112.026 98.3836 112.598 97.8124C113.17 97.2413 113.945 96.9204 114.753 96.9204C114.449 96.9227 114.148 96.8651 113.866 96.7509C113.584 96.6367 113.327 96.4681 113.11 96.2548C112.893 96.0415 112.721 95.7876 112.602 95.5076C112.484 95.2276 112.422 94.9271 112.419 94.6231Z" fill="#FFD06E"/>
<path d="M114.736 110.93C113.107 110.93 111.514 111.413 110.159 112.318C108.804 113.222 107.748 114.508 107.124 116.012C106.501 117.516 106.337 119.171 106.655 120.768C106.973 122.365 107.758 123.832 108.91 124.983C110.062 126.134 111.53 126.918 113.129 127.236C114.727 127.554 116.383 127.391 117.889 126.768C119.394 126.145 120.681 125.089 121.586 123.736C122.492 122.382 122.975 120.79 122.975 119.162C122.975 116.979 122.107 114.885 120.562 113.341C119.017 111.798 116.921 110.93 114.736 110.93ZM117.749 122.626H111.705C111.705 122.626 111.705 122.469 111.705 122.382C111.705 121.983 111.784 121.588 111.938 121.219C112.091 120.851 112.316 120.516 112.599 120.235C112.882 119.953 113.219 119.73 113.588 119.579C113.958 119.428 114.354 119.351 114.753 119.354C114.294 119.357 113.844 119.224 113.46 118.971C113.076 118.718 112.777 118.357 112.599 117.933C112.422 117.509 112.374 117.042 112.463 116.592C112.552 116.141 112.773 115.727 113.098 115.402C113.423 115.078 113.837 114.857 114.288 114.768C114.739 114.679 115.207 114.727 115.631 114.904C116.055 115.081 116.416 115.381 116.67 115.764C116.923 116.147 117.056 116.597 117.053 117.056C117.048 117.664 116.804 118.246 116.374 118.676C115.944 119.106 115.362 119.349 114.753 119.354C115.557 119.354 116.328 119.673 116.897 120.241C117.465 120.809 117.784 121.579 117.784 122.382C117.782 122.464 117.77 122.546 117.749 122.626Z" fill="#FFD06E"/>
</svg>
