<svg width="395" height="296" viewBox="0 0 395 296" fill="none" xmlns="http://www.w3.org/2000/svg">
<path d="M28.0264 159.695V172.278L77.5127 201.011M197.509 258.443V271.026L142.832 239.299" stroke="white" stroke-width="0.5" stroke-linecap="round" stroke-linejoin="round"/>
<path d="M306.131 195.146L366.974 159.695L199.181 63.0532L28.0264 159.695L88.9912 195.164C88.9912 195.164 47.4654 212.219 72.6875 231.555C91.2034 243.302 109.075 243.963 121.059 238.69C128.67 235.263 135.973 231.187 142.884 226.508L197.596 258.391L252.255 226.542" stroke="white" stroke-width="0.5" stroke-linecap="round" stroke-linejoin="round"/>
<path d="M120.971 238.69C108.987 243.911 91.116 243.302 72.6001 231.555C66.0333 226.508 63.9954 221.635 64.5702 217.179H64.4482V236.323C64.4504 237.452 64.8654 238.542 65.6153 239.386C69.9873 244.277 86.744 260.062 115.45 253.065C137.362 246.104 142.779 239.143 142.779 239.143V226.56C135.871 231.22 128.575 235.279 120.971 238.69Z" fill="white" stroke="white" stroke-width="0.5" stroke-linecap="round" stroke-linejoin="round"/>
<path d="M251.837 226.438V226.786L252.168 226.595L251.837 226.438Z" stroke="#231F20" stroke-width="0.5" stroke-linecap="round" stroke-linejoin="round"/>
<path d="M197.509 258.443V271.026L251.837 239.369V226.786L197.509 258.443Z" fill="white" stroke="white" stroke-width="0.5" stroke-linecap="round" stroke-linejoin="round"/>
<path d="M294.878 201.69C287.248 197.966 277.459 193.945 270.893 193.806C259.675 193.597 236.421 196.834 229.21 209.939C233.721 217.858 246.019 223.862 251.854 226.438" stroke="white" stroke-width="0.5" stroke-linecap="round" stroke-linejoin="round"/>
<path d="M251.837 226.438L252.167 226.594" stroke="#231F20" stroke-width="0.5" stroke-linecap="round" stroke-linejoin="round"/>
<path d="M306.165 195.129V195.216V207.712L316.076 201.934L366.973 172.278V159.695L306.165 195.129Z" fill="white" stroke="white" stroke-width="0.5" stroke-linecap="round" stroke-linejoin="round"/>
<path d="M306.096 195.164C278.087 176.159 266.033 180.249 255.913 180.945C245.793 181.641 229.454 188.429 227.59 202.699C227.317 205.225 227.886 207.771 229.21 209.939C236.422 196.834 259.675 193.597 270.893 193.806C277.512 193.945 287.249 197.966 294.878 201.69C300.33 204.37 304.72 206.911 306.165 207.712V195.216L306.096 195.164Z" stroke="white" stroke-width="0.5" stroke-linecap="round" stroke-linejoin="round"/>
<path d="M245.601 132.493C245.502 134.689 246.02 136.869 247.098 138.785C248.176 140.702 249.769 142.278 251.697 143.336C266.033 151.185 299.494 169.441 302.211 170.259C305.695 171.338 317.992 171.86 318.254 165.456C318.515 159.051 319.333 140.621 318.254 135.87C317.174 131.119 310.676 116.378 292.544 108.355C274.411 100.332 259.17 101.95 255.704 103.551C252.237 105.152 246.611 110.234 246.332 116.378C246.158 119.824 245.827 127.046 245.601 132.493Z" fill="#A8DAC8" stroke="white" stroke-width="0.5" stroke-linecap="round" stroke-linejoin="round"/>
<path d="M318.132 165.647C318.394 159.243 319.195 140.812 318.132 136.061C317.227 131.954 312.315 120.659 299.651 112.462C300.522 113.297 307.437 120.433 307.664 139.229C307.821 152.629 308.204 164.638 308.448 171.147C312.977 170.99 317.958 169.72 318.132 165.647Z" fill="#231F20" stroke="white" stroke-width="0.5" stroke-linecap="round" stroke-linejoin="round"/>
<path d="M285.333 96.938C293.231 96.938 299.633 90.5409 299.633 82.6497C299.633 74.7584 293.231 68.3613 285.333 68.3613C277.435 68.3613 271.032 74.7584 271.032 82.6497C271.032 90.5409 277.435 96.938 285.333 96.938Z" fill="#A8DAC8" stroke="white" stroke-width="0.5" stroke-linecap="round" stroke-linejoin="round"/>
<path d="M161.086 88.7581C160.98 91.0402 161.518 93.3061 162.64 95.2971C163.761 97.2882 165.42 98.9242 167.427 100.018C181.884 107.937 214.979 125.984 217.679 126.82C221.163 127.881 233.46 128.421 233.722 121.999C233.983 115.577 234.802 97.1641 233.722 92.4129C232.642 87.6617 226.145 72.9209 208.012 64.9152C189.879 56.9096 174.638 58.4933 171.172 60.0945C167.705 61.6956 162.079 66.7774 161.801 72.9209C161.661 76.3668 161.33 83.363 161.086 88.7581Z" fill="#C7BBDC" stroke="white" stroke-width="0.5" stroke-linecap="round" stroke-linejoin="round"/>
<path d="M233.634 122.086C233.913 115.682 234.714 97.2512 233.634 92.5001C232.729 88.4102 227.817 77.1153 215.153 68.9182C216.024 69.7536 222.939 76.8891 223.166 95.6849C223.34 109.086 223.723 121.094 223.95 127.603C228.479 127.412 233.408 126.141 233.634 122.086Z" fill="#231F20" stroke="white" stroke-width="0.5" stroke-linecap="round" stroke-linejoin="round"/>
<path d="M200.836 53.5508C208.734 53.5508 215.136 47.1537 215.136 39.2625C215.136 31.3712 208.734 24.9741 200.836 24.9741C192.938 24.9741 186.535 31.3712 186.535 39.2625C186.535 47.1537 192.938 53.5508 200.836 53.5508Z" fill="#C7BBDC" stroke="white" stroke-width="0.5" stroke-linecap="round" stroke-linejoin="round"/>
<path d="M106.41 172.922C106.295 175.322 106.858 177.706 108.034 179.802C109.211 181.898 110.954 183.621 113.064 184.774C127.696 192.779 160.286 210.548 162.986 211.384C166.469 212.445 178.749 213.524 179.028 207.102C179.307 200.68 180.091 181.728 179.028 176.977C177.966 172.226 171.572 153.151 145.444 144.589C127.294 136.583 119.927 142.988 116.443 144.589C112.96 146.19 107.351 151.272 107.09 157.415C106.95 160.792 106.654 167.527 106.41 172.922Z" fill="#E2EA96" stroke="white" stroke-width="0.5" stroke-linecap="round" stroke-linejoin="round"/>
<path d="M179.028 206.721C179.289 200.299 180.09 182.755 179.028 178.021C178.105 173.914 174.673 161.366 161.992 153.151C162.881 153.987 168.333 162.393 168.559 181.206C168.716 194.589 168.315 205.557 168.559 212.083C175.59 212.083 178.54 210.583 179.028 206.721Z" fill="#231F20" stroke="white" stroke-width="0.5" stroke-linecap="round" stroke-linejoin="round"/>
<path d="M146.141 138.045C154.039 138.045 160.442 131.648 160.442 123.757C160.442 115.866 154.039 109.469 146.141 109.469C138.243 109.469 131.841 115.866 131.841 123.757C131.841 131.648 138.243 138.045 146.141 138.045Z" fill="#E2EA96" stroke="white" stroke-width="0.5" stroke-linecap="round" stroke-linejoin="round"/>
</svg>
