<svg width="396" height="296" viewBox="0 0 396 296" fill="none" xmlns="http://www.w3.org/2000/svg">
<path d="M35.2393 163.594C31.9913 161.748 29.6109 158.694 28.6209 155.101C28.6209 155.101 25.9841 169.023 36.8633 176.629C47.7425 184.234 191.827 266.605 191.827 266.605V254.423L191.32 253.205L35.2393 163.594Z" fill="white" stroke="white" stroke-width="0.5" stroke-linecap="round" stroke-linejoin="round"/>
<path d="M311.725 118.745C307.202 123.096 295.083 129.866 279.856 131.971C267.468 133.847 254.801 132.25 243.271 127.359C238.522 125.572 234.574 122.145 232.148 117.7C230.817 115.312 230.19 112.598 230.338 109.87C230.487 107.143 231.404 104.512 232.986 102.281C238.12 94.8496 250.815 88.8628 255.949 86.6177L189.259 48.3298L35.1169 138.985C32.9586 140.245 31.1706 142.048 29.9322 144.214C28.6937 146.38 28.0483 148.832 28.0607 151.325C28.0731 153.817 28.7428 156.263 30.0027 158.416C31.2626 160.57 33.0684 162.355 35.2391 163.594L193.416 254.493L367.902 151.115L311.725 118.745Z" stroke="white" stroke-width="0.5" stroke-linecap="round" stroke-linejoin="round"/>
<path d="M255.949 100.715V86.6699C250.815 88.8628 238.12 94.8496 232.986 102.333C231.405 104.564 230.487 107.195 230.339 109.923C230.19 112.65 230.818 115.364 232.148 117.753C238.382 108.407 255.949 100.715 255.949 100.715Z" fill="white" stroke="white" stroke-width="0.5" stroke-linecap="round" stroke-linejoin="round"/>
<path d="M193.416 254.423L192.211 253.727L191.827 254.423V266.553L336.156 181.815V169.859L193.416 254.423Z" stroke="white" stroke-width="0.5" stroke-linecap="round" stroke-linejoin="round"/>
<path d="M336.155 169.859V181.815L364.095 165.421C365.255 164.738 366.215 163.765 366.883 162.6C367.55 161.434 367.902 160.115 367.902 158.773V151.063L336.155 169.859Z" fill="white" stroke="white" stroke-width="0.5" stroke-linecap="round" stroke-linejoin="round"/>
<path d="M209.656 78.142V68.6396C209.653 68.2208 209.483 67.8203 209.185 67.5258L201.815 60.5644L208.329 54.3513C208.492 54.1964 208.619 54.0076 208.701 53.7982C208.783 53.5888 208.818 53.3641 208.803 53.1398C208.788 52.9156 208.724 52.6974 208.615 52.5007C208.505 52.3041 208.354 52.1337 208.172 52.0018L200.82 46.5371L207.037 40.3414C207.298 40.0779 207.458 39.7304 207.487 39.3607C207.515 38.991 207.412 38.6232 207.194 38.3226L201.85 31.2219L208.835 23.3381C209.064 23.061 209.189 22.7135 209.189 22.3548C209.189 21.9962 209.064 21.6486 208.835 21.3715L199.877 9.85035C199.39 9.19191 198.755 8.65669 198.022 8.28783C197.29 7.91898 196.48 7.72681 195.66 7.72681C194.839 7.72681 194.03 7.91898 193.297 8.28783C192.565 8.65669 191.929 9.19191 191.443 9.85035L185.715 17.5427V78.142C178.892 80.9032 173.245 85.9422 169.739 92.3964C166.234 98.8506 165.089 106.318 166.501 113.521C167.912 120.724 171.792 127.214 177.476 131.88C183.161 136.545 190.295 139.097 197.659 139.097C205.023 139.097 212.158 136.545 217.842 131.88C223.526 127.214 227.406 120.724 228.818 113.521C230.229 106.318 229.084 98.8506 225.579 92.3964C222.074 85.9422 216.426 80.9032 209.604 78.142H209.656ZM197.712 119.371C195.345 119.374 193.031 118.678 191.061 117.37C189.092 116.063 187.556 114.202 186.648 112.024C185.74 109.846 185.5 107.448 185.96 105.135C186.42 102.821 187.557 100.695 189.23 99.026C190.902 97.357 193.033 96.2199 195.354 95.7585C197.675 95.2971 200.081 95.5322 202.268 96.434C204.454 97.3357 206.324 98.8637 207.639 100.825C208.954 102.785 209.656 105.091 209.656 107.45C209.656 110.608 208.398 113.638 206.159 115.873C203.919 118.108 200.881 119.366 197.712 119.371Z" fill="#E2EA96"/>
<path d="M136.697 189.02C136.697 189.02 146.354 182.32 152.152 183.347C157.95 184.373 185.331 198.314 191.425 199.671C197.52 201.029 198.253 201.046 207.805 194.241C217.357 187.437 258.01 157.311 260.054 155.188C262.097 153.064 266.2 147.617 261.8 141.143C257.399 134.669 251.549 136.392 248.144 139.107C244.739 141.822 216.956 164.307 216.956 164.307L142.862 137.906L131.668 141.491C131.668 141.491 121.924 178.352 136.697 189.02Z" fill="black" stroke="white" stroke-width="0.5" stroke-linecap="round" stroke-linejoin="round"/>
<path d="M136.697 139.594C136.697 139.594 150.091 134.199 161.791 139.594C173.491 144.989 184.213 150.036 195.319 152.629C206.426 155.223 217.794 156.65 217.794 160.287C217.638 163.13 216.551 165.845 214.7 168.014C212.848 170.183 210.334 171.687 207.543 172.295C200.226 173.757 187.775 174.488 170.208 164.272" fill="black"/>
<path d="M136.697 139.594C136.697 139.594 150.091 134.199 161.791 139.594C173.491 144.989 184.213 150.036 195.319 152.629C206.426 155.223 217.794 156.65 217.794 160.287C217.638 163.13 216.551 165.845 214.7 168.014C212.848 170.183 210.334 171.687 207.543 172.295C200.226 173.757 187.775 174.488 170.208 164.272" stroke="white" stroke-width="0.5" stroke-linecap="round" stroke-linejoin="round"/>
<path d="M137.641 144.432C137.641 137.281 131.824 131.484 124.648 131.484C117.473 131.484 111.656 137.281 111.656 144.432V184.182C111.656 191.333 117.473 197.13 124.648 197.13C131.824 197.13 137.641 191.333 137.641 184.182V144.432Z" fill="black" stroke="white" stroke-width="0.5" stroke-linecap="round" stroke-linejoin="round"/>
<path d="M215.663 78.142V68.6396C215.66 68.2208 215.491 67.8203 215.192 67.5258L207.805 60.5644L214.336 54.3513C214.5 54.1964 214.627 54.0076 214.709 53.7982C214.791 53.5888 214.825 53.3641 214.81 53.1398C214.795 52.9156 214.731 52.6974 214.622 52.5007C214.513 52.3041 214.362 52.1337 214.179 52.0018L206.792 46.6067L213.044 40.3414C213.31 40.0794 213.47 39.7299 213.496 39.3583C213.522 38.9867 213.411 38.6185 213.184 38.3226L207.805 31.2219L214.79 23.3381C215.019 23.061 215.144 22.7135 215.144 22.3548C215.144 21.9962 215.019 21.6486 214.79 21.3715L205.849 9.85035C205.363 9.19191 204.727 8.65669 203.995 8.28783C203.262 7.91898 202.453 7.72681 201.632 7.72681C200.812 7.72681 200.002 7.91898 199.27 8.28783C198.537 8.65669 197.902 9.19191 197.415 9.85035L191.67 17.5427V78.142C184.844 80.9051 179.194 85.9472 175.687 92.4049C172.18 98.8627 171.035 106.335 172.448 113.541C173.86 120.748 177.742 127.241 183.429 131.909C189.117 136.577 196.255 139.129 203.623 139.129C210.991 139.129 218.129 136.577 223.816 131.909C229.504 127.241 233.386 120.748 234.798 113.541C236.211 106.335 235.066 98.8627 231.559 92.4049C228.052 85.9472 222.402 80.9051 215.576 78.142H215.663ZM203.719 119.371C201.352 119.374 199.038 118.678 197.069 117.37C195.099 116.063 193.563 114.202 192.655 112.024C191.747 109.846 191.508 107.448 191.967 105.135C192.427 102.821 193.565 100.695 195.237 99.026C196.909 97.357 199.041 96.2199 201.361 95.7585C203.682 95.2971 206.088 95.5322 208.275 96.434C210.462 97.3358 212.331 98.8637 213.646 100.825C214.961 102.785 215.663 105.091 215.663 107.45C215.663 110.608 214.406 113.638 212.166 115.873C209.927 118.108 206.888 119.366 203.719 119.371Z" fill="black" stroke="white" stroke-width="0.5" stroke-linecap="round" stroke-linejoin="round"/>
</svg>
