<svg width="396" height="296" viewBox="0 0 396 296" fill="none" xmlns="http://www.w3.org/2000/svg">
<path d="M28.0977 151.933L84.3797 120.346C84.3797 120.346 64.9962 109.642 61.8704 104.978C58.7446 100.314 53.5407 87.3137 72.348 78.5945C91.1552 69.8753 113.822 73.8085 117.576 75.2704C121.331 76.7323 140.505 88.149 140.505 88.149L203.615 51.793L359.329 140.969C359.329 140.969 368.497 145.128 367.868 151.985C367.239 158.842 361.407 162.166 351.61 168.188C341.814 174.21 204.034 254.092 204.034 254.092L140.662 216.953C147.3 213.748 153.585 209.863 159.417 205.362C167.973 198.523 167.135 185.626 159.015 178.996C150.895 172.365 133.781 170.05 128.159 169.841C122.536 169.633 98.3498 172.295 85.0084 185.174C75.8405 179.761 28.0977 151.933 28.0977 151.933Z" stroke="white" stroke-width="0.5" stroke-linecap="round" stroke-linejoin="round"/>
<path d="M28.0977 151.933V166.674L84.3797 198.47V185.174L28.0977 151.933Z" stroke="white" stroke-width="0.5" stroke-linecap="round" stroke-linejoin="round"/>
<path d="M163.782 199.897C165.438 196.385 165.868 192.422 165.004 188.638C164.14 184.854 162.032 181.466 159.015 179.013C150.878 172.295 133.782 169.998 128.159 169.789C122.536 169.58 98.35 172.295 85.0085 185.174L84.3799 184.791V198.401C92.4843 193.301 101.07 189.006 110.015 185.574C123.147 180.806 140.452 184.547 149.219 187.454C157.985 190.36 163.625 199.654 163.782 199.897Z" fill="white" stroke="white" stroke-width="0.5" stroke-linecap="round" stroke-linejoin="round"/>
<path d="M140.661 216.953V231.293L203.404 267.632V254.144L140.661 216.953Z" stroke="white" stroke-width="0.5" stroke-linecap="round" stroke-linejoin="round"/>
<path d="M367.308 148.348C367.789 149.479 367.981 150.71 367.867 151.933C367.239 158.79 361.406 162.114 351.61 168.136C341.813 174.157 204.033 254.092 204.033 254.092L203.666 253.866L203.404 254.092V267.597L361.197 176.803C361.197 176.803 366.68 173.322 367.902 168.101V148.209L367.308 148.348Z" fill="white" stroke="white" stroke-width="0.5" stroke-linecap="round" stroke-linejoin="round"/>
<path d="M61.8704 104.978C60.3828 102.779 59.3881 100.286 58.9541 97.6689V113.976C61.7387 119.752 66.4132 124.41 72.2082 127.185L84.4321 120.346C84.4321 120.346 64.9962 109.643 61.8704 104.978Z" fill="white" stroke="white" stroke-width="0.5" stroke-linecap="round" stroke-linejoin="round"/>
<path d="M254.605 131.989L281.655 149.601V180.284L254.605 161.679V131.989Z" fill="black" stroke="white" stroke-width="0.5" stroke-miterlimit="10"/>
<path d="M281.654 149.601L314.467 131.989V162.706L281.654 180.284V149.601Z" fill="black" stroke="white" stroke-width="0.5" stroke-miterlimit="10"/>
<path d="M254.605 131.989L284.851 114.898L314.467 131.989L281.655 149.601L254.605 131.989Z" fill="black" stroke="white" stroke-width="0.5" stroke-miterlimit="10"/>
<path d="M254.605 79.0471L281.655 96.6421V127.325L254.605 108.72V79.0471Z" fill="black" stroke="white" stroke-width="0.5" stroke-miterlimit="10"/>
<path d="M281.654 96.6421L314.467 79.0471V109.764L281.654 127.325V96.6421Z" fill="black" stroke="white" stroke-width="0.5" stroke-miterlimit="10"/>
<path d="M254.605 79.0469L284.851 61.9392L314.467 79.0469L281.655 96.6419L254.605 79.0469Z" fill="black" stroke="white" stroke-width="0.5" stroke-miterlimit="10"/>
<path d="M254.605 27.7588L281.655 45.3712V76.0537L254.605 57.4493V27.7588Z" fill="black" stroke="white" stroke-width="0.5" stroke-miterlimit="10"/>
<path d="M281.654 45.3712L314.467 27.7588V58.4761L281.654 76.0537V45.3712Z" fill="black" stroke="white" stroke-width="0.5" stroke-miterlimit="10"/>
<path d="M254.605 27.7588L284.851 10.6685L314.467 27.7588L281.655 45.3712L254.605 27.7588Z" fill="black" stroke="white" stroke-width="0.5" stroke-miterlimit="10"/>
<path d="M195.491 201.69C215.72 190.799 218.131 156.166 200.876 124.335C183.622 92.5048 153.235 75.5305 133.006 86.4221C112.778 97.3137 110.367 131.947 127.621 163.777C144.876 195.608 175.262 212.582 195.491 201.69Z" fill="#D96D80" stroke="white" stroke-width="0.5" stroke-linecap="round" stroke-linejoin="round"/>
<path d="M143.281 105.344C129.695 112.671 128.071 135.922 139.701 157.293C151.331 178.665 171.658 190.064 185.244 182.737C198.83 175.411 200.436 152.177 188.858 130.805C177.281 109.434 156.867 98.0342 143.281 105.344ZM175.849 165.421C168.34 169.459 157.164 163.158 150.668 151.411C144.172 139.664 145.167 126.768 152.676 122.73C160.185 118.692 171.448 124.975 177.84 136.792C184.231 148.609 183.358 161.383 175.849 165.421Z" fill="white"/>
<path d="M165.982 144.049L215.122 122.33L237.806 51.9149L254.605 43.4741" stroke="white" stroke-width="0.5" stroke-miterlimit="10"/>
<path d="M254.605 98.104L215.122 122.33L254.605 145.894" stroke="white" stroke-width="0.5" stroke-miterlimit="10"/>
</svg>
