<svg width="396" height="296" viewBox="0 0 396 296" fill="none" xmlns="http://www.w3.org/2000/svg">
<path d="M367.903 167.301L219.366 252.439L218.72 252.804V265.909C237.614 256.007 367.903 179.779 367.903 179.779V167.301Z" fill="white" stroke="white" stroke-width="0.5" stroke-linecap="round" stroke-linejoin="round"/>
<path d="M305.963 131.658L319.566 139.437C323.243 136.601 326.598 133.374 329.572 129.813C330.534 128.626 331.058 127.145 331.057 125.619V106.597C331.511 115.159 324.229 125.689 305.963 131.658Z" fill="white" stroke="white" stroke-width="0.5" stroke-linecap="round" stroke-linejoin="round"/>
<path d="M319.566 139.437L306.05 131.658C324.316 125.689 331.598 115.159 331.039 106.614C330.848 104.024 329.895 101.548 328.298 99.4963C321.173 90.1157 309.979 87.0701 290.404 86.5654C270.828 86.0607 252.265 100.767 252.265 100.767L198.952 70.0842L28.0977 167.301L166.454 246.017C172.563 250.212 179.123 253.715 186.012 256.459C197.232 259.464 209.183 258.03 219.366 252.456L367.903 167.318L319.566 139.437Z" stroke="white" stroke-width="0.5" stroke-linecap="round" stroke-linejoin="round"/>
<path d="M170.033 186.984L176.861 194.659L188.91 201.203L182.1 193.528L170.033 186.984Z" fill="black" stroke="white" stroke-width="0.5" stroke-linecap="round" stroke-linejoin="round"/>
<path d="M195.442 135.852L185.768 137.21L197.817 143.736L207.491 142.379L195.442 135.852Z" fill="black" stroke="white" stroke-width="0.5" stroke-linecap="round" stroke-linejoin="round"/>
<path d="M175.412 144.05C174.699 142.359 173.759 140.772 172.618 139.333C172.007 138.573 171.329 137.868 170.593 137.227C170.367 136.993 170.128 136.773 169.877 136.566C169.252 136.083 168.593 135.647 167.903 135.261L155.854 128.734C156.116 128.874 156.361 129.082 156.64 129.239C158.165 130.216 159.517 131.44 160.639 132.859C161.758 134.269 162.674 135.827 163.363 137.488C164.281 139.712 164.869 142.057 165.109 144.45C165.23 145.519 165.288 146.594 165.284 147.669C165.284 148.54 165.284 149.41 165.162 150.228C165.162 150.506 165.162 150.785 165.057 151.046C165.057 151.62 164.935 152.177 164.83 152.786C164.725 153.395 164.708 153.413 164.638 153.726C164.568 154.039 164.428 154.735 164.306 155.223C164.184 155.71 164.132 155.867 164.027 156.197C163.922 156.528 163.747 157.137 163.59 157.59C163.433 158.042 163.346 158.286 163.206 158.616C163.066 158.947 162.962 159.225 162.839 159.521C162.717 159.817 162.525 160.252 162.35 160.618C162.176 160.983 162.071 161.192 161.914 161.488L161.495 162.254C161.082 163.009 160.627 163.741 160.133 164.447L159.941 164.76C159.434 165.456 158.91 166.117 158.351 166.761L157.88 167.266C157.478 167.701 157.059 168.136 156.64 168.536L156.064 169.041C155.564 169.488 155.04 169.906 154.492 170.294L154.195 170.555L153.829 170.781C153.444 171.042 153.06 171.269 152.659 171.495L152.135 171.773L151.244 172.174C150.771 172.385 150.287 172.571 149.795 172.731L149.131 172.957C148.428 173.167 147.71 173.324 146.983 173.427C146.29 173.527 145.588 173.568 144.888 173.549C144.754 173.557 144.62 173.557 144.486 173.549C143.842 173.529 143.2 173.465 142.565 173.357H142.199C141.608 173.243 141.024 173.091 140.452 172.905H140.19C139.523 172.665 138.875 172.374 138.252 172.034L144.137 175.219L146.285 176.385L148.415 177.551L149.655 178.23L150.301 178.578L150.843 178.839C151.301 179.07 151.774 179.274 152.257 179.448H152.501C152.839 179.564 153.171 179.669 153.497 179.762C153.741 179.762 153.986 179.866 154.23 179.918H154.58C155.22 180.027 155.868 180.091 156.518 180.11H156.92C157.614 180.112 158.308 180.071 158.998 179.988C159.73 179.877 160.454 179.714 161.163 179.501L161.809 179.292C162.298 179.118 162.787 178.944 163.276 178.735L163.643 178.596L164.149 178.317L164.673 178.039C165.075 177.83 165.459 177.586 165.843 177.343L166.227 177.099H166.314L166.594 176.873C167.135 176.49 167.659 176.072 168.165 175.637L168.445 175.428L168.742 175.115C169.161 174.715 169.58 174.297 169.982 173.862C170.104 173.74 170.226 173.636 170.331 173.514L170.471 173.34C171.012 172.713 171.553 172.034 172.042 171.338L172.182 171.112C172.709 170.375 173.193 169.608 173.631 168.815C173.711 168.711 173.781 168.601 173.841 168.484C173.841 168.345 173.98 168.188 174.068 168.049L174.487 167.179C174.662 166.831 174.819 166.465 174.976 166.1L175.36 165.195C175.36 165.021 175.5 164.847 175.57 164.673L175.727 164.168C175.884 163.698 176.041 163.228 176.181 162.758L176.443 161.801C176.565 161.296 176.687 160.809 176.792 160.304C176.897 159.8 176.914 159.678 176.967 159.347C177.019 159.017 177.141 158.233 177.211 157.607C177.211 157.328 177.211 157.05 177.211 156.789C177.211 155.936 177.333 155.049 177.333 154.231C177.395 150.742 176.742 147.277 175.412 144.05Z" fill="black" stroke="white" stroke-width="0.5" stroke-linecap="round" stroke-linejoin="round"/>
<mask id="mask0_891_1164" style="mask-type:luminance" maskUnits="userSpaceOnUse" x="147" y="126" width="21" height="10">
<path d="M155.766 128.682L167.816 135.209C165.151 133.761 162.086 133.217 159.084 133.66L147.035 127.133C150.037 126.691 153.102 127.234 155.766 128.682Z" fill="white"/>
</mask>
<g mask="url(#mask0_891_1164)">
<path d="M159.12 133.66L147.07 127.133C148.906 126.87 150.775 126.971 152.571 127.429L164.62 134.008C162.823 133.558 160.955 133.457 159.12 133.712" fill="#A8A8A8"/>
<path d="M159.12 133.66L147.07 127.133C148.906 126.87 150.775 126.971 152.571 127.429L164.62 134.008C162.823 133.558 160.955 133.457 159.12 133.712" stroke="white" stroke-width="0.5" stroke-linecap="round" stroke-linejoin="round"/>
<path d="M164.62 134.008L152.571 127.481C153.49 127.707 154.38 128.034 155.226 128.456L167.292 135C166.437 134.582 165.542 134.25 164.62 134.008Z" fill="#A3A3A3" stroke="white" stroke-width="0.5" stroke-linecap="round" stroke-linejoin="round"/>
<path d="M167.292 134.947L155.226 128.404L155.767 128.682L167.816 135.208L167.292 134.947Z" fill="#9E9E9E" stroke="white" stroke-width="0.5" stroke-linecap="round" stroke-linejoin="round"/>
</g>
<path d="M155.766 128.682L167.816 135.209C165.151 133.761 162.086 133.217 159.084 133.66L147.035 127.133C150.037 126.691 153.102 127.234 155.766 128.682Z" stroke="white" stroke-width="0.5" stroke-linecap="round" stroke-linejoin="round"/>
<mask id="mask1_891_1164" style="mask-type:luminance" maskUnits="userSpaceOnUse" x="128" y="127" width="32" height="52">
<path d="M150.335 178.422L138.286 171.878C132.558 168.78 128.664 161.662 128.682 152.856C128.682 140.064 136.942 128.491 147.07 127.133L159.119 133.66C148.991 135.087 140.766 146.608 140.731 159.382C140.713 168.188 144.608 175.306 150.335 178.422Z" fill="white"/>
</mask>
<g mask="url(#mask1_891_1164)">
<path d="M150.335 178.422L138.286 171.878C132.558 168.78 128.664 161.662 128.682 152.856C128.683 149.294 129.309 145.76 130.533 142.414L142.599 148.94C141.372 152.286 140.739 155.82 140.731 159.382C140.731 168.188 144.608 175.306 150.335 178.422Z" fill="#858585" stroke="white" stroke-width="0.5" stroke-linecap="round" stroke-linejoin="round"/>
<path d="M142.6 149.01L130.533 142.483C131.019 141.171 131.603 139.897 132.279 138.672L144.329 145.198C143.662 146.428 143.079 147.702 142.582 149.01" fill="#8A8A8A"/>
<path d="M142.6 149.01L130.533 142.483C131.019 141.171 131.603 139.897 132.279 138.672L144.329 145.198C143.662 146.428 143.079 147.702 142.582 149.01" stroke="white" stroke-width="0.5" stroke-linecap="round" stroke-linejoin="round"/>
<path d="M144.311 145.198L132.262 138.672C132.785 137.708 133.369 136.778 134.008 135.887L146.057 142.431C145.424 143.32 144.841 144.244 144.311 145.198Z" fill="#8F8F8F" stroke="white" stroke-width="0.5" stroke-linecap="round" stroke-linejoin="round"/>
<path d="M146.022 142.431L133.973 135.887C134.517 135.116 135.1 134.373 135.719 133.66L147.786 140.186C147.162 140.901 146.579 141.651 146.039 142.431" fill="#949494"/>
<path d="M146.022 142.431L133.973 135.887C134.517 135.116 135.1 134.373 135.719 133.66L147.786 140.186C147.162 140.901 146.579 141.651 146.039 142.431" stroke="white" stroke-width="0.5" stroke-linecap="round" stroke-linejoin="round"/>
<path d="M147.803 140.186L135.736 133.66C136.331 132.983 136.966 132.344 137.64 131.745L149.689 138.271C149.021 138.87 148.391 139.51 147.803 140.186Z" fill="#999999" stroke="white" stroke-width="0.5" stroke-linecap="round" stroke-linejoin="round"/>
<path d="M149.689 138.272L137.64 131.745C138.302 131.116 139.008 130.534 139.753 130.005L151.802 136.531C151.061 137.065 150.355 137.647 149.689 138.272Z" fill="#9E9E9E" stroke="white" stroke-width="0.5" stroke-linecap="round" stroke-linejoin="round"/>
<path d="M151.802 136.601L139.7 130.075C140.549 129.489 141.442 128.971 142.372 128.526L154.439 135.069C153.501 135.505 152.602 136.017 151.749 136.601" fill="#A3A3A3"/>
<path d="M151.802 136.601L139.7 130.075C140.549 129.489 141.442 128.971 142.372 128.526L154.439 135.069C153.501 135.505 152.602 136.017 151.749 136.601" stroke="white" stroke-width="0.5" stroke-linecap="round" stroke-linejoin="round"/>
<path d="M154.491 135.069L142.425 128.526C143.894 127.832 145.46 127.363 147.07 127.133L159.119 133.66C157.515 133.897 155.955 134.372 154.491 135.069Z" fill="#A8A8A8" stroke="white" stroke-width="0.5" stroke-linecap="round" stroke-linejoin="round"/>
</g>
<path d="M150.335 178.422L138.286 171.878C132.558 168.78 128.664 161.662 128.682 152.856C128.682 140.064 136.942 128.491 147.07 127.133L159.119 133.66C148.991 135.087 140.766 146.608 140.731 159.382C140.713 168.188 144.608 175.306 150.335 178.422Z" stroke="white" stroke-width="0.5" stroke-linecap="round" stroke-linejoin="round"/>
<path d="M140.854 212.167L152.903 218.711L152.938 206.493L140.871 199.95L140.854 212.167Z" fill="black" stroke="white" stroke-width="0.5" stroke-linecap="round" stroke-linejoin="round"/>
<path d="M189.102 104.056L177.053 97.4602L170.452 106.684L165.72 104.178L164.602 103.586L163.589 103.151L162.402 102.681L160.656 102.09L159.363 101.689L158.909 101.498C158.386 101.359 157.844 101.272 157.303 101.167C156.761 101.063 156.639 101.011 156.29 100.958C155.262 100.78 154.224 100.664 153.182 100.61L165.231 107.137C166.278 107.199 167.321 107.315 168.357 107.485L169.352 107.694C170.033 107.833 170.697 107.972 171.36 108.146C172.024 108.32 172.233 108.424 172.652 108.564L173.194 108.738L182.222 113.646L189.102 104.056Z" fill="black" stroke="white" stroke-width="0.5" stroke-linecap="round" stroke-linejoin="round"/>
<path d="M141.081 90.0984V102.281C140.347 102.525 139.614 102.803 138.898 103.099L138.217 103.395C137.868 103.551 137.501 103.691 137.169 103.865L136.872 104.004C136.034 104.404 135.126 104.839 134.41 105.292L134.235 105.379C133.38 105.883 132.489 106.423 131.703 106.997L131.459 107.136L130.83 107.624L129.52 108.581L128.612 109.312C128.193 109.66 127.774 109.991 127.372 110.356L126.936 110.722C126.831 110.722 126.726 110.93 126.622 111.035C125.731 111.835 124.875 112.671 124.037 113.558L136.069 120.085C136.907 119.215 137.815 118.344 138.653 117.561L139.422 116.882C139.823 116.534 140.225 116.186 140.644 115.856C141.063 115.525 141.255 115.351 141.552 115.125C141.849 114.898 142.425 114.463 142.862 114.15L143.735 113.524C144.573 112.967 145.481 112.427 146.284 111.922L146.459 111.818C147.262 111.366 148.083 110.948 148.904 110.548L150.249 109.938L150.93 109.643C151.646 109.347 152.379 109.068 153.112 108.825V96.6421L141.081 90.0984Z" fill="black" stroke="white" stroke-width="0.5" stroke-linecap="round" stroke-linejoin="round"/>
<path d="M120.65 124.453L108.583 117.927L115.411 125.602C114.817 126.716 114.241 127.882 113.664 129.082C113.542 129.378 113.403 129.657 113.28 129.953C112.756 131.136 112.25 132.337 111.796 133.573V133.729C111.429 134.721 111.097 135.731 110.783 136.74L110.469 137.784C110.259 138.533 110.05 139.298 109.858 140.064C109.753 140.447 109.648 140.83 109.561 141.23C109.386 141.996 109.211 142.779 109.072 143.562C109.072 143.928 108.915 144.276 108.862 144.624C108.653 145.755 108.478 146.904 108.338 148.105L98.6641 149.462L110.713 155.988L120.388 154.631C120.527 153.482 120.719 152.351 120.911 151.15L121.121 150.089C121.278 149.305 121.435 148.522 121.627 147.739C121.627 147.356 121.802 146.956 121.907 146.573C122.099 145.807 122.308 145.059 122.535 144.293C122.535 143.945 122.728 143.614 122.832 143.266C123.147 142.257 123.478 141.248 123.845 140.256V140.082C124.299 138.846 124.806 137.645 125.329 136.462L125.731 135.574C126.272 134.408 126.831 133.242 127.477 132.093L120.65 124.453Z" fill="black" stroke="white" stroke-width="0.5" stroke-linecap="round" stroke-linejoin="round"/>
<path d="M108.443 193.423L120.492 199.967L127.338 190.378C125.98 188.159 124.812 185.83 123.845 183.416C123.169 181.709 122.586 179.966 122.099 178.195C121.837 177.308 121.61 176.455 121.4 175.48C120.958 173.604 120.626 171.704 120.405 169.789L108.269 163.367C109.063 170.617 111.448 177.605 115.254 183.834L108.443 193.423Z" fill="black" stroke="white" stroke-width="0.5" stroke-linecap="round" stroke-linejoin="round"/>
<path d="M120.492 199.967L108.442 193.423L116.999 203.048L129.066 209.591L120.492 199.967Z" fill="black" stroke="white" stroke-width="0.5" stroke-linecap="round" stroke-linejoin="round"/>
<path d="M153.217 88.3928L141.08 90.0984L153.129 96.6247L165.266 94.9192L153.217 88.3928Z" fill="black" stroke="white" stroke-width="0.5" stroke-linecap="round" stroke-linejoin="round"/>
<path d="M110.695 155.936L98.6463 149.41L98.6113 164.707L110.661 171.251L110.695 155.936Z" fill="black" stroke="white" stroke-width="0.5" stroke-linecap="round" stroke-linejoin="round"/>
<path d="M108.582 117.927L120.649 124.453L129.24 112.427L117.191 105.901L108.582 117.927Z" fill="black" stroke="white" stroke-width="0.5" stroke-linecap="round" stroke-linejoin="round"/>
<path d="M197.816 143.736L207.49 142.379V157.694L197.816 159.051C196.868 166.908 194.464 174.521 190.726 181.502L197.554 189.177L188.945 201.203L182.135 193.528C177.473 198.617 171.625 202.484 165.109 204.788V216.971L152.885 218.711V206.528C146.668 206.177 140.717 203.901 135.859 200.019L129.013 209.626L120.492 199.967L127.337 190.378C123.541 184.138 121.157 177.147 120.352 169.894L110.66 171.251V155.936L120.334 154.579C121.32 146.723 123.741 139.114 127.477 132.128L120.666 124.453L129.223 112.427L136.068 120.085C140.732 114.989 146.587 111.121 153.112 108.825V96.6422L165.336 94.9019V107.084C171.539 107.45 177.475 109.724 182.327 113.593L189.19 104.004L197.746 113.611L190.883 123.217C194.675 129.468 197.042 136.473 197.816 143.736ZM159.032 179.971C169.16 178.543 177.402 167.022 177.42 154.248C177.437 141.474 169.247 132.267 159.119 133.66C148.991 135.052 140.766 146.608 140.731 159.382C140.696 172.156 148.903 181.38 159.032 179.971Z" fill="#E2EA96" stroke="white" stroke-width="0.5" stroke-miterlimit="10"/>
<path d="M260.106 138.271L264.821 143.58L273.151 148.105L268.436 142.796L260.106 138.271Z" fill="black" stroke="white" stroke-width="0.5" stroke-linecap="round" stroke-linejoin="round"/>
<path d="M277.656 102.942L270.968 103.882L279.297 108.407L285.986 107.467L277.656 102.942Z" fill="black" stroke="white" stroke-width="0.5" stroke-linecap="round" stroke-linejoin="round"/>
<path d="M263.825 108.616C263.35 107.449 262.716 106.354 261.939 105.361C261.519 104.833 261.052 104.343 260.542 103.899C260.368 103.743 260.228 103.586 260.053 103.447C259.621 103.119 259.166 102.822 258.691 102.559L250.362 98.0518C250.554 98.1562 250.728 98.2954 250.903 98.3998C251.956 99.0759 252.894 99.9162 253.68 100.889C254.471 101.887 255.123 102.988 255.618 104.16C256.27 105.698 256.693 107.322 256.875 108.981C256.96 109.715 257.001 110.453 256.997 111.191C256.997 111.783 256.997 112.375 256.997 112.932C256.997 113.123 256.997 113.297 256.997 113.489C256.997 113.68 256.997 114.272 256.84 114.655C256.683 115.038 256.84 115.09 256.718 115.316C256.596 115.542 256.561 115.995 256.474 116.343C256.386 116.691 256.351 116.795 256.299 117.004L255.985 117.979L255.723 118.692C255.723 118.901 255.566 119.11 255.478 119.319C255.391 119.528 255.251 119.824 255.129 120.067C255.007 120.311 254.937 120.468 254.832 120.659C254.744 120.844 254.644 121.025 254.535 121.199C254.254 121.719 253.945 122.225 253.61 122.713L253.47 122.921C253.121 123.409 252.754 123.861 252.37 124.314L252.038 124.662C251.759 124.975 251.479 125.254 251.182 125.532L250.781 125.897C250.435 126.201 250.074 126.485 249.698 126.75L249.436 126.942L249.192 127.098C248.928 127.277 248.654 127.44 248.371 127.586L248.004 127.777L247.41 128.056C247.079 128.212 246.729 128.334 246.398 128.456L245.944 128.595C245.457 128.74 244.961 128.851 244.459 128.926C243.979 128.989 243.494 129.018 243.01 129.013H242.73C242.286 128.999 241.843 128.958 241.403 128.891H241.159C240.756 128.81 240.359 128.699 239.971 128.56H239.797C239.332 128.402 238.882 128.204 238.452 127.968L242.503 130.161L243.988 130.979L245.472 131.762L246.328 132.232L246.782 132.476L247.149 132.667C247.461 132.824 247.781 132.964 248.109 133.085H248.301L248.982 133.294C249.149 133.339 249.318 133.374 249.489 133.398H249.733C250.172 133.472 250.615 133.518 251.06 133.538H251.34C251.822 133.572 252.306 133.572 252.789 133.538C253.291 133.463 253.787 133.352 254.273 133.207L254.727 133.05C255.059 132.946 255.408 132.807 255.74 132.667L255.985 132.563L256.334 132.389L256.701 132.198L257.521 131.71L257.766 131.554L257.958 131.397C258.335 131.133 258.696 130.849 259.041 130.544L259.233 130.405L259.442 130.179C259.739 129.918 260.018 129.622 260.298 129.326L260.542 129.082V128.961C260.932 128.515 261.3 128.05 261.643 127.568L261.73 127.412C262.075 126.92 262.389 126.409 262.673 125.88L262.83 125.654C262.83 125.549 262.83 125.445 262.97 125.358L263.267 124.749C263.389 124.505 263.494 124.262 263.598 124C263.703 123.739 263.773 123.583 263.86 123.374C263.948 123.165 263.965 123.13 264 123.026C264.049 122.907 264.089 122.785 264.122 122.66L264.437 121.703C264.437 121.477 264.559 121.251 264.611 121.024C264.664 120.798 264.786 120.346 264.856 119.998C264.925 119.65 264.856 119.563 264.978 119.336C265.1 119.11 265.1 118.571 265.135 118.188C265.17 117.805 265.135 117.805 265.135 117.613C265.135 117.039 265.222 116.447 265.222 115.873C265.264 113.384 264.788 110.913 263.825 108.616Z" fill="black" stroke="white" stroke-width="0.5" stroke-linecap="round" stroke-linejoin="round"/>
<mask id="mask2_891_1164" style="mask-type:luminance" maskUnits="userSpaceOnUse" x="244" y="96" width="15" height="7">
<path d="M250.24 97.9996L258.569 102.507C256.736 101.512 254.627 101.139 252.562 101.446L244.232 96.9206C246.299 96.6197 248.408 96.9985 250.24 97.9996Z" fill="white"/>
</mask>
<g mask="url(#mask2_891_1164)">
<path d="M252.562 101.445L244.232 96.9201C245.503 96.7428 246.796 96.8138 248.039 97.1289L256.369 101.636C255.124 101.327 253.831 101.262 252.562 101.445Z" fill="#A8A8A8" stroke="white" stroke-width="0.5" stroke-linecap="round" stroke-linejoin="round"/>
<path d="M256.369 101.637L247.97 97.1294C248.604 97.2881 249.219 97.5157 249.803 97.8081L258.133 102.316C257.542 102.038 256.929 101.811 256.299 101.637" fill="#A3A3A3"/>
<path d="M256.369 101.637L247.97 97.1294C248.604 97.2881 249.219 97.5157 249.803 97.8081L258.133 102.316C257.542 102.038 256.929 101.811 256.299 101.637" stroke="white" stroke-width="0.5" stroke-linecap="round" stroke-linejoin="round"/>
<path d="M258.203 102.316L249.873 97.8081L250.24 97.9995L258.569 102.507L258.203 102.316Z" fill="#9E9E9E" stroke="white" stroke-width="0.5" stroke-linecap="round" stroke-linejoin="round"/>
</g>
<path d="M250.24 97.9996L258.569 102.507C256.736 101.512 254.627 101.139 252.562 101.446L244.232 96.9206C246.299 96.6197 248.408 96.9985 250.24 97.9996Z" stroke="white" stroke-width="0.5" stroke-linecap="round" stroke-linejoin="round"/>
<mask id="mask3_891_1164" style="mask-type:luminance" maskUnits="userSpaceOnUse" x="231" y="96" width="22" height="37">
<path d="M246.503 132.354L238.173 127.847C234.209 125.689 231.52 120.781 231.537 114.689C231.537 105.866 237.247 97.9124 244.233 96.9204L252.562 101.445C245.577 102.42 239.884 110.373 239.867 119.214C239.849 125.306 242.539 130.213 246.503 132.354Z" fill="white"/>
</mask>
<g mask="url(#mask3_891_1164)">
<path d="M246.503 132.354L238.173 127.847C234.209 125.689 231.52 120.781 231.537 114.689C231.535 112.249 231.967 109.827 232.812 107.537L241.142 112.044C240.299 114.341 239.867 116.768 239.867 119.214C239.867 125.288 242.539 130.213 246.503 132.354Z" fill="#858585" stroke="white" stroke-width="0.5" stroke-linecap="round" stroke-linejoin="round"/>
<path d="M241.141 112.044L232.812 107.537C233.147 106.629 233.544 105.745 233.999 104.891L242.329 109.416C241.866 110.261 241.469 111.139 241.141 112.044Z" fill="#8A8A8A" stroke="white" stroke-width="0.5" stroke-linecap="round" stroke-linejoin="round"/>
<path d="M242.329 109.416L233.999 104.891C234.366 104.23 234.767 103.586 235.186 102.977L243.516 107.502C243.076 108.111 242.679 108.751 242.329 109.416Z" fill="#8F8F8F" stroke="white" stroke-width="0.5" stroke-linecap="round" stroke-linejoin="round"/>
<path d="M243.516 107.502L235.187 102.977C235.565 102.438 235.973 101.921 236.409 101.428L244.739 105.953C244.298 106.443 243.89 106.96 243.516 107.502Z" fill="#949494" stroke="white" stroke-width="0.5" stroke-linecap="round" stroke-linejoin="round"/>
<path d="M244.739 105.953L236.409 101.428C236.828 100.958 237.265 100.523 237.719 100.105L246.049 104.63C245.586 105.045 245.149 105.486 244.739 105.953Z" fill="#999999" stroke="white" stroke-width="0.5" stroke-linecap="round" stroke-linejoin="round"/>
<path d="M246.048 104.63L237.719 100.105C238.184 99.6927 238.673 99.3091 239.186 98.9565L247.498 103.481C246.995 103.839 246.511 104.222 246.048 104.63Z" fill="#9E9E9E" stroke="white" stroke-width="0.5" stroke-linecap="round" stroke-linejoin="round"/>
<path d="M247.498 103.482L239.238 98.9566C239.825 98.5529 240.444 98.1978 241.089 97.895L249.419 102.403C248.766 102.708 248.141 103.069 247.55 103.482" fill="#A3A3A3"/>
<path d="M247.498 103.482L239.238 98.9566C239.825 98.5529 240.444 98.1978 241.089 97.895L249.419 102.403C248.766 102.708 248.141 103.069 247.55 103.482" stroke="white" stroke-width="0.5" stroke-linecap="round" stroke-linejoin="round"/>
<path d="M249.366 102.403L240.984 97.895C241.993 97.4088 243.071 97.0801 244.18 96.9204L252.51 101.445C251.403 101.607 250.327 101.93 249.314 102.403" fill="#A8A8A8"/>
<path d="M249.366 102.403L240.984 97.895C241.993 97.4088 243.071 97.0801 244.18 96.9204L252.51 101.445C251.403 101.607 250.327 101.93 249.314 102.403" stroke="white" stroke-width="0.5" stroke-linecap="round" stroke-linejoin="round"/>
</g>
<path d="M246.503 132.354L238.173 127.847C234.209 125.689 231.52 120.781 231.537 114.689C231.537 105.866 237.247 97.9124 244.233 96.9204L252.562 101.445C245.577 102.42 239.884 110.373 239.867 119.214C239.849 125.306 242.539 130.213 246.503 132.354Z" stroke="white" stroke-width="0.5" stroke-linecap="round" stroke-linejoin="round"/>
<path d="M239.937 155.675L248.266 160.2L248.284 151.759L239.954 147.234L239.937 155.675Z" fill="black" stroke="white" stroke-width="0.5" stroke-linecap="round" stroke-linejoin="round"/>
<path d="M273.274 80.9787L264.944 76.4712L260.386 82.8409L257.121 81.1005L256.352 80.7003C256.108 80.5784 255.881 80.5088 255.654 80.4044L254.763 80.0215C254.379 79.8649 253.995 79.7431 253.593 79.6212C253.302 79.5102 253.005 79.4172 252.703 79.3428H252.441C252.074 79.2384 251.69 79.1862 251.323 79.0991L250.624 78.9599C249.909 78.8381 249.193 78.7685 248.477 78.7163L256.789 83.2412C257.515 83.2784 258.238 83.3598 258.954 83.4848L259.635 83.6241C260.107 83.7111 260.578 83.8155 261.032 83.9373L261.923 84.2158L262.29 84.3376L268.541 87.8183L273.274 80.9787Z" fill="black" stroke="white" stroke-width="0.5" stroke-linecap="round" stroke-linejoin="round"/>
<path d="M228.167 135.835C227.713 134.686 227.294 133.503 226.945 132.354C226.77 131.728 226.613 131.101 226.456 130.475C226.162 129.176 225.935 127.863 225.775 126.541L217.445 122.034C218.002 127.04 219.653 131.864 222.282 136.166L217.55 142.709L225.88 147.234L230.612 140.604C229.664 139.086 228.846 137.49 228.167 135.835Z" fill="black" stroke="white" stroke-width="0.5" stroke-linecap="round" stroke-linejoin="round"/>
<path d="M240.094 71.3547V79.7955C239.587 79.9521 239.099 80.1435 238.592 80.3524L238.121 80.5612L237.387 80.8745L237.195 80.9789C236.619 81.2574 236.06 81.5532 235.449 81.8665H235.327C234.733 82.2146 234.157 82.58 233.58 82.9629L233.406 83.0847L232.969 83.398C232.655 83.6243 232.358 83.8331 232.061 84.0768L231.432 84.5814L230.577 85.295L230.28 85.5387C230.209 85.6184 230.133 85.6939 230.053 85.7649C229.442 86.3218 228.848 86.8961 228.307 87.5053L236.636 92.0302C237.213 91.4211 237.806 90.8293 238.383 90.2898L238.906 89.8199L239.762 89.1064L240.391 88.6017C240.688 88.3754 240.984 88.1492 241.299 87.9403C241.613 87.7315 241.7 87.6445 241.91 87.5053C242.469 87.105 243.063 86.7395 243.656 86.3914H243.779C244.337 86.0782 244.896 85.7823 245.525 85.5212L246.45 85.0862L246.922 84.8947C247.428 84.6859 247.917 84.4944 248.424 84.3204V75.8449L240.094 71.3547Z" fill="black" stroke="white" stroke-width="0.5" stroke-linecap="round" stroke-linejoin="round"/>
<path d="M225.985 95.0757L217.655 90.4985L222.37 95.7196C221.951 96.5028 221.567 97.3033 221.182 98.1213L220.92 98.7304C220.554 99.5484 220.204 100.384 219.89 101.219C219.883 101.254 219.883 101.289 219.89 101.324C219.628 102.02 219.401 102.716 219.192 103.412C219.192 103.656 219.052 103.882 218.982 104.126C218.825 104.648 218.685 105.17 218.546 105.692C218.406 106.214 218.406 106.231 218.353 106.51C218.231 107.049 218.109 107.589 218.004 108.128C218.004 108.372 217.899 108.616 217.864 108.859C217.725 109.642 217.603 110.426 217.498 111.226L210.81 112.166L219.139 116.674L225.827 115.734C225.932 114.933 226.054 114.15 226.194 113.367C226.194 113.123 226.281 112.88 226.334 112.636C226.439 112.096 226.543 111.557 226.683 111.017C226.683 110.756 226.805 110.478 226.875 110.217L227.294 108.65C227.294 108.407 227.434 108.163 227.521 107.92C227.731 107.223 227.958 106.527 228.22 105.848C228.212 105.808 228.212 105.767 228.22 105.727C228.534 104.874 228.883 103.986 229.25 103.221L229.512 102.611C229.896 101.811 230.28 101.01 230.7 100.227L225.985 95.0757Z" fill="black" stroke="white" stroke-width="0.5" stroke-linecap="round" stroke-linejoin="round"/>
<path d="M217.55 142.727L223.47 149.375L231.799 153.882L225.879 147.252L217.55 142.727Z" fill="black" stroke="white" stroke-width="0.5" stroke-linecap="round" stroke-linejoin="round"/>
<path d="M248.476 70.1538L240.094 71.3373L248.423 75.8448L256.805 74.6787L248.476 70.1538Z" fill="black" stroke="white" stroke-width="0.5" stroke-linecap="round" stroke-linejoin="round"/>
<path d="M219.104 116.83L210.774 112.305L210.757 122.887L219.087 127.411L219.104 116.83Z" fill="black" stroke="white" stroke-width="0.5" stroke-linecap="round" stroke-linejoin="round"/>
<path d="M217.654 90.5682L225.984 95.0757L231.921 86.7742L223.592 82.2493L217.654 90.5682Z" fill="black" stroke="white" stroke-width="0.5" stroke-linecap="round" stroke-linejoin="round"/>
<path d="M279.297 108.407L285.985 107.467V118.048L279.297 118.971C278.637 124.403 276.973 129.666 274.39 134.495L279.105 139.716L273.168 148.035L268.453 142.814C265.232 146.321 261.197 148.987 256.701 150.576V159.016L248.319 160.2V151.759C244.029 151.514 239.921 149.945 236.566 147.269L231.834 153.9L225.914 147.252L230.646 140.621C228.017 136.313 226.366 131.484 225.809 126.472L219.121 127.412V116.83L225.809 115.89C226.472 110.464 228.136 105.207 230.716 100.384L226.001 95.1627L231.939 86.8612L236.654 92.0823C239.87 88.5538 243.914 85.8749 248.423 84.2855V75.8448L256.805 74.6787V83.1194C261.095 83.3683 265.201 84.9371 268.558 87.6096L273.29 80.9788L279.21 87.627L274.46 94.2577C277.089 98.5658 278.74 103.395 279.297 108.407ZM252.51 133.433C259.495 132.441 265.187 124.488 265.205 115.664C265.222 106.841 259.565 100.471 252.562 101.445C245.56 102.42 239.884 110.373 239.867 119.214C239.849 128.055 245.507 134.408 252.51 133.433Z" fill="#A8DAC8" stroke="white" stroke-width="0.5" stroke-linecap="round" stroke-linejoin="round"/>
<path d="M83.8555 98.6086L147.454 62.2526L166.698 75.6359L231.5 37" stroke="white" stroke-linecap="round" stroke-linejoin="round"/>
<path d="M235.5 34.5C233.418 38.0838 232.903 39.3208 230.5 43.0001L226.926 40.2268L222 36.5001C228 35.5 228 35.5 235.5 34.5Z" fill="white"/>
<path d="M28.0977 167.301V180.04L72.6274 206.145V192.605L28.0977 167.301Z" fill="white" stroke="white" stroke-width="0.5" stroke-linecap="round" stroke-linejoin="round"/>
<path d="M186.012 256.442C179.123 253.697 172.563 250.195 166.454 246L72.627 192.64V206.18C114.537 230.737 171.326 264.047 175.028 266.066C180.93 269.268 200.488 275.412 218.457 266.066L218.719 265.909V252.804C208.657 258.051 196.987 259.348 186.012 256.442Z" stroke="white" stroke-width="0.5" stroke-linecap="round" stroke-linejoin="round"/>
</svg>
