<svg width="224" height="224" viewBox="0 0 224 224" fill="none" xmlns="http://www.w3.org/2000/svg"><circle cx="112" cy="112" r="111.5" stroke="black"/><mask id="path-2-inside-1_7_54" fill="white"><path fill-rule="evenodd" clip-rule="evenodd" d="M112.655 186.012C153.169 186.012 186.012 153.169 186.012 112.655C186.012 72.1412 153.169 39.2982 112.655 39.2982C72.1412 39.2982 39.2982 72.1412 39.2982 112.655C39.2982 153.169 72.1412 186.012 112.655 186.012ZM112 154.573C135.512 154.573 154.573 135.512 154.573 112C154.573 88.4875 135.512 69.4269 112 69.4269C88.4875 69.4269 69.4269 88.4875 69.4269 112C69.4269 135.512 88.4875 154.573 112 154.573Z"/></mask><path fill-rule="evenodd" clip-rule="evenodd" d="M112.655 186.012C153.169 186.012 186.012 153.169 186.012 112.655C186.012 72.1412 153.169 39.2982 112.655 39.2982C72.1412 39.2982 39.2982 72.1412 39.2982 112.655C39.2982 153.169 72.1412 186.012 112.655 186.012ZM112 154.573C135.512 154.573 154.573 135.512 154.573 112C154.573 88.4875 135.512 69.4269 112 69.4269C88.4875 69.4269 69.4269 88.4875 69.4269 112C69.4269 135.512 88.4875 154.573 112 154.573Z" fill="black"/><path d="M185.012 112.655C185.012 152.616 152.616 185.012 112.655 185.012V187.012C153.721 187.012 187.012 153.721 187.012 112.655H185.012ZM112.655 40.2982C152.616 40.2982 185.012 72.6935 185.012 112.655H187.012C187.012 71.5889 153.721 38.2982 112.655 38.2982V40.2982ZM40.2982 112.655C40.2982 72.6935 72.6935 40.2982 112.655 40.2982V38.2982C71.5889 38.2982 38.2982 71.5889 38.2982 112.655H40.2982ZM112.655 185.012C72.6935 185.012 40.2982 152.616 40.2982 112.655H38.2982C38.2982 153.721 71.5889 187.012 112.655 187.012V185.012ZM153.573 112C153.573 134.96 134.96 153.573 112 153.573V155.573C136.065 155.573 155.573 136.065 155.573 112H153.573ZM112 70.4269C134.96 70.4269 153.573 89.0398 153.573 112H155.573C155.573 87.9352 136.065 68.4269 112 68.4269V70.4269ZM70.4269 112C70.4269 89.0398 89.0398 70.4269 112 70.4269V68.4269C87.9352 68.4269 68.4269 87.9352 68.4269 112H70.4269ZM112 153.573C89.0398 153.573 70.4269 134.96 70.4269 112H68.4269C68.4269 136.065 87.9352 155.573 112 155.573V153.573Z" fill="black" mask="url(#path-2-inside-1_7_54)"/></svg>