<svg width="224" height="224" viewBox="0 0 224 224" fill="none" xmlns="http://www.w3.org/2000/svg"><path fill-rule="evenodd" clip-rule="evenodd" d="M224 112C224 173.856 173.856 224 112 224C50.1441 224 0 173.856 0 112C0 50.1441 50.1441 0 112 0C173.856 0 224 50.1441 224 112ZM111.573 153.146C134.533 153.146 153.146 134.533 153.146 111.573C153.146 88.6129 134.533 70 111.573 70C88.6129 70 70 88.6129 70 111.573C70 134.533 88.6129 153.146 111.573 153.146ZM111.573 154.146C135.086 154.146 154.146 135.086 154.146 111.573C154.146 88.0606 135.086 69 111.573 69C88.0606 69 69 88.0606 69 111.573C69 135.086 88.0606 154.146 111.573 154.146ZM112.357 185.713C152.871 185.713 185.713 152.871 185.713 112.357C185.713 71.8429 152.871 39 112.357 39C71.8429 39 39 71.8429 39 112.357C39 152.871 71.8429 185.713 112.357 185.713Z" fill="black"/></svg>