<svg width="1019" height="595" viewBox="0 0 1019 595" fill="none" xmlns="http://www.w3.org/2000/svg">
<g id="Group 186">
<path id="ring" d="M1004.54 295.071C1008.14 363.085 956.127 427.72 868.81 477.2C781.522 526.664 659.096 560.892 522.224 568.132C385.352 575.371 259.999 554.249 167.98 514.269C75.9305 474.276 17.3873 415.489 13.7898 347.474C10.1923 279.46 62.2074 214.825 149.525 165.345C236.812 115.881 359.238 81.6526 496.11 74.4131C632.982 67.1736 758.336 88.2961 850.354 128.276C942.404 168.269 1000.95 227.056 1004.54 295.071Z" stroke="black"/>
<path id="star-1" d="M92.2584 75.2039C92.2584 75.2039 92.5629 87.5409 97.0248 93.3548C101.487 99.1688 113.325 102.654 113.325 102.654C113.325 102.654 100.988 102.959 95.174 107.421C89.3601 111.882 85.8746 123.721 85.8746 123.721C85.8746 123.721 85.5701 111.384 81.1083 105.57C76.6464 99.7559 64.8081 96.2704 64.8081 96.2704C64.8081 96.2704 77.1451 95.9659 82.9591 91.5041C88.773 87.0422 92.2584 75.2039 92.2584 75.2039Z" fill="black"/>
<path id="star-2" d="M937.647 77.5317C937.647 77.5317 937.792 83.4171 939.92 86.1906C942.049 88.9641 947.696 90.6268 947.696 90.6268C947.696 90.6268 941.811 90.7721 939.037 92.9006C936.264 95.0291 934.601 100.677 934.601 100.677C934.601 100.677 934.456 94.7912 932.327 92.0177C930.199 89.2442 924.552 87.5814 924.552 87.5814C924.552 87.5814 930.437 87.4362 933.21 85.3077C935.984 83.1792 937.647 77.5317 937.647 77.5317Z" fill="black"/>
<path id="star-3" d="M863.332 3.3205C863.332 3.3205 863.603 14.2956 867.573 19.4677C871.542 24.6398 882.073 27.7405 882.073 27.7405C882.073 27.7405 871.098 28.0113 865.926 31.9806C860.754 35.9499 857.653 46.4814 857.653 46.4814C857.653 46.4814 857.382 35.5063 853.413 30.3342C849.444 25.1621 838.912 22.0614 838.912 22.0614C838.912 22.0614 849.888 21.7905 855.06 17.8213C860.232 13.852 863.332 3.3205 863.332 3.3205Z" fill="black"/>
<path id="star-4" d="M895.161 389.559C895.161 389.559 895.348 397.151 898.094 400.729C900.84 404.307 908.125 406.452 908.125 406.452C908.125 406.452 900.533 406.639 896.955 409.385C893.377 412.13 891.232 419.416 891.232 419.416C891.232 419.416 891.045 411.824 888.299 408.246C885.553 404.668 878.268 402.523 878.268 402.523C878.268 402.523 885.86 402.336 889.438 399.59C893.016 396.844 895.161 389.559 895.161 389.559Z" fill="black"/>
<path id="star-6" d="M286.735 493.009C286.735 493.009 286.922 500.601 289.668 504.179C292.414 507.756 299.699 509.901 299.699 509.901C299.699 509.901 292.107 510.089 288.529 512.834C284.951 515.58 282.806 522.865 282.806 522.865C282.806 522.865 282.619 515.273 279.873 511.695C277.128 508.118 269.842 505.973 269.842 505.973C269.842 505.973 277.434 505.785 281.012 503.04C284.59 500.294 286.735 493.009 286.735 493.009Z" fill="black"/>
<path id="star-5" d="M242.146 456.768C242.146 456.768 242.412 467.524 246.302 472.592C250.192 477.661 260.512 480.699 260.512 480.699C260.512 480.699 249.757 480.965 244.688 484.855C239.62 488.744 236.581 499.065 236.581 499.065C236.581 499.065 236.316 488.31 232.426 483.241C228.536 478.173 218.215 475.134 218.215 475.134C218.215 475.134 228.971 474.869 234.039 470.979C239.108 467.089 242.146 456.768 242.146 456.768Z" fill="black"/>
</g>
</svg>
