<svg width="66" height="93" viewBox="0 0 66 93" fill="none" xmlns="http://www.w3.org/2000/svg">
<g clip-path="url(#clip0_252_515)">
<path d="M27.9775 58.6359L38.0209 92.6384L46.2718 80.7013L59.9013 85.766L49.1405 52.8489L27.9775 58.6359Z" fill="#CD3414"/>
<g opacity="0.7">
<path d="M33.6337 68.1127L32.5742 68.4387L39.2889 90.6287L40.3484 90.3027L33.6337 68.1127Z" fill="#FFCE45"/>
</g>
<g opacity="0.7">
<path d="M48.9539 58.1035L47.8975 58.4392L56.1485 84.8454L57.205 84.5097L48.9539 58.1035Z" fill="#FFCE45"/>
</g>
<path d="M15.7833 55.0181L5.02246 86.4881L19.7281 81.4247L27.2604 93L39.8149 59.3593L15.7833 55.0181Z" fill="#FE5629"/>
<g opacity="0.7">
<path d="M18.4858 53.7667L8.43945 84.8738L9.49268 85.2197L19.5391 54.1126L18.4858 53.7667Z" fill="#FFCE45"/>
</g>
<g opacity="0.7">
<path d="M36.4251 57.3699L24.9434 90.2864L25.9883 90.657L37.47 57.7406L36.4251 57.3699Z" fill="#FFCE45"/>
</g>
<path d="M0 32.9525C0 31.4318 3.67548 30.1917 3.88317 28.7281C4.09463 27.229 0.915093 24.9987 1.32921 23.5757C1.75089 22.1274 5.62398 21.9827 6.23824 20.6295C6.85879 19.2612 4.43575 16.2134 5.2363 14.958C6.04188 13.695 9.79792 14.6597 10.7709 13.5287C11.7452 12.3964 10.2674 8.78383 11.3902 7.80134C12.5105 6.82139 15.8473 8.80795 17.0998 7.99428C18.3447 7.1857 17.9318 3.30017 19.2887 2.67311C20.6305 2.05366 23.2751 4.90846 24.7113 4.48322C26.1223 4.06814 26.8171 0.221963 28.305 0.00871013C29.7563 -0.199466 31.492 3.29129 33 3.29129C34.5079 3.29129 36.2437 -0.199466 37.695 0.00871013C39.1816 0.221963 39.8777 4.06814 41.29 4.48576C42.7262 4.911 45.3707 2.0562 46.7125 2.67564C48.0695 3.30144 47.6578 7.18824 48.9027 7.99682C50.1552 8.80921 53.4908 6.82393 54.6123 7.80388C55.7351 8.78637 54.2573 12.399 55.2316 13.5312C56.2033 14.661 59.9594 13.6975 60.7662 14.9606C61.568 16.216 59.1437 19.2624 59.7643 20.6321C60.3785 21.9852 64.2516 22.1299 64.6733 23.5783C65.0874 25.0025 61.9079 27.2315 62.1193 28.7306C62.3258 30.1942 66.0025 31.4344 66.0025 32.9551C66.0025 34.4758 62.327 35.7159 62.1193 37.1795C61.9079 38.6786 65.0874 40.9089 64.6733 42.3319C64.2516 43.7802 60.3785 43.9249 59.7643 45.2781C59.1437 46.6464 61.5668 49.6942 60.7662 50.9496C59.9606 52.2126 56.2046 51.2479 55.2316 52.3789C54.2573 53.5112 55.7351 57.1238 54.6123 58.1063C53.492 59.0862 50.1552 57.0996 48.9027 57.9133C47.6578 58.7219 48.0707 62.6074 46.7138 63.2345C45.372 63.8539 42.7274 60.9991 41.2912 61.4244C39.8789 61.842 39.1841 65.6869 37.6963 65.9014C36.245 66.1096 34.5092 62.6188 33.0013 62.6188C31.4933 62.6188 29.7575 66.1096 28.3062 65.9014C26.8197 65.6882 26.1236 61.842 24.7113 61.4244C23.2751 60.9991 20.6305 63.8539 19.2887 63.2345C17.9318 62.6087 18.3434 58.7219 17.0998 57.9133C15.8473 57.1009 12.5117 59.0862 11.3902 58.1063C10.2674 57.1238 11.7452 53.5112 10.7709 52.3789C9.79917 51.2491 6.04314 52.2126 5.2363 50.9496C4.43449 49.6942 6.85879 46.6477 6.23824 45.2781C5.62398 43.9249 1.75089 43.7802 1.32921 42.3319C0.915093 40.9076 4.09463 38.6786 3.88317 37.1795C3.67674 35.7159 0 34.4758 0 32.9551L0 32.9525Z" fill="#FCAB28"/>
<path d="M33.0001 59.721C47.6599 59.721 59.544 47.7364 59.544 32.9527C59.544 18.1689 47.6599 6.18433 33.0001 6.18433C18.3402 6.18433 6.45605 18.1689 6.45605 32.9527C6.45605 47.7364 18.3402 59.721 33.0001 59.721Z" fill="#FFCE45"/>
<path d="M33.0004 60.2631C25.7665 60.2631 18.9656 57.4223 13.8514 52.2636C8.73597 47.1049 5.91895 40.2465 5.91895 32.9527C5.91895 25.6589 8.73597 18.7993 13.8514 13.6419C18.9669 8.48317 25.7678 5.64233 33.0004 5.64233C40.2331 5.64233 47.0352 8.48317 52.1494 13.6419C57.2649 18.8006 60.0819 25.6589 60.0819 32.9527C60.0819 40.2465 57.2649 47.1061 52.1494 52.2636C47.0339 57.4223 40.2331 60.2631 33.0004 60.2631ZM33.0004 6.72764C18.661 6.72764 6.99516 18.4921 6.99516 32.9527C6.99516 47.4133 18.661 59.1778 33.0004 59.1778C47.3398 59.1778 59.0057 47.4133 59.0057 32.9527C59.0057 18.4921 47.3398 6.72764 33.0004 6.72764Z" fill="#FCAB28"/>
<path d="M32.9998 52.1239C43.499 52.1239 52.0103 43.5407 52.0103 32.9527C52.0103 22.3647 43.499 13.7815 32.9998 13.7815C22.5006 13.7815 13.9893 22.3647 13.9893 32.9527C13.9893 43.5407 22.5006 52.1239 32.9998 52.1239Z" fill="#FFE266"/>
<path d="M48.7829 25.3568C48.7829 24.1357 48.6646 22.9438 48.4481 21.7861C44.998 16.9409 39.3664 13.7815 32.9998 13.7815C22.5008 13.7815 13.9893 22.3649 13.9893 32.9527C13.9893 34.1738 14.1076 35.3658 14.3241 36.5234C17.7742 41.3686 23.4058 44.528 29.7724 44.528C40.2714 44.528 48.7829 35.9446 48.7829 25.3568Z" fill="#FFE266"/>
<path d="M32.9999 52.6836C22.2114 52.6836 13.4355 43.8324 13.4355 32.9539C13.4355 22.0754 22.2114 13.2229 32.9999 13.2229C43.7884 13.2229 52.5643 22.0742 52.5643 32.9526C52.5643 43.8311 43.7872 52.6824 32.9999 52.6824V52.6836ZM32.9999 14.3412C22.8231 14.3412 14.5432 22.6911 14.5432 32.9539C14.5432 43.2167 22.8231 51.5666 32.9999 51.5666C43.1767 51.5666 51.4566 43.2167 51.4566 32.9539C51.4566 22.6911 43.1767 14.3412 32.9999 14.3412Z" fill="#FCAB28"/>
<path d="M16.3406 20.5417L17.5709 17.6497L18.7217 20.5812L20.8773 21.7262L18.6792 22.7971L17.4489 26.4745L16.2981 22.7575L14.1426 21.6126L16.3406 20.5417Z" fill="white" fill-opacity="0.75"/>
<path d="M50.7017 29.1555L51.5629 27.1533L52.3685 29.1829L53.8774 29.9755L52.3387 30.7169L51.4775 33.2628L50.672 30.6895L49.1631 29.8969L50.7017 29.1555Z" fill="white" fill-opacity="0.75"/>
<path d="M36.1992 23.8906V41H33.0938V27.5117L28.9805 28.8711V26.3633L35.8477 23.8906H36.1992Z" fill="#FF3B3B"/>
</g>
<defs>
<clipPath id="clip0_252_515">
<rect width="66" height="93" fill="white"/>
</clipPath>
</defs>
</svg>
