<svg width="16" height="16" viewBox="0 0 16 16" fill="none" xmlns="http://www.w3.org/2000/svg">
<path d="M13.3033 13.3035C16.2322 10.3745 16.2322 5.62579 13.3033 2.69686C10.3744 -0.232077 5.62563 -0.232077 2.6967 2.69686C-0.232233 5.62579 -0.232233 10.3745 2.6967 13.3035C5.62563 16.2324 10.3744 16.2324 13.3033 13.3035ZM6.01126 10.6518C5.8282 10.8349 5.53141 10.8349 5.34835 10.6518C5.16529 10.4687 5.16529 10.172 5.34835 9.98889L9.18853 6.14871H6.34272C6.08384 6.14871 5.87397 5.93885 5.87397 5.67996C5.87397 5.42108 6.08384 5.21121 6.34272 5.21121H10.3202C10.5791 5.21121 10.7889 5.42108 10.7889 5.67996L10.7889 9.65744C10.7889 9.91632 10.5791 10.1262 10.3202 10.1262C10.0613 10.1262 9.85144 9.91632 9.85144 9.65744L9.85144 6.81163L6.01126 10.6518Z" fill="black"/>
</svg>
