<svg width="20" height="20" viewBox="0 0 20 20" fill="none" xmlns="http://www.w3.org/2000/svg">
<path d="M17.0711 17.0711C20.9763 13.1659 20.9763 6.83422 17.0711 2.92898C13.1658 -0.976265 6.83417 -0.976265 2.92893 2.92898C-0.97631 6.83422 -0.97631 13.1659 2.92893 17.0711C6.83417 20.9764 13.1658 20.9764 17.0711 17.0711ZM7.34835 13.5356C7.10427 13.7797 6.70854 13.7797 6.46447 13.5356C6.22039 13.2915 6.22039 12.8958 6.46447 12.6517L11.5847 7.53145L7.79029 7.53145C7.44511 7.53145 7.16529 7.25163 7.16529 6.90645C7.16529 6.56128 7.44511 6.28145 7.79029 6.28145L13.0936 6.28145C13.4388 6.28145 13.7186 6.56128 13.7186 6.90645V12.2098C13.7186 12.5549 13.4388 12.8348 13.0936 12.8348C12.7484 12.8348 12.4686 12.5549 12.4686 12.2098V8.41534L7.34835 13.5356Z" fill="white"/>
</svg>
