<svg width="21" height="20" viewBox="0 0 21 20" fill="none" xmlns="http://www.w3.org/2000/svg">
<path d="M17.5711 17.0711C21.4763 13.1659 21.4763 6.83422 17.5711 2.92898C13.6658 -0.976265 7.33417 -0.976265 3.42893 2.92898C-0.47631 6.83422 -0.47631 13.1659 3.42893 17.0711C7.33417 20.9764 13.6658 20.9764 17.5711 17.0711ZM7.84835 13.5356C7.60427 13.7797 7.20854 13.7797 6.96447 13.5356C6.72039 13.2915 6.72039 12.8958 6.96447 12.6517L12.0847 7.53145L8.29029 7.53145C7.94511 7.53145 7.66529 7.25163 7.66529 6.90645C7.66529 6.56128 7.94511 6.28145 8.29029 6.28145L13.5936 6.28145C13.9388 6.28145 14.2186 6.56128 14.2186 6.90645V12.2098C14.2186 12.5549 13.9388 12.8348 13.5936 12.8348C13.2484 12.8348 12.9686 12.5549 12.9686 12.2098V8.41534L7.84835 13.5356Z" fill="#0C4DA2"/>
</svg>
