<svg width="20" height="20" viewBox="0 0 20 20" fill="none" xmlns="http://www.w3.org/2000/svg">
<rect width="20" height="20" rx="10" fill="#FF6B00"/>
<rect width="20" height="20" rx="10" fill="white" fill-opacity="0.8"/>
<path d="M13.2712 6.27036C13.6667 5.90988 14.3079 5.90988 14.7034 6.27036C15.094 6.62643 15.0988 7.201 14.7178 7.56243L9.32716 13.7043C9.31938 13.7131 9.31106 13.7216 9.30226 13.7296C8.90677 14.0901 8.26555 14.0901 7.87007 13.7296L4.29662 10.4725C3.90113 10.112 3.90113 9.52753 4.29662 9.16704C4.6921 8.80656 5.33332 8.80656 5.72881 9.16704L8.55565 11.7437L13.2443 6.29798C13.2527 6.28829 13.2616 6.27907 13.2712 6.27036Z" fill="#FF7B1C"/>
</svg>
