<svg width="41" height="42" viewBox="0 0 41 42" fill="none" xmlns="http://www.w3.org/2000/svg">
<mask id="path-1-inside-1_502_146" fill="white">
<path fill-rule="evenodd" clip-rule="evenodd" d="M26.6568 6.00071C27.2768 5.99322 27.9732 6.04564 28.6468 6.14299C29.2132 6.22536 29.9403 6.36015 30.2541 6.44252C30.5679 6.51741 31.1037 6.67467 31.4404 6.78699C31.7772 6.89183 32.4278 7.16141 32.8946 7.37109C33.3615 7.58826 34.0504 7.95519 34.4254 8.19482C34.8004 8.43445 35.4051 8.86129 35.7648 9.13836C36.1245 9.41544 36.7062 9.94712 37.066 10.3066C37.4257 10.6735 37.9385 11.2651 38.1987 11.6096C38.4666 11.9615 38.8799 12.5681 39.1172 12.9575C39.3544 13.3469 39.7142 14.0583 39.9208 14.53C40.1275 15.0018 40.3954 15.7432 40.5178 16.1775C40.6403 16.6118 40.801 17.2708 40.8699 17.6377C40.9694 18.147 41 18.7236 41 19.9966C41 21.2696 40.9694 21.8463 40.8699 22.3555C40.801 22.7224 40.6403 23.3814 40.5178 23.8157C40.3954 24.25 40.1275 24.9914 39.9208 25.4632C39.7142 25.9349 39.3544 26.6463 39.1172 27.0357C38.8799 27.4251 38.4666 28.0317 38.1987 28.3837C37.9385 28.7281 37.441 29.2973 37.1042 29.6417C36.7675 29.9937 36.1781 30.5179 35.8031 30.8174C35.428 31.1169 34.8004 31.5588 34.4254 31.7984C34.0504 32.038 33.3615 32.405 32.8946 32.6221C32.4278 32.8318 31.7772 33.1014 31.4404 33.2062C31.1037 33.3186 30.5679 33.4758 30.2541 33.5507C29.9403 33.6331 29.2132 33.7679 28.6468 33.8502C28.0804 33.9326 27.2385 34 26.7716 34C26.3047 34 25.57 33.9476 25.126 33.8877C24.6821 33.8278 23.9933 33.7005 23.5953 33.6181C23.1973 33.5282 22.5237 33.341 22.1028 33.1987C21.6818 33.0565 20.9624 32.7569 20.4955 32.5323C20.0286 32.3151 19.3551 31.9407 18.9877 31.701C18.6203 31.4614 18.0769 31.072 17.7861 30.8399C17.4876 30.6002 17.1737 30.2932 17.0896 30.1659C16.9977 30.0161 16.9365 29.784 16.9365 29.5818C16.9365 29.3497 16.9901 29.1625 17.1049 28.9902C17.2044 28.848 17.3804 28.6607 17.4952 28.5784C17.6559 28.4586 17.8243 28.4211 18.1611 28.4211C18.5744 28.4211 18.628 28.4436 19.0489 28.7806C19.3015 28.9753 19.8296 29.3497 20.2276 29.6118C20.6256 29.8814 21.3145 30.2633 21.7584 30.4655C22.2023 30.6676 22.784 30.9073 23.0595 30.9971C23.3351 31.0795 23.8785 31.2218 24.2688 31.3042C24.6515 31.3865 25.3786 31.4914 25.8685 31.5363C26.519 31.5887 27.0242 31.5887 27.6901 31.5288C28.1952 31.4839 28.8687 31.394 29.1825 31.3341C29.4964 31.2742 30.1163 31.102 30.5602 30.9597C31.0041 30.8099 31.7389 30.5029 32.2058 30.2708C32.6727 30.0386 33.3079 29.6642 33.6217 29.4395C33.9356 29.2224 34.4484 28.818 34.7622 28.5409C35.076 28.2713 35.5428 27.7921 35.8031 27.4851C36.0633 27.178 36.4843 26.6164 36.7292 26.2495C36.9741 25.8825 37.3185 25.2685 37.4946 24.9015C37.6706 24.5346 37.9002 23.973 38.0074 23.6659C38.1145 23.3589 38.2752 22.7524 38.3747 22.318C38.5355 21.6216 38.5584 21.3445 38.5584 19.9592C38.5508 18.4989 38.5355 18.3192 38.3365 17.488C38.214 16.9937 37.9997 16.2823 37.8543 15.9154C37.7089 15.5485 37.441 14.9569 37.2496 14.6049C37.0583 14.253 36.7598 13.7662 36.5914 13.5191C36.4154 13.272 36.0633 12.8152 35.8031 12.5082C35.5428 12.2011 35.076 11.7219 34.7622 11.4523C34.4484 11.1752 33.9356 10.7708 33.6217 10.5537C33.3079 10.329 32.6727 9.9546 32.2058 9.72246C31.7389 9.49032 31.0041 9.18329 30.5602 9.03353C30.1163 8.89125 29.4964 8.71901 29.1825 8.6591C28.8687 8.5992 28.1799 8.50933 27.6518 8.45692C26.94 8.39701 26.4731 8.39701 25.8149 8.45692C25.3327 8.50933 24.6209 8.61417 24.2459 8.69655C23.8708 8.77143 23.3351 8.91371 23.0595 8.99608C22.784 9.08595 22.2023 9.32558 21.7584 9.52776C21.3145 9.72995 20.6256 10.1119 20.2276 10.3814C19.8296 10.6435 19.3015 11.018 19.0489 11.2127C18.628 11.5496 18.5744 11.5721 18.1611 11.5721C17.8243 11.5721 17.6559 11.5347 17.4952 11.4149C17.3804 11.3325 17.2044 11.1453 17.1049 11.003C16.9901 10.8308 16.9365 10.6435 16.9365 10.4114C16.9365 10.2092 16.9977 9.97707 17.0896 9.83479C17.1737 9.7 17.4722 9.40046 17.7631 9.17581C18.0463 8.94366 18.5667 8.56924 18.9265 8.32961C19.2862 8.09747 19.9215 7.73802 20.3424 7.52835C20.7634 7.31867 21.4216 7.03411 21.7966 6.89932C22.1717 6.76453 22.7993 6.57732 23.1743 6.47248C23.5494 6.37513 24.2765 6.23285 24.7816 6.15047C25.2868 6.07559 26.1287 6.00819 26.6568 6.00071ZM26.2358 11.7743C26.4272 11.7893 26.6568 11.8866 26.8405 12.0214C27.0089 12.1487 27.1926 12.3584 27.2461 12.4932C27.3227 12.6729 27.3456 13.4367 27.3456 18.8359L29.8637 21.3071C31.2567 22.6625 32.4278 23.8681 32.466 23.9879C32.5119 24.1003 32.5502 24.3249 32.5502 24.4897C32.5502 24.6544 32.4966 24.8941 32.4354 25.0139C32.3742 25.1337 32.2058 25.3209 32.068 25.4182C31.9379 25.5156 31.716 25.6204 31.5935 25.6504C31.471 25.6728 31.2261 25.6654 31.0577 25.6204C30.7975 25.553 30.3306 25.1262 27.9044 22.7524C26.3353 21.2172 25.0189 19.8693 24.973 19.757C24.927 19.6222 24.8964 18.3342 24.8964 16.1625C24.8964 12.7927 24.8964 12.7703 25.0648 12.4333C25.1949 12.1862 25.3327 12.0514 25.5853 11.9241C25.8225 11.8043 26.0215 11.7593 26.2358 11.7743ZM7.02482 13.1821H12.0381C15.2144 13.1821 17.1508 13.2121 17.3192 13.257C17.4646 13.3019 17.7019 13.4442 17.8396 13.579C17.9774 13.7063 18.1228 13.9459 18.1611 14.1032C18.207 14.2754 18.2147 14.4851 18.1687 14.6648C18.1228 14.8146 18.0233 15.0318 17.9391 15.1516C17.8473 15.2639 17.6789 15.4062 17.5488 15.4661C17.3498 15.5634 16.5844 15.5784 12.1146 15.5784C7.31567 15.5784 6.88705 15.5709 6.63448 15.4511C6.47375 15.3762 6.2824 15.219 6.19056 15.0917C6.09106 14.9494 6.02218 14.7098 6.00687 14.4552C5.98391 14.1182 6.01452 13.9984 6.15994 13.7812C6.25944 13.6389 6.48906 13.4442 6.6804 13.3469L7.02482 13.1821ZM13.8137 18.8209C18.9341 18.8434 19.0719 18.8434 19.2785 18.9932C19.3933 19.0755 19.5541 19.2328 19.6459 19.3526C19.7684 19.5099 19.8067 19.6671 19.8067 20.0041C19.8067 20.3336 19.7684 20.4908 19.6459 20.6481C19.5541 20.7679 19.3933 20.9327 19.2785 21.015C19.0719 21.1573 18.9265 21.1648 13.8903 21.1873C10.691 21.1948 8.60916 21.1798 8.44077 21.1349C8.29535 21.0974 8.05808 20.9402 7.92797 20.7904C7.77489 20.6331 7.66009 20.4085 7.62947 20.2437C7.60651 20.0865 7.60651 19.8543 7.62947 19.7195C7.65243 19.5847 7.75959 19.3676 7.85908 19.2403C7.95093 19.113 8.14993 18.9632 8.29535 18.9108C8.50966 18.8284 9.57353 18.8134 13.8137 18.8209ZM10.0787 24.4223H15.3062C20.1281 24.4223 20.5567 24.4298 20.817 24.5496C20.97 24.6245 21.1614 24.7817 21.2532 24.909C21.3527 25.0438 21.4216 25.2835 21.4369 25.5455C21.4599 25.8825 21.4369 26.0023 21.2838 26.2195C21.1843 26.3618 20.9547 26.5565 20.419 26.8186H15.4057C12.5585 26.8186 10.2777 26.7811 10.1246 26.7437C9.97918 26.7063 9.73426 26.549 9.58119 26.3917C9.38984 26.1896 9.29034 26.0023 9.25207 25.7702C9.20615 25.4931 9.22911 25.3658 9.37454 25.0962C9.47403 24.909 9.67303 24.6769 9.8108 24.587L10.0787 24.4223Z"/>
</mask>
<path fill-rule="evenodd" clip-rule="evenodd" d="M26.6568 6.00071C27.2768 5.99322 27.9732 6.04564 28.6468 6.14299C29.2132 6.22536 29.9403 6.36015 30.2541 6.44252C30.5679 6.51741 31.1037 6.67467 31.4404 6.78699C31.7772 6.89183 32.4278 7.16141 32.8946 7.37109C33.3615 7.58826 34.0504 7.95519 34.4254 8.19482C34.8004 8.43445 35.4051 8.86129 35.7648 9.13836C36.1245 9.41544 36.7062 9.94712 37.066 10.3066C37.4257 10.6735 37.9385 11.2651 38.1987 11.6096C38.4666 11.9615 38.8799 12.5681 39.1172 12.9575C39.3544 13.3469 39.7142 14.0583 39.9208 14.53C40.1275 15.0018 40.3954 15.7432 40.5178 16.1775C40.6403 16.6118 40.801 17.2708 40.8699 17.6377C40.9694 18.147 41 18.7236 41 19.9966C41 21.2696 40.9694 21.8463 40.8699 22.3555C40.801 22.7224 40.6403 23.3814 40.5178 23.8157C40.3954 24.25 40.1275 24.9914 39.9208 25.4632C39.7142 25.9349 39.3544 26.6463 39.1172 27.0357C38.8799 27.4251 38.4666 28.0317 38.1987 28.3837C37.9385 28.7281 37.441 29.2973 37.1042 29.6417C36.7675 29.9937 36.1781 30.5179 35.8031 30.8174C35.428 31.1169 34.8004 31.5588 34.4254 31.7984C34.0504 32.038 33.3615 32.405 32.8946 32.6221C32.4278 32.8318 31.7772 33.1014 31.4404 33.2062C31.1037 33.3186 30.5679 33.4758 30.2541 33.5507C29.9403 33.6331 29.2132 33.7679 28.6468 33.8502C28.0804 33.9326 27.2385 34 26.7716 34C26.3047 34 25.57 33.9476 25.126 33.8877C24.6821 33.8278 23.9933 33.7005 23.5953 33.6181C23.1973 33.5282 22.5237 33.341 22.1028 33.1987C21.6818 33.0565 20.9624 32.7569 20.4955 32.5323C20.0286 32.3151 19.3551 31.9407 18.9877 31.701C18.6203 31.4614 18.0769 31.072 17.7861 30.8399C17.4876 30.6002 17.1737 30.2932 17.0896 30.1659C16.9977 30.0161 16.9365 29.784 16.9365 29.5818C16.9365 29.3497 16.9901 29.1625 17.1049 28.9902C17.2044 28.848 17.3804 28.6607 17.4952 28.5784C17.6559 28.4586 17.8243 28.4211 18.1611 28.4211C18.5744 28.4211 18.628 28.4436 19.0489 28.7806C19.3015 28.9753 19.8296 29.3497 20.2276 29.6118C20.6256 29.8814 21.3145 30.2633 21.7584 30.4655C22.2023 30.6676 22.784 30.9073 23.0595 30.9971C23.3351 31.0795 23.8785 31.2218 24.2688 31.3042C24.6515 31.3865 25.3786 31.4914 25.8685 31.5363C26.519 31.5887 27.0242 31.5887 27.6901 31.5288C28.1952 31.4839 28.8687 31.394 29.1825 31.3341C29.4964 31.2742 30.1163 31.102 30.5602 30.9597C31.0041 30.8099 31.7389 30.5029 32.2058 30.2708C32.6727 30.0386 33.3079 29.6642 33.6217 29.4395C33.9356 29.2224 34.4484 28.818 34.7622 28.5409C35.076 28.2713 35.5428 27.7921 35.8031 27.4851C36.0633 27.178 36.4843 26.6164 36.7292 26.2495C36.9741 25.8825 37.3185 25.2685 37.4946 24.9015C37.6706 24.5346 37.9002 23.973 38.0074 23.6659C38.1145 23.3589 38.2752 22.7524 38.3747 22.318C38.5355 21.6216 38.5584 21.3445 38.5584 19.9592C38.5508 18.4989 38.5355 18.3192 38.3365 17.488C38.214 16.9937 37.9997 16.2823 37.8543 15.9154C37.7089 15.5485 37.441 14.9569 37.2496 14.6049C37.0583 14.253 36.7598 13.7662 36.5914 13.5191C36.4154 13.272 36.0633 12.8152 35.8031 12.5082C35.5428 12.2011 35.076 11.7219 34.7622 11.4523C34.4484 11.1752 33.9356 10.7708 33.6217 10.5537C33.3079 10.329 32.6727 9.9546 32.2058 9.72246C31.7389 9.49032 31.0041 9.18329 30.5602 9.03353C30.1163 8.89125 29.4964 8.71901 29.1825 8.6591C28.8687 8.5992 28.1799 8.50933 27.6518 8.45692C26.94 8.39701 26.4731 8.39701 25.8149 8.45692C25.3327 8.50933 24.6209 8.61417 24.2459 8.69655C23.8708 8.77143 23.3351 8.91371 23.0595 8.99608C22.784 9.08595 22.2023 9.32558 21.7584 9.52776C21.3145 9.72995 20.6256 10.1119 20.2276 10.3814C19.8296 10.6435 19.3015 11.018 19.0489 11.2127C18.628 11.5496 18.5744 11.5721 18.1611 11.5721C17.8243 11.5721 17.6559 11.5347 17.4952 11.4149C17.3804 11.3325 17.2044 11.1453 17.1049 11.003C16.9901 10.8308 16.9365 10.6435 16.9365 10.4114C16.9365 10.2092 16.9977 9.97707 17.0896 9.83479C17.1737 9.7 17.4722 9.40046 17.7631 9.17581C18.0463 8.94366 18.5667 8.56924 18.9265 8.32961C19.2862 8.09747 19.9215 7.73802 20.3424 7.52835C20.7634 7.31867 21.4216 7.03411 21.7966 6.89932C22.1717 6.76453 22.7993 6.57732 23.1743 6.47248C23.5494 6.37513 24.2765 6.23285 24.7816 6.15047C25.2868 6.07559 26.1287 6.00819 26.6568 6.00071ZM26.2358 11.7743C26.4272 11.7893 26.6568 11.8866 26.8405 12.0214C27.0089 12.1487 27.1926 12.3584 27.2461 12.4932C27.3227 12.6729 27.3456 13.4367 27.3456 18.8359L29.8637 21.3071C31.2567 22.6625 32.4278 23.8681 32.466 23.9879C32.5119 24.1003 32.5502 24.3249 32.5502 24.4897C32.5502 24.6544 32.4966 24.8941 32.4354 25.0139C32.3742 25.1337 32.2058 25.3209 32.068 25.4182C31.9379 25.5156 31.716 25.6204 31.5935 25.6504C31.471 25.6728 31.2261 25.6654 31.0577 25.6204C30.7975 25.553 30.3306 25.1262 27.9044 22.7524C26.3353 21.2172 25.0189 19.8693 24.973 19.757C24.927 19.6222 24.8964 18.3342 24.8964 16.1625C24.8964 12.7927 24.8964 12.7703 25.0648 12.4333C25.1949 12.1862 25.3327 12.0514 25.5853 11.9241C25.8225 11.8043 26.0215 11.7593 26.2358 11.7743ZM7.02482 13.1821H12.0381C15.2144 13.1821 17.1508 13.2121 17.3192 13.257C17.4646 13.3019 17.7019 13.4442 17.8396 13.579C17.9774 13.7063 18.1228 13.9459 18.1611 14.1032C18.207 14.2754 18.2147 14.4851 18.1687 14.6648C18.1228 14.8146 18.0233 15.0318 17.9391 15.1516C17.8473 15.2639 17.6789 15.4062 17.5488 15.4661C17.3498 15.5634 16.5844 15.5784 12.1146 15.5784C7.31567 15.5784 6.88705 15.5709 6.63448 15.4511C6.47375 15.3762 6.2824 15.219 6.19056 15.0917C6.09106 14.9494 6.02218 14.7098 6.00687 14.4552C5.98391 14.1182 6.01452 13.9984 6.15994 13.7812C6.25944 13.6389 6.48906 13.4442 6.6804 13.3469L7.02482 13.1821ZM13.8137 18.8209C18.9341 18.8434 19.0719 18.8434 19.2785 18.9932C19.3933 19.0755 19.5541 19.2328 19.6459 19.3526C19.7684 19.5099 19.8067 19.6671 19.8067 20.0041C19.8067 20.3336 19.7684 20.4908 19.6459 20.6481C19.5541 20.7679 19.3933 20.9327 19.2785 21.015C19.0719 21.1573 18.9265 21.1648 13.8903 21.1873C10.691 21.1948 8.60916 21.1798 8.44077 21.1349C8.29535 21.0974 8.05808 20.9402 7.92797 20.7904C7.77489 20.6331 7.66009 20.4085 7.62947 20.2437C7.60651 20.0865 7.60651 19.8543 7.62947 19.7195C7.65243 19.5847 7.75959 19.3676 7.85908 19.2403C7.95093 19.113 8.14993 18.9632 8.29535 18.9108C8.50966 18.8284 9.57353 18.8134 13.8137 18.8209ZM10.0787 24.4223H15.3062C20.1281 24.4223 20.5567 24.4298 20.817 24.5496C20.97 24.6245 21.1614 24.7817 21.2532 24.909C21.3527 25.0438 21.4216 25.2835 21.4369 25.5455C21.4599 25.8825 21.4369 26.0023 21.2838 26.2195C21.1843 26.3618 20.9547 26.5565 20.419 26.8186H15.4057C12.5585 26.8186 10.2777 26.7811 10.1246 26.7437C9.97918 26.7063 9.73426 26.549 9.58119 26.3917C9.38984 26.1896 9.29034 26.0023 9.25207 25.7702C9.20615 25.4931 9.22911 25.3658 9.37454 25.0962C9.47403 24.909 9.67303 24.6769 9.8108 24.587L10.0787 24.4223Z" fill="#FF7B1C" stroke="white" mask="url(#path-1-inside-1_502_146)"/>
<path d="M25 12C25 11.4477 25.4477 11 26 11C26.5523 11 27 11.4477 27 12V20H25V12Z" fill="#FF7B1C"/>
<path opacity="0.22" d="M31.8496 23.8996C32.2514 24.3178 32.2382 24.9825 31.82 25.3843C31.4019 25.7861 30.7372 25.7728 30.3354 25.3547L25.2427 20.055L26.7569 18.5999L31.8496 23.8996Z" fill="#FF7B1C"/>
</svg>
