<svg width="39" height="42" viewBox="0 0 39 42" fill="none" xmlns="http://www.w3.org/2000/svg">
<path d="M22.4475 4.71965C22.6277 4.53213 22.9137 4.33211 23.1809 4.20709C23.5601 4.02582 23.6844 4.00082 24.1133 4.00082C24.5671 3.99457 24.6541 4.01957 25.1078 4.23835C25.4559 4.40712 25.6859 4.56964 25.8786 4.78216C26.0278 4.95093 26.2142 5.22596 26.295 5.40098C26.3696 5.56975 26.4566 5.81978 26.4877 5.95105C26.5126 6.08231 26.5499 6.17608 26.5685 6.16357C26.5872 6.15732 26.7923 6.05106 27.0347 5.9323C27.4201 5.74477 27.5257 5.71977 27.9671 5.72602C28.3214 5.72602 28.5638 5.76353 28.8062 5.85729C28.9927 5.9323 29.2848 6.10107 29.4526 6.22608C29.6205 6.35735 29.8567 6.60113 29.9685 6.77615C30.0866 6.94492 30.2296 7.24495 30.2855 7.43248C30.3601 7.68876 30.385 8.04505 30.3912 9.94527L30.2234 10.0953C30.1239 10.1766 29.9996 10.2453 29.9437 10.2453C29.8815 10.2516 29.7634 10.1953 29.6764 10.1328C29.5216 10.0145 29.521 9.99544 29.4842 8.90885L29.4837 8.89515C29.4526 7.90753 29.434 7.74501 29.3159 7.52624C29.2413 7.38872 29.1294 7.21995 29.0735 7.15119C29.0113 7.08243 28.8621 6.95117 28.744 6.86991C28.5513 6.73239 28.4581 6.71364 27.9919 6.71364C27.5195 6.71364 27.4325 6.73239 27.2025 6.88241C27.0596 6.98242 26.8731 7.16369 26.7861 7.28871C26.7053 7.41997 26.6058 7.6825 26.5685 7.87003C26.5312 8.0888 26.5064 10.1078 26.5064 18.7463L26.3385 18.8713C26.2391 18.9463 26.1148 19.0026 26.0588 18.9963C25.9967 18.9963 25.8724 18.9276 25.6051 18.6963L25.5429 5.95105L25.3502 5.64476C25.2446 5.46349 25.0519 5.26972 24.8841 5.16971C24.7349 5.07595 24.4863 4.97593 24.3309 4.95718C24.1755 4.93218 23.9268 4.94468 23.7714 4.98843C23.616 5.02594 23.3674 5.16346 23.2182 5.29472C23.0691 5.41974 22.8888 5.63851 22.8142 5.77603C22.6839 6.02562 22.6837 6.06966 22.6219 18.0708L22.6215 18.1337L22.4661 18.2525C22.3791 18.3213 22.2734 18.3775 22.2362 18.3713C22.1926 18.3713 22.087 18.3338 22 18.2963C21.9129 18.2525 21.8197 18.1525 21.7824 18.0775C21.7451 17.9837 21.7202 16.121 21.7202 12.8581C21.7202 8.0888 21.7078 7.76376 21.6021 7.52624C21.5462 7.38872 21.3535 7.15744 21.1857 7.00742C21.0054 6.84491 20.7941 6.72614 20.6636 6.70114C20.5455 6.68239 20.2906 6.67614 20.0917 6.68864C19.8307 6.70739 19.6753 6.7574 19.4702 6.90741C19.3272 7.00742 19.1407 7.19495 19.0599 7.31371C18.9791 7.42622 18.8921 7.62625 18.861 7.74501C18.8237 7.87628 18.7989 10.1078 18.7989 13.3082C18.8051 18.515 18.7989 18.6588 18.6808 18.8088C18.5937 18.9276 18.5005 18.9651 18.3327 18.9651C18.1648 18.9651 18.0716 18.9276 17.9846 18.8088C17.8665 18.6588 17.8603 18.5275 17.8665 11.0267L17.7173 10.7141C17.6365 10.5453 17.4935 10.3266 17.3941 10.2328C17.2946 10.139 17.1082 10.0203 16.9839 9.97028C16.8533 9.91402 16.5923 9.87026 16.4058 9.87026C16.2193 9.87026 15.9707 9.90777 15.865 9.95152C15.7531 10.0015 15.5667 10.1203 15.4486 10.2203C15.3305 10.3203 15.1689 10.5453 14.9451 11.0267V17.5087C14.9451 22.5718 14.9264 24.0344 14.8705 24.1532C14.827 24.2407 14.7213 24.3407 14.6343 24.3782C14.5286 24.422 14.423 24.422 14.3111 24.372C14.2116 24.3407 14.106 24.2532 14.0749 24.1845C14.0314 24.1032 14.0189 21.7404 14.0438 10.7141L14.2427 10.3078C14.3546 10.0703 14.5597 9.78275 14.74 9.61398C14.9016 9.45772 15.1937 9.24519 15.3802 9.14518C15.6972 8.97641 15.7718 8.96391 16.4058 8.96391C17.0398 8.96391 17.1144 8.97641 17.8478 9.33895L17.8789 8.46385C17.9038 7.78252 17.9349 7.51373 18.0405 7.24495C18.1089 7.05118 18.3016 6.75114 18.4756 6.55737C18.6435 6.3636 18.9418 6.12607 19.1469 6.01356C19.3458 5.90729 19.6939 5.78853 19.9177 5.74477C20.2098 5.69477 20.4212 5.69477 20.6636 5.74477C20.85 5.77603 21.1608 5.88854 21.3473 5.9823C21.5338 6.07606 21.7016 6.15732 21.7202 6.16983C21.7389 6.17608 21.77 6.06356 21.7948 5.9198C21.8197 5.76978 21.9067 5.5135 21.9937 5.33848C22.0808 5.16971 22.2797 4.88842 22.4475 4.71965Z" fill="#FF7B1C"/>
<path d="M29.4651 11.783L29.6142 11.6392C29.695 11.558 29.8318 11.4955 29.9188 11.4955C30.0058 11.4955 30.1239 11.533 30.1861 11.5767C30.242 11.6205 30.3166 11.7267 30.3539 11.8205C30.4036 11.9455 30.4223 13.4207 30.4161 21.2779L30.7144 20.9966C30.876 20.8403 31.2241 20.5403 31.479 20.334C31.7338 20.1277 32.1005 19.8402 32.287 19.7027C32.4735 19.5652 32.9334 19.2589 33.3126 19.0276C33.6918 18.7901 34.276 18.465 34.6179 18.3025C34.9598 18.14 35.3824 17.9775 35.5503 17.9337C35.7243 17.8962 36.0848 17.8587 36.3583 17.8587C36.6877 17.8525 36.9737 17.89 37.1974 17.965C37.3839 18.0275 37.6512 18.1525 37.7879 18.2463C37.9247 18.34 38.1733 18.565 38.3349 18.7526C38.5214 18.9588 38.7016 19.2651 38.8197 19.5402C38.9316 19.8214 39 20.109 39 20.2903C39 20.484 38.9441 20.7028 38.8508 20.9028C38.7638 21.0778 38.5338 21.3654 38.3287 21.5592C38.1298 21.7467 37.6139 22.153 37.1912 22.4655C36.7686 22.7718 36.1656 23.2218 35.8611 23.4719C35.5565 23.7157 35.0095 24.197 34.6552 24.5345C34.3009 24.8783 33.7726 25.4471 33.4866 25.8097C33.2007 26.1722 32.8589 26.6785 32.7221 26.9348C32.5729 27.2286 32.4175 27.6599 32.3181 28.0912C32.2311 28.4662 32.0819 28.96 31.9949 29.1851C31.9078 29.4101 31.6903 29.8414 31.51 30.1539C31.3298 30.4602 30.9941 30.9353 30.7704 31.1978C30.5466 31.4666 30.155 31.8604 29.4402 32.4667L29.4153 33.4043C29.3905 34.2794 29.3718 34.3669 29.204 34.742C29.0921 34.9857 28.9181 35.2358 28.744 35.3983C28.5886 35.5358 28.3524 35.7108 28.2157 35.7733C28.0789 35.8358 27.9173 35.9171 27.8614 35.9421C27.7992 35.9734 27.5693 35.9984 27.3455 35.9984C26.9788 35.9984 26.929 35.9859 26.8172 35.8233C26.7426 35.7296 26.6866 35.5921 26.6928 35.5108C26.6928 35.4358 26.7612 35.3045 26.8482 35.217C26.9601 35.0983 27.0658 35.0608 27.2523 35.0608C27.389 35.0608 27.6066 35.017 27.7371 34.9607C27.8614 34.9107 28.0354 34.8045 28.11 34.7295C28.1908 34.6545 28.3027 34.5044 28.3587 34.4044C28.4202 34.2806 28.4696 33.979 28.5249 32.8497C22.9121 31.7371 29.4899 22.528 29.4651 11.783Z" fill="#FF7B1C"/>
<path d="M14.0252 26.9848C13.9817 26.0097 13.9817 26.0034 14.1308 25.8472C14.2241 25.7472 14.3484 25.6846 14.4603 25.6846C14.5535 25.6846 14.6965 25.7471 14.7773 25.8222C14.914 25.9597 14.9264 26.0284 14.9575 26.9035C14.9762 27.4161 15.0383 28.0349 15.0881 28.2787C15.144 28.5162 15.2434 28.8725 15.3118 29.06C15.374 29.2476 15.5045 29.5726 15.5977 29.7789C15.691 29.9852 15.9583 30.4477 16.1882 30.8103C16.4244 31.1728 16.6669 31.5791 16.7228 31.7166C16.7787 31.8541 16.8658 32.1042 16.9093 32.2792C16.959 32.4479 17.0087 32.898 17.0274 33.2793C17.0522 33.6543 17.0771 34.0606 17.0957 34.1669C17.1082 34.2794 17.2138 34.4732 17.3195 34.6045C17.4314 34.7295 17.6365 34.8795 17.7733 34.942C18.0032 35.0483 18.2705 35.0608 21.5649 35.0545C24.9897 35.0545 25.114 35.0608 25.2632 35.1795C25.3813 35.267 25.4186 35.3608 25.4186 35.5296C25.4186 35.6983 25.3813 35.7921 25.2632 35.8796C25.114 35.9984 24.9897 36.0046 17.8043 35.9984L17.4127 35.8233C17.2014 35.7233 16.9031 35.5171 16.7539 35.367C16.6047 35.217 16.4058 34.9357 16.3188 34.7482C16.182 34.4544 16.1572 34.2794 16.1199 33.5293C16.0888 32.8417 16.0453 32.573 15.9334 32.2792C15.8588 32.0729 15.6288 31.6479 15.4237 31.3416C15.2248 31.029 14.9513 30.5665 14.8208 30.3102C14.6902 30.0539 14.4976 29.5726 14.3981 29.2476C14.2924 28.9225 14.1743 28.4975 14.137 28.31C14.0935 28.1224 14.0438 27.5224 14.0252 26.9848Z" fill="#FF7B1C"/>
</svg>
