<svg width="36" height="36" viewBox="0 0 36 36" fill="none" xmlns="http://www.w3.org/2000/svg">
<path fill-rule="evenodd" clip-rule="evenodd" d="M0.75 8.75C0.75 4.97876 0.75 3.09315 1.92157 1.92157C3.09315 0.75 4.97876 0.75 8.75 0.75H27.25C31.0212 0.75 32.9069 0.75 34.0784 1.92157C35.25 3.09315 35.25 4.97876 35.25 8.75V27.25C35.25 31.0212 35.25 32.9069 34.0784 34.0784C32.9069 35.25 31.0212 35.25 27.25 35.25H8.75C4.97876 35.25 3.09315 35.25 1.92157 34.0784C0.75 32.9069 0.75 31.0212 0.75 27.25V8.75ZM29.5 9.375C29.5 10.9628 28.2128 12.25 26.625 12.25C25.0372 12.25 23.75 10.9628 23.75 9.375C23.75 7.78718 25.0372 6.5 26.625 6.5C28.2128 6.5 29.5 7.78718 29.5 9.375ZM23.6667 19.9167C23.6667 23.0463 21.1296 25.5833 18 25.5833C14.8704 25.5833 12.3333 23.0463 12.3333 19.9167C12.3333 16.7871 14.8704 14.25 18 14.25C21.1296 14.25 23.6667 16.7871 23.6667 19.9167ZM25.6667 19.9167C25.6667 24.1508 22.2342 27.5833 18 27.5833C13.7658 27.5833 10.3333 24.1508 10.3333 19.9167C10.3333 15.6825 13.7658 12.25 18 12.25C22.2342 12.25 25.6667 15.6825 25.6667 19.9167Z" fill="#222222"/>
</svg>
