<svg width="39" height="42" viewBox="0 0 39 42" fill="none" xmlns="http://www.w3.org/2000/svg">
<path fill-rule="evenodd" clip-rule="evenodd" d="M6.07615 5.00057C6.49623 4.99307 6.80379 5.04558 7.31388 5.20311C7.75647 5.33813 8.17654 5.54067 8.54411 5.78072C8.85167 5.99076 9.24925 6.32082 9.42928 6.53086C9.60932 6.7334 9.87187 7.12347 10.0069 7.39352C10.1494 7.66357 10.3144 8.08365 10.382 8.3312C10.4495 8.57875 10.502 9.08134 10.502 9.45641C10.502 9.83148 10.4495 10.3341 10.382 10.5816C10.3144 10.8292 10.1794 11.1967 10.0744 11.4068C9.96939 11.6093 9.75935 11.9469 9.30926 12.532L14.6278 19.1707L15.2429 18.8482C15.5879 18.6682 16.1506 18.4506 16.5031 18.3531C16.8782 18.2481 17.4483 18.1656 17.8909 18.1431C18.4685 18.1131 18.8136 18.1431 19.3912 18.2631C19.8037 18.3456 20.1413 18.4056 20.1488 18.3981C20.1488 18.3906 20.3438 17.933 21.004 16.3952L20.5464 15.9601C20.2313 15.6676 20.0063 15.3675 19.8337 15.0075C19.6912 14.7224 19.5412 14.2648 19.4962 13.9948C19.4437 13.6497 19.4437 13.3496 19.5037 12.9821C19.5487 12.697 19.6837 12.2469 19.8112 11.9844C19.9313 11.7293 20.2013 11.3393 20.4189 11.1142C20.6889 10.8367 21.004 10.6191 21.4165 10.4241C21.9416 10.169 22.0992 10.1315 22.6918 10.1015C23.2319 10.079 23.4719 10.1015 23.892 10.2366C24.1846 10.3191 24.6047 10.5216 24.8297 10.6791C25.0547 10.8367 25.3998 11.1742 25.5948 11.4293C25.8649 11.7819 25.9549 11.9619 25.9549 12.1569C25.9549 12.322 25.8949 12.4795 25.8049 12.5695C25.7224 12.652 25.5723 12.7195 25.4673 12.7195C25.3623 12.7195 25.2123 12.682 25.1298 12.6445C25.0472 12.5995 24.9272 12.472 24.8672 12.3445C24.8072 12.2169 24.6122 11.9844 24.4321 11.8194C24.2596 11.6543 23.937 11.4518 23.7195 11.3693C23.4944 11.2793 23.1419 11.2192 22.8793 11.2192C22.6168 11.2192 22.2642 11.2793 22.0317 11.3693C21.8141 11.4518 21.4991 11.6543 21.3115 11.8344C21.1315 12.0144 20.899 12.3445 20.7939 12.5695C20.6439 12.8921 20.5989 13.1021 20.5989 13.5072C20.5989 13.8672 20.6439 14.1373 20.7489 14.3698C20.8314 14.5574 21.034 14.8574 21.199 15.03C21.3565 15.21 21.6791 15.45 21.9041 15.5551C22.2417 15.7201 22.4217 15.7576 22.8793 15.7576C23.3519 15.7576 23.5094 15.7201 23.892 15.5326C24.1546 15.3975 24.4396 15.18 24.6047 14.9775C24.7472 14.7974 24.9572 14.5574 25.0697 14.4374C25.2348 14.2648 25.3248 14.2273 25.4823 14.2648C25.6023 14.2873 25.7524 14.3623 25.8274 14.4299C25.9024 14.5049 25.9624 14.6624 25.9549 14.7974C25.9549 14.94 25.8649 15.18 25.7374 15.36C25.6173 15.5401 25.3623 15.8401 25.1598 16.0277C24.9572 16.2152 24.6497 16.4402 24.4696 16.5303C24.2971 16.6203 23.9445 16.7478 23.682 16.8153C23.3819 16.8978 23.0068 16.9278 22.0317 16.8828L21.5891 17.8955C21.349 18.4506 21.1615 18.9082 21.169 18.9082C21.184 18.9082 21.4391 19.0807 21.7466 19.2833C22.0542 19.4933 22.4893 19.8609 22.7143 20.1084C22.9393 20.356 23.2319 20.7085 23.3519 20.8961C23.4794 21.0836 23.697 21.4662 23.832 21.7587C23.967 22.0438 24.1471 22.5539 24.2296 22.884C24.3121 23.214 24.3796 23.5591 24.3796 23.8216L31.5885 23.7841L31.7535 23.289C31.8435 23.019 32.0611 22.6064 32.2336 22.3739C32.4136 22.1413 32.6987 21.8413 32.8712 21.7137C33.0513 21.5862 33.3588 21.3987 33.5688 21.3012C33.7714 21.2036 34.1615 21.0836 34.4315 21.0386C34.8141 20.9711 35.0466 20.9711 35.4817 21.0386C35.7893 21.0911 36.2318 21.2186 36.4569 21.3312C36.6819 21.4362 37.072 21.7212 37.3196 21.9538C37.6046 22.2163 37.8597 22.5539 38.0097 22.8539C38.1447 23.1165 38.2947 23.5666 38.3473 23.8591C38.4148 24.2717 38.4148 24.5043 38.3473 24.9243C38.2947 25.2244 38.1672 25.667 38.0547 25.8995C37.9422 26.1396 37.6646 26.5296 37.4321 26.7697C37.1545 27.0697 36.8545 27.2948 36.4944 27.4673C36.1943 27.6098 35.7593 27.7524 35.4817 27.7899C35.2042 27.8349 34.8066 27.8349 34.544 27.7974C34.2965 27.7599 33.9439 27.6774 33.7564 27.6098C33.5688 27.5423 33.2463 27.3773 33.0437 27.2348C32.8337 27.0998 32.5487 26.8372 32.3986 26.6647C32.2486 26.4846 32.0386 26.1621 31.9335 25.9595C31.836 25.7495 31.7085 25.4419 31.581 24.9468L24.4246 24.9844L24.3271 25.5094C24.2746 25.802 24.1771 26.1996 24.1096 26.4096C24.042 26.6122 23.8845 26.9872 23.757 27.2348C23.637 27.4823 23.3744 27.9024 23.1794 28.1725C22.9768 28.4425 22.7443 28.7201 22.6618 28.7876C22.5043 28.9226 22.5118 28.9376 25.2048 32.2982L25.4898 32.1857C25.6398 32.1257 25.9624 32.0807 26.2025 32.0732C26.45 32.0732 26.7951 32.1332 27.0276 32.2232C27.2376 32.2982 27.5677 32.4933 27.7477 32.6508C27.9353 32.8158 28.1678 33.1234 28.2954 33.3859C28.4604 33.731 28.5129 33.9485 28.5204 34.3236C28.5279 34.6162 28.4754 34.9762 28.3929 35.2238C28.2953 35.5238 28.1453 35.7489 27.8378 36.0564C27.5302 36.364 27.3052 36.514 27.0051 36.6115C26.7576 36.6941 26.3975 36.7466 26.1049 36.7391C25.7299 36.7316 25.5123 36.6791 25.1523 36.499C24.8297 36.349 24.5896 36.1615 24.3946 35.9139C24.2371 35.7189 24.0495 35.3738 23.9745 35.1488C23.8695 34.8487 23.847 34.6012 23.8695 34.2486C23.892 33.926 23.9745 33.626 24.3046 32.9734L23.1119 31.4881C22.4592 30.6779 21.8591 29.9353 21.6416 29.6577L21.079 29.9578C20.7714 30.1228 20.2838 30.3329 19.9913 30.4154C19.6987 30.5054 19.4212 30.5729 19.3762 30.5729C19.3237 30.5729 19.1961 30.4904 19.0911 30.3854C18.9861 30.2803 18.9036 30.1078 18.9036 29.9878C18.9036 29.8678 18.9711 29.7177 19.0686 29.6277C19.1661 29.5452 19.4737 29.3952 19.7662 29.3052C20.0588 29.2151 20.5239 28.9976 20.8164 28.8251C21.109 28.66 21.5441 28.315 21.7916 28.0599C22.0392 27.8124 22.3692 27.4073 22.5193 27.1598C22.6693 26.9122 22.8793 26.4921 22.9843 26.2221C23.0819 25.952 23.2094 25.4269 23.2619 25.0594C23.3294 24.5193 23.3294 24.2567 23.2619 23.7466C23.2094 23.394 23.0894 22.9065 23.0068 22.6589C22.9168 22.4114 22.7218 22.0138 22.5793 21.7737C22.4367 21.5337 22.1667 21.1661 21.9792 20.9561C21.7916 20.746 21.4391 20.431 21.1915 20.251C20.944 20.0784 20.5239 19.8309 20.2538 19.7109C19.9838 19.5833 19.4812 19.4258 19.1286 19.3583C18.6635 19.2608 18.311 19.2383 17.8159 19.2683C17.4483 19.2983 16.9532 19.3733 16.7282 19.4408C16.5031 19.5083 16.0455 19.6958 15.7155 19.8684C15.2804 20.0934 14.9503 20.341 14.5077 20.7836C14.0126 21.2711 13.8401 21.5112 13.5476 22.0963C13.36 22.4864 13.15 23.0415 13.09 23.334C13.03 23.6266 12.9775 24.0842 12.9775 24.3617C12.9775 24.6468 13.03 25.1344 13.09 25.4494C13.1575 25.8245 13.33 26.2971 13.5551 26.7472C13.8326 27.3173 14.0126 27.5723 14.4777 28.0224C14.7853 28.33 15.2429 28.7051 15.4904 28.8476C15.7305 28.9901 16.2031 29.2001 16.5331 29.3052C16.9232 29.4327 17.1933 29.5677 17.2758 29.6802C17.3733 29.8078 17.4033 29.9278 17.3733 30.1003C17.3433 30.2803 17.2608 30.3779 17.0882 30.4679C16.8557 30.5804 16.8107 30.5804 16.3156 30.4229C16.0305 30.3329 15.5729 30.1453 15.3029 30.0103C15.0328 29.8753 14.5903 29.5977 13.8026 28.9976L13.5476 29.2001C13.4125 29.3202 12.4899 30.1153 11.5072 30.9855C10.5245 31.8556 9.66933 32.5983 9.60932 32.6433C9.5043 32.7183 9.5343 32.8158 9.84186 33.4309C10.0594 33.866 10.2394 34.3536 10.3069 34.7137C10.3745 35.0362 10.427 35.5013 10.427 35.7489C10.427 35.9964 10.3745 36.4615 10.3145 36.7766C10.2469 37.1441 10.0744 37.6242 9.85686 38.0743C9.56431 38.6669 9.39928 38.892 8.85917 39.4321C8.34908 39.9422 8.08653 40.1372 7.57643 40.3848C7.22387 40.5573 6.67626 40.7673 6.3612 40.8498C6.02364 40.9324 5.53605 40.9999 5.21348 40.9999C4.89092 40.9999 4.40333 40.9324 4.07327 40.8498C3.75071 40.7673 3.21811 40.5648 2.88805 40.4073C2.46797 40.2047 2.1079 39.9497 1.69532 39.5671C1.37276 39.2595 0.982686 38.8095 0.832657 38.5619C0.675127 38.3144 0.457587 37.8943 0.352567 37.6242C0.247547 37.3542 0.127524 36.9191 0.0825159 36.6491C0.0375074 36.379 0 35.9664 0 35.7264C0 35.4938 0.0525094 35.0362 0.120022 34.7137C0.180034 34.3911 0.375071 33.836 0.570108 33.4384C0.832658 32.8833 1.01269 32.6358 1.48528 32.1632C1.80034 31.8331 2.28043 31.4431 2.55048 31.293C2.82053 31.1355 3.29312 30.918 3.60068 30.813C4.00576 30.6779 4.38083 30.6179 4.95094 30.5879C5.52104 30.5654 5.89611 30.5879 6.30119 30.6779C6.60875 30.7454 7.13385 30.9255 7.46391 31.0905C7.79397 31.248 8.21405 31.5031 8.40159 31.6456C8.73165 31.9082 8.74665 31.9157 8.88918 31.7806C8.9717 31.7056 9.88687 30.9105 10.9146 30.0103C11.9498 29.1101 12.8499 28.3225 12.9249 28.255C13.06 28.1424 13.0525 28.1199 12.8649 27.8349C12.7524 27.6699 12.5724 27.3323 12.4524 27.0847C12.3323 26.8372 12.1673 26.3796 12.0773 26.0721C11.9948 25.7645 11.9048 25.1719 11.8747 24.7593C11.8522 24.3092 11.8672 23.7991 11.9198 23.4841C11.9648 23.1915 12.0923 22.7039 12.1898 22.3964C12.2948 22.0888 12.5274 21.5787 12.7074 21.2711C12.8874 20.9636 13.1875 20.5285 13.3825 20.311C13.5701 20.1009 13.7201 19.8909 13.7126 19.8534C13.6976 19.8084 12.5424 18.3531 11.1396 16.6128C9.73684 14.8724 8.55912 13.4022 8.51411 13.3421C8.4541 13.2521 8.37908 13.2671 8.06402 13.4172C7.86149 13.5222 7.48641 13.6647 7.23887 13.7397C6.92381 13.8372 6.55624 13.8747 6.03864 13.8672C5.43853 13.8597 5.17598 13.8222 4.72589 13.6647C4.41833 13.5597 3.98325 13.3572 3.76571 13.2221C3.54067 13.0946 3.1506 12.7645 2.89555 12.4945C2.61049 12.1944 2.32544 11.7894 2.15291 11.4443C1.99538 11.1367 1.82284 10.6416 1.76283 10.3566C1.70282 10.0715 1.65031 9.65895 1.65031 9.45641C1.65031 9.24637 1.70282 8.8413 1.76283 8.55624C1.82284 8.26369 1.99538 7.7761 2.14541 7.46854C2.34794 7.05596 2.58049 6.7484 2.99307 6.33582C3.37564 5.95325 3.7207 5.6907 4.05077 5.53317C4.32082 5.39815 4.7559 5.22561 5.02595 5.1506C5.296 5.07558 5.76859 5.00807 6.07615 5.00057ZM33.9439 22.3664C33.7789 22.4414 33.5163 22.6364 33.3663 22.7864C33.2088 22.944 33.0062 23.214 32.9162 23.3865C32.8187 23.5891 32.7437 23.9041 32.7212 24.2342C32.6912 24.6243 32.7212 24.8643 32.8262 25.1719C32.9087 25.4344 33.0888 25.7195 33.3138 25.9595C33.5238 26.1921 33.8164 26.4021 34.0639 26.5146C34.334 26.6347 34.6115 26.6947 34.9191 26.6947C35.1666 26.6947 35.5417 26.6422 35.7443 26.5746C35.9543 26.5071 36.2844 26.3121 36.4794 26.1321C36.6969 25.9445 36.9295 25.637 37.042 25.3969C37.2145 25.0519 37.2445 24.8868 37.237 24.3842C37.237 23.8891 37.1995 23.7166 37.042 23.4091C36.9295 23.199 36.7119 22.9065 36.5544 22.7564C36.3969 22.6064 36.1193 22.4114 35.9318 22.3288C35.7443 22.2463 35.3917 22.1563 35.1441 22.1413C34.8966 22.1188 34.589 22.1263 34.469 22.1638C34.349 22.1938 34.1089 22.2838 33.9439 22.3664ZM3.30062 32.1632C2.99307 32.3132 2.633 32.5833 2.32544 32.8908C2.01788 33.1984 1.74783 33.566 1.5978 33.8735C1.46278 34.1436 1.30525 34.5937 1.23023 34.8862C1.14772 35.2613 1.12521 35.5839 1.14772 36.0114C1.17022 36.3415 1.26024 36.8141 1.35026 37.0616C1.43277 37.3092 1.5978 37.6617 1.70282 37.8493C1.81534 38.0368 2.05539 38.3519 2.24292 38.5469C2.43046 38.7495 2.77552 39.0345 3.00057 39.1845C3.22561 39.3346 3.65319 39.5371 3.93824 39.6346C4.35832 39.7846 4.61337 39.8222 5.21348 39.8222C5.8136 39.8222 6.06865 39.7846 6.48873 39.6346C6.77378 39.5371 7.20136 39.3346 7.4264 39.1845C7.65145 39.0345 7.99651 38.7495 8.18405 38.5469C8.37158 38.3519 8.61163 38.0368 8.72415 37.8493C8.82917 37.6617 8.9942 37.3092 9.07672 37.0616C9.15923 36.8141 9.24925 36.379 9.27925 36.0864C9.30926 35.7714 9.28675 35.3663 9.23424 35.0738C9.18173 34.8037 9.06921 34.4136 8.9792 34.2111C8.89668 34.0011 8.67914 33.626 8.49911 33.3634C8.31907 33.1084 8.01902 32.7708 7.82398 32.6133C7.62144 32.4633 7.27637 32.2382 7.05133 32.1257C6.82629 32.0132 6.45122 31.8707 6.22618 31.8106C6.00113 31.7506 5.52854 31.7056 5.17598 31.7056C4.82341 31.7056 4.37333 31.7581 4.16329 31.8181C3.96075 31.8707 3.57068 32.0282 3.30062 32.1632Z" fill="#FF7B1C"/>
</svg>
