<svg width="37" height="33" viewBox="0 0 37 33" fill="none" xmlns="http://www.w3.org/2000/svg">
<path fill-rule="evenodd" clip-rule="evenodd" d="M33.2947 12.6424C33.3307 12.6364 33.4268 12.6667 33.4989 12.7091C33.577 12.7455 33.6671 12.8182 33.7091 12.8727C33.7512 12.9273 33.7872 13.0424 33.7872 13.1394C33.7872 13.2303 33.7272 13.3636 33.6491 13.4424C33.559 13.5333 33.3127 13.6303 32.8862 13.7394C32.5378 13.8303 32.2135 13.9091 32.1654 13.9152C32.1174 13.9212 32.0273 13.9212 31.9672 13.9152C31.9131 13.9152 31.811 13.8545 31.745 13.7879C31.6729 13.7152 31.6248 13.5818 31.6248 13.4727C31.6248 13.3636 31.6549 13.2242 31.6969 13.1636C31.745 13.0909 32.0333 12.9758 32.4958 12.8485C32.8922 12.7333 33.2526 12.6424 33.2887 12.6424H33.2947ZM4.8049 3H14.8241C24.7231 3 24.8433 3 25.0835 3.12121C25.2157 3.18788 25.3839 3.33333 25.4559 3.43636C25.5941 3.6303 25.5941 3.67273 25.6241 7.81818L25.8644 7.86667C25.9965 7.89091 26.2188 8 26.3569 8.10909C26.4951 8.21212 26.6693 8.42424 26.7414 8.57576C26.8195 8.72727 27.0477 9.47273 27.2459 10.2424C27.4442 11.0121 27.6484 11.7758 27.7805 12.2424L28.159 12.2788C28.3932 12.297 28.6875 12.3818 28.9278 12.497C29.1441 12.6 29.4264 12.7879 29.5525 12.9152C29.6847 13.0424 29.8468 13.2485 29.9189 13.3636C29.991 13.4788 30.0991 13.7273 30.1592 13.9091C30.2373 14.1515 30.2613 14.3636 30.2373 14.697C30.2193 15.0061 30.1652 15.2606 30.0631 15.4848C29.979 15.6667 29.8048 15.9394 29.6726 16.0848C29.5465 16.2303 29.3303 16.4242 28.9518 16.6667L29.3903 18.303C29.6787 19.3879 29.8228 20.0545 29.8288 20.2727C29.8288 20.5333 29.7868 20.6788 29.6486 20.9273C29.5465 21.103 29.3663 21.3091 29.2402 21.3879C29.12 21.4727 28.8978 21.5697 28.7476 21.6061C28.5374 21.6606 28.3992 21.6545 28.1169 21.5879C27.9187 21.5394 27.282 21.3576 26.7053 21.1879C26.1287 21.0182 25.6482 20.8788 25.6361 20.8788C25.6301 20.8788 25.6241 22.297 25.6241 24.0303C25.6241 26.6485 25.6121 27.2121 25.54 27.3515C25.492 27.4424 24.6991 28.2727 23.7801 29.1939C22.861 30.1152 22.0381 30.903 21.942 30.9394C21.8339 30.9818 19.0588 31 4.8109 31L4.5406 30.8606C4.34839 30.7576 4.22825 30.6364 4 30.1818V3.81818L4.13815 3.54545C4.24027 3.35152 4.3604 3.2303 4.54661 3.13939L4.8049 3ZM4.95507 30.0242L21.2933 30.0303C21.3233 27.2788 21.3353 27.1758 21.4495 27.0182C21.5155 26.9212 21.6657 26.8 21.7798 26.7394C21.96 26.6485 22.1703 26.6364 23.3236 26.6364H24.657V20.6364C24.1705 20.5394 23.756 20.4667 23.4257 20.4182C23.0953 20.3636 22.3625 20.303 21.7919 20.2788C21.2212 20.2606 20.7527 20.2606 20.7527 20.2848C20.7527 20.3091 21.041 21.4 21.3834 22.7091C21.7318 24.0182 22.0141 25.1697 22.0201 25.2727C22.0201 25.3697 21.9721 25.497 21.912 25.5576C21.8519 25.6121 21.6056 25.7212 21.3534 25.7879C21.011 25.8909 20.7947 25.9151 20.4223 25.897C20.0199 25.8727 19.8817 25.8364 19.5574 25.6606C19.3471 25.5455 19.0828 25.3455 18.9627 25.2121C18.8426 25.0788 18.6864 24.8242 18.6083 24.6485L18.4701 24.3333C8.23472 24.3333 8.16865 24.3333 8.00647 24.2121C7.88033 24.1152 7.83828 24.0364 7.83828 23.8788C7.83828 23.7333 7.88634 23.6121 7.98845 23.5152L8.13261 23.3636C17.9596 23.3636 18.2299 23.3576 18.1998 23.2545C18.1878 23.1939 18.0497 22.6848 17.8995 22.1212C17.7433 21.5515 17.6112 21.0727 17.5992 21.0606C17.5872 21.0424 17.3829 21.0788 17.1367 21.1394C16.8063 21.2182 16.554 21.2424 16.0975 21.2182C15.7011 21.2 15.3767 21.1455 15.1364 21.0606C14.788 20.9394 14.6919 20.9333 11.4904 20.9333C9.41204 20.9333 8.15664 20.9152 8.07855 20.8788C8.01248 20.8424 7.93439 20.7394 7.90436 20.6485C7.87432 20.5394 7.88033 20.4182 7.92838 20.303C7.96442 20.2 8.04251 20.097 8.09657 20.0727C8.15664 20.0485 9.38801 20.0303 10.8416 20.0303C12.5656 20.0303 13.4846 20.0061 13.4846 19.9697C13.4846 19.9333 13.4065 19.7879 13.3104 19.6485C13.2143 19.5091 13.0821 19.2667 13.0221 19.1212C12.956 18.9697 12.8779 18.7212 12.8419 18.5758C12.8058 18.4242 12.7578 18.1455 12.7398 17.9515L12.7037 17.6061C8.87744 17.6061 8.28278 17.5818 8.16865 17.5273C8.09056 17.4848 7.99446 17.3879 7.95842 17.3152C7.92838 17.2424 7.89835 17.1333 7.89835 17.0727C7.89835 17.0121 7.9464 16.897 8.01248 16.8182L8.13261 16.6667L12.9019 16.6061C13.0401 16.2303 13.2083 15.9273 13.3584 15.697C13.5146 15.4667 13.7729 15.1576 13.9351 15.0121C14.1033 14.8667 14.4336 14.6485 14.6739 14.5273C14.9142 14.4 15.1124 14.2788 15.1124 14.2545C15.1064 14.2303 13.5687 14.2121 11.6826 14.2121H8.25875C8.0305 13.9758 7.95842 13.8364 7.95842 13.7576C7.95842 13.6727 7.98244 13.5576 8.00647 13.503C8.0305 13.4485 8.1266 13.3697 8.2167 13.3212C8.34885 13.2545 9.31593 13.2424 13.5627 13.2424H18.7404C19.2991 12.9091 19.6955 12.6424 19.9838 12.4364C20.2722 12.2242 20.8368 11.7697 21.2452 11.4182C21.6537 11.0606 22.5847 10.1818 23.3236 9.46061L24.657 8.15152V3.9697H4.95507V30.0242ZM24.5429 9.65455C24.5429 9.70303 25.1616 12.097 25.9245 14.9636C26.6873 17.8303 27.318 20.2121 27.33 20.2667C27.3481 20.3212 27.5883 20.4182 27.9487 20.5273C28.5314 20.697 28.5314 20.697 28.6815 20.5818C28.7716 20.5152 28.8437 20.3879 28.8497 20.2909C28.8617 20.1939 28.207 17.6182 27.3961 14.5697C26.441 10.9818 25.8824 8.98182 25.8163 8.91515C25.7563 8.84848 25.6241 8.80606 25.51 8.80606C25.3478 8.80606 25.2397 8.87879 24.9273 9.18182C24.7171 9.38788 24.5489 9.6 24.5429 9.65455ZM28.1049 13.5091C28.153 13.6727 28.2911 14.1939 28.4172 14.6606C28.5374 15.1273 28.6515 15.5394 28.6755 15.5818C28.7056 15.6424 28.7476 15.6364 28.8617 15.5515C28.9458 15.4848 29.072 15.3091 29.1501 15.1515C29.2342 14.9758 29.2822 14.7576 29.2822 14.5697C29.2822 14.4 29.2462 14.1758 29.2041 14.0667C29.1561 13.9576 29.054 13.7879 28.9699 13.6909C28.8918 13.5879 28.7296 13.4606 28.6155 13.4C28.5073 13.3455 28.3211 13.2788 28.213 13.2485L28.0148 13.2061L28.1049 13.5091ZM14.9983 15.4485C14.8181 15.5455 14.5418 15.7697 14.3796 15.9455C14.2234 16.1212 14.0252 16.4061 13.9411 16.5818C13.863 16.7576 13.7669 17.0788 13.7249 17.297C13.6768 17.5879 13.6768 17.7879 13.7249 18.0848C13.7609 18.297 13.869 18.6424 13.9651 18.8424C14.0732 19.0606 14.2655 19.3273 14.4757 19.5212C14.6619 19.697 14.9923 19.9273 15.2145 20.0303C15.5329 20.1818 15.7251 20.2303 16.1035 20.2485C16.536 20.2727 16.6922 20.2485 17.7553 19.9636C18.3981 19.7879 19.0588 19.6061 19.227 19.5636L19.5273 19.4727C18.8666 16.9636 18.5663 15.8424 18.4401 15.3697C18.308 14.8909 18.1758 14.503 18.1458 14.5091C18.1097 14.5091 17.461 14.6848 16.7042 14.8909C15.8512 15.1212 15.1965 15.3394 14.9983 15.4485ZM18.5542 20.7636C18.5482 20.7697 18.7404 21.5333 18.9867 22.4606C19.233 23.3879 19.4733 24.2182 19.5213 24.3091C19.5634 24.4 19.6835 24.5515 19.7736 24.6364C19.8697 24.7273 20.0199 24.8303 20.11 24.8667C20.2001 24.903 20.4223 24.9333 20.6085 24.9333C20.8608 24.9333 20.9389 24.9091 20.9389 24.8424C20.9389 24.7879 20.6926 23.8303 20.3923 22.703C20.092 21.5758 19.8397 20.6121 19.8217 20.5515C19.8096 20.4909 19.7496 20.4485 19.6895 20.4485C19.6294 20.4545 19.3531 20.5212 19.0768 20.6061C18.7945 20.6848 18.5602 20.7576 18.5542 20.7636ZM22.2484 28.4545C22.2544 28.8848 22.2784 29.2485 22.3024 29.2606C22.3264 29.2727 22.7049 28.9273 23.1434 28.4848C23.5819 28.0485 23.9242 27.6667 23.8942 27.6424C23.8702 27.6121 23.5098 27.5939 23.0953 27.5939C22.6748 27.5939 22.3144 27.6182 22.2904 27.6364C22.2604 27.6606 22.2424 28.0303 22.2484 28.4545ZM30.8139 9.2C30.916 9.21818 31.0482 9.29697 31.1022 9.3697C31.1623 9.44242 31.2104 9.58182 31.2104 9.67273C31.2104 9.76364 31.0542 10.103 30.868 10.4303C30.6818 10.7576 30.4896 11.0727 30.4355 11.1273C30.3754 11.2 30.2553 11.2364 30.1111 11.2364C29.955 11.2364 29.8468 11.1939 29.7627 11.097C29.6967 11.0242 29.6426 10.8848 29.6426 10.7939C29.6426 10.703 29.7928 10.3636 29.979 10.0364C30.1592 9.70909 30.3814 9.38182 30.4715 9.30303C30.5917 9.19394 30.6698 9.1697 30.8139 9.2ZM31.5467 16.2667C31.6248 16.2667 31.9792 16.4364 32.3276 16.6424C32.682 16.8485 33.0064 17.0788 33.0484 17.1455C33.0965 17.2121 33.1325 17.3212 33.1325 17.3879C33.1325 17.4545 33.0784 17.5818 33.0124 17.6727C32.9163 17.8 32.8382 17.8424 32.682 17.8424C32.5318 17.8424 32.2856 17.7333 31.8291 17.4606C31.4807 17.2545 31.1683 17.0364 31.1383 16.9758C31.1082 16.9152 31.0842 16.7879 31.0842 16.6909C31.0782 16.5636 31.1203 16.4788 31.2404 16.3879C31.3305 16.3212 31.4687 16.2667 31.5467 16.2667ZM21.4194 6.50909L21.5696 6.66061C21.6597 6.75151 21.7198 6.87879 21.7198 6.99394C21.7198 7.10303 21.6597 7.2303 21.4194 7.47879H14.8721C9.75442 7.47879 8.28879 7.46061 8.16865 7.4C8.09056 7.35758 7.99446 7.25455 7.95842 7.17576C7.92238 7.08485 7.91637 6.94545 7.9464 6.84242C7.97043 6.74545 8.04852 6.6303 8.11459 6.58788C8.2107 6.52121 9.382 6.50303 21.4194 6.50909ZM14.8721 9.90303C19.1549 9.90303 21.5215 9.92121 21.5996 9.96364C21.6657 9.99394 21.7438 10.097 21.7678 10.1879C21.8039 10.297 21.7979 10.4182 21.7498 10.5394C21.7018 10.6545 21.6056 10.7455 21.4735 10.7939C21.3113 10.8545 19.8877 10.8727 14.9022 10.8727C10.7515 10.8727 8.46298 10.8485 8.33684 10.8121C8.22872 10.7758 8.11459 10.697 8.08456 10.6303C8.04852 10.5636 8.02449 10.4242 8.02449 10.3273C8.02449 10.2242 8.07254 10.0909 8.14462 10.0242C8.25875 9.90303 8.34285 9.90303 14.8721 9.90303ZM17.6352 26.5091L17.7854 26.6606C17.8755 26.7515 17.9355 26.8788 17.9355 26.9939C17.9355 27.103 17.8755 27.2303 17.6352 27.4788H12.932C9.08167 27.4788 8.2107 27.4606 8.11459 27.3939C8.04852 27.3515 7.97043 27.2364 7.9464 27.1394C7.91637 27.0364 7.92238 26.897 7.95842 26.8121C7.98845 26.7273 8.07855 26.6242 8.15664 26.5879C8.25875 26.5333 9.49013 26.5152 17.6352 26.5091Z" fill="white"/>
</svg>
