<svg width="31" height="33" viewBox="0 0 31 33" fill="none" xmlns="http://www.w3.org/2000/svg">
<path fill-rule="evenodd" clip-rule="evenodd" d="M2.14749 0H17.9073L18.4476 0.240625C18.9533 0.474375 19.0711 0.5775 20.8653 2.35812C22.5694 4.04938 22.7703 4.27625 23.2067 5.19063L23.2206 9.9C23.2413 13.9906 23.2275 14.63 23.1374 14.7675C23.082 14.85 22.9642 14.9531 22.8811 14.9944C22.7564 15.0563 22.6664 15.0562 22.4932 14.9806C22.3685 14.9256 22.2438 14.8363 22.2161 14.7813C22.1884 14.7263 22.1537 12.6225 22.0983 5.53438L20.505 5.5C19.4659 5.4725 18.8425 5.43125 18.7247 5.37625C18.6139 5.335 18.413 5.19062 18.2744 5.06687C18.1289 4.93625 17.9488 4.71625 17.8726 4.565C17.7479 4.32438 17.7271 4.11812 17.6648 1.13437L10.114 1.11375C4.31575 1.1 2.49385 1.11375 2.2514 1.1825C2.03665 1.2375 1.83575 1.36812 1.5933 1.60875C1.37855 1.82187 1.21229 2.06938 1.15687 2.23438C1.09453 2.44063 1.07374 5.45188 1.07374 14.85C1.07374 24.2481 1.09453 27.2594 1.15687 27.4656C1.21229 27.6306 1.37855 27.8781 1.5933 28.0844C1.80112 28.2975 2.0505 28.4625 2.21676 28.5175C2.41765 28.5725 3.53296 28.6 10.0101 28.6L10.1832 28.7719C10.2941 28.8819 10.3564 29.0194 10.3564 29.15C10.3564 29.2806 10.2941 29.4181 10.0101 29.7L2.07821 29.6656L1.62793 29.4594C1.37855 29.3425 1.02525 29.1088 0.84514 28.9438C0.623464 28.7444 0.415642 28.4556 0 27.61V2.09687L0.207821 1.65C0.325587 1.4025 0.561117 1.05187 0.727374 0.86625C0.942123 0.64625 1.21922 0.446875 1.5933 0.268125L2.14749 0ZM18.981 4.22813C19.1542 4.39313 19.175 4.4 20.2487 4.4H21.3363C19.4313 2.48187 18.8632 1.925 18.8425 1.925C18.8217 1.925 18.8078 2.40625 18.8078 2.99062C18.8078 4.03562 18.8078 4.05625 18.981 4.22813ZM29.0603 12.6844C29.2682 12.705 29.6007 12.7944 29.7877 12.8769C29.9817 12.9663 30.2518 13.1588 30.3973 13.31C30.5428 13.4544 30.7368 13.7431 30.8268 13.9356C30.9584 14.2037 31 14.4169 31 14.7469C31 15.0769 30.9515 15.29 30.8268 15.5719C30.7091 15.8263 30.4458 16.1631 29.4136 17.2219L29.4067 17.6C29.4067 17.8269 29.3513 18.095 29.2682 18.2669C29.192 18.4319 28.9841 18.7138 28.4715 19.25L28.7347 19.525C28.8733 19.6763 29.0603 19.9306 29.1435 20.0888C29.2682 20.3156 29.3028 20.5012 29.3028 20.9C29.3028 21.3056 29.2682 21.4775 29.1365 21.725C29.0326 21.9175 28.1736 22.8319 26.7812 24.2138C24.8 26.1938 24.5714 26.4 24.3636 26.4C24.2181 26.4 24.0796 26.3381 23.9687 26.2281C23.8509 26.1112 23.7955 25.9806 23.7955 25.8294C23.7955 25.63 24.0172 25.3894 25.9707 23.4438C27.1692 22.2544 28.1667 21.2025 28.1944 21.1063C28.2221 21.01 28.2221 20.8381 28.2013 20.7281C28.1806 20.6112 28.0489 20.4119 27.6679 20.0406L16.3486 31.2812L13.7508 32.1406C12.3238 32.615 11.0838 33 11.0007 33C10.9106 33 10.7651 32.9244 10.6682 32.8281C10.5712 32.7319 10.495 32.5875 10.495 32.4981C10.495 32.4156 10.8829 31.185 12.2268 27.1906L18.6139 20.8519C23.5739 15.9294 25.0771 14.4788 25.3196 14.3756C25.5066 14.2863 25.7837 14.2312 26.3933 14.2312L26.9128 13.7087C27.1969 13.4269 27.5709 13.1037 27.7441 13.0075C27.9173 12.9044 28.1944 12.7875 28.3676 12.7394C28.5408 12.6913 28.8456 12.6637 29.0603 12.6844ZM27.7788 14.3894L27.3631 14.85L28.7832 16.2594C29.5591 15.4894 29.7877 15.2006 29.8293 15.0562C29.8708 14.9256 29.8916 14.7056 29.8639 14.575C29.8431 14.4444 29.7739 14.2656 29.7184 14.1763C29.663 14.0938 29.4898 13.9631 29.3374 13.8875C29.185 13.8119 28.9772 13.75 28.8733 13.75C28.7625 13.75 28.5685 13.7913 28.4369 13.8394C28.2914 13.8875 28.0351 14.1075 27.7788 14.3894ZM18.4961 22.55L21.0246 25.0594C28.0836 18.0537 28.2983 17.8269 28.2983 17.6C28.2983 17.38 28.2013 17.2631 27.2731 16.3419C26.3517 15.4206 26.234 15.3313 26.0123 15.3313C25.7837 15.3313 25.5482 15.5513 22.133 18.9406L18.4961 22.55ZM13.5084 27.5L16.0369 30.0094L20.2279 25.85C18.2952 23.9319 17.7202 23.375 17.6994 23.375C17.6787 23.375 16.7296 24.3031 15.5866 25.4375L13.5084 27.5ZM12.4554 30.0231C12.1783 30.8481 11.9636 31.5288 11.9705 31.5356C11.9774 31.5425 12.6632 31.3294 13.4876 31.0544L14.9978 30.5594L12.9542 28.5313L12.4554 30.0231ZM11.6726 4.42063C11.8804 4.4275 12.1645 4.48938 12.2961 4.55813C12.4277 4.62 14.0556 5.83 15.9191 7.25313C18.6 9.30188 19.2997 9.86562 19.3343 10.0169C19.362 10.12 19.3412 10.285 19.2927 10.3744C19.2442 10.4706 18.9048 10.9312 18.5377 11.4056C18.1705 11.8731 17.7964 12.3062 17.6994 12.3612C17.5886 12.4231 17.457 12.4438 17.1453 12.3681L17.1106 18.3631L16.7296 18.6931H6.40782L6.06145 18.3494V12.3681L5.87441 12.4163C5.74972 12.4438 5.6181 12.4231 5.50726 12.3612C5.41028 12.3062 5.0362 11.8731 4.66905 11.4056C4.3019 10.9312 3.96246 10.4706 3.91397 10.3744C3.86547 10.285 3.85162 10.12 3.8724 10.0169C3.90704 9.86562 4.58592 9.31563 7.19061 7.33562C8.9848 5.96062 10.5573 4.77813 10.6682 4.69563C10.7859 4.62 10.973 4.51688 11.0838 4.47563C11.2016 4.43438 11.4648 4.40688 11.6726 4.42063ZM5.16782 10.2712C5.68045 10.9037 5.85363 11.055 5.90905 11.0344C5.95061 11.0138 7.17676 10.0925 8.62458 8.98562C10.0793 7.87875 11.3332 6.94375 11.4163 6.90937C11.4994 6.88188 11.6449 6.86812 11.7419 6.89563C11.8389 6.92313 13.1343 7.87188 14.6168 9.00625C16.1061 10.1406 17.3323 11.0688 17.3531 11.0688C17.3739 11.0688 17.5332 10.89 17.7133 10.67L18.0389 10.2712C12.7464 6.22187 11.7835 5.5275 11.638 5.50688C11.4579 5.48625 11.0353 5.78875 8.29899 7.87875L5.16782 10.2712ZM10.495 17.5931H12.7117V13.7431H10.495V17.5931ZM3.62994 20.8931H7.37765L7.55084 21.065C7.66168 21.1681 7.72402 21.3125 7.72402 21.4431C7.72402 21.5669 7.66168 21.7112 7.38458 21.9931H3.63687L3.46369 21.8213C3.35285 21.7113 3.29743 21.5737 3.29743 21.4363C3.29743 21.3125 3.3667 21.1612 3.46369 21.0581L3.62994 20.8931ZM9.17184 20.8931H15.6905L15.8637 21.065C15.9745 21.175 16.0369 21.3194 16.0369 21.4431C16.0369 21.5737 15.9745 21.7181 15.6974 21.9931H9.17877L9.00559 21.8213C8.89475 21.7113 8.8324 21.5737 8.83933 21.4431C8.83933 21.3125 8.9086 21.1612 9.00559 21.065L9.17184 20.8931ZM3.62994 24.1931H12.3654L12.5385 24.365C12.6494 24.4681 12.7117 24.6125 12.7117 24.7431C12.7117 24.8669 12.6494 25.0112 12.3723 25.2931H3.63687L3.46369 25.1213C3.35285 25.0112 3.2905 24.8738 3.29743 24.7362C3.29743 24.6125 3.3667 24.4612 3.46369 24.3581L3.62994 24.1931Z" fill="white"/>
</svg>
