<svg width="40" height="42" viewBox="0 0 40 42" fill="none" xmlns="http://www.w3.org/2000/svg">
<path d="M29.675 34.5031C30.0367 34.5202 30.205 34.5458 30.2686 34.5673C30.3161 34.5864 30.3808 34.6225 30.4447 34.6681C30.512 34.7163 30.5593 34.7615 30.5801 34.7893C30.5968 34.8115 30.6221 34.8614 30.6429 34.9364C30.6626 35.007 30.6737 35.0836 30.6741 35.1505C30.6706 35.25 30.6612 35.2904 30.617 35.3561C30.5622 35.4377 30.4559 35.5503 30.2348 35.75H11.763L11.5392 35.5557C11.4281 35.4538 11.3846 35.397 11.3624 35.3523C11.3425 35.3123 11.3299 35.2623 11.3259 35.1505C11.3263 35.0836 11.3374 35.007 11.3571 34.9364C11.3779 34.8614 11.4032 34.8115 11.4199 34.7893C11.4407 34.7615 11.488 34.7163 11.5553 34.6681C11.6191 34.6225 11.6838 34.5865 11.7313 34.5673C11.7542 34.5597 11.8075 34.547 11.9359 34.5349C12.068 34.5225 12.2656 34.5118 12.5694 34.5033C13.1761 34.4863 14.1886 34.4782 15.9107 34.4782H16.0616L16.1319 34.3447L17.9132 30.9622L18.1053 30.5974L17.693 30.5958L11.6876 30.5716H11.6874C9.10385 30.5635 7.59464 30.5535 6.69008 30.5324C5.77629 30.5111 5.51103 30.478 5.38599 30.4391C5.18208 30.3692 4.81157 30.2206 4.56704 30.1045L4.56707 30.1044L4.5611 30.1018C4.33306 30.0007 3.95527 29.7581 3.7268 29.5805C3.51444 29.4004 3.17545 29.0325 2.98496 28.7612L2.98498 28.7612L2.98303 28.7585C2.80464 28.5115 2.56387 28.035 2.25 27.1004V17.9763C2.25 13.9448 2.25425 11.6436 2.2733 10.2968C2.29255 8.93626 2.32781 8.57935 2.3763 8.40421C2.44933 8.15031 2.5964 7.76372 2.69797 7.56344C2.7989 7.3644 3.0158 7.03603 3.17318 6.84866C3.34204 6.65823 3.64376 6.37186 3.84383 6.21229C4.03941 6.05631 4.38535 5.84218 4.6063 5.73681C4.83215 5.63763 5.27397 5.48235 5.58069 5.40572L5.58069 5.40572L5.58188 5.40542C5.83043 5.34202 6.0886 5.30254 8.10448 5.28128C10.1079 5.26016 13.8235 5.25613 20.9577 5.2521C28.1896 5.24808 31.903 5.24808 33.8861 5.2682C35.8761 5.28838 36.1012 5.32956 36.3766 5.39758C36.7118 5.48305 37.2277 5.66245 37.5056 5.79796C37.7855 5.93845 38.2134 6.24412 38.4863 6.50285C38.7446 6.75615 39.0819 7.18567 39.219 7.44605L39.2189 7.44608L39.2217 7.45103C39.3746 7.72608 39.5534 8.15134 39.6243 8.39011C39.672 8.55572 39.7074 8.87474 39.7267 10.2133C39.7458 11.5369 39.75 13.828 39.75 17.9038C39.75 21.8546 39.7458 24.148 39.7278 25.506C39.7188 26.1854 39.7063 26.6271 39.6896 26.9238C39.6728 27.2204 39.6522 27.358 39.6317 27.4373C39.5595 27.6874 39.3974 28.1029 39.2699 28.3535C39.1338 28.6035 38.8663 28.9876 38.686 29.1886C38.4997 29.395 38.1283 29.7023 37.8653 29.869C37.6208 30.0212 37.1593 30.2431 36.2674 30.5556L24.3072 30.5958L23.8946 30.5971L24.0868 30.9622L25.8681 34.3447L25.9384 34.4782H26.0893H28.0826C28.807 34.4782 29.3196 34.4863 29.675 34.5031ZM5.07359 6.87822L5.07356 6.87817L5.06853 6.8807C4.88765 6.97162 4.59334 7.2121 4.38236 7.42911L4.38207 7.42941C4.18188 7.63601 3.95225 7.92 3.86864 8.06885L3.86856 8.06881L3.8654 8.0748C3.78012 8.23676 3.68171 8.57884 3.62949 8.85051C3.60492 8.9678 3.58983 9.21864 3.57815 9.59542C3.566 9.98745 3.55724 10.5424 3.5514 11.2859C3.53973 12.7732 3.53973 15.0214 3.54822 18.2427L3.54822 18.2428L3.57366 27.1016L3.57383 27.1598L3.59966 27.2119C3.94284 27.9043 4.20335 28.2799 4.41075 28.4862L4.4107 28.4862L4.41492 28.4902C4.61887 28.6839 4.98807 28.9412 5.24479 29.059C5.24536 29.0592 5.24594 29.0595 5.24651 29.0598L5.66734 29.2596L5.71806 29.2837L5.77422 29.2837C20.7108 29.3039 28.2735 29.3139 32.157 29.2998C34.0977 29.2928 35.1234 29.2797 35.6921 29.2586C36.2589 29.2376 36.397 29.2085 36.5449 29.1572L36.5449 29.1572L36.5492 29.1556C36.8449 29.047 37.2107 28.8202 37.4696 28.5836C37.7243 28.359 38.0215 27.9563 38.162 27.6727C38.1623 27.672 38.1627 27.6713 38.163 27.6706L38.3984 27.2158L38.4263 27.1617V27.1009C38.4263 18.1301 38.4242 13.5742 38.4019 11.208C38.3908 10.0264 38.3746 9.38486 38.3507 9.01098C38.3264 8.63253 38.293 8.50801 38.2416 8.37145C38.1326 8.06316 37.881 7.69701 37.627 7.43803C37.3837 7.18103 37.0013 6.91298 36.7003 6.77902L36.6993 6.77856L36.2412 6.57722L36.1933 6.55613L36.1409 6.55609C22.6629 6.54401 15.1387 6.54199 10.9501 6.55307C8.85613 6.5586 7.59442 6.56741 6.83891 6.5799C6.46149 6.58614 6.20801 6.59333 6.03935 6.60164C5.88378 6.60931 5.77207 6.61853 5.70344 6.6389L5.70344 6.63889L5.70226 6.63925C5.50491 6.69887 5.22168 6.80792 5.07359 6.87822Z" fill="#FF7B1C" stroke="white" stroke-width="0.5"/>
</svg>
