<svg width="20" height="21" viewBox="0 0 20 21" fill="none" xmlns="http://www.w3.org/2000/svg">
<path d="M13.8974 12.9419C14.7211 11.8204 15.2077 10.4359 15.2077 8.93783C15.2077 5.1984 12.1763 2.16699 8.43685 2.16699C4.69742 2.16699 1.66602 5.1984 1.66602 8.93783C1.66602 12.6773 4.69742 15.7087 8.43685 15.7087C9.93537 15.7087 11.3202 15.2218 12.4418 14.3977L12.4409 14.3984C12.4716 14.4401 12.5058 14.4799 12.5435 14.5177L16.5544 18.5286C16.9612 18.9354 17.6208 18.9354 18.0276 18.5286C18.4344 18.1218 18.4344 17.4622 18.0276 17.0554L14.0167 13.0445C13.979 13.0068 13.9391 12.9726 13.8974 12.9419ZM14.166 8.93783C14.166 12.102 11.601 14.667 8.43685 14.667C5.27272 14.667 2.70768 12.102 2.70768 8.93783C2.70768 5.77369 5.27272 3.20866 8.43685 3.20866C11.601 3.20866 14.166 5.77369 14.166 8.93783Z" fill="black"/>
</svg>
