<svg width="39" height="42" viewBox="0 0 39 42" fill="none" xmlns="http://www.w3.org/2000/svg">
<path fill-rule="evenodd" clip-rule="evenodd" d="M22.4291 2C23.1608 2 23.97 2.02813 24.2233 2.07033C24.4766 2.11252 25.0957 2.22504 25.5953 2.31647C26.0948 2.41492 26.9392 2.63294 27.4598 2.80875C27.9805 2.98457 28.8248 3.32213 29.3244 3.57531C29.8239 3.82145 30.5697 4.24341 30.9778 4.51065C31.3859 4.77789 31.9206 5.15765 32.1739 5.36159C32.4272 5.56554 32.9268 6.02266 33.2927 6.37429C33.6515 6.73296 34.1651 7.27447 34.4254 7.5839C34.6928 7.89334 35.1502 8.51221 35.4457 8.95527C35.7412 9.39832 36.1844 10.1719 36.4307 10.6783C36.684 11.1846 37.0288 12.0215 37.1976 12.5419C37.3735 13.0623 37.5916 13.8851 37.6901 14.3704C37.7886 14.8556 37.9012 15.6433 37.9505 16.1285C37.9997 16.656 38.0138 17.4225 37.9857 18.0625C37.9645 18.6462 37.8942 19.4198 37.8379 19.7855C37.7816 20.1512 37.6972 20.6154 37.655 20.8052C37.6127 20.9951 37.5002 21.4452 37.4017 21.7898C37.3032 22.1344 37.0991 22.7392 36.9443 23.126C36.7895 23.5128 36.494 24.1598 36.29 24.5677C36.0789 24.9756 35.699 25.6296 35.4316 26.0234C35.1713 26.4173 34.6787 27.0643 34.348 27.4651C34.0174 27.866 33.4545 28.4567 33.0956 28.7873C32.7368 29.1178 32.1528 29.603 31.787 29.8773C31.4281 30.1516 30.7878 30.5735 30.3727 30.8267C29.9506 31.0729 29.2751 31.4245 28.867 31.6073C28.4589 31.7902 27.8749 32.0223 27.5654 32.1207C27.2558 32.2262 26.6999 32.388 26.3341 32.4794C25.9682 32.5708 25.3631 32.7044 24.9972 32.7677C24.6243 32.831 23.7167 32.8943 22.9568 32.9154C22.0914 32.9435 21.3104 32.9224 20.846 32.8732C20.4379 32.824 19.7273 32.7044 19.2629 32.606C18.7985 32.5146 18.0386 32.3036 17.5743 32.1559C17.1099 32.0012 16.2867 31.6566 15.7449 31.3893C15.2031 31.1221 14.4714 30.7212 13.4934 30.0672L12.7335 30.8197C12.0088 31.53 11.9807 31.5722 12.051 31.7621C12.0862 31.8676 12.1073 32.0223 12.0862 32.1137C12.0651 32.1981 11.5655 32.7537 10.9745 33.3374C10.0387 34.2797 9.8769 34.4134 9.67989 34.4134C9.53917 34.4134 9.39141 34.3571 9.30698 34.2727C9.22255 34.1883 9.16626 34.0406 9.16626 33.907C9.16626 33.7031 9.2718 33.5694 9.9754 32.8662C10.4187 32.4231 10.7845 32.0293 10.7845 31.9871C10.7845 31.9449 10.1724 31.3049 9.43363 30.5665C8.68782 29.8211 8.02643 29.2092 7.97718 29.2092C7.92089 29.2092 6.8655 30.229 5.64123 31.4808C4.23404 32.9084 3.3475 33.8648 3.249 34.0617C3.11532 34.3149 3.08014 34.4907 3.08014 34.9408C3.08014 35.3768 3.11532 35.5667 3.22789 35.7847C3.31232 35.9394 3.46008 36.1645 3.55155 36.277C3.65005 36.3895 3.90335 36.5794 4.10739 36.6919C4.36772 36.8326 4.62102 36.9099 4.90949 36.931C5.23315 36.9521 5.43015 36.924 5.75381 36.7974C6.11265 36.6638 6.31669 36.5021 7.08361 35.7566C7.80128 35.0533 8.02643 34.8705 8.18122 34.8705C8.28676 34.8705 8.44859 34.9338 8.52599 35.0111C8.62918 35.1049 8.67843 35.2338 8.67374 35.3979C8.66671 35.6159 8.57524 35.7355 7.87868 36.4388C7.44245 36.8818 6.964 37.3249 6.80921 37.4374C6.65442 37.5429 6.32372 37.7187 6.07043 37.8172C5.70456 37.9648 5.50051 38 5.05021 38C4.62102 38 4.38179 37.9578 4.02999 37.8242C3.7767 37.7257 3.41786 37.5288 3.22086 37.3811C3.03088 37.2405 2.75648 36.9662 2.60873 36.7693C2.46097 36.5794 2.271 36.2418 2.1936 36.0309C2.11621 35.8199 2.03177 35.4261 2.01067 35.1518C1.98252 34.8142 2.01067 34.5189 2.08806 34.2024C2.15139 33.9492 2.30618 33.5765 2.43283 33.3725C2.56651 33.1475 3.65005 32.0082 5.19093 30.4681C7.33691 28.3161 7.75907 27.9293 7.93497 27.9223C8.05458 27.9152 8.20937 27.9363 8.28676 27.9644C8.39934 28.0066 8.5682 27.873 9.93318 26.5017L9.51103 25.8687C9.27884 25.5241 8.88482 24.8209 8.63856 24.3215C8.38527 23.8222 8.02643 22.9361 7.83646 22.3524C7.64649 21.7757 7.42837 20.967 7.34394 20.5591C7.26655 20.1512 7.16804 19.5534 7.12583 19.2229C7.09065 18.8924 7.05547 18.1117 7.05547 17.4858C7.05547 16.8459 7.10472 15.9598 7.16804 15.4815C7.23137 15.0033 7.38616 14.2086 7.51281 13.7023C7.63945 13.1959 7.85757 12.4716 8.00533 12.0848C8.14604 11.698 8.44859 11.0158 8.66671 10.5728C8.89186 10.1297 9.20848 9.54601 9.38438 9.27877C9.55324 9.01153 9.75025 8.76538 9.82061 8.73725C9.88393 8.70209 10.0035 8.67396 10.0809 8.67396C10.1583 8.67396 10.2991 8.75132 10.3976 8.84978C10.4961 8.94823 10.5735 9.09592 10.5735 9.18734C10.5735 9.27173 10.4116 9.6093 10.2146 9.93983C10.0176 10.2704 9.74321 10.7626 9.60249 11.0299C9.46881 11.2971 9.22255 11.8668 9.06072 12.2958C8.89186 12.7248 8.65967 13.4632 8.54006 13.9484C8.42045 14.4337 8.27269 15.1862 8.2164 15.6222C8.16012 16.0512 8.11087 16.8951 8.11087 17.4858C8.11087 18.0695 8.14604 18.822 8.18122 19.1526C8.22344 19.4831 8.32194 20.0668 8.40638 20.4536C8.48377 20.8404 8.67374 21.5366 8.8215 22.0008C8.97629 22.4649 9.29995 23.2596 9.54621 23.7589C9.79247 24.2583 10.2076 25.0037 10.482 25.4116C10.7494 25.8195 11.2067 26.4384 11.5022 26.783C11.7907 27.1276 12.2973 27.662 12.6209 27.9644C12.9446 28.2739 13.5004 28.731 13.8452 28.9912C14.19 29.2514 14.6825 29.589 14.9358 29.7507C15.1891 29.9055 15.7097 30.1938 16.0967 30.3837C16.4837 30.5806 17.1029 30.8478 17.4687 30.9885C17.8346 31.1221 18.4397 31.319 18.8056 31.4175C19.1714 31.5159 19.9032 31.6636 20.4238 31.741C21.0571 31.8324 21.7396 31.8816 22.4854 31.8816C23.0905 31.8816 23.9629 31.8324 24.4132 31.7761C24.8706 31.7128 25.5742 31.5863 25.9823 31.4808C26.3904 31.3823 27.0236 31.1924 27.3895 31.0658C27.7553 30.9322 28.4378 30.6368 28.9022 30.4048C29.3666 30.1797 30.035 29.807 30.3798 29.5749C30.7245 29.3499 31.2663 28.9631 31.5688 28.7099C31.8784 28.4638 32.4132 27.9715 32.7579 27.6269C33.1027 27.2823 33.5882 26.7408 33.8274 26.4313C34.0666 26.1219 34.4395 25.6015 34.6576 25.271C34.8687 24.9404 35.2557 24.2442 35.509 23.7238C35.7552 23.2034 36.0789 22.4368 36.2126 22.0219C36.3533 21.5999 36.5433 20.8756 36.6418 20.4044C36.7332 19.9262 36.8529 19.0822 36.9021 18.5196C36.9654 17.7179 36.9654 17.2749 36.9021 16.445C36.8529 15.8683 36.7403 15.0244 36.6488 14.5814C36.5574 14.1383 36.3533 13.3788 36.1915 12.8935C36.0297 12.4083 35.7341 11.6839 35.5442 11.276C35.3472 10.8681 35.0446 10.2985 34.8687 10.0102C34.6928 9.72182 34.334 9.20141 34.0807 8.84978C33.8203 8.50518 33.2927 7.88631 32.9127 7.48545C32.5257 7.08459 31.9558 6.55011 31.6462 6.30397C31.3366 6.05079 30.7949 5.664 30.4501 5.43192C30.1054 5.19984 29.4862 4.84118 29.0781 4.6302C28.67 4.42626 28.0931 4.15902 27.7905 4.03946C27.495 3.91991 26.9251 3.73003 26.5311 3.6175C26.13 3.50498 25.539 3.36433 25.2083 3.30807C24.8776 3.24477 24.2796 3.16038 23.8715 3.11819C23.4634 3.08302 22.8442 3.04786 22.4995 3.04786C22.1547 3.04786 21.5355 3.08302 21.1274 3.11819C20.7193 3.16038 20.0087 3.2729 19.5443 3.37136C19.08 3.46279 18.3201 3.67376 17.8557 3.82848C17.3913 3.99023 16.6666 4.2856 16.2374 4.48955C15.8082 4.6935 15.1187 5.08732 14.6895 5.36863C14.2603 5.64993 13.6763 6.07189 13.3879 6.311C13.0994 6.55011 12.5787 7.03536 12.2269 7.39402C11.6711 7.96366 11.5585 8.04102 11.3474 8.04102C11.1997 8.04806 11.0519 7.9918 10.9815 7.92147C10.9182 7.85114 10.8479 7.71752 10.8197 7.61907C10.7845 7.47841 10.8338 7.36589 11.0449 7.09162C11.1997 6.90174 11.6077 6.47978 11.9525 6.16331C12.2973 5.84685 12.8813 5.36159 13.2471 5.08732C13.613 4.80602 14.1688 4.43329 14.4784 4.24341C14.788 4.06056 15.3298 3.76519 15.6745 3.58937C16.0193 3.42059 16.5963 3.16742 16.941 3.02676C17.2858 2.89314 17.8627 2.69623 18.2075 2.60481C18.5523 2.50635 19.1714 2.35866 19.5795 2.2813C19.9876 2.21098 20.4942 2.11252 20.7053 2.07736C20.9164 2.0422 21.6973 2.00703 22.4291 2ZM22.3939 5.02403C22.992 5.017 23.7519 5.04513 24.0825 5.08732C24.4132 5.12952 25.0746 5.2561 25.5601 5.37566C26.0456 5.49521 26.7844 5.73432 27.2136 5.91014C27.6357 6.07892 28.269 6.38132 28.6208 6.57824C28.9655 6.77515 29.5214 7.12678 29.8521 7.36589C30.1757 7.59797 30.7597 8.09728 31.1396 8.46298C31.5266 8.82868 32.0051 9.33503 32.2091 9.5882C32.4132 9.84138 32.7579 10.3126 32.976 10.6431C33.1941 10.9736 33.5319 11.5573 33.7218 11.9441C33.9118 12.3309 34.1933 13.0272 34.348 13.4913C34.5028 13.9555 34.6928 14.6517 34.7772 15.0385C34.8828 15.5448 34.9391 16.1074 34.9672 17.0779C34.9954 18.1117 34.9813 18.59 34.8898 19.1877C34.8265 19.6097 34.6928 20.2778 34.5943 20.6646C34.4958 21.0514 34.2847 21.6843 34.1299 22.0711C33.9822 22.4579 33.7078 23.0416 33.5319 23.3721C33.356 23.7027 33.0253 24.2372 32.8001 24.5677C32.575 24.8982 32.1388 25.4468 31.8432 25.7914C31.5407 26.136 30.9919 26.6704 30.626 26.9799C30.2601 27.2893 29.7043 27.7042 29.3947 27.9082C29.0851 28.1121 28.5997 28.3864 28.3182 28.5271C28.0368 28.6747 27.7342 28.7873 27.6357 28.7873C27.5231 28.7873 27.4035 28.7169 27.3121 28.5904C27.2347 28.4849 27.1713 28.3301 27.1713 28.2387C27.1784 28.1543 27.2487 28.0137 27.3332 27.9363C27.4246 27.8519 27.7764 27.6269 28.1282 27.437C28.473 27.2401 29.0429 26.8674 29.3947 26.6071C29.7395 26.3469 30.3586 25.7843 30.7667 25.3694C31.1748 24.9475 31.7096 24.3004 31.9558 23.9348C32.2021 23.5691 32.5609 22.9502 32.7509 22.5634C32.9479 22.1766 33.2082 21.5437 33.3419 21.1569C33.4685 20.7701 33.6445 20.1371 33.7359 19.7503C33.8696 19.1385 33.8907 18.8502 33.8907 17.4999C33.8907 16.1496 33.8696 15.8543 33.7289 15.2143C33.6444 14.8064 33.4756 14.1875 33.363 13.8429C33.2434 13.4913 33.0182 12.9217 32.8494 12.5771C32.6876 12.2254 32.3709 11.6558 32.1458 11.3112C31.9136 10.9596 31.5337 10.4391 31.2874 10.1508C31.0482 9.86247 30.6753 9.46161 30.4712 9.2647C30.2672 9.06779 29.9224 8.76538 29.7113 8.58957C29.5003 8.41375 29.0359 8.08322 28.6911 7.85818C28.3393 7.63313 27.7694 7.31666 27.4246 7.15491C27.0728 6.98613 26.5029 6.76109 26.1582 6.64153C25.8064 6.52901 25.1942 6.36023 24.7861 6.2688C24.1388 6.13518 23.8433 6.11408 22.4995 6.11408C21.1485 6.11408 20.8601 6.13518 20.2479 6.2688C19.861 6.35319 19.2277 6.53604 18.8407 6.66263C18.4538 6.78922 17.8346 7.04942 17.4687 7.23227C17.1029 7.41512 16.5752 7.71049 16.3078 7.88631C16.0334 8.05509 15.5901 8.37859 15.3227 8.60363C15.0483 8.82165 14.5418 9.29986 14.197 9.66556C13.8452 10.0313 13.3316 10.6712 13.0431 11.1002C12.7617 11.5222 12.3887 12.1551 12.2199 12.5067C12.0581 12.8513 11.8188 13.4421 11.6922 13.8078C11.5726 14.1735 11.4107 14.7431 11.3404 15.0736C11.27 15.4042 11.1715 16.0793 11.1293 16.5857C11.066 17.2749 11.066 17.7109 11.1223 18.3579C11.1715 18.8361 11.27 19.5323 11.3545 19.9051C11.4389 20.2848 11.6148 20.9107 11.7485 21.2975C11.8822 21.6843 12.1636 22.3313 12.3747 22.7392C12.5858 23.1471 12.9727 23.78 13.2331 24.1457C13.4934 24.5114 14.0352 25.1444 14.4433 25.5523C14.8513 25.9601 15.4846 26.5017 15.8504 26.7689C16.2163 27.0291 16.927 27.444 17.4335 27.6902C17.9331 27.9363 18.6015 28.2247 18.9111 28.3231C19.2207 28.4216 19.7554 28.5693 20.1072 28.6466C20.452 28.7169 21.1345 28.8224 21.62 28.8646C22.2954 28.9279 22.7105 28.9279 23.4141 28.8646C23.9137 28.8224 24.6102 28.7169 24.962 28.6466C25.3068 28.5693 25.6797 28.506 25.7853 28.506C25.9166 28.506 26.0292 28.5693 26.123 28.6958C26.2004 28.8084 26.2637 28.9349 26.2637 28.9771C26.2637 29.0264 26.2215 29.1459 26.1722 29.2444C26.123 29.3428 26.0104 29.4554 25.9119 29.4905C25.8134 29.5327 25.4335 29.6241 25.0676 29.7015C24.7017 29.7789 23.97 29.8773 23.4493 29.9195C22.7176 29.9898 22.2884 29.9898 21.5848 29.9195C21.0782 29.8773 20.3535 29.7718 19.9665 29.6945C19.5795 29.6171 18.9322 29.4413 18.5241 29.3006C18.116 29.167 17.4547 28.8928 17.0466 28.6958C16.6385 28.4989 16.0404 28.1543 15.7097 27.9433C15.379 27.7253 14.9217 27.3948 14.6895 27.2049C14.4573 27.0221 14.0492 26.6634 13.7889 26.4032C13.5215 26.15 13.1135 25.6999 12.8742 25.4116C12.642 25.1233 12.2621 24.5958 12.0299 24.2512C11.7977 23.8996 11.46 23.3018 11.2771 22.915C11.0871 22.5282 10.8268 21.8812 10.686 21.4733C10.5524 21.0654 10.3765 20.4184 10.2991 20.0316C10.2146 19.6449 10.1161 18.9135 10.0739 18.4141C10.0106 17.7249 10.0106 17.2678 10.0739 16.5505C10.1161 16.0301 10.2146 15.2987 10.292 14.933C10.3694 14.5673 10.5312 13.9625 10.6509 13.5968C10.7705 13.2311 11.0378 12.563 11.2489 12.1199C11.46 11.6769 11.7696 11.1072 11.9244 10.8541C12.0862 10.6009 12.3958 10.1578 12.6139 9.86951C12.832 9.58117 13.2682 9.08889 13.5708 8.77242C13.8733 8.46298 14.3307 8.03399 14.584 7.83005C14.8373 7.6261 15.2594 7.30963 15.5338 7.12678C15.8012 6.94393 16.2937 6.64856 16.6244 6.47275C16.9551 6.29693 17.5391 6.02266 17.9261 5.86794C18.313 5.72026 18.9463 5.50928 19.3333 5.41082C19.7202 5.31237 20.3183 5.18578 20.6701 5.12952C21.0149 5.07326 21.7959 5.02403 22.3939 5.02403ZM16.9058 14.0399C17.5109 14.0539 17.6235 14.082 18.116 14.3212C18.4186 14.4618 18.7422 14.6587 18.8407 14.7572C18.9392 14.8556 19.0166 15.0104 19.0166 15.1088C19.0166 15.2073 18.9392 15.362 18.8407 15.4604C18.7493 15.5589 18.5874 15.6363 18.4889 15.6363C18.3904 15.6363 18.1934 15.5589 18.0457 15.4604C17.905 15.369 17.6446 15.2424 17.4687 15.1791C17.2928 15.1229 16.9832 15.0736 16.7792 15.0736C16.5752 15.0736 16.3007 15.1229 16.1671 15.1862C16.0334 15.2495 15.8786 15.369 15.8153 15.4534C15.759 15.5308 15.7097 15.7206 15.7097 15.8613C15.7097 16.0231 15.759 16.1778 15.8293 16.2551C15.8997 16.3255 16.4063 16.5575 16.9551 16.7826C17.5109 17.0006 18.0809 17.2538 18.2216 17.3452C18.3693 17.4366 18.6086 17.6476 18.7563 17.8234C18.9181 18.0063 19.0659 18.2876 19.1363 18.5196C19.2207 18.8361 19.2277 18.9697 19.1644 19.2581C19.1222 19.4479 18.9955 19.7503 18.89 19.9262C18.7845 20.102 18.5804 20.327 18.4467 20.4255C18.313 20.531 18.109 20.6576 17.9964 20.7208C17.8768 20.7771 17.5813 20.8685 17.328 20.9178C16.9621 20.9881 16.7722 20.9951 16.3781 20.9248C16.1037 20.8756 15.6605 20.7279 15.3931 20.5943C15.1187 20.4677 14.7669 20.2286 14.598 20.0738C14.394 19.8699 14.3025 19.7222 14.2955 19.5886C14.2955 19.4831 14.3518 19.3284 14.4221 19.244C14.4925 19.1596 14.6262 19.0682 14.7247 19.0471C14.8443 19.0189 14.9709 19.0541 15.1468 19.1807C15.2805 19.2792 15.5057 19.4409 15.6394 19.5323C15.7731 19.6308 16.0897 19.7644 16.343 19.8277C16.7299 19.9332 16.8566 19.9402 17.2014 19.8699C17.4969 19.8066 17.6728 19.7222 17.8416 19.5534C17.9683 19.4339 18.0879 19.2299 18.116 19.1174C18.1371 18.9979 18.116 18.808 18.0668 18.6954C18.0175 18.5759 17.919 18.4282 17.8487 18.3649C17.7713 18.2946 17.2084 18.0344 16.5892 17.7742C15.9701 17.521 15.3579 17.2327 15.2313 17.1412C15.1046 17.0498 14.9287 16.8107 14.8302 16.6208C14.7036 16.3677 14.6543 16.1567 14.6543 15.8613C14.6543 15.5941 14.7036 15.3479 14.8162 15.1088C14.9076 14.9119 15.0906 14.6658 15.2242 14.5532C15.3509 14.4407 15.5479 14.3071 15.6605 14.2438C15.766 14.1875 15.9419 14.1102 16.0475 14.082C16.153 14.0469 16.54 14.0328 16.9058 14.0399ZM21.9155 14.0188C23.2945 14.0188 23.3508 14.0258 23.5056 14.1805C23.6041 14.279 23.6604 14.4196 23.6604 14.5603C23.6604 14.729 23.6041 14.8275 23.4634 14.933C23.2945 15.0666 23.1679 15.0807 21.1978 15.0736V16.9725H23.2382L23.379 17.1623C23.4563 17.2749 23.5197 17.4014 23.5197 17.4436C23.5197 17.4929 23.4775 17.6124 23.4282 17.7109C23.379 17.8093 23.2734 17.9148 23.1819 17.957C23.0975 17.9922 22.612 18.0273 21.1978 18.0273V19.8558L22.2813 19.8699C23.2523 19.891 23.379 19.9051 23.5126 20.0316C23.6111 20.1231 23.6604 20.2567 23.6604 20.3973C23.6604 20.531 23.5971 20.6857 23.5197 20.7701C23.386 20.9037 23.2804 20.9107 20.4238 20.9107L20.2761 20.7138C20.1424 20.531 20.1354 20.4325 20.1494 14.3634L20.3183 14.1875C20.4872 14.0188 20.4872 14.0188 21.9155 14.0188ZM27.6709 14.0188C28.072 14.0188 28.4167 14.0609 28.7263 14.1524C28.9796 14.2297 29.3736 14.4126 29.6058 14.5673C29.838 14.715 30.1616 14.9893 30.3235 15.1862C30.4853 15.376 30.7175 15.7206 30.8301 15.9527C30.9426 16.1848 31.0693 16.5435 31.1115 16.7404C31.1537 16.9443 31.1889 17.2678 31.1889 17.4647C31.1889 17.6546 31.1396 18.0273 31.0834 18.2876C31.0271 18.5548 30.8652 18.9557 30.7245 19.1877C30.5908 19.4198 30.3446 19.7433 30.1827 19.9121C30.0209 20.0809 29.7465 20.3059 29.5706 20.4184C29.3947 20.531 29.064 20.6857 28.8318 20.7701C28.5997 20.8474 28.2197 20.9318 27.9875 20.9529C27.7553 20.974 27.3613 20.96 27.108 20.9107C26.8547 20.8685 26.4537 20.7349 26.2074 20.6224C25.9612 20.5099 25.5742 20.2356 25.3279 20.0035C25.0887 19.7785 24.7932 19.4128 24.6665 19.1807C24.5399 18.9486 24.3921 18.5759 24.3288 18.3438C24.2725 18.1117 24.2233 17.7179 24.2233 17.4647C24.2233 17.2116 24.2725 16.8177 24.3288 16.5857C24.3921 16.3536 24.5258 16.009 24.6314 15.8191C24.7369 15.6292 24.948 15.3268 25.1098 15.151C25.2646 14.9752 25.5671 14.715 25.7712 14.5814C25.9823 14.4477 26.3622 14.2649 26.6155 14.1805C26.9392 14.068 27.2417 14.0188 27.6709 14.0188ZM26.2778 15.5026C26.1159 15.6152 25.8838 15.8402 25.7641 16.002C25.6516 16.1707 25.4897 16.4802 25.4053 16.6912C25.2927 16.9936 25.2716 17.1975 25.2927 17.6054C25.3138 17.9852 25.3701 18.2383 25.5038 18.5196C25.6023 18.7306 25.8415 19.0471 26.0315 19.2159C26.2145 19.3917 26.5451 19.6097 26.7562 19.7081C27.0658 19.8488 27.2558 19.884 27.7061 19.884C28.1564 19.884 28.3464 19.8488 28.6559 19.7081C28.867 19.6097 29.1766 19.4057 29.3455 19.251C29.5214 19.0963 29.7465 18.7798 29.8732 18.5196C30.0702 18.1188 30.0983 17.9922 30.0983 17.4647C30.0983 16.9725 30.0631 16.7966 29.9154 16.4802C29.8169 16.2692 29.6058 15.9598 29.444 15.791C29.2821 15.6292 28.9796 15.4112 28.7756 15.3057C28.48 15.158 28.2901 15.1158 27.8116 15.0947C27.3824 15.0807 27.1221 15.1018 26.8969 15.1862C26.721 15.2495 26.4466 15.3901 26.2778 15.5026Z" fill="#FF7B1C"/>
</svg>
