<svg width="40" height="42" viewBox="0 0 40 42" fill="none" xmlns="http://www.w3.org/2000/svg">
<path fill-rule="evenodd" clip-rule="evenodd" d="M19.4557 1.0023H21.9405C24.4095 0.994489 24.4174 0.994489 24.7924 1.18201C24.9956 1.28359 25.269 1.48674 25.4097 1.6352C25.5503 1.77584 25.7222 2.03369 25.8004 2.20559C25.9097 2.45562 25.941 2.79161 25.9566 3.92457C25.9801 5.19037 26.0035 5.34664 26.1363 5.51072C26.2223 5.60448 26.4958 5.75294 26.738 5.8467C26.988 5.93265 27.4725 6.12799 27.8162 6.28426C28.2616 6.4796 28.496 6.54211 28.6367 6.50304C28.7461 6.47179 29.2696 6.0186 29.8087 5.4951C30.5979 4.72155 30.8635 4.5184 31.1761 4.40901C31.387 4.33088 31.723 4.27618 31.9184 4.27618C32.1293 4.27618 32.4419 4.36213 32.6997 4.47933C33.0357 4.6356 33.4576 5.01066 34.7078 6.25301C36.0361 7.58131 36.3174 7.90948 36.4971 8.30016C36.6768 8.69865 36.7003 8.8393 36.669 9.23779C36.6456 9.49563 36.5674 9.83162 36.4893 9.98007C36.4112 10.1285 35.9345 10.6755 35.4266 11.1912C34.9266 11.7069 34.489 12.2148 34.4578 12.3241C34.4265 12.457 34.5203 12.7773 34.7703 13.379C34.9735 13.8556 35.1844 14.3635 35.2469 14.5119C35.3094 14.6604 35.4345 14.8245 35.5282 14.8792C35.6454 14.9417 36.208 14.9807 37.0753 15.0042C38.1692 15.0198 38.5052 15.0511 38.7552 15.1605C38.9271 15.2386 39.185 15.4105 39.3256 15.5511C39.4741 15.6918 39.6616 15.9418 39.7554 16.1137C39.9194 16.4106 39.9273 16.5356 39.9507 18.8094C39.9663 20.5909 39.9507 21.2785 39.8726 21.5441C39.8179 21.7395 39.6772 22.0286 39.56 22.1927C39.435 22.3489 39.2084 22.5677 39.0443 22.6693C38.8881 22.7709 38.5443 22.8959 38.2864 22.9428C38.0286 22.9896 37.3332 23.0287 36.7393 23.0287C36.1533 23.0287 35.5985 23.06 35.5126 23.1068C35.4188 23.1537 35.2547 23.435 35.1141 23.7944C34.9813 24.1226 34.7625 24.6383 34.6375 24.943C34.4734 25.3259 34.4187 25.5525 34.4578 25.6853C34.489 25.7947 34.9266 26.3026 35.4345 26.8183C35.9345 27.334 36.4112 27.8809 36.4893 28.0294C36.5674 28.1778 36.6456 28.5138 36.669 28.7717C36.6924 29.1389 36.669 29.3264 36.5362 29.6312C36.4033 29.9437 36.0205 30.3656 34.6375 31.7486C33.0435 33.3348 32.856 33.4911 32.4653 33.6161C32.1918 33.702 31.9105 33.7411 31.684 33.7098C31.4886 33.6942 31.1761 33.5926 30.9807 33.4989C30.762 33.3895 30.1369 32.8347 29.3633 32.0612C28.1679 30.8813 28.0897 30.7876 28.0897 30.5063C28.0897 30.3031 28.1444 30.1625 28.2851 30.0218C28.4101 29.889 28.5585 29.8265 28.7304 29.8265C28.957 29.8265 29.1289 29.975 30.1994 31.0376C30.8635 31.6939 31.5042 32.28 31.6293 32.319C31.7465 32.3659 31.9184 32.3893 32.0121 32.3659C32.1137 32.3425 32.9029 31.6158 33.7702 30.7407C35.1766 29.3421 35.3563 29.1311 35.3563 28.9123C35.3563 28.6857 35.2235 28.5138 34.3562 27.6153C33.4967 26.7323 33.3326 26.5214 33.2076 26.1541C33.1217 25.8728 33.0826 25.5994 33.1138 25.3728C33.1373 25.1774 33.3092 24.6539 33.5045 24.2007C33.692 23.7476 33.9108 23.224 33.9811 23.0287C34.0515 22.8334 34.2234 22.5365 34.364 22.3724C34.4968 22.2005 34.7859 21.9817 35.0047 21.8801C35.3563 21.716 35.5048 21.7004 36.6065 21.7004C37.2706 21.7004 37.9504 21.6613 38.1067 21.6223C38.3177 21.5676 38.4349 21.4738 38.5208 21.3097C38.6146 21.1144 38.638 20.7081 38.6146 18.8875C38.5989 16.731 38.5989 16.6997 38.4192 16.5278C38.2552 16.3559 38.177 16.3481 36.7393 16.3091C35.2782 16.27 35.2313 16.2622 34.8641 16.0512C34.6609 15.934 34.4109 15.723 34.3093 15.5824C34.2077 15.4496 33.9577 14.9261 33.7545 14.4338C33.5514 13.9415 33.317 13.3399 33.231 13.1055C33.1217 12.8008 33.0826 12.5585 33.1138 12.2851C33.1295 12.0663 33.2154 11.7694 33.2857 11.6209C33.3639 11.4725 33.8639 10.9021 34.3953 10.3473C35.2235 9.48782 35.3563 9.32374 35.3563 9.09714C35.3563 8.87836 35.1766 8.6674 33.7311 7.2297C32.2934 5.7842 32.0824 5.60449 31.8559 5.60449C31.6371 5.60449 31.4652 5.73732 30.5666 6.60462C29.7384 7.41723 29.4571 7.63601 29.1446 7.73759C28.9258 7.81572 28.6289 7.87042 28.4804 7.87042C28.3319 7.87042 28.0272 7.80009 27.8162 7.72196C27.5975 7.63601 27.0505 7.41723 26.5973 7.2297C26.1441 7.04999 25.6285 6.80777 25.4644 6.69838C25.3003 6.58899 25.0581 6.33115 24.6908 5.73732L24.6518 4.2293C24.6127 2.78379 24.6049 2.70566 24.433 2.54157C24.2611 2.36186 24.2298 2.36186 22.0733 2.34623C20.2527 2.32279 19.8464 2.34623 19.6511 2.44C19.487 2.52595 19.3932 2.64315 19.3385 2.85411C19.2995 3.01039 19.2604 3.69016 19.2604 4.35432C19.2604 5.45603 19.2448 5.60449 19.0807 5.95609C18.9791 6.17487 18.7603 6.46398 18.5884 6.59681C18.4244 6.73745 18.1274 6.90935 17.9321 6.97967C17.7368 7.04999 17.2133 7.26877 16.7601 7.4563C16.3069 7.65164 15.7834 7.82353 15.588 7.84697C15.3614 7.87823 15.088 7.83916 14.8067 7.75321C14.4394 7.6282 14.2285 7.46411 13.3377 6.60462C12.4704 5.76076 12.2673 5.60449 12.0641 5.60449C11.8532 5.60449 11.6109 5.80764 10.2279 7.19064C9.35282 8.05794 8.61835 8.84711 8.59491 8.94087C8.57147 9.04245 8.59491 9.21435 8.64179 9.33936C8.68086 9.45657 9.26687 10.0973 9.92321 10.7614C10.7593 11.5975 11.1343 12.0272 11.1343 12.1522C11.1343 12.246 11.0952 12.4023 11.0406 12.5039C10.9937 12.5976 10.8999 12.7148 10.8296 12.7695C10.7593 12.8242 10.5796 12.8633 10.4311 12.8633C10.1811 12.8711 10.0482 12.7617 8.89964 11.5975C8.11828 10.8161 7.57133 10.1989 7.46194 9.98007C7.36818 9.78474 7.2666 9.47219 7.25098 9.27685C7.21972 9.05026 7.25879 8.76897 7.34474 8.4955C7.46976 8.10482 7.62603 7.9173 9.21218 6.32333C10.5952 4.94033 11.0171 4.55747 11.3297 4.42464C11.6344 4.29181 11.8219 4.26837 12.1891 4.29181C12.447 4.31525 12.783 4.39338 12.9314 4.47152C13.0799 4.54966 13.6268 5.02628 14.1425 5.52635C14.6582 6.03423 15.1661 6.47179 15.2755 6.50304C15.4161 6.54211 15.7052 6.45616 16.3303 6.1905C16.807 5.99516 17.3226 5.76857 17.4945 5.69825C17.6586 5.62793 17.8227 5.50291 17.8618 5.43259C17.9009 5.35445 17.9321 4.8075 17.9321 4.22149C17.9321 3.62766 17.9712 2.93225 18.0181 2.6744C18.0649 2.41656 18.1821 2.08057 18.2837 1.93212C18.3775 1.78366 18.5259 1.59613 18.6041 1.52581C18.69 1.45549 18.9088 1.30703 19.1041 1.19764L19.4557 1.0023ZM13.283 14.3557C14.9239 14.3557 15.1114 14.3713 15.4318 14.5197C15.6271 14.6057 15.885 14.7698 16.01 14.887C16.135 15.0042 16.3147 15.2698 16.4163 15.4886C16.5647 15.7934 16.6038 16.0121 16.6038 16.5044C16.6038 16.8482 16.6507 17.2154 16.7054 17.3248C16.7601 17.4342 16.9945 17.6139 17.268 17.7546C17.5258 17.8796 17.8462 17.9812 17.979 17.989C18.1743 17.989 18.3228 17.8952 18.6822 17.5514C18.9401 17.3092 19.2917 17.0357 19.4714 16.942C19.6589 16.856 19.9558 16.7544 20.1355 16.731C20.3543 16.6997 20.6356 16.7232 20.9403 16.8169C21.3857 16.942 21.4716 17.0123 22.714 18.2468C23.9564 19.4892 24.0189 19.5751 24.1517 20.0205C24.2298 20.3174 24.2611 20.6065 24.2298 20.8175C24.2064 21.005 24.1048 21.3019 24.011 21.4816C23.9251 21.6691 23.6516 22.0208 23.4094 22.2708C23.0578 22.638 22.9718 22.7787 22.9797 22.974C22.9797 23.1147 23.089 23.435 23.2141 23.6929C23.3469 23.9663 23.5188 24.2007 23.636 24.2554C23.7454 24.3101 24.1126 24.357 24.4564 24.357C24.9487 24.357 25.1675 24.3961 25.4722 24.5445C25.6831 24.6461 25.9566 24.8258 26.0738 24.9508C26.191 25.0759 26.3551 25.3337 26.4411 25.529C26.5895 25.8494 26.6051 26.0369 26.6051 27.6778C26.6051 29.2405 26.5817 29.514 26.4645 29.7874C26.3864 29.9593 26.1988 30.225 26.0504 30.3734C25.9019 30.5219 25.6441 30.7172 25.4722 30.7954C25.2612 30.897 24.9174 30.9673 24.4174 30.9985C24.011 31.022 23.6204 31.0689 23.5579 31.1001C23.4954 31.1235 23.3469 31.3423 23.2219 31.5767C23.1047 31.819 22.9875 32.0924 22.964 32.1862C22.9406 32.2878 22.964 32.4519 23.0109 32.5612C23.0656 32.6706 23.3156 32.9754 23.5657 33.241C23.9251 33.6239 24.0579 33.827 24.1517 34.1786C24.2298 34.4678 24.2611 34.749 24.2298 34.96C24.2064 35.1475 24.1048 35.4444 24.0189 35.6242C23.9251 35.8117 23.3547 36.4602 22.7453 37.0775C22.0108 37.8276 21.5107 38.2573 21.2529 38.3902C20.9716 38.5308 20.7294 38.5855 20.3934 38.5933C20.0808 38.5933 19.8074 38.5412 19.573 38.437C19.3776 38.3511 18.9869 38.0698 18.69 37.8041C18.4009 37.5385 18.0962 37.3275 18.0102 37.3275C17.9243 37.3275 17.6664 37.3978 17.4477 37.4838C17.2211 37.5697 16.9476 37.726 16.8382 37.8432C16.6663 38.0229 16.6351 38.1245 16.596 38.8355C16.5725 39.359 16.51 39.7185 16.4241 39.8825C16.3538 40.0232 16.1741 40.2498 16.0334 40.3904C15.8928 40.5311 15.6115 40.7264 15.4083 40.8202C15.0645 40.9921 14.9473 40.9999 13.283 40.9999C11.65 40.9999 11.5015 40.9842 11.189 40.8358C11.0093 40.742 10.7436 40.5623 10.603 40.4217C10.4545 40.2888 10.267 40.0388 10.1732 39.8669C10.056 39.6325 10.0013 39.3668 9.97791 38.8121C9.96228 38.4058 9.9154 38.0073 9.87633 37.9292C9.83726 37.8588 9.57942 37.6869 9.29813 37.5619C9.01684 37.4291 8.7043 37.3275 8.59491 37.3275C8.46468 37.3275 8.22507 37.4864 7.87606 37.8041C7.57915 38.0698 7.2041 38.3511 7.0322 38.4292C6.82905 38.523 6.53994 38.5699 6.21177 38.5699C5.86798 38.5699 5.5945 38.523 5.35228 38.4136C5.11788 38.3042 4.61 37.8588 3.85208 37.1009C2.99259 36.2492 2.66442 35.8586 2.53159 35.5695C2.43002 35.3194 2.35969 35.0147 2.35969 34.749C2.35969 34.499 2.43001 34.1708 2.51596 33.9677C2.5941 33.7723 2.8832 33.3739 3.14886 33.0848C3.46922 32.7331 3.6333 32.4987 3.6333 32.3659C3.6333 32.2565 3.52391 31.944 3.3989 31.6627C3.27388 31.3814 3.10198 31.1235 3.02384 31.0845C2.95352 31.0454 2.55503 30.9985 2.14873 30.9829C1.59396 30.9595 1.3283 30.9048 1.0939 30.7876C0.921999 30.6938 0.671965 30.5063 0.539135 30.3578C0.398491 30.2172 0.226593 29.975 0.148458 29.8265C0.0156272 29.5843 0 29.3577 0 27.6778C0 25.9588 0.0156271 25.7791 0.156271 25.49C0.24222 25.3181 0.437559 25.0602 0.586016 24.9118C0.734474 24.7633 1.00013 24.5758 1.17203 24.4977C1.383 24.4039 1.67991 24.357 2.08622 24.357C2.4222 24.357 2.81288 24.3101 2.94571 24.2554C3.15668 24.1695 3.24262 24.0523 3.43015 23.6069C3.59423 23.2084 3.6333 23.0053 3.59423 22.8334C3.56298 22.7005 3.33639 22.388 3.08635 22.1301C2.83632 21.8723 2.57066 21.5285 2.50815 21.3644C2.43783 21.2082 2.38313 20.8565 2.38313 20.5831C2.38313 20.2236 2.43001 19.997 2.57066 19.7079C2.70349 19.4345 3.12542 18.9657 3.9224 18.1765C4.60218 17.5123 5.21164 16.981 5.39135 16.9029C5.56325 16.8247 5.86017 16.7388 6.0555 16.7154C6.2821 16.6919 6.55557 16.7232 6.83686 16.8247C7.14159 16.9185 7.40725 17.0982 7.73542 17.403C7.99326 17.6452 8.28237 17.8874 8.37613 17.9343C8.50896 18.0046 8.62616 18.0046 8.84494 17.9343C9.00903 17.8874 9.29031 17.778 9.47784 17.6842C9.66536 17.5905 9.83726 17.4655 9.8607 17.403C9.89196 17.3404 9.93103 16.9498 9.96228 16.5435C9.99353 16.0434 10.056 15.6996 10.1576 15.4886C10.2436 15.3167 10.4389 15.0589 10.5874 14.9104C10.7358 14.762 11.0015 14.5744 11.1734 14.4963C11.4469 14.3791 11.7203 14.3557 13.283 14.3557ZM11.3297 16.1684C11.314 16.27 11.2828 16.6294 11.275 16.9732C11.2515 17.3873 11.1968 17.6999 11.0952 17.9108C11.0093 18.0827 10.814 18.3484 10.6577 18.4968C10.4936 18.6609 10.1107 18.8797 9.72006 19.0438C9.20436 19.2548 8.96214 19.3095 8.59491 19.3016C8.33706 19.3016 7.99326 19.2391 7.82918 19.1688C7.67291 19.0985 7.31349 18.8328 7.0322 18.575C6.75091 18.3171 6.44618 18.0827 6.3446 18.0593C6.25084 18.0358 6.07113 18.0671 5.9383 18.1296C5.80547 18.1921 5.25852 18.7 4.71157 19.2548C3.76613 20.2002 3.71925 20.2705 3.71925 20.5674C3.71925 20.8409 3.77395 20.9347 4.16462 21.3488C4.40684 21.6066 4.68032 21.9583 4.75845 22.1301C4.8444 22.302 4.93035 22.638 4.94598 22.8724C4.96942 23.2162 4.93035 23.4272 4.73501 23.9273C4.61 24.2711 4.39903 24.693 4.27401 24.8649C4.149 25.0446 3.86771 25.2712 3.62549 25.404C3.27388 25.5994 3.09417 25.6384 2.50034 25.6619C2.10966 25.6775 1.71898 25.74 1.62522 25.7869C1.52364 25.8416 1.41425 25.9588 1.36737 26.0526C1.32049 26.1541 1.28924 26.8886 1.28924 27.7168C1.28924 29.1702 1.28924 29.2014 1.47676 29.4124C1.65647 29.6155 1.71898 29.6312 2.4769 29.6702C3.15668 29.7093 3.33639 29.7484 3.6333 29.9203C3.82864 30.0297 4.06305 30.2015 4.15681 30.3031C4.25057 30.4047 4.46154 30.7719 4.62562 31.1157C4.88347 31.6627 4.91472 31.8111 4.92254 32.3268C4.92254 32.7488 4.87566 32.991 4.77408 33.1863C4.69594 33.3348 4.42247 33.6786 4.17244 33.9442C3.78176 34.3662 3.71144 34.4756 3.71144 34.7256C3.71144 34.9991 3.78957 35.1007 4.82096 36.132C5.86016 37.1712 5.96174 37.2494 6.2274 37.2494C6.47744 37.2494 6.59464 37.1791 7.00876 36.7884C7.28223 36.5383 7.62603 36.2649 7.77448 36.1867C7.96982 36.0773 8.21204 36.0383 8.63398 36.0383C9.14967 36.0383 9.29813 36.0773 9.84508 36.3352C10.1889 36.4993 10.5561 36.7102 10.6499 36.804C10.7514 36.8978 10.9312 37.1322 11.0406 37.3275C11.2124 37.6244 11.2515 37.8041 11.2906 38.4839C11.3297 39.2418 11.3453 39.3043 11.5406 39.4841C11.7594 39.6638 11.7828 39.6716 13.244 39.6716C14.0722 39.6716 14.8067 39.6325 14.9004 39.5934C15.002 39.5466 15.1192 39.4372 15.1739 39.3356C15.2208 39.2418 15.2755 38.8433 15.2989 38.4605C15.3224 37.8666 15.3614 37.6869 15.5568 37.3353C15.6896 37.0931 15.9162 36.8118 16.0959 36.6868C16.2678 36.5618 16.6897 36.3508 17.0335 36.218C17.5336 36.0305 17.7446 35.9914 18.0884 36.0148C18.3228 36.0305 18.6431 36.1086 18.7916 36.1789C18.9401 36.2492 19.2995 36.5149 19.5886 36.7727C20.0261 37.1634 20.1668 37.2494 20.3934 37.2494C20.6356 37.2494 20.7762 37.14 21.7217 36.2102C22.4327 35.5226 22.8078 35.0928 22.8546 34.9209C22.9093 34.749 22.9015 34.6162 22.8468 34.4912C22.7921 34.3974 22.5734 34.124 22.3468 33.8895C22.1202 33.6551 21.8701 33.3192 21.792 33.1473C21.7217 32.9754 21.6592 32.6238 21.6514 32.3659C21.6435 31.9987 21.706 31.7486 21.917 31.2329C22.0811 30.8188 22.2921 30.4672 22.464 30.2953C22.6124 30.139 22.8781 29.9515 23.05 29.8656C23.2609 29.764 23.5657 29.7015 23.9876 29.6859C24.3314 29.678 24.6908 29.6468 24.7846 29.6233C24.8862 29.6077 25.0346 29.514 25.1206 29.4124C25.269 29.2483 25.2768 29.1311 25.2847 27.6778C25.2847 26.2401 25.269 26.0994 25.1284 25.9197C24.9956 25.74 24.9096 25.7166 24.2064 25.6697C23.7845 25.6462 23.3 25.5681 23.1281 25.49C22.9562 25.4197 22.6984 25.2478 22.5577 25.1149C22.4093 24.9743 22.1983 24.6696 22.0733 24.4351C21.9561 24.2007 21.792 23.7944 21.7217 23.5366C21.6331 23.224 21.6071 22.9636 21.6435 22.7552C21.6748 22.5833 21.7529 22.3177 21.8154 22.1692C21.8779 22.0208 22.1202 21.7004 22.3468 21.466C22.5734 21.2316 22.7999 20.9503 22.8546 20.8409C22.9093 20.7315 22.925 20.5596 22.8937 20.4502C22.8625 20.3408 22.3936 19.8017 21.8545 19.2548C21.3076 18.7 20.7684 18.1999 20.6434 18.1374C20.5184 18.0671 20.3465 18.0437 20.2137 18.0827C20.0965 18.1062 19.7683 18.3562 19.4714 18.6297C19.0573 19.0204 18.8541 19.1454 18.4947 19.2469C18.1196 19.3563 17.979 19.3642 17.6196 19.286C17.3852 19.2391 16.9632 19.0907 16.6819 18.9657C16.4006 18.8328 16.0412 18.5984 15.885 18.4343C15.7287 18.2781 15.5333 18.0046 15.463 17.8327C15.3927 17.6608 15.3146 17.1764 15.2833 16.7466C15.2442 16.0512 15.2208 15.9653 15.0411 15.8324C14.8614 15.6918 14.7207 15.6762 13.2752 15.6762C11.8219 15.684 11.6969 15.6918 11.5406 15.8402C11.4469 15.9262 11.3531 16.0746 11.3297 16.1684ZM22.2296 10.402C23.3469 10.4254 23.6126 10.4567 24.2064 10.6364C24.5814 10.7458 25.1049 10.9333 25.3706 11.0427C25.6441 11.1521 26.0738 11.3709 26.3317 11.5272C26.5895 11.6756 26.9958 11.9491 27.2302 12.1288C27.4646 12.3163 27.8475 12.6523 28.0819 12.8789C28.3085 13.1133 28.6445 13.4962 28.8242 13.7306C29.0039 13.965 29.2774 14.3713 29.4337 14.6291C29.5899 14.887 29.8087 15.3167 29.9181 15.5824C30.0275 15.8559 30.215 16.3794 30.3244 16.7544C30.4807 17.2936 30.5354 17.6764 30.5666 18.5359C30.5979 19.2235 30.5744 19.8798 30.5119 20.294C30.465 20.6612 30.3322 21.2394 30.2228 21.5832C30.1134 21.927 29.8868 22.4896 29.7071 22.8334C29.5352 23.1772 29.2539 23.6694 29.082 23.9273C28.9023 24.1851 28.5663 24.5992 28.3319 24.8493C27.9647 25.2321 27.8553 25.2946 27.6209 25.2946C27.4386 25.2946 27.2901 25.2373 27.1755 25.1227C27.0896 25.0212 27.0036 24.8727 26.9958 24.7868C26.988 24.7008 26.9802 24.568 26.988 24.4898C26.988 24.4195 27.199 24.1304 27.4412 23.8569C27.6912 23.5757 28.0585 23.0756 28.2694 22.7396C28.4726 22.4036 28.7617 21.7785 28.9101 21.3488C29.0664 20.8878 29.2149 20.2471 29.2774 19.7861C29.3477 19.1844 29.3477 18.825 29.2852 18.2234C29.2305 17.7936 29.0977 17.1451 28.9805 16.7779C28.8711 16.4106 28.6835 15.934 28.582 15.723C28.4726 15.5043 28.2538 15.137 28.0975 14.9026C27.9413 14.6682 27.6053 14.2463 27.3474 13.9728C27.0896 13.6993 26.6833 13.3243 26.4489 13.1446C26.2145 12.9649 25.7925 12.6914 25.5113 12.5351C25.23 12.3788 24.683 12.1444 24.3001 12.0194C23.9173 11.8866 23.2453 11.7381 22.8156 11.6834C22.2139 11.6131 21.8545 11.6053 21.2529 11.6756C20.8231 11.7225 20.1355 11.871 19.7292 12.0038C19.3229 12.1366 18.69 12.4179 18.3228 12.6367C17.9555 12.8476 17.4086 13.2383 17.1117 13.4962C16.6819 13.8634 16.51 13.965 16.3069 13.965C16.1428 13.965 15.9865 13.8947 15.8615 13.7696C15.7365 13.6446 15.6662 13.4884 15.6662 13.3399C15.6662 13.168 15.7599 12.9961 16.01 12.7304C16.1975 12.5273 16.6116 12.1835 16.9242 11.9647C17.2445 11.7381 17.7836 11.4178 18.1274 11.2537C18.4712 11.0818 19.0026 10.8552 19.2995 10.7614C19.5964 10.6599 20.0886 10.5348 20.3934 10.4801C20.7528 10.4098 21.3779 10.3864 22.2296 10.402ZM13.283 21.7082C13.8691 21.7004 14.3144 21.7473 14.6895 21.841C14.9864 21.9192 15.463 22.0911 15.7443 22.2161C16.0256 22.3489 16.4632 22.5911 16.721 22.7709C16.9788 22.9428 17.3852 23.2944 17.6274 23.5444C17.8618 23.7944 18.1665 24.1617 18.2993 24.357C18.4244 24.5524 18.6119 24.8805 18.7135 25.0993C18.8072 25.3103 18.9557 25.7009 19.0416 25.9588C19.151 26.287 19.2057 26.7245 19.237 27.4434C19.2682 28.3419 19.2526 28.5451 19.0807 29.2014C18.9791 29.6077 18.7369 30.2562 18.5494 30.6313C18.3462 31.0454 18.0649 31.4752 17.854 31.6783C17.6586 31.8737 17.2914 32.1862 17.0335 32.3659C16.7757 32.5534 16.3381 32.8269 16.0569 32.9754C15.7756 33.1316 15.2677 33.3348 14.9239 33.4364C14.4238 33.577 14.1035 33.6083 13.3221 33.6161C12.6189 33.6161 12.2048 33.577 11.8375 33.4754C11.5562 33.3973 11.1187 33.241 10.8608 33.1238C10.603 33.0144 10.1889 32.7878 9.93884 32.6237C9.69662 32.4597 9.30594 32.1393 9.07935 31.9127C8.86057 31.6861 8.56365 31.3501 8.43082 31.1548C8.29799 30.9595 8.07921 30.5922 7.94638 30.3344C7.82137 30.0765 7.63384 29.6155 7.54008 29.3186C7.44632 29.0139 7.35255 28.4513 7.32911 28.0684C7.29786 27.6465 7.3213 27.1074 7.37599 26.7401C7.43069 26.3963 7.57915 25.8494 7.70416 25.529C7.82137 25.2087 8.06359 24.7242 8.2433 24.4508C8.4152 24.1851 8.7043 23.8022 8.89182 23.6069C9.07154 23.4038 9.41533 23.0912 9.64974 22.9115C9.88414 22.7318 10.3373 22.4505 10.6499 22.2942C10.9546 22.138 11.4859 21.9426 11.8141 21.8645C12.2204 21.7629 12.7127 21.7082 13.283 21.7082Z" fill="#FF7B1C"/>
</svg>
