<svg width="10" height="9" viewBox="0 0 10 9" fill="none" xmlns="http://www.w3.org/2000/svg">
<path d="M4.08155 1.13274C4.42863 0.32678 5.57137 0.326779 5.91845 1.13274L6.38743 2.22175C6.5322 2.55793 6.84907 2.78815 7.21353 2.82195L8.39416 2.93145C9.26793 3.01249 9.62106 4.0993 8.9618 4.67845L8.07101 5.461C7.79603 5.70257 7.67499 6.07507 7.75547 6.43214L8.01616 7.58882C8.2091 8.44487 7.2846 9.11656 6.53007 8.66853L5.51056 8.06316C5.19584 7.87629 4.80416 7.87628 4.48944 8.06316L3.46993 8.66853C2.7154 9.11656 1.7909 8.44487 1.98384 7.58882L2.24453 6.43214C2.32501 6.07507 2.20397 5.70257 1.92899 5.461L1.0382 4.67845C0.37894 4.0993 0.732067 3.01249 1.60584 2.93145L2.78647 2.82195C3.15093 2.78815 3.4678 2.55793 3.61257 2.22175L4.08155 1.13274Z" fill="#FFCC00"/>
</svg>
