<svg width="39" height="42" viewBox="0 0 39 42" fill="none" xmlns="http://www.w3.org/2000/svg">
<mask id="path-1-inside-1_300_847" fill="white">
<path fill-rule="evenodd" clip-rule="evenodd" d="M25.2626 4C25.7679 4 26.2794 4.01877 26.3994 4.05006C26.5194 4.0876 26.791 4.14392 26.9994 4.18146C27.2078 4.22526 27.6057 4.3379 27.8836 4.43176C28.1615 4.52562 28.5467 4.68205 28.7362 4.77591C28.9256 4.86977 29.2667 5.07 29.494 5.22018C29.7214 5.3641 30.1193 5.67071 30.3782 5.88971C30.6372 6.11498 30.9782 6.44662 31.1361 6.62808C31.294 6.8158 31.5087 7.07861 31.6161 7.21627C31.7234 7.35393 31.9003 7.61674 32.0076 7.7982C32.1213 7.97341 32.3234 8.38639 32.456 8.69926C32.595 9.01838 32.7655 9.50645 32.835 9.78178C32.9044 10.0571 32.9865 10.6077 33.0244 11.002C33.0623 11.4713 33.0623 11.9656 33.0244 12.4099C32.9929 12.7916 32.9234 13.2796 32.8665 13.5049C32.816 13.7302 32.7023 14.1118 32.6139 14.3496C32.5255 14.5874 32.336 15.0129 32.1908 15.2882C32.0455 15.5636 31.7929 15.9703 31.6224 16.1955C31.4582 16.4208 31.1045 16.8213 30.8329 17.0966C30.5677 17.3657 30.1319 17.7474 29.873 17.9413C29.614 18.1353 29.172 18.4106 28.8941 18.5546C28.6162 18.6985 28.193 18.8862 27.9467 18.9738C27.7004 19.0551 27.3089 19.174 27.0626 19.2303C26.8163 19.2867 26.3236 19.3555 25.9573 19.3805C25.591 19.4118 24.9847 19.4118 24.5995 19.3805C24.2143 19.3492 23.6332 19.2616 23.3048 19.174C22.9764 19.0927 22.4648 18.9175 22.168 18.7923C21.8712 18.6609 21.3596 18.3794 21.0312 18.1603C20.7028 17.9476 20.1913 17.5409 19.8944 17.253C19.5976 16.9652 19.225 16.5585 19.0608 16.352C18.9029 16.1455 18.6376 15.7388 18.4671 15.4447C18.2966 15.1506 18.0503 14.6062 17.924 14.2245C17.785 13.8303 17.6461 13.2296 17.5829 12.8166C17.5135 12.316 17.4882 11.878 17.5135 11.3774C17.5324 10.9832 17.5956 10.4325 17.6524 10.1572C17.7092 9.88189 17.8292 9.44388 17.9177 9.18733C18.0061 8.93078 18.164 8.54908 18.265 8.34259C18.3724 8.1361 18.6061 7.74189 18.7892 7.46656C18.9724 7.19124 19.345 6.7282 19.6165 6.44036C19.8944 6.15252 20.3555 5.73328 20.6523 5.51427C20.9491 5.29527 21.4733 4.97614 21.8207 4.80094C22.168 4.62573 22.6354 4.43176 22.8627 4.36293C23.0901 4.30035 23.5132 4.18772 23.8101 4.12515C24.189 4.0438 24.6184 4.00626 25.2626 4V4ZM23.4311 6.15252C23.2417 6.2151 22.869 6.37153 22.6101 6.50293C22.3512 6.63434 21.9091 6.92217 21.6312 7.14118C21.3533 7.36019 20.9302 7.77943 20.6965 8.06727C20.4565 8.3551 20.1407 8.84318 19.9828 9.15604C19.8313 9.46891 19.6418 9.94447 19.5723 10.2198C19.465 10.6203 19.4334 10.9144 19.4271 11.659C19.4271 12.3535 19.4523 12.7102 19.5344 13.0356C19.5976 13.2734 19.7239 13.6738 19.8123 13.9116C19.9071 14.1494 20.1218 14.5624 20.2986 14.8189C20.4691 15.0755 20.8102 15.4947 21.0565 15.7513C21.3028 16.0016 21.6754 16.3332 21.8838 16.4771C22.0922 16.6273 22.4712 16.8526 22.7238 16.9715C22.9701 17.0966 23.3869 17.253 23.6395 17.3219C23.8858 17.3907 24.3532 17.472 24.6627 17.5033C25.0226 17.5409 25.4647 17.5409 25.8626 17.5033C26.21 17.472 26.6647 17.4032 26.8731 17.3469C27.0815 17.2968 27.511 17.1279 27.8204 16.9777C28.1299 16.8275 28.572 16.571 28.7993 16.3958C29.0267 16.2268 29.3804 15.9077 29.5888 15.6887C29.7972 15.4697 30.0814 15.1193 30.214 14.9128C30.353 14.7063 30.5551 14.3371 30.6687 14.0993C30.7824 13.8616 30.915 13.4924 30.9719 13.2859C31.0224 13.0794 31.0982 12.6414 31.1298 12.316C31.174 11.9406 31.174 11.5025 31.1361 11.1271C31.1045 10.8017 31.035 10.37 30.9782 10.176C30.9277 9.97575 30.8077 9.63786 30.7193 9.42511C30.6308 9.2061 30.4035 8.80563 30.2203 8.53031C30.0372 8.25499 29.6519 7.80446 29.3614 7.52914C29.0709 7.25381 28.6604 6.91592 28.452 6.77826C28.2436 6.64685 27.8899 6.45287 27.6625 6.35276C27.4352 6.25264 27.0373 6.11498 26.7784 6.05241C26.4815 5.97106 26.0015 5.921 25.4837 5.90223C24.9469 5.88346 24.5111 5.90223 24.2206 5.95855C23.9806 6.00235 23.6206 6.08995 23.4311 6.15252ZM18.9787 19.4556C19.0481 19.4556 19.2502 19.4869 19.4208 19.5307C19.6229 19.5808 20.1407 19.8623 20.8418 20.3004C21.448 20.682 22.048 21.045 22.168 21.1075C22.288 21.1701 22.6859 21.3266 23.0522 21.458C23.4185 21.5831 23.9553 21.7333 24.2521 21.7896C24.549 21.8459 25.1111 21.896 25.5153 21.896C26.0015 21.896 26.4247 21.8584 26.8099 21.7708C27.1194 21.7083 27.6499 21.5518 27.9783 21.4329C28.3067 21.314 28.692 21.1639 28.8309 21.095C28.9699 21.0199 29.4814 20.7133 29.9677 20.4067C30.454 20.0939 30.9971 19.7685 31.1677 19.6871C31.3445 19.5995 31.5782 19.5119 31.6919 19.4869C31.7992 19.4681 32.1845 19.4806 32.5444 19.5182C32.8981 19.5557 33.4286 19.6558 33.7255 19.7435C34.0223 19.8248 34.477 20.0063 34.7359 20.1439C34.9949 20.2753 35.4054 20.5381 35.6454 20.7196C35.8854 20.8948 36.239 21.2264 36.4348 21.4517C36.6243 21.677 36.8959 22.0399 37.0411 22.2652C37.1927 22.4904 37.4074 22.8659 37.5337 23.1099C37.6537 23.3539 37.8495 23.8045 37.9695 24.1111C38.0958 24.4239 38.279 25.0246 38.3863 25.4564C38.4937 25.8881 38.6389 26.589 38.7084 27.0207C38.7779 27.4525 38.8474 27.9844 38.8726 28.2096C38.8916 28.4349 38.9358 29.0481 38.9674 29.5737C39.0179 30.3309 39.0116 30.6688 38.9358 31.2319C38.8853 31.6136 38.7842 32.1267 38.7084 32.3707C38.6326 32.6148 38.4811 32.9902 38.3674 33.2155C38.2537 33.4408 38.0074 33.8099 37.8242 34.0477C37.6348 34.2792 37.2874 34.6296 37.0411 34.8236C36.7948 35.0176 36.3401 35.2929 36.0306 35.4431C35.7212 35.587 35.2033 35.7747 34.3254 36H16.6419L16.0735 35.8498C15.7577 35.7747 15.2778 35.5995 14.9999 35.4744C14.722 35.3492 14.3367 35.1302 14.1473 34.9926C13.9578 34.8486 13.5978 34.5295 13.3578 34.273C13.0421 33.9351 12.8337 33.641 12.6189 33.2155C12.4547 32.8901 12.2779 32.4521 12.221 32.2456C12.1705 32.0391 12.101 31.6762 12.0632 31.4321C12.0316 31.1881 12 30.6875 12 30.3058C12 29.9304 12.0316 29.2233 12.0632 28.7415C12.101 28.2597 12.1895 27.4963 12.2589 27.052C12.3347 26.6077 12.4863 25.8694 12.6 25.4251C12.7137 24.9808 12.9284 24.3176 13.0673 23.9546C13.2063 23.5917 13.4715 23.0473 13.6484 22.7345C13.8252 22.4278 14.1031 22.0023 14.2673 21.7959C14.4252 21.5894 14.7094 21.2765 14.8862 21.095C15.0694 20.9136 15.3978 20.6445 15.6125 20.5006C15.8335 20.3567 16.2125 20.1502 16.4525 20.0375C16.6924 19.9249 17.1093 19.7747 17.3682 19.7059C17.6271 19.6308 18.0692 19.5495 18.3471 19.5182C18.625 19.4932 18.9092 19.4619 18.9787 19.4556ZM17.6019 21.5956C17.3872 21.6707 17.0461 21.8334 16.8377 21.9523C16.6356 22.0712 16.3135 22.3402 16.1177 22.5467C15.9219 22.7532 15.6504 23.1036 15.4988 23.3289C15.3536 23.5542 15.1641 23.8795 15.0757 24.0485C14.9873 24.2237 14.8041 24.6993 14.6652 25.1122C14.5262 25.5252 14.3367 26.2323 14.2546 26.6766C14.1662 27.1208 14.0652 27.7466 14.0273 28.0532C13.9894 28.3661 13.9452 29.1357 13.9262 29.774C13.8947 30.7 13.901 31.0317 13.9831 31.4321C14.0399 31.7075 14.1725 32.1142 14.2862 32.3395C14.4062 32.5898 14.6336 32.8901 14.8673 33.1216C15.082 33.3281 15.423 33.5909 15.6314 33.6973C15.8398 33.8037 16.1935 33.9476 16.4209 34.0102C16.8124 34.1165 17.2861 34.1228 25.4837 34.1228C33.7128 34.1228 34.1549 34.1165 34.5465 34.0039C34.7738 33.9413 35.1149 33.8162 35.3043 33.7161C35.4938 33.6222 35.8348 33.3782 36.0496 33.1779C36.3401 32.9151 36.5169 32.6836 36.6685 32.3707C36.7885 32.1267 36.9274 31.7388 36.978 31.4947C37.0285 31.2507 37.0727 30.7501 37.0727 30.3684C37.0727 29.993 37.0411 29.2859 37.0095 28.8041C36.9716 28.3223 36.8895 27.5901 36.8201 27.1772C36.7506 26.7642 36.618 26.1447 36.5232 25.8005C36.4348 25.4564 36.2769 24.9621 36.1759 24.7055C36.0685 24.449 35.9169 24.0986 35.8285 23.9233C35.7401 23.7544 35.5317 23.4165 35.3675 23.1725C35.2033 22.9284 34.8875 22.5718 34.6665 22.3653C34.4454 22.165 34.1044 21.921 33.9149 21.8271C33.7255 21.7333 33.4223 21.6081 33.2518 21.5518C33.075 21.4955 32.7402 21.4267 32.4939 21.3954C32.0834 21.3453 32.0329 21.3516 31.7676 21.5018C31.6097 21.5894 31.1866 21.8584 30.8203 22.0962C30.454 22.334 29.873 22.6594 29.5256 22.8283C29.1783 22.991 28.5846 23.2288 28.1994 23.3477C27.8141 23.4666 27.2331 23.6105 26.9047 23.6668C26.5636 23.7231 25.951 23.7669 25.4837 23.7669C25.0163 23.7669 24.4037 23.7231 24.0627 23.6668C23.7343 23.6105 23.1343 23.4603 22.7364 23.3289C22.3385 23.2038 21.7954 22.9973 21.5365 22.8784C21.2775 22.7595 20.5891 22.3653 20.0018 21.9961C19.4208 21.6269 18.9281 21.3328 18.9029 21.3328C18.8713 21.3391 18.6629 21.3641 18.4229 21.3954C18.1892 21.4267 17.8229 21.5143 17.6019 21.5956Z"/>
</mask>
<path fill-rule="evenodd" clip-rule="evenodd" d="M25.2626 4C25.7679 4 26.2794 4.01877 26.3994 4.05006C26.5194 4.0876 26.791 4.14392 26.9994 4.18146C27.2078 4.22526 27.6057 4.3379 27.8836 4.43176C28.1615 4.52562 28.5467 4.68205 28.7362 4.77591C28.9256 4.86977 29.2667 5.07 29.494 5.22018C29.7214 5.3641 30.1193 5.67071 30.3782 5.88971C30.6372 6.11498 30.9782 6.44662 31.1361 6.62808C31.294 6.8158 31.5087 7.07861 31.6161 7.21627C31.7234 7.35393 31.9003 7.61674 32.0076 7.7982C32.1213 7.97341 32.3234 8.38639 32.456 8.69926C32.595 9.01838 32.7655 9.50645 32.835 9.78178C32.9044 10.0571 32.9865 10.6077 33.0244 11.002C33.0623 11.4713 33.0623 11.9656 33.0244 12.4099C32.9929 12.7916 32.9234 13.2796 32.8665 13.5049C32.816 13.7302 32.7023 14.1118 32.6139 14.3496C32.5255 14.5874 32.336 15.0129 32.1908 15.2882C32.0455 15.5636 31.7929 15.9703 31.6224 16.1955C31.4582 16.4208 31.1045 16.8213 30.8329 17.0966C30.5677 17.3657 30.1319 17.7474 29.873 17.9413C29.614 18.1353 29.172 18.4106 28.8941 18.5546C28.6162 18.6985 28.193 18.8862 27.9467 18.9738C27.7004 19.0551 27.3089 19.174 27.0626 19.2303C26.8163 19.2867 26.3236 19.3555 25.9573 19.3805C25.591 19.4118 24.9847 19.4118 24.5995 19.3805C24.2143 19.3492 23.6332 19.2616 23.3048 19.174C22.9764 19.0927 22.4648 18.9175 22.168 18.7923C21.8712 18.6609 21.3596 18.3794 21.0312 18.1603C20.7028 17.9476 20.1913 17.5409 19.8944 17.253C19.5976 16.9652 19.225 16.5585 19.0608 16.352C18.9029 16.1455 18.6376 15.7388 18.4671 15.4447C18.2966 15.1506 18.0503 14.6062 17.924 14.2245C17.785 13.8303 17.6461 13.2296 17.5829 12.8166C17.5135 12.316 17.4882 11.878 17.5135 11.3774C17.5324 10.9832 17.5956 10.4325 17.6524 10.1572C17.7092 9.88189 17.8292 9.44388 17.9177 9.18733C18.0061 8.93078 18.164 8.54908 18.265 8.34259C18.3724 8.1361 18.6061 7.74189 18.7892 7.46656C18.9724 7.19124 19.345 6.7282 19.6165 6.44036C19.8944 6.15252 20.3555 5.73328 20.6523 5.51427C20.9491 5.29527 21.4733 4.97614 21.8207 4.80094C22.168 4.62573 22.6354 4.43176 22.8627 4.36293C23.0901 4.30035 23.5132 4.18772 23.8101 4.12515C24.189 4.0438 24.6184 4.00626 25.2626 4V4ZM23.4311 6.15252C23.2417 6.2151 22.869 6.37153 22.6101 6.50293C22.3512 6.63434 21.9091 6.92217 21.6312 7.14118C21.3533 7.36019 20.9302 7.77943 20.6965 8.06727C20.4565 8.3551 20.1407 8.84318 19.9828 9.15604C19.8313 9.46891 19.6418 9.94447 19.5723 10.2198C19.465 10.6203 19.4334 10.9144 19.4271 11.659C19.4271 12.3535 19.4523 12.7102 19.5344 13.0356C19.5976 13.2734 19.7239 13.6738 19.8123 13.9116C19.9071 14.1494 20.1218 14.5624 20.2986 14.8189C20.4691 15.0755 20.8102 15.4947 21.0565 15.7513C21.3028 16.0016 21.6754 16.3332 21.8838 16.4771C22.0922 16.6273 22.4712 16.8526 22.7238 16.9715C22.9701 17.0966 23.3869 17.253 23.6395 17.3219C23.8858 17.3907 24.3532 17.472 24.6627 17.5033C25.0226 17.5409 25.4647 17.5409 25.8626 17.5033C26.21 17.472 26.6647 17.4032 26.8731 17.3469C27.0815 17.2968 27.511 17.1279 27.8204 16.9777C28.1299 16.8275 28.572 16.571 28.7993 16.3958C29.0267 16.2268 29.3804 15.9077 29.5888 15.6887C29.7972 15.4697 30.0814 15.1193 30.214 14.9128C30.353 14.7063 30.5551 14.3371 30.6687 14.0993C30.7824 13.8616 30.915 13.4924 30.9719 13.2859C31.0224 13.0794 31.0982 12.6414 31.1298 12.316C31.174 11.9406 31.174 11.5025 31.1361 11.1271C31.1045 10.8017 31.035 10.37 30.9782 10.176C30.9277 9.97575 30.8077 9.63786 30.7193 9.42511C30.6308 9.2061 30.4035 8.80563 30.2203 8.53031C30.0372 8.25499 29.6519 7.80446 29.3614 7.52914C29.0709 7.25381 28.6604 6.91592 28.452 6.77826C28.2436 6.64685 27.8899 6.45287 27.6625 6.35276C27.4352 6.25264 27.0373 6.11498 26.7784 6.05241C26.4815 5.97106 26.0015 5.921 25.4837 5.90223C24.9469 5.88346 24.5111 5.90223 24.2206 5.95855C23.9806 6.00235 23.6206 6.08995 23.4311 6.15252ZM18.9787 19.4556C19.0481 19.4556 19.2502 19.4869 19.4208 19.5307C19.6229 19.5808 20.1407 19.8623 20.8418 20.3004C21.448 20.682 22.048 21.045 22.168 21.1075C22.288 21.1701 22.6859 21.3266 23.0522 21.458C23.4185 21.5831 23.9553 21.7333 24.2521 21.7896C24.549 21.8459 25.1111 21.896 25.5153 21.896C26.0015 21.896 26.4247 21.8584 26.8099 21.7708C27.1194 21.7083 27.6499 21.5518 27.9783 21.4329C28.3067 21.314 28.692 21.1639 28.8309 21.095C28.9699 21.0199 29.4814 20.7133 29.9677 20.4067C30.454 20.0939 30.9971 19.7685 31.1677 19.6871C31.3445 19.5995 31.5782 19.5119 31.6919 19.4869C31.7992 19.4681 32.1845 19.4806 32.5444 19.5182C32.8981 19.5557 33.4286 19.6558 33.7255 19.7435C34.0223 19.8248 34.477 20.0063 34.7359 20.1439C34.9949 20.2753 35.4054 20.5381 35.6454 20.7196C35.8854 20.8948 36.239 21.2264 36.4348 21.4517C36.6243 21.677 36.8959 22.0399 37.0411 22.2652C37.1927 22.4904 37.4074 22.8659 37.5337 23.1099C37.6537 23.3539 37.8495 23.8045 37.9695 24.1111C38.0958 24.4239 38.279 25.0246 38.3863 25.4564C38.4937 25.8881 38.6389 26.589 38.7084 27.0207C38.7779 27.4525 38.8474 27.9844 38.8726 28.2096C38.8916 28.4349 38.9358 29.0481 38.9674 29.5737C39.0179 30.3309 39.0116 30.6688 38.9358 31.2319C38.8853 31.6136 38.7842 32.1267 38.7084 32.3707C38.6326 32.6148 38.4811 32.9902 38.3674 33.2155C38.2537 33.4408 38.0074 33.8099 37.8242 34.0477C37.6348 34.2792 37.2874 34.6296 37.0411 34.8236C36.7948 35.0176 36.3401 35.2929 36.0306 35.4431C35.7212 35.587 35.2033 35.7747 34.3254 36H16.6419L16.0735 35.8498C15.7577 35.7747 15.2778 35.5995 14.9999 35.4744C14.722 35.3492 14.3367 35.1302 14.1473 34.9926C13.9578 34.8486 13.5978 34.5295 13.3578 34.273C13.0421 33.9351 12.8337 33.641 12.6189 33.2155C12.4547 32.8901 12.2779 32.4521 12.221 32.2456C12.1705 32.0391 12.101 31.6762 12.0632 31.4321C12.0316 31.1881 12 30.6875 12 30.3058C12 29.9304 12.0316 29.2233 12.0632 28.7415C12.101 28.2597 12.1895 27.4963 12.2589 27.052C12.3347 26.6077 12.4863 25.8694 12.6 25.4251C12.7137 24.9808 12.9284 24.3176 13.0673 23.9546C13.2063 23.5917 13.4715 23.0473 13.6484 22.7345C13.8252 22.4278 14.1031 22.0023 14.2673 21.7959C14.4252 21.5894 14.7094 21.2765 14.8862 21.095C15.0694 20.9136 15.3978 20.6445 15.6125 20.5006C15.8335 20.3567 16.2125 20.1502 16.4525 20.0375C16.6924 19.9249 17.1093 19.7747 17.3682 19.7059C17.6271 19.6308 18.0692 19.5495 18.3471 19.5182C18.625 19.4932 18.9092 19.4619 18.9787 19.4556ZM17.6019 21.5956C17.3872 21.6707 17.0461 21.8334 16.8377 21.9523C16.6356 22.0712 16.3135 22.3402 16.1177 22.5467C15.9219 22.7532 15.6504 23.1036 15.4988 23.3289C15.3536 23.5542 15.1641 23.8795 15.0757 24.0485C14.9873 24.2237 14.8041 24.6993 14.6652 25.1122C14.5262 25.5252 14.3367 26.2323 14.2546 26.6766C14.1662 27.1208 14.0652 27.7466 14.0273 28.0532C13.9894 28.3661 13.9452 29.1357 13.9262 29.774C13.8947 30.7 13.901 31.0317 13.9831 31.4321C14.0399 31.7075 14.1725 32.1142 14.2862 32.3395C14.4062 32.5898 14.6336 32.8901 14.8673 33.1216C15.082 33.3281 15.423 33.5909 15.6314 33.6973C15.8398 33.8037 16.1935 33.9476 16.4209 34.0102C16.8124 34.1165 17.2861 34.1228 25.4837 34.1228C33.7128 34.1228 34.1549 34.1165 34.5465 34.0039C34.7738 33.9413 35.1149 33.8162 35.3043 33.7161C35.4938 33.6222 35.8348 33.3782 36.0496 33.1779C36.3401 32.9151 36.5169 32.6836 36.6685 32.3707C36.7885 32.1267 36.9274 31.7388 36.978 31.4947C37.0285 31.2507 37.0727 30.7501 37.0727 30.3684C37.0727 29.993 37.0411 29.2859 37.0095 28.8041C36.9716 28.3223 36.8895 27.5901 36.8201 27.1772C36.7506 26.7642 36.618 26.1447 36.5232 25.8005C36.4348 25.4564 36.2769 24.9621 36.1759 24.7055C36.0685 24.449 35.9169 24.0986 35.8285 23.9233C35.7401 23.7544 35.5317 23.4165 35.3675 23.1725C35.2033 22.9284 34.8875 22.5718 34.6665 22.3653C34.4454 22.165 34.1044 21.921 33.9149 21.8271C33.7255 21.7333 33.4223 21.6081 33.2518 21.5518C33.075 21.4955 32.7402 21.4267 32.4939 21.3954C32.0834 21.3453 32.0329 21.3516 31.7676 21.5018C31.6097 21.5894 31.1866 21.8584 30.8203 22.0962C30.454 22.334 29.873 22.6594 29.5256 22.8283C29.1783 22.991 28.5846 23.2288 28.1994 23.3477C27.8141 23.4666 27.2331 23.6105 26.9047 23.6668C26.5636 23.7231 25.951 23.7669 25.4837 23.7669C25.0163 23.7669 24.4037 23.7231 24.0627 23.6668C23.7343 23.6105 23.1343 23.4603 22.7364 23.3289C22.3385 23.2038 21.7954 22.9973 21.5365 22.8784C21.2775 22.7595 20.5891 22.3653 20.0018 21.9961C19.4208 21.6269 18.9281 21.3328 18.9029 21.3328C18.8713 21.3391 18.6629 21.3641 18.4229 21.3954C18.1892 21.4267 17.8229 21.5143 17.6019 21.5956Z" fill="#FF7B1C" stroke="white" mask="url(#path-1-inside-1_300_847)"/>
<path d="M15 28.6316C15 26.7787 16.7304 25.412 18.5328 25.8411L23.838 27.1042C24.9307 27.3644 26.0693 27.3644 27.162 27.1042L32.4672 25.8411C34.2696 25.412 36 26.7787 36 28.6316C36 30.2158 34.7158 31.5 33.1316 31.5H17.8684C16.2842 31.5 15 30.2158 15 28.6316Z" fill="#FF7B1C"/>
</svg>
