<svg width="33" height="33" viewBox="0 0 33 33" fill="none" xmlns="http://www.w3.org/2000/svg">
<path fill-rule="evenodd" clip-rule="evenodd" d="M20.3337 0H31.3541L31.7407 0.180469C31.9663 0.290039 32.2434 0.496289 32.411 0.683203C32.5721 0.850781 32.759 1.12148 32.8299 1.28262C32.9072 1.45664 32.9717 1.77891 32.9845 2.08828C33.0168 2.57812 33.0103 2.61035 32.8492 2.77793C32.759 2.88105 32.6172 2.9584 32.5334 2.9584C32.4496 2.96484 32.3143 2.90684 32.2241 2.83594C32.0823 2.72637 32.0565 2.64902 32.0307 2.2043C32.005 1.75957 31.9727 1.65645 31.8052 1.44375C31.7021 1.3084 31.4958 1.14082 31.3541 1.07637C31.1156 0.973242 30.7483 0.960352 25.8761 0.960352C22.512 0.960352 20.5786 0.986133 20.4304 1.0248C20.308 1.06348 20.1211 1.17305 20.0244 1.26973C19.9213 1.36641 19.7988 1.52109 19.7473 1.62422C19.6699 1.76602 19.657 2.39766 19.657 5.21426C19.657 8.03086 19.6699 8.6625 19.7473 8.81074C19.7988 8.90742 19.9213 9.06211 20.0244 9.15879C20.1211 9.25547 20.2822 9.36504 20.3789 9.39727C20.482 9.43594 20.8235 9.46816 21.1393 9.46816C21.6807 9.46816 21.7322 9.48105 21.9191 9.64863C22.0222 9.74531 22.1447 9.90645 22.1769 10.016C22.222 10.1643 22.1898 10.4479 22.0093 11.2729C21.8869 11.8594 21.7838 12.3814 21.7838 12.433C21.7838 12.4846 22.4282 11.8852 23.2145 11.0988C24.1618 10.1578 24.7354 9.6293 24.8965 9.56484C25.0963 9.48105 25.5861 9.46816 28.1124 9.46816C30.8385 9.46816 31.1156 9.45527 31.3541 9.35215C31.4958 9.28769 31.7021 9.12012 31.9985 8.73984L32.063 4.49238L32.2241 4.36992C32.3143 4.29902 32.4496 4.24102 32.5334 4.24746C32.6108 4.24746 32.7461 4.31836 32.9974 4.56973L32.9845 6.71602C32.9652 8.84941 32.9652 8.85586 32.8041 9.20391C32.7139 9.39727 32.5076 9.67441 32.3401 9.8291C32.1661 9.98379 31.8954 10.1771 31.7278 10.2609C31.4249 10.4027 31.3669 10.4027 25.1994 10.4672L23.382 12.2912C21.7193 13.9541 21.5324 14.1152 21.294 14.1604C21.0426 14.2055 21.0104 14.1926 20.7913 13.967C20.6624 13.8316 20.5593 13.6576 20.5593 13.5803C20.5593 13.4965 20.6882 12.8262 20.8493 12.0785C21.0104 11.3309 21.1522 10.667 21.1715 10.5961C21.1973 10.4801 21.1587 10.4607 20.7333 10.4285C20.4497 10.4092 20.134 10.3318 19.9148 10.2352C19.7215 10.1449 19.4444 9.95801 19.3026 9.82266C19.1608 9.68086 18.9675 9.42305 18.7226 8.92031V1.5082L18.8837 1.18594C18.9675 1.01191 19.1608 0.747656 19.3026 0.605859C19.4444 0.470508 19.7344 0.277148 19.9471 0.174023L20.3337 0ZM11.4079 5.5043C13.2769 5.51719 13.554 5.53652 13.9858 5.65254C14.25 5.72344 14.6302 5.85879 14.8236 5.96191C15.0169 6.05859 15.3069 6.22617 15.468 6.33574C15.6292 6.44531 15.8998 6.68379 16.0738 6.86426C16.2543 7.03828 16.525 7.38633 16.6925 7.6377C16.8536 7.88262 17.0728 8.33379 17.1759 8.63672C17.3628 9.17812 17.3628 9.19746 17.4143 12.6006L17.569 12.7102C17.6528 12.7746 17.7817 12.9422 17.8526 13.084C17.9621 13.2967 17.9814 13.4707 17.9814 14.083C17.9814 14.4891 17.9492 14.9016 17.9106 14.9982C17.8783 15.0949 17.7688 15.2561 17.6721 15.3592C17.5754 15.4623 17.4208 15.5848 17.3176 15.6299C17.221 15.6814 16.9696 15.7459 16.3832 15.8232L16.3445 16.0811C16.3316 16.2229 16.2414 16.5709 16.1512 16.8545C16.0609 17.1381 15.8547 17.5893 15.6936 17.8664C15.5325 18.1436 15.2167 18.5625 14.9911 18.801C14.7656 19.0395 14.4627 19.323 14.0438 19.626L14.0502 20.1545C14.0502 20.4445 14.0631 20.6895 14.0824 20.6895C14.1018 20.6895 14.2758 20.6443 14.4691 20.5928C14.7785 20.5025 14.8622 20.5025 15.1587 20.5863C15.3714 20.6443 15.584 20.7604 15.7129 20.8957C15.8289 21.0117 16.0674 21.3211 16.5572 22.0752L17.801 22.4104C18.6581 22.6488 19.2317 22.8422 19.657 23.0549C20.1275 23.2869 20.3853 23.4609 20.772 23.8412C21.0555 24.1055 21.3907 24.5051 21.5195 24.7178C21.6549 24.9305 21.8418 25.3043 21.9449 25.5557C22.0416 25.8006 22.164 26.2518 22.2156 26.5547C22.2865 26.9736 22.3058 27.5602 22.2865 29.0684C22.2671 30.9568 22.2607 31.0471 22.1125 31.4209C21.9965 31.698 21.8418 31.9172 21.5324 32.2266C21.1909 32.5682 21.0169 32.6842 20.2048 32.9936L2.0632 33L1.62497 32.8195C1.38652 32.7229 1.07073 32.5359 0.916058 32.4135C0.761387 32.291 0.568048 32.0912 0.484268 31.9688C0.400488 31.8398 0.26515 31.5949 0.187815 31.4209C0.09759 31.2146 0.0331437 30.9053 0.0138098 30.583C-0.00552414 30.2994 0.000920489 29.9836 0.026699 29.8869C0.0524775 29.7709 0.13411 29.6828 0.271595 29.6227C0.419822 29.5582 0.54227 29.5518 0.658273 29.5904C0.761387 29.6227 0.864501 29.7064 0.903169 29.7773C0.935392 29.8482 0.967615 30.0867 0.967615 30.3059C0.967615 30.5314 1.01917 30.8537 1.07717 31.0277C1.15451 31.2404 1.28985 31.4338 1.48319 31.6078C1.66364 31.7689 1.89564 31.8979 2.08254 31.9494C2.2501 31.9945 2.64322 32.0332 3.54547 32.0332V30.8086C3.54547 30.1318 3.5648 29.5324 3.59058 29.4744C3.6228 29.4164 3.72592 29.3262 3.83548 29.2746C3.99659 29.1973 4.06104 29.1973 4.21571 29.2682C4.31882 29.3197 4.42838 29.4035 4.45416 29.468C4.48638 29.5324 4.51216 30.1318 4.51216 32.0332H17.7881V30.8086C17.7881 30.1189 17.8139 29.526 17.8526 29.4551C17.8912 29.3842 17.9943 29.2939 18.091 29.2553C18.2135 29.2102 18.323 29.2102 18.4326 29.2553C18.5228 29.2939 18.6324 29.3906 18.671 29.4809C18.729 29.5969 18.7548 30.0158 18.7548 32.0332L19.4766 32.0139C20.0308 31.9945 20.2628 31.9623 20.4304 31.8721C20.5529 31.8076 20.7397 31.6787 20.8364 31.5885C20.9395 31.4918 21.0878 31.3049 21.1586 31.1631C21.294 30.9117 21.3004 30.8344 21.3004 28.7783C21.3004 26.7545 21.294 26.6256 21.1586 26.2002C21.0813 25.9488 20.9073 25.5621 20.772 25.3365C20.6366 25.1045 20.3273 24.7371 20.076 24.5051C19.7988 24.2473 19.4508 24.0088 19.1737 23.8799C18.9224 23.7639 18.2135 23.5318 17.5948 23.3643C16.9761 23.1967 16.4347 23.0742 16.3896 23.0807C16.351 23.0936 15.7838 23.5705 15.1394 24.1377C14.4885 24.7049 13.8247 25.2334 13.6635 25.3107C13.4895 25.401 13.2575 25.459 13.0835 25.459C12.9224 25.4525 12.6775 25.4203 12.5422 25.3752C12.3939 25.3301 12.0588 25.098 11.7495 24.8273C11.453 24.5695 11.1888 24.3633 11.1501 24.3633C11.1115 24.3633 10.8601 24.5566 10.583 24.7887C10.3123 25.0271 9.97077 25.2721 9.82899 25.3365C9.6872 25.401 9.42297 25.4525 9.24897 25.4525C9.06207 25.4525 8.81073 25.401 8.63673 25.3172C8.47561 25.2463 7.80537 24.7113 7.13513 24.1313C6.47133 23.5447 5.89776 23.0742 5.86554 23.0742C5.82687 23.0742 5.29841 23.2031 4.68617 23.3643C4.08037 23.5318 3.35857 23.7639 3.09434 23.8928C2.73344 24.0668 2.48855 24.2408 2.1212 24.6082C1.83764 24.8918 1.55408 25.2527 1.45096 25.459C1.35429 25.6523 1.21251 25.9682 1.14807 26.168C1.07073 26.3871 1.00628 26.7867 0.980505 27.2314C0.948282 27.7664 0.916058 27.9727 0.825833 28.0822C0.742053 28.1854 0.638939 28.2305 0.484268 28.2305C0.310263 28.2305 0.226483 28.1854 0.129813 28.05C0.0202544 27.9082 -0.00552414 27.7793 0.000920489 27.3732C0.000920489 27.0961 0.0460329 26.6514 0.104035 26.3742C0.155592 26.0971 0.284484 25.6846 0.381154 25.459C0.477823 25.227 0.671162 24.866 0.8065 24.6533C0.948281 24.4406 1.21896 24.1119 1.39941 23.925C1.5863 23.7381 1.93431 23.4609 2.17276 23.2998C2.41766 23.1451 2.79789 22.9453 3.0299 22.8551C3.2619 22.7713 3.95792 22.565 5.70442 22.101L6.13621 21.4758C6.452 21.0053 6.63245 20.8055 6.84512 20.6895C7.03201 20.5863 7.22535 20.5348 7.44447 20.5348C7.61848 20.5348 7.86337 20.5863 8.1856 20.7539V20.1416C8.1856 19.7742 8.15983 19.5293 8.12116 19.5293C8.08249 19.5293 7.83759 19.3166 7.56692 19.0588C7.29624 18.801 6.96112 18.4336 6.83223 18.2402C6.69689 18.0404 6.50355 17.6988 6.38755 17.4797C6.27799 17.2605 6.12977 16.8674 6.05888 16.6096C5.98798 16.3518 5.92998 16.0682 5.92998 15.9844C5.92998 15.8297 5.9042 15.8168 5.5433 15.7717C5.33063 15.7459 5.07929 15.6814 4.97618 15.6363C4.87951 15.5848 4.7055 15.443 4.5895 15.3141C4.47994 15.1852 4.35749 14.9725 4.31882 14.8371C4.2866 14.7018 4.25438 14.3859 4.25438 14.1281C4.25438 13.8703 4.2866 13.5223 4.33171 13.3547C4.38327 13.1613 4.49927 12.9551 4.8924 12.5361L4.91818 10.8281C4.93751 9.24902 4.9504 9.08789 5.08574 8.70117C5.16952 8.46914 5.31774 8.12109 5.42086 7.92773C5.52397 7.72793 5.74953 7.39922 5.91709 7.18652C6.0911 6.97383 6.41333 6.65801 6.64534 6.48398C6.8709 6.30996 7.21891 6.09082 7.41225 5.9877C7.60559 5.89102 7.94071 5.76211 8.15338 5.69766C8.36605 5.6332 8.71406 5.5623 8.92674 5.53652C9.13941 5.51074 10.2543 5.49141 11.4079 5.5043ZM8.15338 6.72891C7.90848 6.82559 7.58625 6.98672 7.44447 7.0834C7.30269 7.18008 7.03201 7.41855 6.84512 7.61191C6.65823 7.79883 6.40689 8.14687 6.28444 8.37891C6.16843 8.60449 6.02021 8.97188 5.96865 9.18457C5.89131 9.47461 5.86554 9.90645 5.86554 11.0021V12.4395C6.452 12.4072 6.60667 12.3686 6.684 12.2912C6.78067 12.1945 6.80645 12.027 6.83868 11.3566C6.86445 10.7443 6.90312 10.4801 6.9869 10.3125C7.05135 10.1836 7.18024 10.0031 7.27691 9.9C7.36714 9.79688 7.55403 9.66152 7.68292 9.59707C7.83115 9.51973 8.06316 9.47461 8.26294 9.47461C8.48206 9.47461 8.83651 9.55195 9.24897 9.69375C9.60342 9.81621 10.0803 9.94512 10.3123 9.98379C10.5443 10.0225 10.9375 10.0482 11.1824 10.0482C11.4273 10.0482 11.8977 9.99668 12.2135 9.93223C12.5293 9.86133 12.9804 9.73242 13.2124 9.64219C13.4831 9.53262 13.7538 9.46816 13.9664 9.46816C14.1533 9.46816 14.4176 9.51328 14.5465 9.57129C14.6818 9.6293 14.8751 9.75176 14.9718 9.84844C15.0749 9.93867 15.2038 10.1062 15.2618 10.2158C15.3391 10.3512 15.3778 10.6477 15.4036 11.2664C15.4358 12.1043 15.4423 12.1301 15.6098 12.2783C15.7516 12.4008 15.8612 12.4395 16.1125 12.4395H16.4347C16.4347 10.2867 16.4025 9.51328 16.3638 9.32637C16.3252 9.13945 16.1898 8.77207 16.0674 8.50781C15.8998 8.15332 15.7129 7.89551 15.3778 7.56035C15.1007 7.28965 14.7656 7.02539 14.5336 6.90937C14.3209 6.7998 13.9858 6.66445 13.7924 6.6C13.4895 6.50332 13.1286 6.48398 11.4079 6.47109C10.293 6.4582 9.20386 6.47754 8.99118 6.50332C8.77851 6.53555 8.39828 6.63867 8.15338 6.72891ZM7.79893 11.5564C7.77315 12.2719 7.74737 12.4395 7.63137 12.6328C7.55403 12.7553 7.4058 12.9293 7.30913 13.0195C7.20602 13.1098 7.05779 13.2064 6.97401 13.2322L6.83223 13.2773C6.8709 15.9135 6.88379 16.0488 7.0449 16.5322C7.13513 16.8158 7.35425 17.2605 7.52825 17.5312C7.70226 17.7955 7.98582 18.1436 8.15983 18.3047C8.33383 18.4723 8.64962 18.7172 8.86229 18.859C9.07496 18.9943 9.49386 19.1941 9.79676 19.2973C10.2801 19.4584 10.4348 19.4842 11.1179 19.4842C11.685 19.4906 11.9944 19.4584 12.2779 19.3746C12.4906 19.3102 12.8966 19.1361 13.1802 18.9879C13.5411 18.801 13.8375 18.5818 14.1856 18.2402C14.5722 17.8535 14.7334 17.6279 14.9718 17.1445C15.1651 16.7514 15.3134 16.3453 15.3714 16.0295C15.4358 15.7072 15.468 15.1271 15.468 14.4053C15.468 13.2902 15.468 13.2709 15.3198 13.2322C15.2425 13.2064 15.0814 13.0969 14.9589 12.9873C14.8429 12.8777 14.6818 12.6779 14.6109 12.5361C14.5142 12.3299 14.4756 12.0979 14.4498 11.4727C14.4305 10.8475 14.3982 10.6348 14.3144 10.551C14.2564 10.4801 14.1211 10.435 13.9987 10.435C13.8891 10.435 13.67 10.493 13.5153 10.5574C13.3671 10.6219 12.9804 10.7443 12.6646 10.8281C12.1877 10.957 11.9235 10.9828 11.1501 10.9828C10.3768 10.9828 10.1125 10.957 9.63565 10.8281C9.31986 10.7443 8.93318 10.6219 8.77851 10.5574C8.63028 10.493 8.41117 10.4414 8.28872 10.4414C8.15338 10.4414 8.03093 10.4865 7.9536 10.5768C7.85048 10.6863 7.8247 10.841 7.79893 11.5564ZM5.21463 14.1088C5.22107 14.4697 5.24685 14.5922 5.34997 14.6953C5.42086 14.7662 5.56264 14.8242 5.6722 14.8242H5.86554V13.4062C5.4273 13.4062 5.33063 13.4385 5.27907 13.5287C5.24041 13.5932 5.21463 13.8574 5.21463 14.1088ZM16.4347 14.8242C16.7119 14.8242 16.8407 14.7855 16.9052 14.7404C17.0019 14.6695 17.0147 14.5729 17.0019 14.0508L16.9825 13.4385L16.4412 13.3934L16.4347 14.8242ZM9.1523 21.4951C10.6539 22.6682 11.1244 23.0033 11.1695 22.9969C11.221 22.984 11.6657 22.6617 12.1684 22.2686L13.0771 21.5596L13.0835 20.1094C12.5615 20.3027 12.1619 20.393 11.859 20.4381C11.5368 20.4832 11.0986 20.5025 10.7957 20.4768C10.5121 20.451 10.0803 20.3801 9.82899 20.3156C9.58409 20.2447 9.33275 20.1738 9.27475 20.148C9.18452 20.1029 9.17163 20.1803 9.16519 20.799L9.1523 21.4951ZM25.8117 3.09375C28.0931 3.09375 29.498 3.11309 29.6269 3.1582C29.7429 3.19043 29.8653 3.28066 29.904 3.35156C29.9362 3.42246 29.9685 3.54492 29.9685 3.62227C29.9685 3.70605 29.904 3.83496 29.6785 4.06055H21.9771L21.8482 3.88008C21.7709 3.7834 21.7129 3.66094 21.7193 3.60938C21.7193 3.55781 21.7644 3.4418 21.8224 3.36445C21.8804 3.28066 21.99 3.18398 22.0609 3.1582C22.1382 3.12598 23.8267 3.1002 25.8117 3.09375ZM29.7107 6.12305L29.8396 6.29707C29.9105 6.39375 29.9685 6.54199 29.9685 6.61934C29.9685 6.70312 29.8976 6.83848 29.6527 7.08984H25.9083C23.0469 7.08984 22.1318 7.07051 22.0093 7.00605C21.9191 6.96094 21.816 6.85781 21.7773 6.76758C21.7322 6.65156 21.7322 6.55488 21.7902 6.43242C21.8289 6.33574 21.9127 6.23262 21.9707 6.19395C22.0416 6.14883 23.3369 6.12305 29.7107 6.12305Z" fill="white"/>
</svg>
