<svg width="30" height="33" viewBox="0 0 30 33" fill="none" xmlns="http://www.w3.org/2000/svg">
<path fill-rule="evenodd" clip-rule="evenodd" d="M27.2968 0.014865L27.7193 0.184613C27.9497 0.277203 28.3184 0.508678 28.5258 0.693857C28.7408 0.879037 29.0327 1.2494 29.4475 2.02098L29.4705 16.2952C29.4859 28.5325 29.4705 30.6235 29.3784 30.9553C29.3169 31.1714 29.1479 31.5108 29.0097 31.7269C28.8714 31.9352 28.5872 32.2361 28.3721 32.3982C28.1648 32.5525 27.7653 32.7531 27.4888 32.8457C26.9972 33 26.8513 33 14.7383 33C3.93104 33 2.44091 32.9846 2.10294 32.8765C1.89556 32.8148 1.54991 32.6682 1.34252 32.5525C1.13513 32.4367 0.843252 32.2053 0.697312 32.0355C0.543691 31.8658 0.336303 31.534 0.0290605 30.8781L0.0060173 16.6039C-0.0093448 3.88821 -0.00166376 2.29103 0.105871 1.94382C0.175 1.73549 0.351665 1.38828 0.512967 1.17995C0.666588 0.963911 0.950787 0.678426 1.14281 0.531825C1.33484 0.39294 1.69585 0.207761 1.94932 0.130602C2.39482 -0.00828248 2.88641 -0.0159983 27.2968 0.014865ZM2.92482 3.22465C2.76352 3.44841 2.74047 3.55643 2.76352 3.92679C2.78656 4.28171 2.83264 4.40517 3.02467 4.60578C3.15525 4.73695 3.378 4.87583 3.52394 4.91441C3.70316 4.96585 3.89519 4.96071 4.10002 4.89898C4.269 4.85268 4.50711 4.70608 4.62233 4.57491C4.73755 4.44375 4.86044 4.21999 4.88349 4.0811C4.91421 3.9345 4.89117 3.6876 4.84508 3.51785C4.79131 3.34038 4.65305 3.13977 4.50711 3.03175C4.36886 2.92373 4.11538 2.82342 3.9464 2.80028C3.76205 2.76941 3.53162 2.79256 3.378 2.862C3.23206 2.91601 3.03235 3.08576 2.92482 3.22465ZM6.1355 3.39439C6.05101 3.57186 5.98188 3.7879 5.98188 3.87278C5.98188 3.95765 6.05101 4.17369 6.1355 4.35887C6.25071 4.59806 6.37361 4.72152 6.6194 4.83725C6.8652 4.96071 7.01882 4.98385 7.24925 4.94527C7.45664 4.9067 7.64866 4.79867 7.83301 4.61349C8.01735 4.42831 8.12489 4.23542 8.1633 4.02709C8.2017 3.79562 8.17866 3.6413 8.05576 3.38668C7.94054 3.14749 7.81765 3.02404 7.57954 2.9083C7.39519 2.82342 7.18012 2.75398 7.09563 2.75398C7.01114 2.75398 6.79607 2.82342 6.6194 2.9083C6.37361 3.02404 6.25071 3.14749 6.1355 3.39439ZM9.45371 3.29409C9.31545 3.50242 9.27705 3.6413 9.30009 3.91135C9.31545 4.10425 9.38458 4.35116 9.46139 4.47461C9.53052 4.59035 9.74559 4.75238 9.93762 4.83725C10.168 4.93756 10.3678 4.97614 10.5367 4.94527C10.6673 4.92213 10.8593 4.85268 10.9592 4.79096C11.0514 4.72923 11.1973 4.5672 11.2818 4.43603C11.3663 4.28943 11.4354 4.04252 11.4354 3.87278C11.4354 3.70303 11.3663 3.45612 11.2818 3.31724C11.1973 3.17835 11.0514 3.0086 10.9592 2.94688C10.8593 2.88515 10.6443 2.80799 10.4753 2.78484C10.2602 2.7617 10.0836 2.79256 9.89921 2.88515C9.75327 2.96231 9.55357 3.14749 9.45371 3.29409ZM14.6231 5.37736C14.3696 5.50081 13.8319 5.8866 13.4325 6.2261C13.0331 6.5656 12.48 6.9591 12.2035 7.1057C11.927 7.25231 11.4277 7.4452 11.0898 7.53779C10.4983 7.68439 10.2679 7.69211 5.77449 7.69211H1.066L1.10441 30.6467C1.40397 31.1791 1.64208 31.4414 1.81875 31.5726L2.15671 31.804H27.3198C27.8345 31.4414 28.0726 31.1791 28.1801 30.9939L28.3721 30.6467L28.4105 4.99157C18.333 5.007 15.5678 5.03786 15.3912 5.08416C15.2222 5.12274 14.8765 5.25391 14.6231 5.37736ZM22.934 9.3973C26.1523 9.3973 26.4596 9.40502 26.5825 9.52847C26.6593 9.60563 26.7207 9.76766 26.7207 9.91426C26.7207 10.0994 26.6593 10.2075 26.5056 10.3232C26.2983 10.4698 26.1984 10.4775 19.4928 10.4698L19.3008 10.2769C19.201 10.1766 19.1088 9.99914 19.1088 9.89112C19.1088 9.79081 19.1779 9.62878 19.2624 9.5439C19.416 9.3973 19.5236 9.38959 22.934 9.3973ZM22.9647 12.0901C26.3059 12.0901 26.4135 12.0978 26.5594 12.2444C26.6516 12.337 26.713 12.4991 26.713 12.6534C26.713 12.7923 26.6516 12.962 26.5825 13.0392C26.4596 13.1703 26.2061 13.1781 22.934 13.1781C19.5236 13.1703 19.416 13.1703 19.2624 13.016C19.1779 12.9311 19.1088 12.7614 19.1011 12.6379C19.1011 12.4759 19.1549 12.3679 19.3085 12.2522C19.5159 12.0978 19.6004 12.0901 22.9647 12.0901ZM22.934 14.8755C26.1523 14.8755 26.4596 14.8833 26.5825 15.0067C26.6593 15.0839 26.7207 15.2459 26.7207 15.3925C26.7207 15.5545 26.6516 15.7011 26.5441 15.8014C26.3751 15.948 26.2752 15.9558 22.9493 15.9558C19.6311 15.9558 19.5313 15.948 19.3239 15.8014C19.1779 15.6857 19.1088 15.5777 19.1088 15.4079C19.1088 15.2845 19.1779 15.107 19.2624 15.0221C19.416 14.8755 19.5236 14.8678 22.934 14.8755Z" fill="white"/>
<rect x="3.06348" y="9.79126" width="14.3786" height="6.04854" rx="3.02427" stroke="white"/>
<rect x="3.06348" y="18.7622" width="6.36893" height="10.8544" rx="3.18447" stroke="white"/>
<rect x="11.3936" y="18.7622" width="6.36893" height="10.8544" rx="3.18447" stroke="white"/>
<rect x="19.7227" y="18.7622" width="6.36893" height="10.8544" rx="3.18447" stroke="white"/>
</svg>
